<svg fill="none" height="60" viewBox="0 0 98 60" width="98" xmlns="http://www.w3.org/2000/svg"><path d="m50.5444 10.0518c3.2229 3.7629 4.5386 8.7978 3.5687 13.6564 5.059-2.0178 7.0216-5.401 7.6188-8.7842 0 0 1.7244-6.41123 4.4052-9.07622-5.2971.83133-5.8324-1.247-15.5927 4.20922" fill="#19b99a"/><path d="m42.4413 16.6052c-1.059-3.2712-2.8851-6.2416-5.326-8.66322 0 0 7.3662 1.93626 11.607 15.68472-4.0014-1.2075-5.7088-5.1563-6.2889-7.0215zm9.1144 8.9973c.1184-.6577 2.0704-7.3084-1.7968-12.7094-6.4757-7.17677-16.236-8.18436-16.236-8.18436 1.9047 3.6831 1.9652 7.12156 4.0462 14.13256 2.5216 7.2584 11.8254 7.7477 12.5147 7.7609.6248.9865 2.0572 2.3151 5.3365 3.0017l.3631-1.7284c-2.8294-.592-3.8647-1.6811-4.2198-2.2809" fill="#19b99a"/><g fill="#0a2540"><path d="m34.5671 2.59622c-4.1159 1.93889-5.7667 6.67168-5.7667 13.90638 0 7.1031 1.6482 11.8648 5.7667 13.9431l-.4617 1.7758c-6.3257-2.2177-9.1933-7.1478-9.1933-15.69 0-8.60794 2.8676-13.54067 9.1933-15.711065z"/><path d="m65.0468.820435c6.331 2.167765 9.192 7.103125 9.192 15.708465 0 8.55-2.8676 13.4749-9.1933 15.6742l-.4933-1.7731c4.1212-2.0705 5.7667-6.8401 5.7667-13.9432 0-7.23469-1.6482-11.96222-5.7667-13.90111z"/><path d="m9.0198 54.5675c-1.34439.5162-2.77697.7637-4.21662.7284-3.5466 0-5.250849-1.5365-4.702225-5.4176.505994-3.6606 1.905355-5.1564 5.615975-5.1564 1.45782-.024 2.90743.2229 4.27501.7285l-.50414 2.2426-3.30379-.0203c-1.50038 0-2.0073.5059-2.25103 2.3242-.26412 2.0017.08248 2.365 1.54115 2.365 1.0966.0065 2.19273-.0473 3.28341-.1612z"/><path d="m14.9405 50.1805c-.2835 2.0629-.1019 2.5466 1.2178 2.5466 1.277 0 1.6838-.5449 2.0073-2.8302.3234-2.1018.1019-2.5948-1.1362-2.5948-1.3373 0-1.7432.5041-2.0889 2.8728zm7.033.0018c-.5561 3.7811-2.087 5.1137-5.9468 5.1137-3.8599 0-5.4863-1.4549-4.92-5.3972.53-3.82 2.0684-5.1768 5.9829-5.1768 3.871 0 5.4529 1.4976 4.8857 5.4603"/><path d="m29.8595 47.0833c-1.5412 0-1.9054.3225-2.2102 2.6485-.2428 1.8201-.2836 2.5467.6283 2.4874.8543-.083 1.6551-.4535 2.2714-1.0509l.5458-4.0776zm3.8302 7.9698h-2.8988l-.0399-1.6977c-1.0276 1.1195-2.4383 1.8121-3.9525 1.9405-2.3511 0-3.4048-1.6588-2.8997-5.4992.556-4.2055 2.2102-5.0748 4.3788-5.0748 1.0878-.0003 2.1734.0977 3.2435.2929-.0104-.6904.0373-1.3805.1427-2.0629l.3439-2.0388h3.6856z"/><path d="m42.3251 49.0684c.9128-.0816 1.3975-.2224 1.4828-1.0917.0611-.6672-.203-.7896-1.2178-.7692-1.2381.0204-1.6431.3837-1.9665 2.0221zm4.035 5.4195c-1.4723.5736-3.044.8483-4.6235.8081-4.2972 0-5.4677-1.8794-5.0887-5.3973.4634-4.1832 2.3734-5.1748 6.0006-5.1748 3.9738 0 5.0183 1.3141 4.7022 3.6142-.2845 1.8813-1.5615 2.4188-4.224 2.6282l-2.7375.2021c.0426 1.0731.568 1.2751 1.7042 1.2751.8897 0 2.7876-.1019 4.0118-.2428z"/></g><g fill="#19b99a"><path d="m55.2792 42.1622c-1.2382 0-1.7432.2836-1.9258 1.5754l-.2224 1.4624h3.0582l-.2048 1.5069h-3.0582l-1.3382 9.4823c-.0262.8169-.3852 1.5876-.9937 2.1333s-1.4136.8189-2.2286.7562c-.8195-.0056-1.638-.0601-2.4511-.1631l.3048-1.4568h1.5199c1.2177 0 1.7228-.2836 1.9072-1.5754l1.2974-9.1747h-1.7608l.1854-1.416 1.8043-.1001.2437-1.7608c.0243-.8175.3851-1.5887.9971-2.1312s1.4209-.8082 2.2354-.7342c.9679-.012 1.9357.0351 2.8979.1408l-.3235 1.4643z"/><path d="m64.5236 46.7644h-.5561c-1.112 0-2.1889.7414-3.9024 2.0018l-.8721 6.2869h-1.9674l1.3975-9.866h1.5013l-.1019 2.265c1.5754-1.6162 3.1203-2.5281 4.4603-2.5281h.5273z"/><path d="m71.3556 49.5131c1.2167-.0797 1.7431-.4226 1.9044-1.5569.1853-1.3549-.5051-1.3901-2.087-1.3901-2.0045 0-2.6949.5449-3.1203 3.2547zm2.8376 5.2175c-1.3207.4033-2.697.5947-4.0776.5671-3.4289 0-4.6012-1.7607-4.1165-5.438.5282-3.8422 1.8849-4.9339 5.4677-4.9339 3.2435 0 4.0349 1.214 3.7504 3.1953-.3234 1.961-1.4586 2.669-3.8709 2.8507l-3.4289.3039c-.0204 1.9814.9119 2.3836 2.492 2.3836 1.0963 0 2.5142-.1205 3.6503-.2428z"/><path d="m79.6235 50.16c-1.4179-.6673-2.087-1.4346-1.9053-2.8729.2233-1.8794 1.5819-2.4095 4.1768-2.365 1.4176.024 2.8322.1391 4.2351.3447l-.2437 1.3901c-1.2557-.0389-2.4327-.0815-3.9321-.1019-1.6227 0-2.2307.0408-2.3326.8693-.1001.7413.3707.9508 1.1779 1.3141l2.6764 1.214c1.5393.708 2.1694 1.3345 1.9646 2.8506-.303 2.2445-1.9053 2.467-4.6837 2.467-1.282.0027-2.5625-.0921-3.8301-.2836l.2233-1.455c.9128.0797 2.1889.102 3.1018.102 2.4938 0 3.1425-.2021 3.263-1.012.1214-.7266-.3707-.8489-1.2372-1.253z"/><path d="m91.4655 44.7831c-.1148.8175-.2773 1.6276-.4865 2.4262 1.719-1.5161 3.1555-2.2872 4.5771-2.2872.7276-.0942 1.4535.1863 1.9286.7454.4751.5592.6348 1.3208.4244 2.0237l-1.0537 7.3582h-1.9462l.9527-6.8726c.1622-1.2344-.0612-1.5977-.9119-1.5977-1.2177 0-2.3919.8285-4.0887 2.163l-.8721 6.3018h-1.9711l2.0063-14.1512h1.9462z"/></g></svg>