<svg width="136" height="33" viewBox="0 0 136 33" fill="none" xmlns="http://www.w3.org/2000/svg">
<path fill-rule="evenodd" clip-rule="evenodd" d="M80.1732 0.0501065C78.9093 0.208635 77.7953 0.760041 76.8727 1.6837C76.0046 2.55283 75.4983 3.48622 75.2197 4.73116C75.1437 5.07067 75.127 5.3411 75.1096 6.52L75.0891 7.90885H73.96H72.831V9.88656V11.8643H73.9643H75.0976V17.553V23.2417H77.3642H79.6308V17.553V11.8643H81.3196H83.0085V9.88656V7.90885H81.3196H79.6308V6.89599C79.6308 5.80664 79.6635 5.57105 79.8725 5.15884C80.0193 4.86894 80.3776 4.48513 80.706 4.26585C81.2757 3.88541 81.9096 3.81666 82.6085 4.05945C82.7918 4.12314 82.96 4.18034 82.9822 4.18651C83.0045 4.19274 83.3292 3.47787 83.704 2.5979C84.3341 1.11834 84.3795 0.9935 84.308 0.938702C84.1771 0.838438 83.4921 0.506582 83.164 0.384452C82.2385 0.0398847 81.1894 -0.0773563 80.1732 0.0501065ZM6.21207 7.02665C5.09704 7.14305 4.04876 7.53424 2.922 8.25448C1.98002 8.85664 0.969611 9.82257 0.324608 10.7376C0.140258 10.9991 -0.00573758 11.2171 0.000173349 11.2221C0.134925 11.3349 3.44171 13.2865 3.49811 13.2865C3.52002 13.2865 3.67704 13.1014 3.84708 12.8754C4.01707 12.6493 4.33351 12.2943 4.55021 12.0865C5.87964 10.812 7.22631 10.5313 8.05166 11.3567C8.80697 12.112 8.56422 12.9171 7.18076 14.2455C6.62384 14.7802 4.83367 16.3495 2.41917 18.4196L0.656731 19.9307L0.656065 21.5863L0.655398 23.242L7.22187 23.2307L13.7883 23.2195V21.2196V19.2196L10.3802 19.1974L6.97201 19.1752L7.29017 18.9085C8.82711 17.6205 11.8023 14.9805 12.0634 14.6731C12.7606 13.8526 13.1239 13.0318 13.2344 12.0276C13.3547 10.934 13.0829 9.98869 12.376 9.04179C11.6241 8.03475 10.6763 7.46655 9.27367 7.18193C8.29877 6.98412 7.16871 6.92679 6.21207 7.02665ZM62.4013 7.11309C59.9049 7.40397 57.6718 8.78651 56.3063 10.8865C55.9873 11.3771 55.5366 12.3107 55.3677 12.8307C55.0779 13.723 54.9599 14.7358 55.0168 15.8419C55.1347 18.1345 56.3724 20.4091 58.2879 21.8538C59.7964 22.9915 61.3923 23.5123 63.3631 23.5099C65.3189 23.5075 66.897 22.9805 68.4409 21.8142C69.9439 20.6789 71.1282 18.8062 71.4943 16.9863C71.9769 14.587 71.4479 12.2761 69.971 10.3319C68.9677 9.0113 67.6556 8.07449 66.0271 7.51601C64.901 7.12985 63.548 6.9795 62.4013 7.11309ZM127.123 7.16296C125.099 7.27549 122.998 8.2531 121.627 9.7207C120.467 10.9619 119.715 12.4896 119.445 14.1531C119.357 14.6968 119.37 16.0988 119.469 16.6368C119.69 17.8439 120.323 19.2368 121.132 20.296C121.644 20.9656 122.541 21.7817 123.315 22.2817C125.397 23.6266 127.911 23.9765 130.201 23.2402C131.107 22.949 132.308 22.2772 133.091 21.6231C134.643 20.3276 135.551 18.7384 135.923 16.6641C136.026 16.0943 136.026 15.003 135.923 14.4742C135.803 13.8494 135.446 12.9357 134.82 11.6506C134.698 11.3987 134.604 11.1859 134.613 11.1778C134.622 11.1697 134.924 11.0377 135.285 10.8845L135.94 10.6059V9.05739V7.50886H133.048C130.332 7.50886 130.134 7.50357 129.814 7.42268C128.871 7.18411 128.093 7.109 127.123 7.16296ZM111.252 7.26233C109.952 7.51037 109.131 7.93125 108.13 8.86388L107.763 9.20539V8.35714V7.50886H105.63H103.497V15.3753V23.2417H105.674H107.852V19.0442C107.852 16.503 107.871 14.6223 107.899 14.2777C107.976 13.3428 108.142 12.9852 108.803 12.3304C109.511 11.6298 110.316 11.4161 111.304 11.6663C111.647 11.7531 112.229 12.0415 112.458 12.2384C112.695 12.4412 112.955 12.8345 113.079 13.1748C113.262 13.6788 113.274 14.0275 113.274 18.7419L113.274 23.2417H115.454H117.633L117.619 17.6086L117.606 11.9754L117.503 11.4878C117.05 9.33427 116.127 8.16257 114.407 7.55552C113.889 7.37255 113.402 7.26055 112.865 7.20109C112.243 7.13229 111.857 7.14696 111.252 7.26233ZM38.2113 7.28962C36.9317 7.53526 36.1221 7.97667 35.2381 8.91059L34.8766 9.29249V8.42287V7.5533H32.7433H30.61V15.4197V23.2862H32.8081H35.0061L35.0213 18.5641C35.0345 14.4555 35.0454 13.8131 35.1053 13.6198C35.3611 12.7939 36.1619 11.9637 36.935 11.7232C37.2624 11.6213 37.853 11.6164 38.2256 11.7125C39.0647 11.929 39.629 12.496 39.8804 13.3753C39.9582 13.6474 39.9638 13.9424 39.9766 18.453L39.9902 23.2417H42.1644H44.3387L44.3555 18.7196C44.3734 13.9186 44.371 13.9744 44.5838 13.3818C44.7524 12.9127 45.303 12.2673 45.8131 11.941C46.2017 11.6924 46.4395 11.6256 46.9429 11.6234C47.3993 11.6214 47.7592 11.7065 48.1727 11.914C48.4603 12.0583 48.8527 12.4623 49.0195 12.7859C49.3647 13.4553 49.3643 13.4489 49.3647 18.653L49.365 23.2417H51.5447H53.7245L53.708 18.3641C53.6936 14.1267 53.6817 13.4149 53.6175 12.9417C53.4371 11.6121 53.1055 10.4158 52.7276 9.73101C52.1922 8.76069 51.4242 8.04538 50.4133 7.57517C49.7129 7.24944 49.5534 7.21949 48.5428 7.22371C47.7619 7.22696 47.586 7.24167 47.0939 7.34482C45.7173 7.63348 44.9142 8.07728 43.5832 9.28498C43.2583 9.57973 43.242 9.58866 43.1992 9.49524C43.1222 9.32712 42.5847 8.689 42.3136 8.44376C41.9871 8.14831 41.4089 7.76543 41.0298 7.59352C40.2168 7.22491 39.1484 7.10967 38.2113 7.28962ZM90.786 7.35815C89.7598 7.51081 88.3667 8.08915 87.4541 8.74135C86.9791 9.08077 86.1463 9.8643 85.7644 10.331C84.7185 11.6094 84.1938 12.9673 84.0814 14.6864C83.9638 16.4874 84.3423 18.2343 85.1242 19.4988C86.3627 21.5019 88.3122 22.8603 90.5002 23.2448C91.1977 23.3674 92.3153 23.3799 92.9099 23.2718C94.0534 23.0638 95.102 22.5639 95.9969 21.7998L96.3414 21.5058V22.3737V23.2417H98.5635H100.786V15.3749V7.50806L98.4858 7.51957L96.1858 7.53108L96.1738 8.38399L96.1617 9.23694L95.7071 8.78184C95.0081 8.082 94.3764 7.71396 93.4887 7.4893C92.6693 7.28193 91.6357 7.23176 90.786 7.35815ZM16.1216 9.33076V11.2415L19.4864 11.2529L22.8511 11.2643L20.5752 13.2149L18.2993 15.1654V16.3328V17.5002L20.1104 17.5225C21.9977 17.5458 22.2079 17.5643 22.7861 17.7584C23.8865 18.1278 24.4365 18.9089 24.4382 20.1044C24.4389 20.6054 24.3421 21.084 24.179 21.3844C23.9302 21.8432 23.4583 22.2609 23.0084 22.4206C22.6712 22.5404 21.5643 22.676 21.1881 22.6437C20.5106 22.5854 19.9685 22.4038 19.4548 22.063C19.1727 21.8757 18.706 21.421 18.1127 20.7555L17.8179 20.4247L17.6475 20.5781C17.5538 20.6625 16.9029 21.2481 16.2011 21.8794L14.9251 23.0274L15.6195 23.8345C16.7474 25.1455 16.9832 25.3616 17.6549 25.6994C18.1115 25.9291 18.2685 25.9878 18.8195 26.1348C19.4922 26.3144 20.1148 26.3931 21.1214 26.4259C22.6509 26.4757 23.889 26.2385 25.0831 25.6665C26.3764 25.0471 27.2708 24.1704 27.8561 22.9484C28.6583 21.2735 28.6738 19.1785 27.8954 17.6343C27.498 16.8462 26.8242 16.0599 26.1763 15.6283C25.615 15.2545 24.5451 14.7986 23.9547 14.6817C23.8752 14.666 23.8102 14.639 23.8102 14.6218C23.8102 14.6046 24.7402 13.7151 25.8769 12.6451L27.9435 10.6997V9.05983V7.41997H22.0325H16.1216V9.33076ZM64.3851 11.4638C65.8303 11.8774 66.9552 13.1628 67.1911 14.6701C67.3093 15.4257 67.1598 16.4102 66.8255 17.0773C66.5062 17.7144 65.8731 18.4012 65.2801 18.7534C63.3383 19.907 60.8051 19.1019 59.8116 17.0154C59.2257 15.7853 59.3166 14.28 60.0454 13.1407C60.4918 12.443 61.2788 11.8094 62.0292 11.5438C62.692 11.3092 63.7227 11.2743 64.3851 11.4638ZM93.5035 11.488C94.8902 11.8467 96.0034 13.0614 96.2777 14.5151C96.378 15.047 96.3451 16.0111 96.2106 16.4788C95.7573 18.0549 94.3048 19.153 92.6731 19.153C91.4735 19.153 90.554 18.7878 89.7638 17.9973C89.212 17.4454 88.9625 17.0163 88.7533 16.2588C88.6321 15.8201 88.644 14.7129 88.7747 14.2572C88.987 13.5174 89.3049 12.9944 89.8744 12.4476C90.6726 11.6814 91.5493 11.3556 92.7035 11.3966C92.9881 11.4067 93.3481 11.4479 93.5035 11.488ZM128.696 11.5043C129.36 11.6754 129.906 11.9945 130.411 12.5061C131.037 13.1406 131.382 13.7872 131.542 14.6198C131.61 14.9763 131.6 15.841 131.524 16.206C131.235 17.5939 130.116 18.8137 128.777 19.2004C128.366 19.3193 127.463 19.365 127.027 19.2891C125.589 19.0387 124.4 17.9593 123.956 16.5C123.848 16.1469 123.836 16.039 123.834 15.3975C123.833 14.8633 123.852 14.6097 123.91 14.3779C124.185 13.2844 125.005 12.2678 126.007 11.7766C126.397 11.5854 126.638 11.5118 127.229 11.4019C127.467 11.3578 128.373 11.4211 128.696 11.5043ZM119.452 23.9036C119.452 23.9988 119.473 24.2838 119.498 24.537C119.789 27.4086 121.505 29.8637 124.145 31.1875C126.34 32.2883 129.076 32.2735 131.274 31.1489C133.552 29.9829 135.144 27.949 135.69 25.5048C135.794 25.0414 135.896 24.2339 135.896 23.875L135.896 23.7306H133.814H131.731L131.703 24.1195C131.605 25.4781 130.736 26.7481 129.474 27.3769C128.81 27.7077 128.454 27.7891 127.674 27.7891C127.151 27.7891 126.962 27.7708 126.674 27.6926C125.162 27.2826 124.011 26.0712 123.699 24.5615C123.661 24.3754 123.629 24.1124 123.629 23.9769V23.7306H121.541H119.452V23.9036Z" fill="url(#paint0_linear)"/>
<defs>
<linearGradient id="paint0_linear" x1="68" y1="0" x2="68" y2="32.0028" gradientUnits="userSpaceOnUse">
<stop stop-color="#3D5AFE"/>
<stop offset="0.316277" stop-color="#3D5AFE"/>
<stop offset="0.696508" stop-color="#FF5252"/>
<stop offset="1" stop-color="#FF5252"/>
</linearGradient>
</defs>
</svg>
