<svg width="115" height="27" viewBox="0 0 115 27" fill="none" xmlns="http://www.w3.org/2000/svg">
<g clip-path="url(#clip0)">
<path d="M33.9822 8.41714C35.746 8.41714 37.3923 9.12266 38.5681 10.2985C39.0385 9.00507 39.744 7.8292 40.4495 6.88851C38.6857 5.47747 36.4516 4.65436 33.9822 4.65436C28.1029 4.65436 23.3994 9.47542 23.3994 15.3548C23.3994 21.2341 28.1029 26.0552 33.9822 26.0552C36.4516 26.0552 38.6857 25.2321 40.4495 23.821C39.6264 22.7627 39.0385 21.5869 38.5681 20.411C37.3923 21.5869 35.746 22.2924 33.9822 22.2924C30.2195 22.2924 27.2798 19.2351 27.2798 15.4724C27.1622 11.592 30.2195 8.41714 33.9822 8.41714Z" fill="#242C61"/>
<path d="M11.9939 0.656433C11.4059 0.656433 10.818 1.12678 10.4652 1.71472L0 25.2321H4.23313L5.64417 21.8221H18.3436L19.8722 25.2321H24.1053L13.5225 1.71472C13.2873 1.12678 12.6994 0.656433 11.9939 0.656433ZM7.40798 18.0593L12.1115 7.59406L16.8149 18.0593H7.40798Z" fill="#242C61"/>
<path d="M62.2033 15.3548C62.2033 9.47542 57.735 4.88953 52.0909 4.65436C52.0909 4.65436 52.0909 4.65436 51.9733 4.65436C51.7381 4.65436 51.7381 4.77194 51.8557 4.88953C51.8557 4.88953 51.8557 4.88953 51.8557 5.00712C52.2084 5.83023 53.1491 7.71162 54.9129 9.12266C57.0295 10.8865 58.4405 12.8854 58.4405 15.4724C58.4405 18.7648 55.9712 22.2924 51.7381 22.2924C47.6226 22.2924 45.0356 18.7648 45.0356 15.4724C45.0356 12.8854 46.3291 10.8865 48.5632 9.12266C50.3271 7.71162 51.2677 5.71264 51.6205 5.00712C51.7381 4.88953 51.6205 4.77194 51.5029 4.77194C45.7412 4.88953 41.1553 9.7106 41.1553 15.4724C41.1553 20.2934 45.1532 25.82 51.6205 25.82C54.5602 25.82 56.9119 24.8793 58.7933 23.4683L60.7923 25.3497H66.554L61.145 20.0582C61.8506 18.6472 62.2033 17.001 62.2033 15.3548Z" fill="#242C61"/>
<path d="M91.8354 5.00714H87.8374V25.2321H91.8354V5.00714Z" fill="#242C61"/>
<path d="M80.0765 15.1196C80.0765 19.3527 77.96 21.9397 74.5499 21.9397C71.1399 21.9397 69.0233 19.3527 69.0233 15.1196V5.00714H65.0254V15.1196C65.0254 21.3517 69.0233 25.82 74.5499 25.82C80.0765 25.82 84.0745 21.3517 84.0745 15.1196V5.00714H80.0765V15.1196Z" fill="#242C61"/>
<path d="M111.002 5.0071V8.06436L110.297 7.24125C108.415 5.35986 106.416 4.30157 104.065 4.30157C101.36 4.30157 99.126 5.35986 97.3622 7.35883C95.5984 9.35781 94.6577 11.9447 94.6577 15.002C94.6577 18.0592 95.5984 20.7637 97.3622 22.7627C99.126 24.7617 101.478 25.82 104.182 25.82C106.299 25.82 108.415 24.8793 110.297 23.1155L111.002 22.41V25.232H115V5.0071H111.002ZM109.591 20.2934C108.415 21.5869 106.887 22.2924 104.888 22.2924C103.124 22.2924 101.595 21.5869 100.419 20.1758C99.2436 18.8824 98.6557 17.1185 98.6557 15.002C98.6557 13.003 99.2436 11.3568 100.419 9.94575C101.595 8.5347 103.124 7.94677 104.888 7.94677C106.769 7.94677 108.298 8.65229 109.474 9.94575C110.65 11.3568 111.237 13.003 111.237 15.1196C111.237 17.2361 110.65 18.9999 109.591 20.2934Z" fill="#242C61"/>
</g>
<defs>
<clipPath id="clip0">
<rect width="115" height="25.3988" fill="white" transform="translate(0 0.656433)"/>
</clipPath>
</defs>
</svg>
