<svg xmlns="http://www.w3.org/2000/svg" viewBox="0 0 1109.77 364.99"><path d="M117.72 248.88c17.98 17.98 41.61 26.98 65.23 26.98s47.25-8.99 65.23-26.98l84.33-84.33-21.1-21.1-84.33 84.33c-24.33 24.33-63.93 24.33-88.26 0l-1.25-1.25c-24.33-24.33-24.33-63.93 0-88.26l1.07-1.07c24.33-24.33 63.93-24.33 88.26 0l7.27 7.27 21.1-21.1-7.27-7.27c-35.97-35.97-94.49-35.97-130.46 0l-1.07 1.07c-35.97 35.97-35.97 94.49 0 130.46l1.25 1.25zM410.01 116.1c-17.98-17.98-41.61-26.98-65.23-26.98s-47.25 8.99-65.23 26.98l-84.33 84.33 21.1 21.1 84.33-84.33c24.33-24.33 63.93-24.33 88.26 0l1.25 1.25c24.33 24.33 24.33 63.93 0 88.26l-1.07 1.07c-24.33 24.33-63.93 24.33-88.26 0l-7.27-7.27-21.1 21.1 7.27 7.27c35.97 35.97 94.49 35.97 130.46 0l1.07-1.07c35.97-35.97 35.97-94.49 0-130.46l-1.25-1.25z" fill="#ff6a4c"/><path d="M844.31 159.8l-48.38 115.78h-16.99l13.21-32.69-34.22-83.09h17.2l25.81 62.96 26.17-62.96h17.2zM483 182.49c0-35.69 28.37-64.6 64.05-64.6 19.4 0 36.24 8.24 47.4 21.41l-12.08 10.25a46.56 46.56 0 0 0-35.32-16.29c-26.54 0-47.4 22.15-47.4 49.23 0 26.9 20.86 49.23 47.4 49.23a46.56 46.56 0 0 0 35.32-16.29l12.08 10.25c-11.16 13.18-28 21.41-47.4 21.41-35.69.01-64.05-28.91-64.05-64.6zm177.61-21.23l-2.56 15.01c-4.58-2.2-9.15-2.93-12.45-2.93-17.02 0-23.79 18.12-23.79 40.63v31.29H605.7V159.8h16.11v19.4c4.39-15.01 12.63-21.23 23.97-21.23 6.04 0 12.26 1.65 14.83 3.29zm88.77-1.46v85.47h-15.92v-13.54c-5.67 9.88-18.12 15.37-30.38 15.37-23.43 0-42.83-17.75-42.83-44.66 0-27.09 19.22-44.47 42.64-44.47 12.81 0 24.89 5.12 30.56 15.19V159.8h15.93zm-15.93 42.46c0-18.48-15.01-29.28-29.1-29.28-15.56 0-28 12.08-28 29.28 0 17.02 12.45 29.83 28 29.83 15.38 0 29.1-11.53 29.1-29.83zm109.65 0c0-27.09 20.31-44.29 44.66-44.29s44.84 17.2 44.84 44.29-20.5 44.84-44.84 44.84-44.66-17.75-44.66-44.84zm73.57 0c0-17.57-13.18-29.28-28.92-29.28-15.56 0-28.55 11.71-28.55 29.28 0 17.75 12.99 29.83 28.55 29.83 15.75 0 28.92-12.08 28.92-29.83zm103.61-6.41v49.41h-15.92v-48.5c0-14.27-8.78-23.06-20.68-23.06s-26.17 6.77-26.17 25.26v46.3h-15.92V159.8h15.92v12.99c5.12-10.43 19.03-14.82 28.37-14.82 21.22 0 34.58 13.91 34.4 37.88z" fill="#04242d"/></svg>