<svg xmlns="http://www.w3.org/2000/svg" viewBox="0 0 527.37 364.99" fill="#ff6a4c" xmlns:v="https://vecta.io/nano"><path d="M117.54 248.88c17.98 17.98 41.61 26.98 65.23 26.98s47.25-8.99 65.23-26.98l84.33-84.33-21.1-21.1-84.33 84.33c-24.33 24.33-63.93 24.33-88.26 0l-1.25-1.25c-24.33-24.33-24.33-63.93 0-88.26l1.07-1.07c24.33-24.33 63.93-24.33 88.26 0l7.27 7.27 21.1-21.1-7.27-7.27c-35.97-35.97-94.49-35.97-130.46 0l-1.07 1.07c-35.97 35.97-35.97 94.49 0 130.46l1.25 1.25zM409.83 116.1c-17.98-17.98-41.61-26.98-65.23-26.98s-47.25 8.99-65.23 26.98l-84.33 84.33 21.1 21.1 84.33-84.33c24.33-24.33 63.93-24.33 88.26 0l1.25 1.25c24.33 24.33 24.33 63.93 0 88.26l-1.07 1.07c-24.33 24.33-63.93 24.33-88.26 0l-7.27-7.27-21.1 21.1 7.27 7.27c35.97 35.97 94.49 35.97 130.46 0l1.07-1.07c35.97-35.97 35.97-94.49 0-130.46l-1.25-1.25z"/></svg>