<svg width="114" height="38" viewBox="0 0 114 38" fill="none" xmlns="http://www.w3.org/2000/svg">
<g clip-path="url(#clip0)">
<path d="M59.7687 37.4758V27.5105H50.8324V37.4758H48.2408V15.8739H50.8324V25.2351H59.7687V15.8739H62.3131V37.4758H59.7687ZM66.6137 37.4758V15.8739H69.2054V37.4758H66.6137ZM73.4493 37.4758V15.8739H84.557V18.1729H76.0598V25.254H84.3493V27.5529H76.0409V37.4664L73.4493 37.4758ZM91.893 37.4758V18.1729H86.7427V15.8739H99.6066V18.1729H94.4516V37.4758H91.893ZM100.952 35.1438L102.368 33.1706C102.985 33.9139 103.756 34.5137 104.629 34.9279C105.501 35.3421 106.454 35.5608 107.419 35.5687C110.138 35.5687 111.371 33.8503 111.371 32.0046C111.371 26.7599 101.589 28.1525 101.589 21.1895C101.589 17.885 104.214 15.5246 107.806 15.5246C110.205 15.5246 112.178 16.3366 113.57 17.8236L112.244 19.7685C111.678 19.1402 110.983 18.6412 110.207 18.3056C109.43 17.97 108.591 17.8056 107.745 17.8236C105.739 17.8236 104.214 19.1171 104.214 21.062C104.214 25.6269 113.991 24.6261 113.991 31.8441C113.991 35.0164 111.918 37.8677 107.419 37.8677C106.209 37.905 105.005 37.6811 103.889 37.211C102.773 36.741 101.771 36.0359 100.952 35.1438ZM32.3887 35.1438L33.8049 33.1706C34.4214 33.9139 35.1929 34.5137 36.0654 34.9279C36.9379 35.3421 37.8903 35.5608 38.856 35.5687C41.5751 35.5687 42.8072 33.8503 42.8072 32.0046C42.8167 26.7551 33.0448 28.1477 33.0448 21.1847C33.0448 17.8802 35.6696 15.5199 39.262 15.5199C41.6601 15.5199 43.6334 16.3319 45.026 17.8189L43.6995 19.7638C43.1312 19.133 42.4333 18.6326 41.6535 18.2969C40.8737 17.9612 40.0305 17.7981 39.1817 17.8189C37.1755 17.8189 35.6507 19.1123 35.6507 21.0573C35.6507 25.6222 45.4272 24.6214 45.4272 31.8393C45.4272 35.0116 43.3548 37.8629 38.856 37.8629C37.646 37.9009 36.4419 37.6777 35.3259 37.2085C34.2099 36.7392 33.2081 36.035 32.3887 35.1438Z" fill="#020202"/>
<path fill-rule="evenodd" clip-rule="evenodd" d="M26.1476 18.3051H12.9014V15.7087H29.6598V17.597L19.5953 37.8959H16.1917L26.1476 18.3051Z" fill="#020202"/>
<path fill-rule="evenodd" clip-rule="evenodd" d="M21.7813 3.34522C21.8035 3.28951 21.8163 3.23048 21.819 3.17056C21.819 3.05254 21.819 2.9062 21.7718 2.9062H23.7168C24.0768 2.8803 24.414 2.72058 24.6621 2.45847C24.9103 2.19636 25.0513 1.85087 25.0574 1.48999V1.22091C25.048 0.52697 24.4485 0.130432 23.712 0.130432H15.3045C14.5633 0.130432 13.9638 0.52697 13.9638 1.22091V1.48055C13.97 1.84142 14.111 2.18692 14.3591 2.44903C14.6072 2.71114 14.9445 2.87086 15.3045 2.89676H16.9709C16.9378 2.89676 16.9237 3.0431 16.9237 3.16112C16.9188 3.20189 16.9188 3.24309 16.9237 3.28385C12.8367 3.8157 9.01356 5.59621 5.9764 8.3822C2.12431 11.8944 0 16.4829 0 21.3075C0 28.6859 4.56491 35.0636 11.1031 37.896L12.406 35.3751C6.77419 33.0006 2.83242 27.5907 2.83242 21.3075C2.83242 12.5411 11.391 5.99353 19.0386 5.99353C23.1673 6.0251 27.1732 7.40237 30.4485 9.91643L31.723 7.32477C28.7919 5.19159 25.3747 3.82374 21.7813 3.34522Z" fill="#FB7448"/>
</g>
<defs>
<clipPath id="clip0">
<rect width="114" height="37.7891" fill="white" transform="translate(0 0.130432)"/>
</clipPath>
</defs>
</svg>
