<svg fill="none" height="25" viewBox="0 0 83 25" width="83" xmlns="http://www.w3.org/2000/svg" xmlns:xlink="http://www.w3.org/1999/xlink"><clipPath id="clipGithub"><path d="m0 .57959h83v23.8404h-83z"/></clipPath><g clip-path="url(#clipGithub)" fill="#100e0f"><path d="m15.9853 11.057h-6.97776c-.08645.0006-.16909.0354-.22993.0966-.06087.0613-.09503.1442-.09503.2306v3.4106c0 .0862.03423.1688.09517.2297.06096.061.14361.0951.22979.0951h2.72146v4.2379s-.6107.2074-2.30443.2074c-1.99328 0-4.777-.7282-4.777-6.8487 0-6.12052 2.89893-6.92936 5.62043-6.92936 2.3551 0 3.3714.4148 4.0166.61528.0473.00915.0959.00776.1427-.00409.0467-.01184.0902-.03385.1274-.06445.0371-.0306.0672-.06902.0878-.11255.0206-.04352.0314-.09107.0316-.13922l.7788-3.29531c.0015-.04919-.0091-.09801-.0307-.14218-.0217-.04419-.0539-.08239-.0937-.1113-.2628-.18665-1.862-1.08307-5.90393-1.08307-4.65717 0-9.43189422 1.98179-9.43189422 11.50355 0 9.5218 5.46834422 10.9436 10.07492422 10.9436 3.816 0 6.132-1.6314 6.132-1.6314.0365-.0292.0651-.067.0832-.1101.0182-.0431.0252-.09.0204-.1365v-10.6279c.0019-.0865-.0305-.1701-.0901-.2327-.0595-.0626-.1415-.0991-.2278-.1015z"/><path d="m51.9298 2.59822c.0002-.04267-.0078-.08498-.0239-.12452-.0161-.03953-.0397-.07552-.0697-.10591-.03-.03038-.0656-.05457-.1049-.07118s-.0815-.02531-.1242-.02561h-3.9175c-.0864.00061-.169.03535-.2298.09666-.061.06129-.095.14418-.095.23056v7.59078h-6.1298v-7.59078c0-.08638-.0341-.16927-.095-.23056-.0609-.06131-.1435-.09605-.2299-.09666h-3.9175c-.0864.00061-.169.03535-.2299.09666-.0609.06129-.095.14418-.095.23056v20.55068c-.0003.043.0079.0855.0241.1254.0161.0398.0399.0761.0701.1066.0302.0307.0661.055.1057.0717.0395.0167.0821.0256.125.0258h3.9175c.043-.0002.0855-.0091.125-.0258.0397-.0167.0755-.041.1057-.0717.0302-.0305.0541-.0668.0702-.1066.0162-.0399.0243-.0824.024-.1254v-8.789h6.1205v8.789c0 .087.0344.1705.0957.2322s.1445.0967.2315.0973h3.936c.0428-.0002.0852-.0091.1247-.0258.0394-.0167.0752-.0411.1051-.0718.03-.0306.0537-.0669.0696-.1067s.0238-.0823.0231-.1252z"/><path d="m23.3965 5.29671c-.0045-.50034-.1571-.98814-.4383-1.40195-.2813-.4138-.6788-.73511-1.1423-.92344-.4636-.18833-.9726-.23525-1.4628-.13486-.4901.1004-.9396.34362-1.2919.69902-.3522.35541-.5913.8071-.6873 1.29817-.0959.49107-.0444.99956.1482 1.4614.1925.46184.5173.85638.9337 1.1339.4164.27753.9055.42563 1.4058.42566.3348 0 .6664-.06632.9754-.19514.3091-.12883.5895-.31761.8253-.55543.2356-.23783.4219-.52.5479-.8302.1261-.31021.1894-.64231.1863-.97713z"/><path d="m23.1156 18.8145v-9.48728c0-.08639-.0342-.16927-.095-.23057-.0609-.0613-.1435-.09604-.23-.09665h-3.9174c-.0917.00852-.1771.05065-.2396.11828-.0625.06764-.0979.15601-.0992.24812v13.596c0 .3986.2489.5162.5692.5162h3.5281c.3871 0 .4816-.189.4816-.5231z"/><path d="m66.8482 9.03223h-3.8897c-.0864.00061-.169.03534-.23.09665-.0608.06129-.095.14418-.095.23057v10.07715c-.7112.4678-1.543.7191-2.3943.7236-1.4057 0-1.779-.6361-1.779-2.0117v-8.78905c.0004-.04267-.0078-.08499-.0238-.12452-.016-.03954-.0398-.07553-.0697-.10591-.0299-.03039-.0656-.05458-.1049-.07119-.0393-.0166-.0815-.0253-.1241-.0256h-3.9636c-.0864.00061-.169.03534-.2299.09665-.0609.06129-.0951.14418-.0951.23057v9.44805c0 4.088 2.2791 5.0881 5.4131 5.0881 2.5694 0 4.641-1.4218 4.641-1.4218.0335.282.0819.5619.1452.8389.0284.0515.0697.095.1197.126.05.0311.1072.0488.1661.0513l2.5164-.0114c.0864-.0007.169-.0354.2299-.0967s.095-.1442.095-.2306v-13.79185c0-.08679-.0345-.17002-.0958-.23138-.0614-.06137-.1447-.09584-.2315-.09584z"/><path d="m77.5062 8.56893c-1.3049-.00786-2.5883.33347-3.717.98862v-6.95933c0-.08638-.0341-.16927-.095-.23056-.0609-.06131-.1436-.09605-.2299-.09666h-3.9383c-.0863.00061-.169.03535-.2298.09666-.0609.06129-.095.14418-.095.23056v20.55068c-.0004.043.0078.0855.024.1254.0162.0398.04.0761.0702.1066.0301.0307.066.055.1056.0717s.0821.0255.125.0258h2.7331c.0589-.001.1166-.0177.1668-.0485.0503-.0308.0913-.0746.119-.1266.0784-.3112.1338-.6278.1659-.9472 0 0 1.6131 1.5256 4.6571 1.5256 3.5788 0 5.632-1.8159 5.632-8.1484 0-6.33248-3.2769-7.16437-5.4937-7.16437zm-1.537 11.57957c-.7993-.0207-1.5801-.2461-2.2676-.6544v-6.5076c.6191-.3547 1.3048-.5775 2.0141-.6545 1.4034-.1245 2.7652.2996 2.7652 3.6456-.0091 3.5303-.6198 4.2286-2.5117 4.1709z"/><path d="m34.4023 8.99978h-2.945v-3.89214c0-.14748-.0761-.23044-.2466-.23044h-4.0189c-.1567 0-.2304.06913-.2304.21892v4.02119s-2.0117.48626-2.1477.52538c-.0671.02039-.1257.06189-.1673.1184-.0415.05651-.0637.12495-.0631.19505v2.53476c-.0003.043.0078.0857.024.1255.0161.0398.04.076.0702.1066s.066.055.1057.0717c.0395.0167.082.0255.125.0257h2.0579v6.0722c0 4.5166 3.1662 4.9591 5.3 4.9591.7868-.0236 1.567-.1507 2.3206-.3779.0568-.0243.1049-.0654.1378-.1177.033-.0522.0491-.1133.0466-.1751v-2.7813c-.0006-.0862-.035-.1688-.0957-.23-.0608-.0612-.1431-.096-.2293-.0973-.1728 0-.6106.0692-1.0646.0692-1.4449 0-1.9357-.6729-1.9357-1.544v-5.7772h2.9565c.043-.0002.0855-.009.1251-.0257s.0755-.0411.1057-.0717.054-.0668.0702-.1066c.0161-.0398.0242-.0825.024-.1255v-3.1639c.0002-.04286-.0079-.08536-.0241-.12504-.0162-.03969-.0401-.07578-.0703-.1062s-.0662-.05456-.1057-.07103c-.0396-.01647-.082-.02495-.1249-.02495z"/></g></svg>