<svg fill="none" height="28" viewBox="0 0 115 28" width="115" xmlns="http://www.w3.org/2000/svg" xmlns:xlink="http://www.w3.org/1999/xlink"><clipPath id="clipRedhat"><path d="m0 .873535h115v27.0659h-115z"/></clipPath><g clip-path="url(#clipRedhat)"><path d="m23.865 16.4722c2.3514 0 5.7534-.485 5.7534-3.2818.007-.2158-.0125-.4317-.0583-.6428l-1.4003-6.08232c-.3232-1.33826-.6071-1.94536-2.9565-3.1201-1.8232-.93227-5.7948-2.471645-6.9695-2.471645-1.0939 0-1.4116 1.409685-2.716 1.409685-1.2556 0-2.1878-1.05256-3.3626-1.05256-1.1277 0-1.8626.76874-2.43026 2.34947 0 0-1.58073 4.45836-1.78372 5.10493-.03226.11874-.04621.2417-.04135.36464 0 1.733 6.82283 7.4149 15.96513 7.4149zm6.1143-2.1465c.3251 1.5394.3251 1.701.3251 1.904 0 2.6314-2.9584 4.0918-6.8473 4.0918-8.7889.0057-16.48762-5.1444-16.48762-8.5483-.00051-.4738.09608-.9427.28381-1.3777-3.16145.1579-7.25329.7217-7.25329 4.3343 0 5.9169 14.0198 13.2097 25.1206 13.2097 8.5107 0 10.6572-3.8494 10.6572-6.8887 0-2.3908-2.0676-5.1049-5.7948-6.7251" fill="#e00"/><g fill="#000"><path d="m29.979 14.3257c.3252 1.5394.3252 1.701.3252 1.904 0 2.6314-2.9584 4.0919-6.8473 4.0919-8.7889.0056-16.48766-5.1444-16.48766-8.5483-.00051-.4739.09608-.9427.28382-1.3778l.68792-1.70287c-.03151.11631-.04545.23668-.04135.35712 0 1.73295 6.82287 7.41495 15.96517 7.41495 2.3513 0 5.7534-.4849 5.7534-3.2818.007-.2158-.0126-.4317-.0583-.6428z"/><path d="m108.872 18.2218c0 2.2349 1.344 3.3213 3.795 3.3213.755-.0188 1.505-.1248 2.235-.3158v-2.5919c-.467.1479-.954.2215-1.443.218-1.01 0-1.384-.3158-1.384-1.265v-3.9715h2.925v-2.669h-2.925v-3.38327l-3.195.69169v2.69158h-2.122v2.669h2.114zm-9.9613.0602c0-.6917.6936-1.0281 1.7403-1.0281.64.0037 1.277.0832 1.899.2368v1.3439c-.613.3344-1.301.5047-1.998.4943-1.0267 0-1.6413-.3947-1.6413-1.0469zm.9774 3.3005c1.1279 0 2.0379-.2368 2.8869-.8101v.6335h3.162v-6.7026c0-2.5487-1.718-3.9471-4.585-3.9471-1.6011 0-3.1837.3759-4.8866 1.1465l1.1465 2.3532c1.2255-.515 2.2555-.8307 3.1631-.8307 1.316 0 1.996.5131 1.996 1.5619v.5131c-.774-.2005-1.572-.3003-2.372-.297-2.6893 0-4.3095 1.1278-4.3095 3.1446 0 1.8382 1.4623 3.2404 3.7948 3.2404zm-17.3786-.171h3.4002v-5.4226h5.6932v5.417h3.4096v-13.83751h-3.3964v5.31731h-5.6933v-5.31731h-3.4001zm-12.9428-5.244c0-1.5037 1.1861-2.6502 2.748-2.6502.8126-.0165 1.6017.2733 2.2104.8119v3.6558c-.2949.2787-.6421.4962-1.0214.6401-.3794.1438-.7835.2112-1.189.1982-1.5413 0-2.748-1.1465-2.748-2.6483zm5.0016 5.2459h3.1633v-14.53669l-3.1953.69168v3.93401c-.8134-.4612-1.734-.6998-2.669-.6917-3.043 0-5.4357 2.3513-5.4357 5.3568-.0087.7052.1231 1.405.3878 2.0587s.6569 1.2481 1.1539 1.7485c.4969.5005 1.0885.8969 1.7403 1.1662.6518.2692 1.3508.406 2.056.4022 1.0084.0048 1.9918-.3134 2.8062-.9079zm-14.516-8.0409c1.0075 0 1.857.6522 2.1935 1.6597h-4.3606c.3157-1.0394 1.107-1.6597 2.1671-1.6597zm-5.3887 2.8194c0 3.0449 2.4904 5.4169 5.6913 5.4169 1.7593 0 3.0449-.4755 4.37-1.5826l-2.1164-1.8795c-.4943.515-1.2254.7913-2.0938.7913-.5461.0153-1.084-.135-1.5429-.4312-.459-.2963-.8175-.7246-1.0284-1.2285h7.4526v-.7951c0-3.3212-2.233-5.712-5.2779-5.712-.7158-.0108-1.4265.1216-2.0903.3895-.6639.2678-1.2675.6657-1.7754 1.1702-.5078.5046-.9096 1.1055-1.1819 1.7676-.2722.6621-.4093 1.3719-.4032 2.0878zm-5.5128-5.7177c1.1277 0 1.7592.7105 1.7592 1.562 0 .8514-.6315 1.5619-1.7592 1.5619h-3.3626v-3.1239zm-6.7665 10.9317h3.4001v-5.0411h2.5882l2.6107 5.0411h3.8062l-3.0449-5.5354c.7738-.3147 1.4358-.8538 1.9007-1.5478.4649-.6941.7115-1.5113.7081-2.3467 0-2.49044-1.9566-4.40761-4.8869-4.40761h-7.0822z"/></g></g></svg>