<svg fill="none" height="31" viewBox="0 0 96 31" width="96" xmlns="http://www.w3.org/2000/svg"><g clip-rule="evenodd" fill-rule="evenodd"><path d="m59.3528 23.6478c-5.4805 4.0395-13.4241 6.1948-20.2635 6.1948-9.5898 0-18.2232-3.5469-24.7546-9.4461-.5131-.4639-.0534-1.0961.5624-.7349 7.0488 4.1012 15.7641 6.5684 24.7669 6.5684 6.0717 0 12.7509-1.2562 18.8923-3.8631.9278-.394 1.7037.6077.7965 1.2809z" fill="#f90"/><path d="m61.6311 21.0414c-.6979-.895-4.6307-.4229-6.396-.2135-.5377.0656-.6198-.4023-.1354-.7389 3.1323-2.2046 8.272-1.5682 8.8714-.8293.5993.743-.156 5.8951-3.0995 8.3542-.4515.3777-.8826.1765-.6815-.3243.661-1.6504 2.1429-5.3492 1.441-6.2482z" fill="#f90"/><g fill="#000"><path d="m55.3582 4.52564v-2.14293c0-.32431.2464-.54189.5419-.54189h9.594c.3079 0 .5542.22168.5542.54189v1.83505c-.004.30788-.2627.7102-.7225 1.34651l-4.9715 7.09793c1.8474-.0451 3.7974.2299 5.4724 1.1741.3777.2135.4803.5255.509.8333v2.2867c0 .312-.3449.6773-.7061.4885-2.9516-1.5477-6.8722-1.716-10.1359.0165-.3324.1806-.6814-.1807-.6814-.4927v-2.1716c0-.349.004-.9442.3531-1.4738l5.7596-8.25977h-5.0125c-.3079 0-.5543-.21758-.5543-.53779z"/><path d="m20.3613 17.8963h-2.9189c-.2791-.0206-.5007-.2299-.5213-.4967v-14.98004c0-.29967.2504-.53779.5625-.53779h2.7217c.2833.01232.5091.2299.5296.50085v1.9582h.0534c.7102-1.89252 2.0443-2.77515 3.8424-2.77515 1.8269 0 2.9681.88263 3.7891 2.77515.7061-1.89252 2.3113-2.77515 4.0314-2.77515 1.2234 0 2.5616.50495 3.3786 1.63799.9237 1.26032.7348 3.09125.7348 4.6964l-.0041 9.45444c0 .2995-.2503.5418-.5624.5418h-2.9146c-.2916-.0206-.5255-.2545-.5255-.5418v-7.93962c0-.63219.0574-2.20861-.0822-2.80797-.2175-1.00579-.8703-1.28905-1.716-1.28905-.7061 0-1.4449.47211-1.7446 1.22747s-.271 2.01977-.271 2.86955v7.93962c0 .2995-.2504.5418-.5625.5418h-2.9146c-.2956-.0206-.5255-.2545-.5255-.5418l-.0041-7.93962c0-1.67083.275-4.12986-1.7982-4.12986-2.0977 0-2.0156 2.39746-2.0156 4.12986v7.93962c0 .2995-.2504.5418-.5624.5418z"/><path d="m74.3081 1.56567c4.3311 0 6.6751 3.71935 6.6751 8.44863 0 4.5691-2.5903 8.194-6.6751 8.194-4.253 0-6.5684-3.7194-6.5684-8.35416 0-4.66354 2.3441-8.28847 6.5684-8.28847zm.0246 3.0584c-2.1511 0-2.2865 2.93114-2.2865 4.75797 0 1.83096-.0288 5.73916 2.2619 5.73916 2.262 0 2.3688-3.1529 2.3688-5.0741 0-1.26441-.0534-2.77515-.4352-3.97388-.3284-1.04272-.9812-1.44915-1.909-1.44915z"/><path d="m86.5991 17.8963h-2.9065c-.2914-.0206-.5254-.2545-.5254-.5418l-.0041-14.9842c.0246-.27505.2668-.48853.5624-.48853h2.7053c.2546.01232.4639.18474.5214.41874v2.29073h.0534c.8169-2.04852 1.9623-3.02557 3.978-3.02557 1.3095 0 2.5862.47211 3.4073 1.76525.7636 1.19873.7636 3.2144.7636 4.66355v9.42973c-.0329.2627-.2751.4721-.5625.4721h-2.927c-.2668-.0206-.4885-.2175-.5173-.4721v-8.13658c0-1.63799.189-4.03544-1.8267-4.03544-.7103 0-1.363.4762-1.6873 1.19872-.4106.91548-.4639 1.82684-.4639 2.83672v8.06688c-.0041.2995-.2586.5418-.5707.5418z"/><path d="m47.7104 10.741c0 1.1371.0286 2.0855-.546 3.0954-.4639.821-1.2029 1.3259-2.0198 1.3259-1.1207 0-1.7776-.8539-1.7776-2.1141 0-2.4878 2.2292-2.9394 4.3434-2.9394zm2.9434 7.1144c-.193.1724-.4722.1847-.6896.0698-.9689-.8046-1.1454-1.1782-1.675-1.9459-1.6011 1.6339-2.7382 2.1224-4.8113 2.1224-2.4591 0-4.368-1.5149-4.368-4.5486 0-2.3687 1.2808-3.98209 3.1117-4.77029 1.5846-.69789 3.7974-.82104 5.4888-1.01399v-.37768c0-.69379.0533-1.51484-.3572-2.1142-.353-.53778-1.0345-.75947-1.638-.75947-1.1125 0-2.1018.57063-2.3441 1.75293-.0493.26274-.2423.52137-.5091.53368l-2.8284-.30379c-.2382-.05336-.505-.24631-.4352-.61167.6486-3.43198 3.7521-4.4665 6.5273-4.4665 1.4205 0 3.276.37768 4.3967 1.45326 1.4205 1.32599 1.285 3.09535 1.285 5.0207v4.54862c0 1.367.5665 1.9664 1.1002 2.7053.1847.2628.2258.5789-.0124.7759-.5953.4968-1.6544 1.4205-2.2373 1.9377z"/><path d="m9.4452 10.7412c0 1.1372.02874 2.0855-.546 3.0954-.4639.8211-1.19873 1.326-2.01978 1.326-1.12073 0-1.77346-.8538-1.77346-2.1142 0-2.4878 2.22914-2.9393 4.33924-2.9393zm2.9435 7.1145c-.193.1723-.4722.1847-.6898.0697-.9688-.8046-1.1412-1.1781-1.6749-1.9459-1.60101 1.634-2.73405 2.1225-4.81131 2.1225-2.45493 0-4.367963-1.5148-4.367963-4.5487 0-2.3687 1.284933-3.98204 3.111773-4.77024 1.58461-.6979 3.79734-.82106 5.4887-1.014v-.37768c0-.69378.05337-1.51484-.35306-2.1142-.35715-.53778-1.03862-.75947-1.63799-.75947-1.11251 0-2.10597.57063-2.34819 1.75294-.04926.26273-.24221.52137-.50494.53368l-2.83262-.30379c-.2381-.05336-.50083-.24631-.43515-.61167.65273-3.43198 3.75218-4.46651 6.52732-4.46651 1.42042 0 3.27593.37768 4.39673 1.45326 1.4203 1.32599 1.2849 3.09534 1.2849 5.02071v4.54857c0 1.3671.5666 1.9665 1.1002 2.7053.1889.2628.2299.5789-.0082.776-.5953.4966-1.6544 1.4203-2.2373 1.9376l-.0082-.0082"/></g></g></svg>