<svg fill="none" height="63" viewBox="0 0 99 63" width="99" xmlns="http://www.w3.org/2000/svg"><g clip-rule="evenodd" fill-rule="evenodd"><path d="m40.7155 24.448 22.3159-19.80413c-1.772-1.38356-3.76-2.50307-5.9139-3.29524l-16.3977 14.55577v8.5436zm-6.4116-2.8522-6.0449 5.3684c.55 2.2216 1.4447 4.3122 2.6253 6.2108l3.4196-3.0334v-8.548z" fill="#32324b"/><path d="m52.6523 5.31385v-5.089075c-1.0257-.146213-2.0688-.224775-3.1338-.224775-1.113 0-2.2085.0829265-3.2778.244415v10.758585zm0 29.92555v-21.3863l-6.4116 5.7001v23.7148c1.0693.1593 2.1605.2444 3.2778.2444 1.305 0 2.5795-.1309 3.8234-.3491l17.1701-15.2542c.5827-1.964.9013-4.0372.9013-6.1758 0-1.0257-.0742-2.0077-.2095-2.9897l-18.5712 16.4544z" fill="#00d2ff"/><path d="m52.6523 28.9588 17.2029-15.265c-.8074-2.0382-1.9204-3.92809-3.2952-5.60844l-13.9012 12.33424v8.5414zm-6.4115-2.85-5.5212 4.9014v-29.17707c-2.4005 1.04749-4.561 2.50962-6.4159 4.28599v31.27208c1.4447 1.3901 3.077 2.5838 4.8665 3.5353l7.0706-6.2719z" fill="#ff4b19"/><path d="m13.5714 59.8281 1.6612-6.191h2.2326l-2.463 8.6114h-2.6313l-1.4715-5.7976-1.4707 5.7976h-2.62685l-2.46738-8.6114h2.23083l1.66027 6.191 1.64522-6.191h2.05541zm9.9785-2.9218c-.0798-1.1961-.8594-1.6346-1.7453-1.6346-1.0189 0-1.7897.6113-1.9048 1.6301h3.6324zm2.1351 2.5134c-.2569 1.7187-1.5858 2.9414-3.8627 2.9414-2.4187 0-4.2083-1.4441-4.2083-4.3678 0-2.9413 1.8516-4.4652 4.2083-4.4652 2.6047 0 3.9868 1.9048 3.9868 4.4475v.4607h-5.9802c0 .9568.3898 2.1706 1.9579 2.1706.8683 0 1.5505-.4164 1.7188-1.2226l2.1617.0531zm6.5118-1.1252-.8417.1241c-.4607.0797-1.0188.1594-1.3466.2215-.3633.062-.6822.1417-.9214.3366-.2215.1772-.3367.4076-.3367.7088 0 .2569.0886 1.0366 1.2758 1.0366.691 0 1.3112-.2481 1.639-.5759.4253-.4253.505-.9568.505-1.3821v-.4518zm0-1.6124v-.311c0-.6759-.2835-1.1163-1.5682-1.1163-1.6035 0-1.6478.8807-1.6478 1.1784h-2.0554c0-1.2723.5315-2.906 3.7653-2.906 3.0831 0 3.6324 1.5239 3.6324 2.7642v4.7469c0 .3456.0177.6291.0443.8488l.062.3614h-2.1795v-.8646c-.6201.613-1.4707.9745-2.6933.9745-1.7099 0-3.0033-.9896-3.0033-2.7021 0-1.981 1.8782-2.4054 2.6401-2.5303l2.9857-.4563zm8.2659 5.5815h-2.8882l-2.8528-8.6114h2.3389l1.9934 6.5826 2.0023-6.5826h2.2769zm8.8772-5.3423c-.0797-1.196-.8593-1.6301-1.7453-1.6301-1.01 0-1.7896.6113-1.8959 1.639h3.6324zm2.1352 2.5161c-.2569 1.7188-1.5859 2.9414-3.8628 2.9414-2.4186 0-4.2082-1.4441-4.2082-4.3678 0-2.9413 1.8516-4.4652 4.2082-4.4652 2.6047 0 3.9868 1.9048 3.9868 4.4475v.4607h-5.9802c0 .9568.3899 2.1706 1.958 2.1706.8682 0 1.5504-.4164 1.7187-1.2226l2.1644.0531zm3.1894 2.8351-2.5161-8.39h1.3555l1.9757 7.1053 1.9757-7.1053h1.4706l1.9934 7.1231 1.9792-7.1231h1.329l-2.5471 8.39h-1.5664l-1.9261-6.9645-1.9225 6.9459zm13.9422-.9932c1.453 0 2.5294-.8771 2.5294-3.2195 0-2.3239-1.072-3.2196-2.5249-3.2196-1.4707 0-2.5454.8807-2.5454 3.2222 0 2.3416 1.0756 3.216 2.5463 3.216zm.0054 1.08c-2.2947 0-3.8805-1.4441-3.8805-4.3057 0-2.8351 1.5841-4.3058 3.8778-4.3058 2.2769 0 3.8601 1.4441 3.8601 4.3058 0 2.8704-1.5814 4.3057-3.8592 4.3057zm9.1589-7.1851c-1.5194 0-2.5781.5139-2.5781 2.4984v4.5715h-1.2979v-8.3802h1.282v1.4441c.5537-1.0685 1.6744-1.4441 2.5604-1.4441h.6024v1.3201h-.567zm9.1253-1.32-3.0654 3.1096 3.2249 5.2803h-1.5327l-2.6047-4.3677-2.0111 2.0997v2.2618h-1.2935v-11.6228h1.2962v7.7167l4.3854-4.4768zm6.036 2.2955c-.0797-1.0189-.9037-1.3201-1.9491-1.3201-.9037 0-2.0288.2835-2.0288 1.2758 0 2.1351 5.5372.1683 5.5372 3.5969 0 1.1429-.6645 2.649-3.62 2.649-2.2636 0-3.3401-1.1455-3.3843-2.6694h1.421c.0177.9267.6113 1.5859 2.1174 1.5859 1.7188 0 2.1458-.7353 2.1458-1.4919 0-1.5859-2.9236-.9126-4.5183-1.8074-.5848-.3278-.9976-.8416-.9976-1.7896 0-1.3821 1.313-2.4364 3.34-2.4364 2.5161 0 3.255 1.4618 3.3046 2.4098h-1.3785z" fill="#32324b"/></g></svg>