<svg width="69" height="42" viewBox="0 0 69 42" fill="none" xmlns="http://www.w3.org/2000/svg">
<g clip-path="url(#clip0)">
<path fill-rule="evenodd" clip-rule="evenodd" d="M11.6031 32.0792V0.227512H0V5.00527H6.23383V32.0792H11.6031ZM30.1226 0C26.0274 0 21.9777 1.72909 18.5195 4.55024L20.6581 8.69096C23.3427 6.23383 26.5734 4.68675 29.3491 4.68675C32.6707 4.68675 34.6728 6.23383 34.6728 8.78197C34.6728 10.6021 33.1258 13.1957 30.8051 15.5618L19.0655 28.166V32.0792H41.7257V27.2559H26.1639L34.4453 18.474C37.8125 14.8338 40.2696 11.2391 40.2696 8.00842C40.2696 3.13967 36.1289 0 30.1226 0ZM68.6176 4.32273V0.227512H45.4569V9.51H50.1892L50.2347 5.05077H62.6113L50.2347 32.0792H55.9225L68.6176 4.32273ZM47.0148 40.4478V34.8543H46.2977V41.1291H49.7668V40.4478H47.0148ZM54.9749 39.5425L55.6741 41.1291H56.4539L53.6482 34.8543H52.9042L50.0895 41.1291H50.8514L51.5506 39.5425H54.9749ZM54.6701 38.8522H51.8554L53.2538 35.67L54.6701 38.8522ZM57.44 34.8543V41.1291H60.1292C61.5455 41.1291 62.3881 40.4927 62.3881 39.4259C62.3881 38.5654 61.8592 37.9738 60.9539 37.8393C61.6889 37.6869 62.1102 37.158 62.1102 36.423C62.1102 35.4369 61.3483 34.8543 60.0844 34.8543H57.44ZM58.1571 35.5445H60.0485C60.8911 35.5445 61.3841 35.9031 61.3841 36.5395C61.3841 37.1939 60.8911 37.5614 60.0485 37.5614H58.1571V35.5445ZM58.1571 38.2427H60.0485C61.0704 38.2427 61.662 38.6461 61.662 39.3273C61.662 40.0445 61.0704 40.4478 60.0485 40.4478H58.1571V38.2427ZM65.7227 34.8274C64.423 34.8274 63.5534 35.4638 63.5534 36.4499C63.5534 38.6999 67.0853 37.8214 67.0763 39.4708C67.0763 40.0714 66.5116 40.4389 65.6062 40.4389C64.898 40.4389 64.1002 40.1162 63.5176 39.5514L63.1949 40.1969C63.7865 40.7616 64.6829 41.156 65.5972 41.156C66.9418 41.156 67.8651 40.4837 67.8651 39.4349C67.8741 37.158 64.3423 38.0007 64.3423 36.3871C64.3423 35.8583 64.8712 35.5535 65.6779 35.5535C66.1799 35.5535 66.8432 35.7059 67.408 36.0824L67.7128 35.4101C67.1928 35.0605 66.4488 34.8274 65.7227 34.8274Z" fill="#643DDB"/>
</g>
<defs>
<clipPath id="clip0">
<rect width="68.7005" height="41.156" fill="white"/>
</clipPath>
</defs>
</svg>
