<svg width="126" height="30" viewBox="0 0 126 30" fill="none" xmlns="http://www.w3.org/2000/svg">
<path fill-rule="evenodd" clip-rule="evenodd" d="M74.2781 0.222997C73.1072 0.369869 72.0751 0.88073 71.2203 1.73647C70.416 2.5417 69.9469 3.40646 69.6888 4.55986C69.6184 4.8744 69.603 5.12495 69.5869 6.21716L69.5678 7.50389H68.5218H67.4758V9.33619V11.1685H68.5257H69.5757V16.4389V21.7093H71.6756H73.7756V16.4389V11.1685H75.3402H76.9049V9.33619V7.50389H75.3402H73.7756V6.5655C73.7756 5.55626 73.8059 5.33799 73.9995 4.95609C74.1356 4.6875 74.4675 4.33191 74.7717 4.12875C75.2996 3.7763 75.8868 3.7126 76.5343 3.93754C76.7042 3.99654 76.86 4.04953 76.8806 4.05526C76.9012 4.06102 77.2021 3.39872 77.5493 2.58345C78.133 1.21268 78.1751 1.09702 78.1089 1.04625C77.9876 0.953363 77.353 0.645908 77.049 0.532758C76.1915 0.213527 75.2196 0.104906 74.2781 0.222997ZM5.7553 6.68656C4.72226 6.7944 3.75106 7.15682 2.70714 7.82411C1.83443 8.38199 0.898316 9.27689 0.30074 10.1246C0.129945 10.3669 -0.0053157 10.5689 0.000160602 10.5735C0.125004 10.678 3.18865 12.4861 3.2409 12.4861C3.2612 12.4861 3.40667 12.3147 3.56421 12.1052C3.7217 11.8958 4.01487 11.5669 4.21564 11.3744C5.44731 10.1936 6.69496 9.93356 7.45963 10.6982C8.1594 11.398 7.9345 12.1439 6.65276 13.3746C6.13679 13.87 4.47825 15.3239 2.24129 17.2418L0.608442 18.6418L0.607824 20.1757L0.607207 21.7096L6.69085 21.6992L12.7745 21.6887V19.8359V17.983L9.61692 17.9624L6.45936 17.9418L6.75413 17.6948C8.17805 16.5014 10.9345 14.0556 11.1764 13.7708C11.8223 13.0106 12.1589 12.2502 12.2613 11.3198C12.3727 10.3066 12.121 9.43081 11.466 8.55353C10.7694 7.62054 9.89127 7.09411 8.59178 6.83043C7.68856 6.64715 6.6416 6.59404 5.7553 6.68656ZM57.813 6.76665C55.5002 7.03614 53.4313 8.31702 52.1661 10.2626C51.8706 10.7172 51.453 11.582 51.2966 12.0638C51.0281 12.8906 50.9187 13.8288 50.9715 14.8537C51.0807 16.9776 52.2273 19.085 54.002 20.4235C55.3996 21.4776 56.8781 21.96 58.704 21.9578C60.5161 21.9556 61.9781 21.4673 63.4085 20.3868C64.8009 19.3349 65.8982 17.5999 66.2373 15.9139C66.6845 13.691 66.1944 11.55 64.8261 9.7488C63.8966 8.52528 62.681 7.65735 61.1722 7.13994C60.1289 6.78217 58.8754 6.64287 57.813 6.76665ZM117.776 6.81284C115.9 6.9171 113.954 7.82283 112.684 9.18252C111.609 10.3325 110.913 11.7478 110.663 13.289C110.581 13.7927 110.593 15.0916 110.684 15.59C110.889 16.7084 111.475 17.9989 112.225 18.9802C112.699 19.6006 113.531 20.3567 114.248 20.8199C116.176 22.0659 118.505 22.3901 120.627 21.708C121.467 21.4381 122.579 20.8158 123.305 20.2097C124.743 19.0095 125.584 17.5371 125.929 15.6154C126.024 15.0875 126.024 14.0764 125.929 13.5865C125.817 13.0077 125.486 12.1611 124.907 10.9705C124.793 10.7371 124.707 10.54 124.715 10.5325C124.723 10.525 125.003 10.4027 125.337 10.2607L125.945 10.0026V8.56798V7.13331H123.265C120.749 7.13331 120.566 7.12841 120.269 7.05347C119.395 6.83244 118.674 6.76286 117.776 6.81284ZM103.072 6.90491C101.867 7.13471 101.107 7.52464 100.179 8.3887L99.8395 8.70509V7.91922V7.13331H97.8631H95.8867V14.4213V21.7093H97.9042H99.9218V17.8205C99.9218 15.4661 99.9389 13.7237 99.9651 13.4045C100.036 12.5383 100.19 12.207 100.803 11.6004C101.459 10.9513 102.205 10.7533 103.12 10.985C103.438 11.0655 103.977 11.3327 104.189 11.5151C104.408 11.703 104.65 12.0673 104.764 12.3827C104.934 12.8495 104.945 13.1726 104.945 17.5403L104.945 21.7093H106.964H108.984L108.971 16.4904L108.958 11.2714L108.863 10.8197C108.443 8.8245 107.588 7.73896 105.995 7.17654C105.515 7.00703 105.063 6.90326 104.566 6.84817C103.99 6.78443 103.632 6.79802 103.072 6.90491ZM35.4017 6.93019C34.2162 7.15777 33.4661 7.56672 32.647 8.43198L32.3121 8.7858V7.98012V7.17449H30.3357H28.3593V14.4625V21.7505H30.3957H32.4322L32.4462 17.3756C32.4585 13.5692 32.4686 12.974 32.524 12.7949C32.761 12.0298 33.503 11.2606 34.2192 11.0378C34.5225 10.9433 35.0697 10.9388 35.4149 11.0279C36.1923 11.2284 36.7151 11.7538 36.948 12.5684C37.0201 12.8205 37.0253 13.0938 37.0371 17.2727L37.0497 21.7093H39.0641H41.0785L41.0941 17.5198C41.1106 13.0717 41.1084 13.1234 41.3056 12.5745C41.4618 12.1398 41.9719 11.5419 42.4445 11.2396C42.8045 11.0093 43.0248 10.9473 43.4912 10.9453C43.9141 10.9435 44.2475 11.0223 44.6306 11.2145C44.897 11.3482 45.2606 11.7225 45.4151 12.0223C45.7349 12.6426 45.7346 12.6366 45.7349 17.458L45.7353 21.7093H47.7547H49.7741L49.7589 17.1904C49.7456 13.2645 49.7346 12.6051 49.6751 12.1667C49.5079 10.9349 49.2007 9.82654 48.8506 9.19207C48.3545 8.29309 47.643 7.63038 46.7064 7.19474C46.0576 6.89297 45.9098 6.86522 44.9735 6.86913C44.25 6.87214 44.087 6.88577 43.6311 6.98133C42.3557 7.24877 41.6117 7.65994 40.3785 8.77884C40.0776 9.05191 40.0625 9.06019 40.0228 8.97364C39.9514 8.81787 39.4535 8.22668 39.2023 7.99947C38.8998 7.72574 38.3641 7.37102 38.0129 7.21175C37.2597 6.87024 36.2698 6.76348 35.4017 6.93019ZM84.1106 6.99369C83.1598 7.13512 81.8691 7.67094 81.0236 8.27518C80.5836 8.58964 79.812 9.31556 79.4582 9.74794C78.4892 10.9323 78.0031 12.1904 77.899 13.7831C77.79 15.4517 78.1406 17.0701 78.8651 18.2417C80.0125 20.0975 81.8186 21.3559 83.8458 21.7122C84.492 21.8257 85.5274 21.8374 86.0783 21.7372C87.1378 21.5445 88.1092 21.0813 88.9383 20.3735L89.2575 20.1011V20.9052V21.7093H91.3162H93.375V14.421V7.13257L91.2442 7.14323L89.1133 7.1539L89.1022 7.94409L89.091 8.73433L88.6698 8.31269C88.0222 7.66431 87.4369 7.32333 86.6145 7.11519C85.8554 6.92307 84.8978 6.87658 84.1106 6.99369ZM14.9362 8.82125V10.5915L18.0536 10.6021L21.1709 10.6126L19.0624 12.4198L16.9538 14.2269V15.3084V16.39L18.6317 16.4107C20.3802 16.4322 20.575 16.4494 21.1107 16.6292C22.1302 16.9714 22.6397 17.6951 22.6413 18.8027C22.642 19.2669 22.5522 19.7103 22.4012 19.9886C22.1706 20.4136 21.7334 20.8006 21.3166 20.9486C21.0042 21.0596 19.9787 21.1852 19.6302 21.1553C19.0024 21.1013 18.5003 20.9331 18.0243 20.6172C17.7629 20.4438 17.3305 20.0225 16.7809 19.4059L16.5077 19.0995L16.3499 19.2416C16.2631 19.3197 15.66 19.8623 15.0098 20.4472L13.8277 21.5108L14.471 22.2586C15.5159 23.4732 15.7344 23.6734 16.3567 23.9863C16.7798 24.1991 16.9252 24.2535 17.4357 24.3897C18.059 24.5561 18.6358 24.629 19.5684 24.6594C20.9854 24.7056 22.1324 24.4857 23.2388 23.9559C24.437 23.382 25.2656 22.5697 25.8078 21.4376C26.5511 19.8858 26.5655 17.9449 25.8442 16.5142C25.4761 15.7841 24.8519 15.0556 24.2515 14.6558C23.7316 14.3094 22.7403 13.887 22.1933 13.7787C22.1197 13.7642 22.0595 13.7392 22.0595 13.7232C22.0595 13.7073 22.9211 12.8832 23.9741 11.8919L25.8888 10.0896V8.57024V7.05096H20.4125H14.9362V8.82125ZM59.6509 10.7975C60.9898 11.1806 62.032 12.3715 62.2506 13.768C62.3601 14.468 62.2216 15.3801 61.9119 15.9982C61.6161 16.5885 61.0295 17.2247 60.4801 17.5511C58.6811 18.6198 56.3342 17.8739 55.4136 15.9409C54.8709 14.8012 54.9551 13.4066 55.6303 12.3511C56.0438 11.7046 56.773 11.1177 57.4682 10.8716C58.0823 10.6542 59.0372 10.6218 59.6509 10.7975ZM86.6282 10.8199C87.913 11.1522 88.9444 12.2776 89.1984 13.6244C89.2914 14.1172 89.2609 15.0104 89.1363 15.4437C88.7163 16.9039 87.3706 17.9212 85.8589 17.9212C84.7475 17.9212 83.8957 17.5829 83.1635 16.8506C82.6523 16.3392 82.4212 15.9417 82.2273 15.2398C82.115 14.8334 82.126 13.8076 82.2472 13.3855C82.4439 12.7001 82.7384 12.2155 83.266 11.7089C84.0055 10.999 84.8177 10.6972 85.8871 10.7352C86.1508 10.7446 86.4843 10.7827 86.6282 10.8199ZM119.233 10.835C119.848 10.9935 120.354 11.2891 120.822 11.7631C121.402 12.3509 121.722 12.95 121.869 13.7213C121.932 14.0517 121.924 14.8528 121.853 15.1909C121.585 16.4768 120.548 17.6069 119.308 17.9652C118.927 18.0753 118.091 18.1177 117.686 18.0473C116.354 17.8154 115.253 16.8154 114.841 15.4633C114.742 15.1362 114.731 15.0363 114.729 14.4419C114.728 13.9469 114.745 13.712 114.799 13.4973C115.054 12.4842 115.813 11.5423 116.742 11.0872C117.103 10.9101 117.326 10.8419 117.874 10.7401C118.094 10.6992 118.934 10.7578 119.233 10.835ZM110.669 22.3226C110.669 22.4108 110.688 22.6748 110.712 22.9093C110.981 25.5698 112.57 27.8444 115.017 29.0709C117.051 30.0908 119.585 30.077 121.621 29.0351C123.732 27.9548 125.207 26.0705 125.713 23.806C125.809 23.3767 125.903 22.6286 125.903 22.2961L125.903 22.1623H123.974H122.045L122.019 22.5225C121.928 23.7813 121.123 24.9579 119.954 25.5405C119.338 25.847 119.009 25.9223 118.286 25.9223C117.802 25.9223 117.627 25.9054 117.36 25.833C115.959 25.4531 114.893 24.3308 114.604 22.932C114.568 22.7597 114.539 22.516 114.539 22.3905V22.1623H112.604H110.669V22.3226Z" fill="url(#paint0_linear)"/>
<defs>
<linearGradient id="paint0_linear" x1="63" y1="0.176575" x2="63" y2="29.8263" gradientUnits="userSpaceOnUse">
<stop stop-color="#3D5AFE"/>
<stop offset="0.316277" stop-color="#3D5AFE"/>
<stop offset="0.696508" stop-color="#FF5252"/>
<stop offset="1" stop-color="#FF5252"/>
</linearGradient>
</defs>
</svg>
