<svg width="68" height="55" viewBox="0 0 68 55" fill="none" xmlns="http://www.w3.org/2000/svg">
<path d="M14 0.0124092C14 0.0246353 14.4402 0.913143 14.9782 1.98914L15.9564 3.94549L28.7012 3.95772C42.9092 3.96994 41.7639 3.94549 43.2841 4.25117C45.3098 4.65466 46.8382 5.42905 48.012 6.64362C49.0798 7.73999 49.7034 9.10129 49.9276 10.8131C50.0091 11.4326 50.0213 12.7368 49.952 13.2993C49.7238 15.0885 49.0961 16.4947 48.0242 17.6196C46.3735 19.3477 44.0015 20.2158 40.5452 20.3544C40.158 20.3707 39.8401 20.3911 39.8401 20.3992C39.8401 20.4074 42.1348 23.6965 44.9389 27.7111L50.0376 35.0026H52.5238C54.5005 35.0026 55.0019 34.9903 54.9774 34.9496C54.9611 34.9251 53.0985 32.2841 50.8365 29.0846C48.5785 25.8852 46.7281 23.2522 46.7281 23.2359C46.7281 23.2155 46.8993 23.1422 47.1072 23.0688C50.8079 21.7279 53.2778 19.1113 54.2071 15.5409C54.7084 13.6172 54.7614 11.3022 54.3416 9.26432C53.343 4.36936 49.3896 1.0721 43.5083 0.220268C42.0125 0.0042572 43.0151 0.0164833 27.9308 0.0042572C20.2685 -0.00389481 14 0.000179291 14 0.0124092Z" fill="black"/>
<path d="M25.2286 11.1188C23.3252 13.4501 21.7601 15.3738 21.752 15.3901C21.7479 15.4105 22.0821 16.0952 22.4978 16.9145L23.2519 18.4021L24.4216 18.4306C26.6673 18.4836 27.833 18.6426 29.1291 19.0664C30.8368 19.6289 31.9902 20.5011 32.7524 21.8053C33.6939 23.4152 33.755 25.8851 32.9032 27.6051C32.4386 28.5344 31.6764 29.374 30.7716 29.9364C30.527 30.0913 29.5692 30.56 29.5 30.56C29.4755 30.56 29.4388 30.5804 29.4266 30.6008C29.4062 30.6374 31.1955 34.2282 31.281 34.3219C31.3544 34.4034 32.6179 33.8247 33.3352 33.3804C35.0103 32.3493 36.2045 31.0899 37.0238 29.4881C38.5562 26.4883 38.4747 22.5145 36.824 19.7756C36.1352 18.6385 35.1245 17.6033 33.971 16.8533C32.4019 15.8385 30.1317 15.1252 27.7881 14.9051C27.4906 14.8766 27.2461 14.844 27.2461 14.8277C27.2461 14.8155 28.6848 13.0384 30.4455 10.8783C32.2062 8.72224 33.645 6.94114 33.645 6.91669C33.645 6.89631 32.6831 6.88001 31.171 6.88001L28.693 6.88408L25.2286 11.1188Z" fill="black"/>
<path d="M0.529813 43.8378V44.352L2.81424 44.3489C4.06709 44.3489 5.20152 44.3364 5.33241 44.3271L5.56927 44.3053L5.2358 44.6637C5.05192 44.86 4.3133 45.7077 3.59961 46.5492C2.88281 47.3875 2.28131 48.0981 2.25638 48.1231C2.22521 48.1605 2.2408 48.2259 2.35923 48.5033L2.49947 48.8399H3.0698C3.68688 48.8399 4.01411 48.8804 4.37875 49.005C5.22022 49.2918 5.79366 49.8652 5.97131 50.6007C6.04299 50.8968 6.04299 51.4671 5.97442 51.7382C5.84976 52.2088 5.57862 52.6327 5.20775 52.935C4.34135 53.6456 3.16018 53.7297 1.99459 53.1687C1.57386 52.9662 1.22169 52.7293 0.925615 52.4551L0.691874 52.2369L0.345937 52.6639L0 53.0908L0.134012 53.228C0.744855 53.8606 1.79513 54.3935 2.75814 54.5618C3.17576 54.6335 3.90815 54.6335 4.28214 54.5618C5.06439 54.4091 5.6503 54.1037 6.18635 53.5614C6.77226 52.9724 7.09326 52.293 7.16806 51.4858C7.26467 50.4542 6.94678 49.513 6.28919 48.8835C5.80924 48.4222 5.02387 48.0638 4.18864 47.9267L3.77726 47.8581L5.41033 45.9664L7.0434 44.0747V43.6976V43.3236H3.78661H0.529813V43.8378Z" fill="black"/>
<path d="M16.2993 48.8836V54.4497H16.8447H17.3901V52.1123V49.7749L18.7801 49.7811L20.167 49.7905L21.4073 52.1123L22.6477 54.4341L23.2897 54.4435C23.645 54.4466 23.9349 54.4404 23.9349 54.4248C23.9349 54.3749 21.5289 49.9401 21.3824 49.725L21.2359 49.5069L21.4697 49.4227C22.093 49.2014 22.6789 48.6498 22.9999 47.986C23.4861 46.9793 23.4487 45.6299 22.9126 44.7167C22.7786 44.4861 22.4233 44.1059 22.1709 43.9282C21.7844 43.654 21.2858 43.4732 20.6625 43.386C20.4911 43.361 19.6839 43.3423 18.35 43.333L16.2993 43.3174V48.8836ZM20.6313 44.4269C21.3668 44.5921 21.9153 45.1281 22.1179 45.8792C22.1927 46.1566 22.1927 46.836 22.1148 47.1414C21.9621 47.7709 21.5382 48.307 20.9897 48.5625C20.5783 48.7558 20.569 48.7558 18.911 48.7714L17.3901 48.7807V46.5648V44.3459L18.8954 44.3614C20.1576 44.3708 20.435 44.3833 20.6313 44.4269Z" fill="black"/>
<path d="M32.5986 48.8867V54.4497H35.8866H39.1745V53.9355V53.4212H36.4476H33.7206V51.3799V49.3386H35.8243H37.9279V48.8399V48.3413H35.8243H33.7206V46.3467V44.3521H36.2917H38.8629V43.8379V43.3236H35.7308H32.5986V48.8867Z" fill="black"/>
<path d="M48.0259 48.8867V54.4497H48.5869H49.1478V48.8867V43.3236H48.5869H48.0259V48.8867Z" fill="black"/>
<path d="M58.9336 48.8867V54.4497H59.479H60.0244V50.1458C60.0244 47.2972 60.0119 45.7171 59.9901 45.4709C59.9714 45.2684 59.9621 45.0845 59.9683 45.0658C59.9745 45.0471 60.174 45.3525 60.414 45.7452C60.7381 46.2781 61.5795 47.4873 63.6832 50.4543L66.5162 54.4497H67.0584H67.5976V48.8867V43.3236H67.0366H66.4725L66.4881 47.7865C66.4943 50.4107 66.513 52.3554 66.5317 52.5019C66.5473 52.639 66.5598 52.7543 66.5536 52.7605C66.5504 52.7637 66.3479 52.4395 66.1048 52.0375C65.7619 51.4734 65.0233 50.4107 62.8355 47.3253L60.0057 43.3392L59.4696 43.3299L58.9336 43.3236V48.8867Z" fill="black"/>
</svg>
