<svg width="108" height="36" viewBox="0 0 108 36" fill="none" xmlns="http://www.w3.org/2000/svg">
<g clip-path="url(#clip0)">
<path d="M56.623 35.5048V26.0639H48.1571V35.5048H45.7018V15.0398H48.1571V23.9083H56.623V15.0398H59.0336V35.5048H56.623ZM63.1078 35.5048V15.0398H65.563V35.5048H63.1078ZM69.5836 35.5048V15.0398H80.1067V17.2178H72.0567V23.9262H79.91V26.1041H72.0388V35.4958L69.5836 35.5048ZM87.0566 35.5048V17.2178H82.1774V15.0398H94.3642V17.2178H89.4806V35.5048H87.0566ZM95.6388 33.2955L96.9805 31.4261C97.5646 32.1303 98.2955 32.6985 99.122 33.091C99.9486 33.4834 100.851 33.6905 101.766 33.698C104.342 33.698 105.509 32.0701 105.509 30.3215C105.509 25.3528 96.2426 26.6721 96.2426 20.0756C96.2426 16.945 98.7291 14.7089 102.133 14.7089C104.404 14.7089 106.274 15.4781 107.593 16.8869L106.336 18.7294C105.8 18.1341 105.142 17.6614 104.406 17.3435C103.671 17.0255 102.875 16.8698 102.074 16.8869C100.174 16.8869 98.7291 18.1123 98.7291 19.9548C98.7291 24.2795 107.991 23.3313 107.991 30.1694C107.991 33.1747 106.028 35.876 101.766 35.876C100.619 35.9114 99.4782 35.6992 98.4209 35.2539C97.3636 34.8086 96.4147 34.1406 95.6388 33.2955V33.2955ZM30.6841 33.2955L32.0258 31.4261C32.6099 32.1303 33.3407 32.6985 34.1673 33.091C34.9938 33.4834 35.8961 33.6905 36.811 33.698C39.387 33.698 40.5543 32.0701 40.5543 30.3215C40.5632 25.3483 31.3057 26.6676 31.3057 20.0711C31.3057 16.9405 33.7923 14.7044 37.1957 14.7044C39.4676 14.7044 41.3369 15.4736 42.6563 16.8824L41.3996 18.7249C40.8612 18.1274 40.2 17.6533 39.4613 17.3352C38.7225 17.0172 37.9237 16.8627 37.1196 16.8824C35.2189 16.8824 33.7744 18.1078 33.7744 19.9503C33.7744 24.275 43.0364 23.3269 43.0364 30.1649C43.0364 33.1703 41.0731 35.8715 36.811 35.8715C35.6647 35.9075 34.524 35.696 33.4667 35.2515C32.4094 34.8069 31.4603 34.1398 30.6841 33.2955V33.2955Z" fill="#020202"/>
<path fill-rule="evenodd" clip-rule="evenodd" d="M24.7713 17.343H12.2222V14.8832H28.0986V16.6721L18.5638 35.9027H15.3393L24.7713 17.343Z" fill="#020202"/>
<path fill-rule="evenodd" clip-rule="evenodd" d="M20.6349 3.17047C20.656 3.11769 20.668 3.06176 20.6707 3.005C20.6707 2.89319 20.6707 2.75455 20.6259 2.75455H22.4685C22.8096 2.73002 23.1291 2.5787 23.3641 2.33039C23.5992 2.08208 23.7328 1.75476 23.7386 1.41288V1.15796C23.7297 0.500546 23.1617 0.124878 22.464 0.124878H14.499C13.7968 0.124878 13.2289 0.500546 13.2289 1.15796V1.40394C13.2347 1.74582 13.3683 2.07313 13.6034 2.32144C13.8384 2.56976 14.1579 2.72107 14.499 2.74561H16.0777C16.0464 2.74561 16.033 2.88425 16.033 2.99605C16.0284 3.03468 16.0284 3.07371 16.033 3.11233C12.1611 3.61618 8.53917 5.30298 5.66185 7.94234C2.01251 11.2697 0 15.6167 0 20.1873C0 27.1774 4.32465 33.2194 10.5187 35.9028L11.753 33.5146C6.41766 31.2651 2.68334 26.1399 2.68334 20.1873C2.68334 11.8824 10.7915 5.67939 18.0365 5.67939C21.948 5.7093 25.743 7.01409 28.8459 9.39582L30.0534 6.94056C27.2766 4.91966 24.0392 3.6238 20.6349 3.17047V3.17047Z" fill="#FB7448"/>
</g>
<defs>
<clipPath id="clip0">
<rect width="108" height="35.8002" fill="white" transform="translate(0 0.124878)"/>
</clipPath>
</defs>
</svg>
