<svg width="106" height="25" viewBox="0 0 106 25" fill="none" xmlns="http://www.w3.org/2000/svg">
<g clip-path="url(#clip0)">
<path d="M31.323 7.80363C32.9487 7.80363 34.4661 8.45394 35.55 9.53778C35.9835 8.34555 36.6338 7.26171 37.2841 6.39463C35.6583 5.09402 33.599 4.33533 31.323 4.33533C25.9037 4.33533 21.5684 8.77909 21.5684 14.1983C21.5684 19.6175 25.9037 24.0613 31.323 24.0613C33.599 24.0613 35.6583 23.3026 37.2841 22.002C36.5254 21.0265 35.9835 19.9427 35.55 18.8588C34.4661 19.9427 32.9487 20.593 31.323 20.593C27.8547 20.593 25.145 17.775 25.145 14.3067C25.0367 10.73 27.8547 7.80363 31.323 7.80363Z" fill="#242C61"/>
<path d="M11.0552 0.650269C10.5133 0.650269 9.97137 1.08381 9.64622 1.62573L0 23.3026H3.90184L5.20245 20.1595H16.908L18.317 23.3026H22.2188L12.4642 1.62573C12.2474 1.08381 11.7055 0.650269 11.0552 0.650269ZM6.82822 16.6912L11.1636 7.04495L15.499 16.6912H6.82822Z" fill="#242C61"/>
<path d="M57.3354 14.1983C57.3354 8.77909 53.2168 4.5521 48.0143 4.33533C48.0143 4.33533 48.0143 4.33533 47.9059 4.33533C47.6892 4.33533 47.6892 4.44371 47.7976 4.5521C47.7976 4.5521 47.7976 4.5521 47.7976 4.66048C48.1227 5.41917 48.9898 7.15332 50.6156 8.45394C52.5665 10.0797 53.8671 11.9222 53.8671 14.3067C53.8671 17.3415 51.591 20.593 47.6892 20.593C43.8957 20.593 41.5113 17.3415 41.5113 14.3067C41.5113 11.9222 42.7035 10.0797 44.7628 8.45394C46.3886 7.15332 47.2556 5.31079 47.5808 4.66048C47.6892 4.5521 47.5808 4.44371 47.4724 4.44371C42.1616 4.5521 37.9346 8.99586 37.9346 14.3067C37.9346 18.7505 41.6196 23.8445 47.5808 23.8445C50.2904 23.8445 52.4581 22.9775 54.1922 21.6768L56.0348 23.411H61.3456L56.3599 18.5337C57.0102 17.2331 57.3354 15.7157 57.3354 14.1983Z" fill="#242C61"/>
<path d="M84.6485 4.66052H80.9634V23.3026H84.6485V4.66052Z" fill="#242C61"/>
<path d="M73.8097 13.9816C73.8097 17.8834 71.8588 20.2679 68.7157 20.2679C65.5725 20.2679 63.6216 17.8834 63.6216 13.9816V4.66052H59.9365V13.9816C59.9365 19.726 63.6216 23.8446 68.7157 23.8446C73.8097 23.8446 77.4948 19.726 77.4948 13.9816V4.66052H73.8097V13.9816Z" fill="#242C61"/>
<path d="M102.315 4.6605V7.4785L101.665 6.7198C99.9305 4.98565 98.088 4.01019 95.9203 4.01019C93.4274 4.01019 91.3681 4.98565 89.7424 6.82819C88.1166 8.67072 87.2495 11.0552 87.2495 13.8732C87.2495 16.6912 88.1166 19.184 89.7424 21.0266C91.3681 22.8691 93.5358 23.8445 96.0287 23.8445C97.9796 23.8445 99.9305 22.9775 101.665 21.3517L102.315 20.7014V23.3026H106V4.6605H102.315ZM101.014 18.7505C99.9305 19.9427 98.5215 20.593 96.679 20.593C95.0532 20.593 93.6442 19.9427 92.5604 18.6421C91.4765 17.4499 90.9346 15.8241 90.9346 13.8732C90.9346 12.0306 91.4765 10.5133 92.5604 9.21265C93.6442 7.91203 95.0532 7.37011 96.679 7.37011C98.4131 7.37011 99.8221 8.02042 100.906 9.21265C101.99 10.5133 102.532 12.0306 102.532 13.9816C102.532 15.9325 101.99 17.5583 101.014 18.7505Z" fill="#242C61"/>
</g>
<defs>
<clipPath id="clip0">
<rect width="106" height="23.411" fill="white" transform="translate(0 0.650269)"/>
</clipPath>
</defs>
</svg>
