<svg width="109" height="25" viewBox="0 0 109 25" fill="none" xmlns="http://www.w3.org/2000/svg">
<g clip-path="url(#clip0)">
<path d="M30.8998 9.03701C29.7312 7.67061 28.1493 6.98614 26.1517 6.98614C24.1414 6.98614 22.5189 7.78215 21.2768 9.37671C20.0346 10.9713 19.416 13.0754 19.416 15.6966V15.9172C19.416 18.5257 20.0396 20.64 21.2844 22.2599C22.5316 23.8798 24.1414 24.6885 26.1187 24.6885C28.2025 24.6885 29.8275 23.9736 30.9936 22.5438L31.1356 24.3741H33.8177V0.141479H30.8998V9.03701ZM30.8998 19.7172C30.0481 21.3802 28.6969 22.2092 26.8463 22.2092C25.4368 22.2092 24.3315 21.6616 23.533 20.569C22.7344 19.4764 22.3339 17.9604 22.3339 16.0262C22.3339 13.8587 22.7344 12.2236 23.533 11.1208C24.3315 10.0155 25.4469 9.4629 26.8767 9.4629C28.6842 9.4629 30.0278 10.2665 30.8998 11.8763V19.7172Z" fill="#2900D2"/>
<path d="M42.6928 6.98615C41.3365 6.98615 40.0766 7.36133 38.913 8.11425C37.7494 8.86716 36.847 9.90653 36.198 11.2374C35.5515 12.5683 35.2271 14.0792 35.2271 15.7727V16.3101C35.2271 18.8553 35.9521 20.8884 37.4047 22.4069C38.8573 23.928 40.7383 24.6859 43.0528 24.6859C45.9149 24.6859 48.0595 23.5883 49.4893 21.3878L47.7072 19.9986C47.1697 20.6932 46.5461 21.2509 45.8312 21.6718C45.1163 22.0926 44.2417 22.303 43.2125 22.303C41.7599 22.303 40.5634 21.7858 39.6228 20.749C38.6823 19.7121 38.1905 18.3534 38.1474 16.6701H49.7124V15.4558C49.7124 12.7306 49.0964 10.6392 47.8669 9.17644C46.6374 7.71624 44.911 6.98615 42.6928 6.98615ZM46.7945 14.2744H38.2438C38.4339 12.7281 38.9282 11.5264 39.7268 10.6696C40.5253 9.81274 41.514 9.38431 42.6928 9.38431C43.9122 9.38431 44.8806 9.79246 45.5954 10.6062C46.3103 11.4225 46.7109 12.5709 46.7945 14.0539V14.2744Z" fill="#2900D2"/>
<path d="M56.9121 20.4119L52.5746 7.30054H49.5908L55.7764 24.3716H58.0022L64.1218 7.30054H61.1406L56.9121 20.4119Z" fill="#2900D2"/>
<path d="M68.4847 7.30054H65.5669V24.3716H68.4847V7.30054Z" fill="#2900D2"/>
<path d="M67.0498 1.08453C66.482 1.08453 66.0536 1.24678 65.7646 1.5738C65.4756 1.90082 65.3311 2.29883 65.3311 2.77288C65.3311 3.24694 65.4756 3.63987 65.7646 3.95676C66.0536 4.2711 66.482 4.43081 67.0498 4.43081C67.6177 4.43081 68.0486 4.27364 68.3427 3.95676C68.6368 3.64241 68.7838 3.24694 68.7838 2.77288C68.7838 2.29883 68.6368 1.90082 68.3427 1.5738C68.0486 1.24931 67.6202 1.08453 67.0498 1.08453Z" fill="#2900D2"/>
<path d="M78.8607 6.98615C76.7566 6.98615 75.053 7.8075 73.75 9.44769L73.6562 7.30303H70.8955V24.3741H73.8134V12.2109C74.2139 11.3895 74.7716 10.7279 75.4865 10.2234C76.2014 9.71894 77.0329 9.46543 77.9785 9.46543C79.1471 9.46543 80.0065 9.7595 80.5566 10.3502C81.1093 10.9383 81.3907 11.8484 81.4008 13.0804V24.3767H84.3186V13.0956C84.2882 9.0218 82.4706 6.98615 78.8607 6.98615Z" fill="#2900D2"/>
<path d="M90.8463 21.6972C90.5623 21.3549 90.4204 20.8403 90.4204 20.1584V9.55928H93.6069V7.30308H90.4204V3.1684H87.5025V7.30308H84.3945V9.55928H87.5025V20.1457C87.5025 21.5983 87.8346 22.7162 88.4963 23.5072C89.1579 24.2956 90.1415 24.6911 91.4471 24.6911C92.1721 24.6911 92.9199 24.5871 93.6881 24.3767V22.0242C93.0999 22.1509 92.636 22.2143 92.2988 22.2143C91.6144 22.2118 91.1302 22.0394 90.8463 21.6972Z" fill="#2900D2"/>
<path d="M108.399 20.3814V12.5253C108.356 10.8014 107.778 9.44515 106.665 8.46155C105.55 7.47795 104.008 6.98615 102.041 6.98615C100.799 6.98615 99.6609 7.21684 98.6265 7.68075C97.5897 8.14467 96.7709 8.77083 96.165 9.56684C95.5591 10.3603 95.2575 11.1842 95.2575 12.036H98.1931C98.1931 11.2881 98.5454 10.6518 99.2502 10.1271C99.9549 9.60233 100.827 9.33868 101.869 9.33868C103.058 9.33868 103.958 9.64035 104.566 10.2462C105.177 10.8521 105.481 11.6633 105.481 12.685V14.026H102.642C100.191 14.026 98.2894 14.5178 96.9382 15.5014C95.587 16.485 94.9102 17.8666 94.9102 19.6437C94.9102 21.1064 95.4501 22.3131 96.5275 23.2638C97.6049 24.217 98.9865 24.691 100.67 24.691C102.553 24.691 104.173 23.9863 105.53 22.5768C105.633 23.4387 105.77 24.0395 105.94 24.3741H109V24.1206C108.599 23.1953 108.399 21.9481 108.399 20.3814ZM105.481 19.5905C105.114 20.3484 104.518 20.9619 103.699 21.436C102.878 21.91 102.011 22.1458 101.096 22.1458C100.14 22.1458 99.3541 21.8872 98.7457 21.3726C98.1347 20.858 97.8305 20.1431 97.8305 19.228C97.8305 17.134 99.6178 16.087 103.195 16.087H105.481V19.5905Z" fill="#2900D2"/>
<path d="M11.3573 1.40143H8.70558L2.28174 18.3508H17.8926L11.3573 1.40143ZM10.0314 5.14064L13.981 15.8842H6.17306L10.0314 5.14064Z" fill="#2900D2"/>
<path d="M15.5679 20.1989L17.1016 24.3742H20.2096L18.6023 20.1989H15.5679Z" fill="#2900D2"/>
<path d="M0 24.3742H3.12319L4.62395 20.1989H1.58188L0 24.3742Z" fill="#2900D2"/>
</g>
<defs>
<clipPath id="clip0">
<rect width="109" height="24.547" fill="white" transform="translate(0 0.141479)"/>
</clipPath>
</defs>
</svg>
