<svg width="47" height="29" viewBox="0 0 47 29" fill="none" xmlns="http://www.w3.org/2000/svg">
<g clip-path="url(#clip0)">
<path fill-rule="evenodd" clip-rule="evenodd" d="M7.93802 21.9463V0.155648H0V3.42425H4.26474V21.9463H7.93802ZM20.6077 0C17.8061 0 15.0356 1.18292 12.6697 3.11295L14.1328 5.94574C15.9694 4.26474 18.1796 3.20634 20.0785 3.20634C22.351 3.20634 23.7207 4.26474 23.7207 6.00799C23.7207 7.25317 22.6623 9.02756 21.0747 10.6463L13.0433 19.2692V21.9463H28.5458V18.6466H17.8995L23.565 12.6386C25.8686 10.1482 27.5496 7.68899 27.5496 5.47879C27.5496 2.14794 24.7168 0 20.6077 0ZM46.9433 2.9573V0.155648H31.0984V6.50607H34.3358L34.367 3.45538H42.8342L34.367 21.9463H38.2582L46.9433 2.9573ZM32.1642 27.6715V23.8448H31.6736V28.1376H34.0469V27.6715H32.1642ZM37.6099 27.0521L38.0882 28.1376H38.6218L36.7023 23.8448H36.1933L34.2676 28.1376H34.7889L35.2672 27.0521H37.6099ZM37.4014 26.5799H35.4757L36.4324 24.4029L37.4014 26.5799ZM39.2963 23.8448V28.1376H41.1361C42.105 28.1376 42.6815 27.7022 42.6815 26.9724C42.6815 26.3837 42.3197 25.9789 41.7003 25.887C42.2032 25.7827 42.4914 25.4209 42.4914 24.918C42.4914 24.2434 41.9701 23.8448 41.1054 23.8448H39.2963ZM39.7869 24.317H41.0809C41.6574 24.317 41.9947 24.5623 41.9947 24.9977C41.9947 25.4454 41.6574 25.6968 41.0809 25.6968H39.7869V24.317ZM39.7869 26.1629H41.0809C41.78 26.1629 42.1848 26.4389 42.1848 26.905C42.1848 27.3956 41.78 27.6715 41.0809 27.6715H39.7869V26.1629ZM44.9628 23.8264C44.0736 23.8264 43.4787 24.2618 43.4787 24.9364C43.4787 26.4757 45.895 25.8747 45.8888 27.0031C45.8888 27.414 45.5025 27.6654 44.8831 27.6654C44.3986 27.6654 43.8528 27.4446 43.4542 27.0583L43.2334 27.4998C43.6382 27.8862 44.2514 28.156 44.877 28.156C45.7968 28.156 46.4285 27.6961 46.4285 26.9786C46.4346 25.4209 44.0184 25.9973 44.0184 24.8935C44.0184 24.5317 44.3802 24.3232 44.9322 24.3232C45.2756 24.3232 45.7294 24.4274 46.1157 24.685L46.3242 24.225C45.9686 23.9859 45.4596 23.8264 44.9628 23.8264Z" fill="#643DDB"/>
</g>
<defs>
<clipPath id="clip0">
<rect width="47" height="28.156" fill="white"/>
</clipPath>
</defs>
</svg>
