<svg xmlns="http://www.w3.org/2000/svg" width="95" height="69" viewBox="0 0 95 69" stroke="none" stroke-linecap="round" stroke-linejoin="round" fill="#326ce5" fill-rule="nonzero">
  <path d="M58.0973 5.9286l10.1449 17.5715-10.1449 17.5716H37.8076L27.6627 23.5001 37.8076 5.9286h20.2897zm.825-1.4286H36.9829L26.0131 23.5001 36.9829 42.5h21.9394l10.9695-18.9999L58.9223 4.5zm-10.6595 9.4851h2.6142v3.0243h-2.6142zm-2.9485 0h2.4621v3.0243h-2.4621zm-9.4167-.678l7.9323 1.7458v.4557l-10.6254 2.4632-3.1918 5.5286 8.9698 15.7665h.7289c.5467-.4112 1.7507-1.6294 2.7355-3.0358s1.4555-2.1763 2.1559-2.5905c.2098-.1413.4508-.2377.709-.2851.0074-.0022.0132-.0049.0206-.0064l-.0008.0045c.1043-.0177.2099-.0322.319-.0322.8166 0 1.5048.5238 1.765 1.2512-.3304-.16-.9968-.3554-1.6247.2304-.8788.8196-.371 2.2574-.371 2.2574.0329.1037.0697.1939.1084.2776-.4775.5826-1.7057 1.5671-2.23 1.9289h.5634c.6185-.4615 2.3782-1.8522 3.5349-3.5033 1.1398-1.6269 1.6803-2.5127 2.4886-2.9906.2425-.1625.5203-.2744.8183-.3287.0087-.0023.0155-.0057.0242-.0075-.0005.0015-.0007.0035-.0012.0052.1203-.0206.2422-.0371.3685-.0371.9427 0 1.7371.604 2.0373 1.444-.3815-.1844-1.1507-.4101-1.8756.2659-1.0144.9462-.4281 2.6062-.4281 2.6062.0868.2741.1909.4944.3142.6307-.4599.5708-1.6787 1.5496-2.2049 1.9152h.5511c.4854-.3708 1.7802-1.4104 2.5743-2.5444.8301-1.1841 1.2233-1.8288 1.8116-2.1766.1764-.1186.3788-.1999.5958-.2395.0062-.0015.0112-.004.0174-.0052-.0005.0012-.0005.0027-.001.004.0877-.0152.1765-.0272.2681-.0272.6863 0 1.2644.4401 1.4829 1.0511-.2773-.1338-.8372-.2983-1.365.1933-.7383.689-.3115 1.8971-.3115 1.8971.0631.1993.1388.36.2285.4592l-.005.0055c.0952.1587.5031.9972 1.3476 1.3829h.7897l8.97-15.7664-3.2117-5.563-10.4285-2.4176v-.4558l7.7809-1.7123-3.1107-5.3881H38.9825m5.9457 10.7171v-4.6732h-.7209L48.1046 10.9l3.8967 3.1078h-.7204v4.6734h2.4594s-1.292 1.839-1.292 3.9668h-3.4444-1.7989-3.4444c0-2.1278-1.2918-3.9668-1.2918-3.9668h2.4594zm4.7133 4.8194l-6.3661 3.6752.4343-3.6752h5.9318zm-7.1567 10.3642l.4597-3.888 9.4465-5.4755.401 3.3909-10.3072 5.9726zm8.0882-2.0864v-.4906l2.6647-1.5385.3656 3.0924c-.9173-1.4465-3.0303-1.0633-3.0303-1.0633M8.1383 50.5967c.4587 0 .8376.0386 1.138.1145s.5538.1585.7614.2459l-.4256 1.9155c-.1749-.0759-.3687-.1312-.5812-.1637a4.253 4.253 0 0 0-.6467-.0488c-.2949 0-.5434.0407-.7455.1225s-.3601.194-.4746.3359-.1966.3113-.2459.5079-.0737.4091-.0737.6381v.4258h3.013v2.0303h-3.013v6.5827H4.4048v-9.0714c0-1.1134.3137-1.9974.9416-2.6524s1.5578-.9828 2.7919-.9828m6.5825 12.8704c-.7095-.0115-1.285-.0878-1.7273-.2295s-.7916-.341-1.0482-.5976-.4315-.5674-.5238-.9335-.1393-.7781-.1393-1.2367v-9.4801l2.4399-.393v9.3823c0 .2187.0162.4153.0493.5898s.0952.322.1883.4417.2265.2185.401.2952.4094.1249.7043.1471l-.3442 2.0143zm5.3549-9.006c.7207 0 1.3204.0819 1.8015.2459s.8649.3984 1.1541.7035.4937.6769.6143 1.1142.18.9221.18 1.4566v5.0757l-1.4574.2708c-.6224.1033-1.376.155-2.2599.155-.5565 0-1.0613-.0483-1.5148-.1469s-.8435-.2596-1.1705-.4831a2.212 2.212 0 0 1-.7536-.8762c-.1748-.3606-.2618-.8023-.2618-1.3259 0-.5025.1007-.9283.303-1.2772s.472-.6279.8102-.8357.7264-.357 1.1627-.4498.8895-.1395 1.3593-.1395l.8435.0409c.2459.0274.4444.0634.5977.1064v-.2292c0-.4148-.1259-.7471-.377-.9985s-.6877-.377-1.3101-.377c-.4109 0-.8214.0303-1.2279.0907s-.7528.1445-1.0482.253l-.3111-1.9648.5325-.1392.6961-.1307.7943-.0985.8431-.0405m.1963 7.139l.6876-.0159.5244-.0493v-1.8503c-.0986-.0222-.2456-.0441-.4425-.0657l-.5403-.0329c-.2292 0-.445.0141-.6469.0414s-.3792.0793-.5317.155-.2732.1799-.3606.3115-.1312.2942-.1312.4908c0 .3828.1286.6472.3851.7943s.6084.2211 1.0561.2211m5.5603-6.6154c.4151-.1199.9502-.2318 1.6049-.3351s1.3431-.1559 2.0629-.1559c.7317 0 1.34.0959 1.8265.2866s.87.4617 1.1544.8109.4855.7643.6055 1.2439.1804 1.0151.1804 1.6049v4.8631H30.827v-4.5687c0-.7859-.104-1.3424-.3111-1.6694s-.595-.4918-1.1629-.4918l-.5565.0246-.5243.0576v6.6477h-2.4397v-8.3184zm11.9738 2.7984l.7442-.8133.7443-.8388.6791-.7897.5484-.651h2.9014l-1.6952 1.9037-1.8098 1.8705c.3279.2954.6664.6479 1.0158 1.0582l1.0153 1.2713.9007 1.3119.6879 1.1972h-2.806l-.5962-.9439-.7107-1.0335-.7928-.9935c-.2778-.3177-.5529-.585-.826-.8045v3.7752h-2.4399V50.9897l2.4399-.393v7.1864zm9.4377 4.7674c.6108 0 1.1158-.1016 1.5143-.303s.5979-.5434.5979-1.0235c0-.2294-.035-.4257-.1064-.59s-.1878-.3111-.3521-.4415-.3796-.2566-.6469-.3772l-.9909-.4256-.9006-.4016c-.2835-.1356-.5343-.2942-.7531-.4741a2.062 2.062 0 0 1-.5236-.6471c-.1309-.2514-.1961-.5568-.1961-.9167 0-.688.2592-1.2445.7773-1.6703s1.2308-.6389 2.1369-.6389c.5786 0 1.0563.0493 1.4331.1471s.6413.1859.7943.2626l-.2459.9494c-.1311-.0652-.352-.1526-.6629-.2618s-.7676-.164-1.3679-.164c-.2399 0-.4664.0248-.679.074s-.4017.1259-.565.2299-.2952.2352-.393.394-.1471.3525-.1471.5821.0433.4266.1307.591.2156.3087.3851.4342.3763.243.6219.3518l.8431.3584.9413.3999c.3009.1359.565.2994.7943.4905a2.273 2.273 0 0 1 .5572.6876c.1421.2677.2125.6029.2125 1.0068 0 .7643-.2866 1.3427-.8595 1.7359s-1.3564.5895-2.3492.5895c-.7431 0-1.31-.0633-1.7027-.1885l-.7867-.2865.2785-.9662c.0331.0219.1038.0574.2128.1067s.2566.1037.4422.1638.4065.1123.6629.1554.5536.0659.8923.0659m12.2599-3.4722c0 .6663-.0957 1.272-.2873 1.8178s-.4584 1.0101-.8021 1.3916a3.66 3.66 0 0 1-1.2201.893c-.4701.2132-.9877.3192-1.5547.3192s-1.087-.1064-1.5559-.3192-.8763-.5102-1.2201-.893-.6116-.8452-.802-1.3916-.2868-1.1515-.2868-1.8178.0954-1.2712.2868-1.8172.4581-1.0122.802-1.4a3.589 3.589 0 0 1 1.2201-.9001c.47-.2125.9878-.32 1.5559-.32s1.0859.1067 1.5547.32a3.617 3.617 0 0 1 1.2201.9001c.3434.387.6115.8542.8021 1.4s.2873 1.1515.2873 1.8172m-1.1301 0c0-1.0586-.2459-1.9012-.7369-2.5295s-1.1575-.9414-1.9974-.9414-1.5067.3137-1.9984.9414-.7369 1.4709-.7369 2.5295.2459 1.8994.7369 2.5221 1.1575.9334 1.9984.9334 1.5061-.311 1.9974-.9334.7369-1.4629.7369-2.5221m9.8464 3.9304l-1.2772.2942c-.5348.1092-1.19.1639-1.9648.1639-.6331 0-1.1629-.0935-1.5885-.2784s-.7692-.4477-1.0315-.7867-.4504-.7473-.5651-1.2276-.1718-1.0094-.1718-1.5886v-4.7481h1.0648v4.4047c0 .6.0436 1.1077.1305 1.5228s.2297.7505.4258 1.0071.4508.442.7616.5569.6903.1718 1.138.1718c.5015 0 .9387-.0271 1.3098-.082s.6057-.1038.7043-.1472v-7.4341H68.22v8.1713zm5.7531-8.335c.3491 0 .6793.028.9906.0818s.5265.1093.6471.164l-.2132.9169c-.0871-.0434-.2644-.09-.5322-.1393s-.6195-.0733-1.0561-.0733c-.4586 0-.8271.0326-1.1055.0978s-.4613.1207-.5487.164v7.4175h-1.0637v-8.0725c.2723-.12.6489-.2425 1.1292-.3684s1.0646-.1885 1.7525-.1885m6.8445 8.8093c-.6549 0-1.2341-.1042-1.7355-.3115s-.92-.5044-1.2529-.8921-.5868-.8514-.7614-1.3917-.2619-1.1382-.2619-1.7932c0-.6655.0898-1.2719.2697-1.8172s.4398-1.0154.7783-1.4086.7478-.6957 1.2282-.9083 1.0206-.3196 1.6213-.3196c.4582 0 .8866.0386 1.285.1145s.7072.1752.9257.2951l-.2785.9169c-.2185-.1093-.4644-.1964-.7371-.2619s-.6391-.0985-1.0973-.0985c-.9389 0-1.6513.3032-2.1371.9087s-.7288 1.4655-.7288 2.5789c0 .5025.0545.9635.1638 1.3841s.2865.7797.5324 1.0805.5624.5351.9497.7036.8597.2538 1.4164.2538c.4584 0 .8435-.0512 1.1546-.1553s.5377-.1937.6795-.2706l.2295.9176c-.1966.1092-.5051.2149-.9259.3192s-.859.1556-1.3177.1556m3.5755-4.4208c0-.7424.1059-1.3891.3192-1.9401s.491-1.0128.8352-1.3838.7366-.6469 1.1793-.8269.8973-.2706 1.3669-.2706c1.0366 0 1.8637.3385 2.4809 1.0154s.9254 1.7191.9254 3.1272l-.0086.2621-.0238.2459h-5.9451c.0335 1.0375.2892 1.8334.7695 2.3906s1.2446.8351 2.2928.8351c.5783 0 1.0368-.0545 1.3759-.1637l.7362-.2785.1966.9171c-.1528.0871-.4394.1914-.8594.3113s-.9143.18-1.4819.18c-.7424 0-1.3753-.1093-1.8996-.3273s-.9557-.5243-1.2932-.9168-.5845-.8602-.7373-1.4008-.229-1.1319-.229-1.7762m6.0094-.6715c-.0222-.8837-.2292-1.5718-.6222-2.0629s-.9494-.7368-1.6706-.7368c-.3818 0-.7228.0766-1.0235.2292s-.5624.3579-.7854.6136-.3987.5543-.5246.893-.199.6924-.2204 1.0637h4.8467z" />
</svg>
