<svg width="93" height="55" viewBox="0 0 93 55" fill="none" xmlns="http://www.w3.org/2000/svg">
<path d="M47.9658 8.83373C51.0243 12.363 52.2728 17.0853 51.3524 21.6423C56.1533 19.7497 58.0157 16.5766 58.5825 13.4034C58.5825 13.4034 60.219 7.39027 62.763 4.89075C57.7361 5.67046 57.2281 3.72118 47.9658 8.83866" fill="#19B99A"/>
<path d="M40.2756 14.9799C39.2706 11.9119 37.5377 9.1259 35.2213 6.85464C35.2213 6.85464 42.2117 8.67068 46.2362 21.5656C42.4389 20.433 40.8186 16.7294 40.2681 14.9799H40.2756ZM48.925 23.4186C49.0373 22.8018 50.8898 16.564 47.2198 11.4984C41.0745 4.76718 31.8123 3.82214 31.8123 3.82214C33.6198 7.27657 33.6772 10.5015 35.652 17.0773C38.0449 23.885 46.874 24.3439 47.5281 24.3563C48.1211 25.2815 49.4804 26.5276 52.5924 27.1716L52.9369 25.5505C50.2519 24.9953 49.2695 23.9738 48.9324 23.4112" fill="#19B99A"/>
<path d="M32.8035 1.84082C28.8976 3.65933 27.331 8.09827 27.331 14.8838C27.331 21.5459 28.8951 26.0119 32.8035 27.9612L32.3654 29.6268C26.3624 27.5467 23.6411 22.9227 23.6411 14.9109C23.6411 6.8374 26.3624 2.21094 32.3654 0.175293L32.8035 1.84082Z" fill="#0A2540"/>
<path d="M61.7281 0.175293C67.7361 2.20847 70.4511 6.8374 70.4511 14.9084C70.4511 22.9276 67.7299 27.5467 61.7269 29.6095L61.2588 27.9464C65.1697 26.0045 66.7313 21.5311 66.7313 14.8689C66.7313 8.08347 65.1672 3.64946 61.2588 1.83095L61.7281 0.175293Z" fill="#0A2540"/>
<path d="M8.55961 50.5855C7.28381 51.0697 5.92432 51.3018 4.55812 51.2687C1.19247 51.2687 -0.424829 49.8276 0.0958042 46.1874C0.575983 42.7541 1.90395 41.3512 5.42525 41.3512C6.80869 41.3286 8.18434 41.5603 9.48215 42.0344L9.00373 44.1379L5.8685 44.1187C4.44467 44.1187 3.96361 44.5933 3.73232 46.2987C3.48168 48.1761 3.81059 48.5168 5.19484 48.5168C6.23549 48.523 7.27569 48.4725 8.31072 48.3656L8.55961 50.5855Z" fill="#0A2540"/>
<path d="M14.1783 46.4709C13.9092 48.4057 14.0816 48.8594 15.3339 48.8594C16.5458 48.8594 16.9319 48.3483 17.2388 46.2049C17.5457 44.2336 17.3355 43.7711 16.1606 43.7711C14.8915 43.7711 14.5063 44.244 14.1783 46.4656V46.4709ZM20.8524 46.4726C20.3248 50.0189 18.8719 51.2688 15.209 51.2688C11.5461 51.2688 10.0027 49.9042 10.54 46.2066C11.0431 42.6238 12.503 41.3513 16.2177 41.3513C19.8912 41.3513 21.3924 42.7559 20.8542 46.4726" fill="#0A2540"/>
<path d="M28.3359 43.5659C26.8734 43.5659 26.5278 43.8684 26.2384 46.05C26.008 47.7571 25.9693 48.4386 26.8347 48.3829C27.6454 48.3051 28.4054 47.9576 28.9902 47.3973L29.5082 43.5728L28.3359 43.5659ZM31.9707 51.0409H29.2198L29.182 49.4486C28.2068 50.4986 26.8681 51.1482 25.4311 51.2687C23.2 51.2687 22.2 49.7128 22.6793 46.1109C23.207 42.1665 24.7768 41.3512 26.8347 41.3512C27.867 41.3509 28.8972 41.4428 29.9128 41.6258C29.9029 40.9783 29.9482 40.3311 30.0482 39.691L30.3745 37.7788H33.872L31.9707 51.0409Z" fill="#0A2540"/>
<path d="M40.1658 45.4278C41.0321 45.3513 41.492 45.2192 41.5729 44.4039C41.631 43.7781 41.3803 43.6633 40.4173 43.6825C39.2424 43.7016 38.8581 44.0423 38.5512 45.579L40.1658 45.4278ZM43.9949 50.5108C42.5978 51.0488 41.1063 51.3065 39.6074 51.2688C35.5294 51.2688 34.4186 49.506 34.7783 46.2066C35.218 42.2831 37.0306 41.353 40.4727 41.353C44.2438 41.353 45.235 42.5855 44.9351 44.7429C44.6651 46.5073 43.4532 47.0115 40.9265 47.2079L38.3286 47.3974C38.3691 48.4039 38.8678 48.5934 39.946 48.5934C40.7902 48.5934 42.5913 48.4978 43.7531 48.3657L43.9949 50.5108Z" fill="#0A2540"/>
<path d="M52.4588 38.9503C51.2839 38.9503 50.8046 39.2163 50.6313 40.4279L50.4203 41.7995H53.3224L53.1281 43.2128H50.2259L48.956 52.1064C48.9311 52.8726 48.5905 53.5954 48.013 54.1072C47.4356 54.619 46.6715 54.8753 45.8982 54.8165C45.1204 54.8112 44.3436 54.7601 43.572 54.6635L43.8614 53.2972H45.3036C46.4592 53.2972 46.9385 53.0312 47.1136 51.8195L48.3448 43.2145H46.6738L46.8497 41.8864L48.562 41.7925L48.7933 40.1411C48.8163 39.3743 49.1587 38.651 49.7395 38.1422C50.3202 37.6334 51.0879 37.3842 51.8608 37.4535C52.7793 37.4424 53.6977 37.4865 54.6108 37.5857L54.3039 38.959L52.4588 38.9503Z" fill="#19B99A"/>
<path d="M61.2318 43.2669H60.7041C59.6488 43.2669 58.6269 43.9622 57.0008 45.1443L56.1732 51.0409H54.3062L55.6324 41.7875H57.0571L56.9603 43.9118C58.4554 42.3959 59.9214 41.5406 61.1931 41.5406H61.6935L61.2318 43.2669Z" fill="#19B99A"/>
<path d="M67.7151 45.8449C68.8698 45.7701 69.3694 45.4485 69.5224 44.3846C69.6983 43.1139 69.0431 43.0808 67.5419 43.0808C65.6396 43.0808 64.9844 43.5919 64.5808 46.1334L67.7151 45.8449ZM70.408 50.7384C69.1547 51.1167 67.8486 51.2962 66.5384 51.2703C63.2845 51.2703 62.172 49.6189 62.6319 46.1699C63.1332 42.5663 64.4207 41.5424 67.8207 41.5424C70.8987 41.5424 71.6498 42.681 71.3798 44.5393C71.0728 46.3785 69.9955 47.0426 67.7063 47.213L64.4524 47.4981C64.433 49.3564 65.3177 49.7336 66.8172 49.7336C67.8576 49.7336 69.2031 49.6206 70.2813 49.5059L70.408 50.7384Z" fill="#19B99A"/>
<path d="M75.5614 46.4514C74.2158 45.8256 73.5809 45.1059 73.7532 43.7569C73.9652 41.9942 75.2545 41.497 77.7169 41.5388C79.0622 41.5612 80.4047 41.6692 81.736 41.8621L81.5047 43.1659C80.313 43.1294 79.1962 43.0894 77.7732 43.0703C76.2333 43.0703 75.6564 43.1085 75.5596 43.8856C75.4647 44.5809 75.9114 44.7774 76.6774 45.1181L79.2173 46.2567C80.678 46.9208 81.276 47.5084 81.0817 48.9304C80.7941 51.0356 79.2735 51.2442 76.637 51.2442C75.4203 51.2467 74.2052 51.1578 73.0022 50.9782L73.2141 49.6136C74.0804 49.6883 75.2914 49.7092 76.1577 49.7092C78.5243 49.7092 79.1399 49.5197 79.2542 48.76C79.3694 48.0786 78.9024 47.9638 78.0801 47.5849L75.5614 46.4514Z" fill="#19B99A"/>
<path d="M86.7986 41.4085C86.6897 42.1753 86.5355 42.9351 86.3369 43.6841C87.9683 42.2621 89.3314 41.5389 90.6805 41.5389C91.371 41.4505 92.0599 41.7136 92.5107 42.238C92.9616 42.7624 93.1132 43.4768 92.9134 44.136L91.9135 51.0374H90.0667L90.9707 44.5915C91.1246 43.4337 90.9127 43.093 90.1054 43.093C88.9498 43.093 87.8355 43.8701 86.2252 45.1217L85.3977 51.0322H83.5271L85.4311 37.7596H87.2779L86.7986 41.4085Z" fill="#19B99A"/>
</svg>
