<svg fill="none" height="30" viewBox="0 0 104 30" width="104" xmlns="http://www.w3.org/2000/svg" xmlns:xlink="http://www.w3.org/1999/xlink"><clipPath id="clipAzure"><path d="m0 0h104v29.9617h-104z"/></clipPath><g clip-path="url(#clipAzure)"><path d="m17.8954 28.3616c4.9698-.8779 9.0745-1.6044 9.1217-1.6144l.0857-.0182-4.692-5.5809c-2.5805-3.0695-4.6919-5.5929-4.6919-5.6074 0-.0275 4.8448-13.36921 4.8721-13.41667.0091-.01587 3.3061 5.67642 7.9923 13.79847 4.3872 7.6041 8.0043 13.8736 8.0379 13.9324l.0611.1068-14.9114-.002-14.91146-.0019zm57.1836-1.3497c-2.2698-.1455-3.5899-1.438-3.9397-3.8573-.0931-.6435-.0934-.6602-.103-4.8382l-.0092-4.0435h1.0046 1.0045l.0079 3.9111c.0072 3.5251.0116 3.9384.0454 4.1863.1367 1.0064.409 1.6832.8726 2.169.371.3887.8054.6164 1.4066.7372.2836.057 1.0905.0571 1.3491.0002.6096-.1341 1.0981-.3994 1.5291-.8302.4912-.491.8545-1.1876 1.0304-1.9754l.0592-.2655.0066-3.9443.0066-3.9443h1.0256 1.0256v6.2005 6.2005h-1.015-1.015v-.9837c0-.6685-.0074-.9814-.0229-.9762-.0126.0042-.0647.084-.1158.1772-.3498.638-.9326 1.2213-1.5712 1.5728-.7654.4213-1.5331.5711-2.582.5038zm23.0389-.01c-.8013-.0603-1.645-.3357-2.3345-.7623-1.4534-.899-2.3134-2.3809-2.5652-4.4202-.0871-.7057-.0976-1.6536-.0248-2.2533.1624-1.3398.6889-2.6552 1.4386-3.5942.1922-.2407.6283-.6767.869-.8689.65-.519 1.4103-.8819 2.2176-1.0585.4704-.1029 1.2987-.1512 1.7984-.1049 1.255.1163 2.406.7074 3.188 1.6377.794.9451 1.231 2.2658 1.287 3.8921.009.2548.011.7017.004.9929l-.011.5296-4.3963.0056-4.3966.0055v.1962c0 .5973.1452 1.2776.3962 1.8564.2165.4991.5891 1.0441.8942 1.3079.6256.5408 1.3913.8645 2.2291.9424.3106.0289 1.1023-.0015 1.4564-.0559 1.01-.1553 1.97-.5514 2.746-1.1328.091-.0684.178-.1323.194-.142.022-.0142.028.1645.027.9157l-.001.9334-.207.1285c-.878.5426-1.883.8909-2.9466 1.0213-.3176.039-1.4828.0563-1.8625.0278zm3.8261-7.8722c0-1.0005-.421-2.1119-1.018-2.6842-.426-.4084-.9405-.658-1.5525-.7528-.2895-.0448-.8996-.0276-1.2048.0341-.6452.1304-1.1789.414-1.6444.874-.4899.4841-.8572 1.072-1.0881 1.7419-.0831.2409-.1802.6364-.2104.8564l-.0144.1048h3.3664 3.3662zm-59.6391 7.5607c.0051-.0152 1.4981-3.9373 3.3177-8.7159l3.3084-8.68837 1.063-.00007 1.063-.00007.0882.22618c.2695.69113 6.6232 17.18703 6.6232 17.19553 0 .0057-.5089.0102-1.1309.0101l-1.1309-.0002-.9157-2.4381-.9157-2.438-3.6872-.0001h-3.6872l-.032.0827c-.0176.0455-.4089 1.1426-.8694 2.4379l-.8374 2.3552-1.1333.0003c-.897.0004-1.1312-.0053-1.1238-.0271zm10.6973-6.7095c0-.0039-.6163-1.6745-1.3695-3.7126-1.4091-3.8128-1.4879-4.0422-1.5992-4.6544-.0522-.287-.0787-.295-.1096-.0331-.0222.1872-.1182.6062-.1923.8385-.0367.1153-.6713 1.8569-1.4101 3.8703-.7388 2.0133-1.3433 3.6691-1.3433 3.6794 0 .0104 1.3554.0189 3.012.0189s3.012-.0031 3.012-.007zm5.4502 6.4196v-.3176l3.6736-5.05 3.6735-5.0499-3.326-.0111-3.326-.011-.0058-.844-.0058-.844h4.8107 4.8106v.285.2851l-3.674 5.0775c-2.0207 2.7927-3.6739 5.0822-3.6739 5.088 0 .0057 1.6334.0104 3.6298.0104h3.6298v.8496.8495h-5.1082-5.1083zm26.9571.3028c-.008-.0081-.0147-2.8083-.0147-6.2226v-6.2078h1.004 1.004v1.2798c0 .7039.0086 1.2798.019 1.2798.0105 0 .0594-.1152.1086-.2561.2258-.6453.6172-1.2482 1.1216-1.7275.4543-.4317.9736-.6899 1.5863-.7887.1721-.0277.3177-.033.662-.0241.4323.0113.6583.0429.9212.1289l.0828.027v1.0421 1.0422l-.2373-.1188c-.419-.2097-.8324-.2927-1.3294-.2669-.3235.0168-.5358.0584-.7944.1554-.5321.1997-.9636.5522-1.2652 1.0333-.4366.6965-.748 1.5918-.8398 2.4146-.0165.1477-.0262 1.3503-.0301 3.7211l-.0057 3.503h-.9891c-.544 0-.9957-.0066-1.0038-.0147zm-85.4095-.0436c0-.0079 2.21083-3.8457 4.91296-8.5285l4.91295-8.51424 5.72549-4.80484c3.149-2.64266 5.734-4.80806227 5.7443-4.81201145.0104-.00394839-.031.10031245-.092.23169145s-2.8587 6.13211-6.2171 13.3349l-6.10617 13.0961-4.44022.0056c-2.44211.0031-4.44021-.0009-4.44021-.0087z" fill="#0089d6"/></g></svg>