<svg width="24" height="20" viewBox="0 0 24 20" fill="none" xmlns="http://www.w3.org/2000/svg" variant="light" class="sc-cHSUfg gQXXXN"><path fill-rule="evenodd" clip-rule="evenodd" d="M2.65731 5.88048C0.69028 8.45193 0.160555 12.4799 1.66415 15.428C3.9725 18.8225 9.86561 19.2574 12.1674 19.2574C14.2719 19.2574 19.8438 18.7974 22.1342 15.4289C23.7624 12.7682 23.121 8.14733 21.1399 5.88135C21.7156 4.18794 21.6151 2.46754 20.9409 0.81531C19.0724 0.815221 17.2897 1.66711 15.9726 2.9584C13.4001 2.53793 10.5721 2.2441 8.02307 2.95802C7.72077 2.78018 7.42894 2.59843 7.14192 2.41968L7.14186 2.41964L7.14185 2.41964C5.80074 1.5844 4.5646 0.814534 2.85576 0.814453C2.14762 2.55035 2.20621 4.1118 2.65731 5.88048ZM3.54713 1.86608C3.19669 3.08855 3.27405 4.25332 3.626 5.63325L3.74587 6.10328L3.45123 6.48847C1.7106 8.76395 1.24774 12.3446 2.52597 14.9164C2.7449 15.2289 3.00485 15.5149 3.29883 15.7761C2.98639 15.2888 2.77014 14.738 2.69412 14.122C2.5364 12.8439 3.00973 11.5034 4.04978 10.1438C4.86686 9.07563 5.98655 8.69148 7.04667 8.59639C7.99895 8.51096 8.99639 8.65216 9.78616 8.76396L9.95063 8.78717L10.0008 8.79419L10.0499 8.80624C11.1885 9.08536 12.6889 9.14939 13.6751 8.82712L13.7593 8.79963L13.8469 8.78735C13.9398 8.77434 14.0384 8.75998 14.1419 8.7449C14.8528 8.6413 15.7931 8.50429 16.6889 8.54573C17.7259 8.59371 18.9358 8.88813 19.7479 9.94968C20.7586 11.2708 21.2031 12.5927 21.0583 13.8614C20.9578 14.7416 20.5838 15.5062 20.0551 16.1514C20.5409 15.7884 20.962 15.369 21.2939 14.8862C21.9448 13.8079 22.1846 12.2436 21.9974 10.6218C21.8093 8.9922 21.2097 7.48028 20.3875 6.53988L20.0077 6.10551L20.1935 5.55918C20.6097 4.33482 20.617 3.09244 20.251 1.86146C18.929 2.0365 17.6629 2.70171 16.6723 3.67287L16.3109 4.02721L15.8115 3.94558C13.2504 3.52696 10.6132 3.27132 8.29266 3.92126L7.88309 4.03597L7.51642 3.82027C7.16368 3.61276 6.83998 3.41257 6.53547 3.22425L6.53546 3.22424C5.44391 2.54919 4.59901 2.02668 3.54713 1.86608ZM14.2957 9.73354C15.8406 9.50978 17.9219 9.20832 18.9541 10.5576C22.5665 15.2797 16.7719 18.2249 12.1575 18.2249C7.11561 18.2249 1.0721 15.6823 4.8437 10.7518C5.99969 9.24056 7.99772 9.52212 9.67059 9.75787L9.81209 9.77777C11.0517 10.0817 12.7574 10.1793 13.9856 9.77797C14.0861 9.7639 14.1896 9.7489 14.2957 9.73354ZM7.13151 12.3804C6.95498 12.6315 6.82997 13.0048 6.82997 13.4406C6.82997 13.8765 6.95498 14.2498 7.13151 14.5008C7.30905 14.7534 7.507 14.8467 7.67015 14.8467C7.8333 14.8467 8.03124 14.7534 8.20878 14.5008C8.38531 14.2498 8.51033 13.8765 8.51033 13.4406C8.51033 13.0048 8.38531 12.6315 8.20878 12.3804C8.03124 12.1279 7.8333 12.0346 7.67015 12.0346C7.507 12.0346 7.30905 12.1279 7.13151 12.3804ZM6.31348 11.8053C6.62099 11.3679 7.09313 11.0346 7.67015 11.0346C8.24716 11.0346 8.71931 11.3679 9.02682 11.8053C9.33533 12.244 9.51033 12.8238 9.51033 13.4406C9.51033 14.0575 9.33533 14.6372 9.02682 15.076C8.71931 15.5134 8.24716 15.8467 7.67015 15.8467C7.09313 15.8467 6.62099 15.5134 6.31348 15.076C6.00496 14.6372 5.82997 14.0575 5.82997 13.4406C5.82997 12.8238 6.00496 12.244 6.31348 11.8053ZM15.3085 13.4401C15.3085 13.0043 15.4335 12.631 15.61 12.3799C15.7876 12.1274 15.9855 12.0341 16.1487 12.0341C16.3118 12.0341 16.5098 12.1274 16.6873 12.3799C16.8638 12.631 16.9888 13.0043 16.9888 13.4401C16.9888 13.876 16.8638 14.2493 16.6873 14.5004C16.5098 14.7529 16.3118 14.8462 16.1487 14.8462C15.9855 14.8462 15.7876 14.7529 15.61 14.5004C15.4335 14.2493 15.3085 13.876 15.3085 13.4401ZM16.1487 11.0341C15.5717 11.0341 15.0995 11.3674 14.792 11.8048C14.4835 12.2436 14.3085 12.8233 14.3085 13.4401C14.3085 14.057 14.4835 14.6367 14.792 15.0755C15.0995 15.5129 15.5717 15.8462 16.1487 15.8462C16.7257 15.8462 17.1978 15.5129 17.5053 15.0755C17.8139 14.6367 17.9888 14.057 17.9888 13.4401C17.9888 12.8233 17.8139 12.2436 17.5053 11.8048C17.1978 11.3674 16.7257 11.0341 16.1487 11.0341Z" fill="currentColor"/></svg>