<svg fill="none" height="44" viewBox="0 0 69 44" width="69" xmlns="http://www.w3.org/2000/svg" xmlns:xlink="http://www.w3.org/1999/xlink"><clipPath id="clipGwg"><path d="m0 0h68.0952v43.5498h-68.0952z"/></clipPath><g clip-path="url(#clipGwg)" fill="#fff"><path d="m8.7112 26.2589c0-.1317.02598-.2621.07643-.3838.05046-.1217.12441-.2322.21763-.3253s.20387-.1669.32563-.2171c.12176-.0503.25224-.0761.38397-.0759h-6.49513c.26659 0 .52227.1059.71078.2945.18851.1885.29442.4441.29442.7107s-.10591.5223-.29442.7108-.44419.2944-.71078.2944h6.49513c-.13225.0002-.26324-.0257-.3854-.0764-.12217-.0506-.2331-.125-.3264-.2187s-.16712-.205-.21721-.3274-.07546-.2535-.07465-.3858z" opacity=".36"/><path d="m9.92212 15.7725c.26658 0 .52228.1059.71078.2944s.2944.4442.2944.7108-.1059.5222-.2944.7107c-.1885.1886-.4442.2945-.71078.2945h2.75888c.6701-.6681 1.3403-1.3382 2.0104-2.0104z" opacity=".64"/><path d="m10.9258 16.7761c-.0004-.266-.1063-.5211-.2944-.7092-.1882-.1882-.4432-.294-.70926-.2944h-.20722c-.2666 0-.52228.1059-.71079.2944s-.29441.4442-.29441.7108.1059.5222.29441.7107c.18851.1886.44419.2945.71079.2945h.20722c.13206 0 .26286-.0261.38476-.0767.122-.0507.2328-.1249.326-.2184.0933-.0935.1671-.2045.2174-.3267.0502-.1221.0759-.2529.0755-.385z" opacity=".36"/><path d="m10.9258 16.7761c-.0004-.266-.1063-.5211-.2944-.7092-.1882-.1882-.4432-.294-.70926-.2944h-.20722c-.2666 0-.52228.1059-.71079.2944s-.29441.4442-.29441.7108.1059.5222.29441.7107c.18851.1886.44419.2945.71079.2945h.20722c.13206 0 .26286-.0261.38476-.0767.122-.0507.2328-.1249.326-.2184.0933-.0935.1671-.2045.2174-.3267.0502-.1221.0759-.2529.0755-.385z" opacity=".64"/><path d="m14.3141 13.5236c0-.2658-.1056-.5207-.2935-.7086-.188-.1879-.4428-.2935-.7086-.2935h-11.28917c-.30595.6559-.57847 1.3269-.81653 2.0104h12.1057c.1321 0 .2629-.0261.3849-.0769.122-.0507.2327-.1251.3259-.2188.0931-.0937.1668-.2049.2168-.3272s.0753-.2533.0745-.3854z" opacity=".81"/><path d="m24.9907 12.5215c.1547.1546.3093.3093.4562.4531.2351.2351.464.4732.7037.7083.1546-.3928.3278-.781.5088-1.1614z" opacity=".49"/><path d="m13.312 12.5215c.2666 0 .5223.1059.7108.2944s.2944.4442.2944.7108-.1059.5223-.2944.7108-.4442.2944-.7108.2944h2.629l2.0104-2.0104z" opacity=".49"/><path d="m6.0126 10.4106c-.00041.2657-.10612.5203-.29396.7082-.18784.1878-.44249.2935-.70814.2939h8.0926c-.2666 0-.5223-.1059-.7108-.2944s-.2944-.4442-.2944-.7108.1059-.52223.2944-.71074.4442-.29442.7108-.29442h-8.0926c.13212 0 .26294.02612.38492.07687.12199.05075.23273.12512.32587.21883.09313.09371.16682.20491.21682.32716.04999.1223.07531.2533.07449.3854z" opacity=".25"/><path d="m2.65366 11.2847c-.02475.0433-.04794.0866-.07114.1299h.56446c-.1729 0-.34284-.0448-.49332-.1299z" opacity=".49"/><path d="m5.01061 11.4127c.2666 0 .52227-.1059.71079-.2944.18851-.1885.29441-.4442.29441-.7108s-.1059-.52223-.29441-.71074c-.18852-.18851-.44419-.29442-.71079-.29442h-1.20624l-.05103.07269-.15465.24434-.13454.20413c-.05412.082-.10516.1655-.15464.249l-.12836.2057c-.05258.085-.10361.1716-.15465.2567l-.12062.2057c-.05258.0896-.10361.1809-.15464.2721-.03093.0557-.06341.1098-.09279.1655.15048.0851.32043.1299.49332.1299z" opacity=".25"/><path d="m5.01061 11.4127c.2666 0 .52227-.1059.71079-.2944.18851-.1885.29441-.4442.29441-.7108s-.1059-.52223-.29441-.71074c-.18852-.18851-.44419-.29442-.71079-.29442h-1.20624l-.05103.07269-.15465.24434-.13454.20413c-.05412.082-.10516.1655-.15464.249l-.12836.2057c-.05258.085-.10361.1716-.15465.2567l-.12062.2057c-.05258.0896-.10361.1809-.15464.2721-.03093.0557-.06341.1098-.09279.1655.15048.0851.32043.1299.49332.1299z" opacity=".49"/><path d="m27.2192 11.4127c.3757-.692.7887-1.3631 1.2372-2.01036h-6.6266c.6743.67116 1.3527 1.34126 2.0352 2.01036z"/><path d="m12.1011 10.4106c0 .2659.1055.5209.2934.7091s.4428.2941.7087.2945h5.943l2.0104-2.01039h-7.9519c-.1321-.00021-.2629.02572-.385.07628s-.2329.12475-.3262.21832-.1671.20466-.2173.32689c-.0502.1222-.0757.2531-.0751.3853z"/><path d="m23.896 6.15479c.2666 0 .5223.1059.7108.29441s.2944.44419.2944.71078c0 .2666-.1059.52228-.2944.71079s-.4442.29441-.7108.29441h5.493c.5689-.70718 1.181-1.37859 1.8326-2.01039z" opacity=".25"/><path d="m14.3141 4.04711c0-.26619.1057-.52147.2939-.70969.1883-.18822.4435-.29396.7097-.29396h-4.7182l-.0944.05567-.1546.09433-.266.16547-.15464.09588-.28301.18713-.12217.08041c-.13299.0897-.26444.18094-.39589.27372l-.05258.04021-.33713.24434-.1299.09898-.25671.1964-.14073.11134c-.08196.06495-.16393.1299-.24434.1964l-.13609.11135-.06495.05412h7.54674c-.2651-.00122-.519-.10729-.7062-.29505-.1871-.18775-.2924-.44194-.2928-.70705z" opacity=".49"/><path d="m33.8349 3.72235-.1221-.08041c-.0928-.06341-.1872-.12681-.283-.18713l-.1547-.09588-.2675-.16547-.1547-.09433-.0943-.05567h-17.3714c.2666 0 .5223.1059.7108.29441s.2944.44419.2944.71079c0 .26659-.1059.52227-.2944.71078s-.4442.29441-.7108.29441h17.0683c.5052-.42063 1.0304-.81756 1.5758-1.19077z" opacity=".36"/><path d="m16.3909 4.04711c0-.26619-.1057-.52147-.2939-.70969s-.4435-.29396-.7097-.29396h-.0696c-.132 0-.2627.026-.3847.07651-.1219.05052-.2327.12456-.3261.2179-.0933.09334-.1674.20416-.2179.32611-.0505.12196-.0765.25267-.0765.38468 0 .132.026.26271.0765.38467.0505.12195.1246.23277.2179.32611.0934.09334.2042.16738.3261.2179.122.05051.2527.07651.3847.07651h.0696c.1321 0 .2628-.02606.3848-.07669s.2327-.12484.326-.21836c.0932-.09353.1671-.20454.2173-.32666.0503-.12213.076-.25297.0755-.38503z" opacity=".64"/><path d="m21.6829.0000215c-2.9799-.0042037-5.9284.6081415-8.6602 1.7985285h17.3126c-2.7294-1.189386-5.6751-1.80171041-8.6524-1.7985285z"/><path d="m3.48877 18.8853c.26659 0 .52227.1059.71078.2944s.29442.4442.29442.7108c0 .2665-.10591.5222-.29442.7107s-.44419.2945-.71078.2945h6.07758l2.01045-2.0104z" opacity=".49"/><path d="m4.49097 19.8889c0-.2659-.10553-.521-.29342-.7091-.18789-.1882-.44277-.2941-.70869-.2945h-.06186c.2666 0 .52227.1059.71078.2944.18852.1885.29442.4442.29442.7108 0 .2665-.1059.5222-.29442.7107-.18851.1885-.44418.2945-.71078.2945h.06959c.26524-.0021.51885-.1092.70524-.2979.1864-.1887.29037-.4437.28914-.7089z"/><path d="m18.2621 22.0679h-18.2621c.0108252.6773.054126 1.3454.125263 2.0104h18.235837c-.034-.6542-.0557-1.3099-.0943-1.964z" opacity=".81"/><path d="m18.4416 25.2505h-8.72668c-.2666 0-.52228.1059-.71079.2944s-.29441.4442-.29441.7108.1059.5223.29441.7108.44419.2944.71079.2944h9.01278c-.0851-.4485-.1547-.9016-.2165-1.3563-.0279-.2211-.0495-.4376-.0696-.6541z" opacity=".64"/><path d="m2.13871 26.2589c.00041-.2659.10633-.5208.29451-.7086.18818-.1879.44322-.2935.70914-.2935h-2.854762l.023196.1454c.015465.0804.029383.1547.043301.2428.013919.0881.035569.184.054126.2768.018558.0928.03093.1547.047941.2428l.060312.2737c.018557.0789.035568.1547.054125.2397.018558.0851.044848.1825.068045.2753s.038661.1546.058765.232c0 .0263.013918.051.020104.0773h2.424847c-.26618 0-.52147-.1057-.70969-.294-.18822-.1882-.29396-.4435-.29396-.7097z" opacity=".36"/><path d="m4.2141 26.2589c0-.1316-.02592-.2619-.07628-.3834-.05036-.1216-.12417-.2321-.21723-.3252-.09305-.093-.20352-.1668-.3251-.2172-.12159-.0503-.2519-.0763-.38349-.0763h-.06959c-.2666 0-.52228.1059-.71079.2945-.18851.1885-.29441.4441-.29441.7107s.1059.5223.29441.7108.44419.2944.71079.2944h.06959c.13212 0 .26293-.0261.38492-.0768.12199-.0508.23273-.1251.32587-.2189.09313-.0937.16682-.2049.21681-.3272.05-.1223.07532-.2532.0745-.3854z" opacity=".81"/><path d="m13.5888 28.4316c.0252-.0015.0505-.0015.0758 0 .0169-.0015.034-.0015.051 0 .1232.0148.2424.0531.351.1129.0551.0308.107.067.1547.1083.0286.0221.0555.0464.0804.0727.1158.1172.2003.2615.246.4198.0456.1583.0509.3255.0154.4864-.0299.1512-.0951.2932-.1903.4144-.0462.0566-.0981.1084-.1546.1547-.0478.0407-.0996.0765-.1547.1067-.0392.0217-.08.0403-.1221.0557-.1136.0435-.2341.0661-.3557.0665h5.957c-.0248-.0774-.0464-.1547-.0712-.2335-.184-.5862-.3526-1.1769-.4964-1.7738z" opacity=".49"/><path d="m14.5616 29.6411c-.0299.1512-.0951.2932-.1903.4145.0952-.1213.1604-.2633.1903-.4145z" opacity=".36"/><path d="m13.5888 30.4342c-.2666 0-.5222-.1059-.7108-.2944-.1885-.1885-.2944-.4442-.2944-.7108s.1059-.5222.2944-.7108c.1886-.1885.4442-.2944.7108-.2944h-12.5263c.01083.0356.02165.0696.03402.1052l.08815.2598.0866.2459c.03093.085.06341.1716.09588.2567.03248.085.06031.1546.09124.2412l.10207.2567.09743.2382.1067.2521c.02165.051.04485.1005.0665.1546h11.75311c.1216-.0004.2421-.0229.3557-.0665-.1121.043-.231.0656-.3511.0665z" opacity=".36"/><path d="m20.0343 31.8262h-17.53528l.04794.0928c.05258.0974.10671.1948.15465.2922l.1098.1964c.05722.1021.11598.2026.17629.3093l.10516.1779c.06959.1144.13919.2273.21032.3387l.08351.1345c.09897.1546.20104.3093.30929.4639v.0078h17.18582c-.2134-.4578-.4155-.9217-.6062-1.3919-.082-.2149-.1624-.419-.2413-.6216z" opacity=".49"/><path d="m12.1011 36.0017c0-.2662.1057-.5215.2939-.7097.1883-.1882.4435-.294.7097-.294h-8.53951l.02319.031c.12372.1587.25053.3165.38043.4732.02474.0309.05103.0603.07578.0897.10516.1268.21341.2521.32166.3758l.12836.1438c.09588.1098.19485.218.29382.3248.04331.0448.08506.0912.12681.136.12836.1346.25672.2676.38662.399l.03248.034h6.77036c-.2662 0-.5214-.1057-.7097-.2939-.1882-.1882-.2939-.4435-.2939-.7097z" opacity=".36"/><path d="m21.4618 35.0039h-8.3509c-.2666 0-.5223.1059-.7108.2944s-.2944.4442-.2944.7108.1059.5223.2944.7108.4442.2944.7108.2944h9.5154c-.4186-.6547-.8068-1.3248-1.1645-2.0104z" opacity=".36"/><path d="m21.4618 35.0039h-8.3509c-.2666 0-.5223.1059-.7108.2944s-.2944.4442-.2944.7108.1059.5223.2944.7108.4442.2944.7108.2944h9.5154c-.4186-.6547-.8068-1.3248-1.1645-2.0104z" opacity=".64"/><path d="m32.0117 38.1865c.1748.1547.3526.3093.5335.464.4124.3526.8382.6876 1.2774 1.0052l.0526-.0372c-.6378-.4444-1.2516-.9224-1.8387-1.432z" opacity=".36"/><path d="m18.9505 39.1903c-.0002-.1318.0255-.2622.0758-.384s.124-.2324.2171-.3256c.0931-.0933.2036-.1672.3253-.2177.1217-.0504.2521-.0764.3839-.0764h-12.35006l.19949.1686.10207.085c.12217.1005.24589.1995.3696.2985l.0897.068c.09588.0758.19331.1547.29073.2243l.14073.1036.25053.1825.15464.1067c.0866.0603.1732.1221.26135.1809l.13609.0928.35414.2335.04639.0309c.1222.0789.2459.1547.3712.2305h4.4646c-.1986 0-.3927-.0589-.5578-.1693-.1651-.1103-.2937-.2672-.3696-.4507-.0759-.1834-.0957-.3853-.0569-.5801.0389-.1947.1346-.3735.2751-.5138.1406-.1403.3195-.2358.5143-.2743.1948-.0386.3967-.0185.58.0577.1834.0762.34.2051.4501.3703.1101.1653.1687.3595.1684.5581-.0004.2659-.1063.5208-.2945.7086-.1881.1879-.4432.2935-.7091.2935h5.1188c-.1316 0-.2619-.026-.3835-.0763-.1216-.0504-.2321-.1242-.3251-.2172-.0931-.0931-.1669-.2036-.2173-.3252-.0503-.1215-.0762-.2518-.0762-.3834z" opacity=".36"/><path d="m15.8374 39.1903c.0003-.1986-.0583-.3928-.1684-.5581-.1101-.1652-.2668-.2941-.4501-.3703-.1834-.0762-.3852-.0963-.58-.0577-.1948.0385-.3738.134-.5143.2743s-.2363.3191-.2751.5138c-.0389.1948-.0191.3967.0568.5801.0759.1835.2046.3404.3697.4507.1651.1104.3592.1693.5577.1693.2659 0 .521-.1056.7092-.2935.1881-.1878.2941-.4427.2945-.7086z" opacity=".36"/><path d="m15.8374 39.1903c.0003-.1986-.0583-.3928-.1684-.5581-.1101-.1652-.2668-.2941-.4501-.3703-.1834-.0762-.3852-.0963-.58-.0577-.1948.0385-.3738.134-.5143.2743s-.2363.3191-.2751.5138c-.0389.1948-.0191.3967.0568.5801.0759.1835.2046.3404.3697.4507.1651.1104.3592.1693.5577.1693.2659 0 .521-.1056.7092-.2935.1881-.1878.2941-.4427.2945-.7086z" opacity=".64"/><path d="m23.415 38.1865h-3.4625c-.2666 0-.5223.1059-.7108.2944-.1885.1886-.2944.4442-.2944.7108s.1059.5223.2944.7108.4442.2944.7108.2944h5.0631c-.1547-.1732-.3067-.349-.4562-.5273-.1547-.1763-.297-.3573-.4408-.5397-.2428-.3124-.4763-.6264-.7036-.9434z" opacity=".36"/><path d="m23.415 38.1865h-3.4625c-.2666 0-.5223.1059-.7108.2944-.1885.1886-.2944.4442-.2944.7108s.1059.5223.2944.7108.4442.2944.7108.2944h5.0631c-.1547-.1732-.3067-.349-.4562-.5273-.1547-.1763-.297-.3573-.4408-.5397-.2428-.3124-.4763-.6264-.7036-.9434z" opacity=".64"/><path d="m26.3424 41.646h-13.1588c4.4558 1.8924 9.4152 2.2461 14.0944 1.0052l-.0294-.0263c-.068-.0696-.1422-.1376-.2072-.2103-.2299-.2608-.4629-.517-.699-.7686z"/><path d="m4.42294 19.8889c-.00039-.2647-.1052-.5186-.29167-.7065-.18646-.1879-.43953-.2947-.70425-.2971h-3.247562c-.000633.0066-.000633.0134 0 .0201-.007732.0541-.012372.1082-.018558.1546-.015464.1206-.029382.2413-.041754.3634 0 .065-.012372.1315-.018557.198-.0108256.1082-.0201044.218-.0293832.3278 0 .0727-.010825.1438-.0154644.215 0 .1051-.0139183.2103-.0201041.3093 0 .0757-.0077323.1546-.0108252.2258-.0030929.0711 0 .1206 0 .1793h3.4022079c.26245-.002.51368-.1067.69984-.2917s.29245-.4356.29608-.698z"/><path d="m4.42294 19.8889c-.00039-.2647-.1052-.5186-.29167-.7065-.18646-.1879-.43953-.2947-.70425-.2971h-3.247562c-.000633.0066-.000633.0134 0 .0201-.007732.0541-.012372.1082-.018558.1546-.015464.1206-.029382.2413-.041754.3634 0 .065-.012372.1315-.018557.198-.0108256.1082-.0201044.218-.0293832.3278 0 .0727-.010825.1438-.0154644.215 0 .1051-.0139183.2103-.0201041.3093 0 .0757-.0077323.1546-.0108252.2258-.0030929.0711 0 .1206 0 .1793h3.4022079c.26245-.002.51368-.1067.69984-.2917s.29245-.4356.29608-.698z" opacity=".64"/><path d="m13.5886 28.4318c.0253-.0015.0506-.0015.0758 0-.0252-.0015-.0505-.0015-.0758 0z" opacity=".49"/><path d="m13.5886 28.4318c.0253-.0015.0506-.0015.0758 0-.0252-.0015-.0505-.0015-.0758 0z" opacity=".64"/><path d="m12.5852 29.4355c-.0004.1624.0387.3225.114.4664s.1845.2673.3182.3596c.1337.0922.2878.1506.4491.1699.1612.0194.3248-.0008.4765-.0588.0421-.0153.0829-.034.1222-.0556.055-.0303.1068-.066.1546-.1067.0566-.0463.1084-.0981.1547-.1547.0951-.1212.1603-.2632.1902-.4144.0355-.1609.0303-.3281-.0154-.4864s-.1302-.3026-.246-.4199c-.0249-.0262-.0518-.0505-.0804-.0726-.0477-.0413-.0995-.0776-.1546-.1083-.1087-.0598-.2279-.0982-.3511-.1129-.017-.0015-.034-.0015-.051 0-.0253-.0015-.0506-.0015-.0758 0-.2647 0-.5188.1044-.707.2906s-.2953.4391-.2982.7038z" opacity=".36"/><path d="m12.5852 29.4355c-.0004.1624.0387.3225.114.4664s.1845.2673.3182.3596c.1337.0922.2878.1506.4491.1699.1612.0194.3248-.0008.4765-.0588.0421-.0153.0829-.034.1222-.0556.055-.0303.1068-.066.1546-.1067.0566-.0463.1084-.0981.1547-.1547.0951-.1212.1603-.2632.1902-.4144.0355-.1609.0303-.3281-.0154-.4864s-.1302-.3026-.246-.4199c-.0249-.0262-.0518-.0505-.0804-.0726-.0477-.0413-.0995-.0776-.1546-.1083-.1087-.0598-.2279-.0982-.3511-.1129-.017-.0015-.034-.0015-.051 0-.0253-.0015-.0506-.0015-.0758 0-.2647 0-.5188.1044-.707.2906s-.2953.4391-.2982.7038z" opacity=".64"/><path d="m14.5908 29.4355c-.0006.0692-.0083.1382-.0232.2057.0149-.0675.0226-.1365.0232-.2057z" opacity=".49"/><path d="m14.5908 29.4355c-.0006.0692-.0083.1382-.0232.2057.0149-.0675.0226-.1365.0232-.2057z" opacity=".36"/><path d="m14.5908 29.4355c-.0006.0692-.0083.1382-.0232.2057.0149-.0675.0226-.1365.0232-.2057z" opacity=".36"/><path d="m14.5908 29.4355c-.0006.0692-.0083.1382-.0232.2057.0149-.0675.0226-.1365.0232-.2057z" opacity=".64"/><path d="m24.8995 7.16039c0-.1318-.026-.26231-.0764-.38408-.0505-.12177-.1244-.23241-.2176-.32561s-.2038-.16712-.3256-.21756-.2523-.0764-.3841-.0764h-17.34971l-.07577.07423c-.10671.10516-.21187.21186-.31703.32012l-.12062.12217c-.14073.15464-.28146.29692-.41754.44692l-.05877.0665c-.11753.1299-.23352.2629-.34795.39589l-.12372.15465c-.09433.11289-.18867.22733-.28146.34177l-.07423.09124h19.1668c.1323 0 .2634-.02616.3855-.07699.1222-.05082.2331-.1253.3264-.21916.0933-.09385.1671-.20522.2172-.32771.05-.12248.0754-.25366.0746-.38598z" opacity=".81"/><path d="m26.6594 12.5218c-.1809.3805-.3495.7733-.5088 1.1614 2.6507 2.664 5.2977 5.3322 7.9411 8.0045h.1191c2.8743 0 5.7492.0036 8.6246.0108h.5397c-.0866-.8861-.1454-1.7274-.2552-2.5625-.1051-.7964-.2459-1.5789-.4268-2.349-.5331-2.3179-1.4432-4.5325-2.6939-6.5555-1.0765-1.7421-2.3891-3.3268-3.9002-4.70895-.2165-.19795-.4361-.3928-.6619-.58456-.4515-.38249-.9155-.74333-1.3918-1.08252l-.0155.01082c-.5443.37425-1.0696.77117-1.5758 1.19078-.4268.35414-.8366.72374-1.2372 1.10726-.6516.6318-1.2636 1.30321-1.8325 2.0104-.3248.40414-.6341.81962-.9279 1.24644-.4485.64723-.8615 1.31833-1.2372 2.01043-.1979.3448-.3835.7144-.5598 1.0902z"/><path d="m8.71123 16.7761c0-.2662.10575-.5215.29397-.7097s.4435-.2939.70969-.2939h-8.90297c-.09485.333-.181452.6685-.259806 1.0067-.012371.0526-.023197.1052-.034022.1547-.02629.119-.054126.2381-.078869.3572-.013918.068-.02629.1361-.038662.2041-.018557.0944-.037114.1871-.054125.2799h9.368454c-.26551.0004-.52033-.1045-.70851-.2918-.18817-.1874-.29433-.4417-.29515-.7072z" opacity=".36"/><path d="m46.3413.0420088c-1.9534-.0024108-3.8982.2576592-5.7822.7732302l.1747.154645c.0681.069596.1423.137636.2072.210316.9805 1.08252 2.0182 2.13412 2.9229 3.28314 1.5904 2.03681 2.8842 4.28866 3.8429 6.68846.8678 2.0942 1.4609 4.2919 1.7645 6.5384.1547 1.2526.1686 2.5254.2444 3.7888 0 .0619.0154.1222.0309.2382h9.588c-.1221.1546-.1747.2381-.2428.3093-4.095 4.0919-8.1895 8.1849-12.2835 12.2789-.1979.1979-.3201.2165-.5289 0-1.2371-1.2372-2.5052-2.4527-3.7424-3.6961-2.8867-2.898-5.7683-5.8023-8.6447-8.7127h-.1191c-2.8754 0-5.7502-.0031-8.6246-.0093h-.5351c.0866.8846.1454 1.7258.2552 2.5609.5896 4.8421 2.7702 9.3514 6.1997 12.8202.3093.3093.6418.6186.9774.9093.586.5111 1.1988.9906 1.8357 1.4367 2.7995 1.9608 6.0217 3.2343 9.4053 3.7173 3.3837.4831 6.8335.1621 10.0699-.937s6.1683-2.9454 8.558-5.3891c2.3896-2.4437 4.1699-5.4161 5.1964-8.6762 1.0265-3.2602 1.2703-6.7163.7118-10.0883s-1.9038-6.5649-3.9267-9.31998c-2.0228-2.75504-4.6664-4.99467-7.7164-6.53733-3.05-1.542651-6.4206-2.3449243-9.8385-2.3417812z"/></g></svg>