<svg width="82" height="55" viewBox="0 0 82 55" fill="none" xmlns="http://www.w3.org/2000/svg">
<g clip-path="url(#iconClip)">
<path opacity="0.5" d="M11.2445 32.7073C11.2445 32.3769 11.3757 32.0601 11.6093 31.8265C11.8429 31.5929 12.1598 31.4616 12.4901 31.4616H4.41479C4.74461 31.4625 5.06062 31.5941 5.29353 31.8276C5.52644 32.0611 5.65724 32.3775 5.65724 32.7073C5.65724 33.0371 5.52644 33.3534 5.29353 33.587C5.06062 33.8205 4.74461 33.9521 4.41479 33.953H12.4901C12.1598 33.9529 11.8429 33.8217 11.6093 33.5881C11.3757 33.3545 11.2445 33.0376 11.2445 32.7073Z" fill="white"/>
<path opacity="0.6" d="M11.2445 20.9379C11.2445 20.6075 11.3757 20.2907 11.6092 20.0571C11.8428 19.8235 12.1596 19.6922 12.4899 19.6922H1.44243C1.4121 19.7995 1.38014 19.906 1.35109 20.0138C1.29853 20.2088 1.24814 20.4046 1.19994 20.6012C1.14421 20.8285 1.0915 21.0568 1.04183 21.2864C0.998641 21.4849 0.956969 21.684 0.918188 21.8842C0.898933 21.9835 0.882894 22.0839 0.864746 22.1835H12.4902C12.3266 22.1835 12.1646 22.1513 12.0135 22.0887C11.8623 22.0261 11.725 21.9344 11.6093 21.8187C11.4937 21.703 11.4019 21.5657 11.3393 21.4146C11.2767 21.2634 11.2445 21.1014 11.2445 20.9379Z" fill="white"/>
<path opacity="0.9" d="M12.49 19.6921L12.4897 19.6922H12.7477C13.0778 19.6926 13.3942 19.824 13.6275 20.0576C13.8607 20.2911 13.9918 20.6077 13.9918 20.9378C13.9918 21.2679 13.8607 21.5845 13.6275 21.8181C13.3942 22.0516 13.0778 22.1831 12.7477 22.1835H18.1176C18.2975 21.3411 18.5241 20.5094 18.7963 19.6921H12.49Z" fill="white"/>
<path opacity="0.6" d="M13.9934 20.9379C13.9934 20.7743 13.9612 20.6123 13.8986 20.4612C13.836 20.31 13.7442 20.1727 13.6286 20.057C13.5129 19.9414 13.3756 19.8496 13.2244 19.787C13.0733 19.7244 12.9113 19.6922 12.7477 19.6922H12.4898C12.1597 19.6927 11.8433 19.8241 11.61 20.0577C11.3768 20.2913 11.2458 20.6079 11.2458 20.938C11.2459 21.2681 11.3769 21.5847 11.6102 21.8182C11.8435 22.0517 12.1599 22.1831 12.49 22.1835H12.7477C12.9113 22.1835 13.0733 22.1513 13.2244 22.0887C13.3756 22.0261 13.5129 21.9344 13.6286 21.8187C13.7442 21.703 13.836 21.5657 13.8986 21.4146C13.9612 21.2634 13.9934 21.1014 13.9934 20.9379V20.9379Z" fill="white"/>
<path opacity="0.9" d="M13.9934 20.9379C13.9934 20.7743 13.9612 20.6123 13.8986 20.4612C13.836 20.31 13.7442 20.1727 13.6286 20.057C13.5129 19.9414 13.3756 19.8496 13.2244 19.787C13.0733 19.7244 12.9113 19.6922 12.7477 19.6922H12.4898C12.1597 19.6927 11.8433 19.8241 11.61 20.0577C11.3768 20.2913 11.2458 20.6079 11.2458 20.938C11.2459 21.2681 11.3769 21.5847 11.6102 21.8182C11.8435 22.0517 12.1599 22.1831 12.49 22.1835H12.7477C12.9113 22.1835 13.0733 22.1513 13.2244 22.0887C13.3756 22.0261 13.5129 21.9344 13.6286 21.8187C13.7442 21.703 13.836 21.5657 13.8986 21.4146C13.9612 21.2634 13.9934 21.1014 13.9934 20.9379V20.9379Z" fill="white"/>
<path opacity="0.8" d="M11.2444 16.9002C11.2444 16.7366 11.2766 16.5746 11.3392 16.4235C11.4018 16.2723 11.4935 16.135 11.6092 16.0193C11.7249 15.9037 11.8622 15.8119 12.0133 15.7493C12.1645 15.6867 12.3265 15.6545 12.49 15.6545H2.94311C2.56365 16.4674 2.22533 17.2989 1.92944 18.1458H12.49C12.3265 18.1458 12.1645 18.1136 12.0133 18.051C11.8622 17.9884 11.7249 17.8967 11.6092 17.781C11.4936 17.6653 11.4018 17.528 11.3392 17.3769C11.2766 17.2257 11.2444 17.0637 11.2444 16.9002Z" fill="white"/>
<path opacity="0.5" d="M16.9573 15.6545C17.121 15.6543 17.2832 15.6863 17.4345 15.7488C17.5858 15.8113 17.7233 15.9031 17.8391 16.0188C17.955 16.1345 18.0469 16.2718 18.1096 16.4231C18.1723 16.5743 18.2046 16.7364 18.2046 16.9002C18.2046 17.0639 18.1723 17.226 18.1096 17.3772C18.0469 17.5285 17.955 17.6659 17.8391 17.7815C17.7233 17.8972 17.5858 17.989 17.4345 18.0515C17.2832 18.114 17.121 18.146 16.9573 18.1458H19.3679C19.7209 17.2921 20.1244 16.4602 20.5762 15.6545L16.9573 15.6545Z" fill="white"/>
<path opacity="0.8" d="M18.2031 16.9002C18.2031 16.7366 18.1709 16.5746 18.1083 16.4235C18.0457 16.2723 17.9539 16.135 17.8382 16.0193C17.7226 15.9036 17.5852 15.8119 17.4341 15.7493C17.283 15.6867 17.121 15.6545 16.9574 15.6545H12.4902C12.1601 15.6549 11.8436 15.7863 11.6104 16.0199C11.3771 16.2535 11.2461 16.5701 11.2461 16.9002C11.2461 17.2302 11.3771 17.5468 11.6104 17.7804C11.8436 18.014 12.1601 18.1454 12.4902 18.1458H16.9574C17.121 18.1458 17.283 18.1136 17.4341 18.051C17.5852 17.9884 17.7225 17.8967 17.8382 17.781C17.9539 17.6653 18.0457 17.528 18.1083 17.3769C18.1709 17.2257 18.2031 17.0638 18.2031 16.9002V16.9002Z" fill="white"/>
<path opacity="0.8" d="M18.2031 16.9002C18.2031 16.7366 18.1709 16.5746 18.1083 16.4235C18.0457 16.2723 17.9539 16.135 17.8382 16.0193C17.7226 15.9036 17.5852 15.8119 17.4341 15.7493C17.283 15.6867 17.121 15.6545 16.9574 15.6545H12.4902C12.1601 15.6549 11.8436 15.7863 11.6104 16.0199C11.3771 16.2535 11.2461 16.5701 11.2461 16.9002C11.2461 17.2302 11.3771 17.5468 11.6104 17.7804C11.8436 18.014 12.1601 18.1454 12.4902 18.1458H16.9574C17.121 18.1458 17.283 18.1136 17.4341 18.051C17.5852 17.9884 17.7225 17.8967 17.8382 17.781C17.9539 17.6653 18.0457 17.528 18.1083 17.3769C18.1709 17.2257 18.2031 17.0638 18.2031 16.9002V16.9002Z" fill="white"/>
<path opacity="0.6" d="M15.4538 13.0343C15.4538 12.8707 15.486 12.7087 15.5486 12.5576C15.6112 12.4065 15.703 12.2691 15.8187 12.1535C15.9343 12.0378 16.0717 11.946 16.2228 11.8834C16.3739 11.8208 16.5359 11.7886 16.6995 11.7886H6.64819C6.97856 11.7886 7.29541 11.9198 7.52904 12.1534C7.76268 12.387 7.89395 12.7038 7.89398 13.0342C7.89401 13.3645 7.76281 13.6814 7.52923 13.915C7.29564 14.1486 6.97882 14.2799 6.64845 14.28H16.6992C16.3689 14.2799 16.0521 14.1486 15.8185 13.915C15.585 13.6814 15.4538 13.3646 15.4538 13.0343V13.0343Z" fill="white"/>
<path d="M7.89413 13.0343C7.89413 12.8707 7.86191 12.7087 7.79931 12.5576C7.7367 12.4065 7.64495 12.2691 7.52928 12.1535C7.4136 12.0378 7.27628 11.946 7.12515 11.8834C6.97401 11.8208 6.81203 11.7886 6.64844 11.7886H5.15529C4.60203 12.5909 4.09273 13.4225 3.62964 14.28H6.64844L6.6487 14.2799C6.97903 14.2799 7.29582 14.1486 7.52938 13.915C7.76293 13.6814 7.89414 13.3646 7.89413 13.0343V13.0343Z" fill="white"/>
<path opacity="0.8" d="M20.4794 11.7886C20.8098 11.7886 21.1266 11.9199 21.3602 12.1535C21.5939 12.3871 21.7251 12.7039 21.7251 13.0343C21.7251 13.3647 21.5939 13.6815 21.3602 13.9151C21.1266 14.1487 20.8098 14.28 20.4794 14.28H16.6992L16.6995 14.28H21.4086C21.9787 13.4087 22.6063 12.5764 23.2871 11.7886L20.4794 11.7886Z" fill="white"/>
<path opacity="0.6" d="M21.7253 13.0343C21.7253 12.8707 21.6931 12.7087 21.6305 12.5576C21.5679 12.4065 21.4761 12.2691 21.3604 12.1535C21.2448 12.0378 21.1074 11.9461 20.9563 11.8835C20.8052 11.8209 20.6432 11.7886 20.4796 11.7886H16.6996C16.5361 11.7886 16.3741 11.8208 16.2229 11.8834C16.0718 11.946 15.9345 12.0377 15.8188 12.1534C15.5852 12.387 15.4539 12.7038 15.4539 13.0342C15.4538 13.3645 15.585 13.6814 15.8186 13.915C16.0522 14.1486 16.369 14.2799 16.6994 14.28H20.4796C20.6432 14.28 20.8052 14.2477 20.9563 14.1851C21.1074 14.1225 21.2448 14.0308 21.3604 13.9151C21.4761 13.7994 21.5679 13.6621 21.6305 13.511C21.6931 13.3599 21.7253 13.1979 21.7253 13.0343V13.0343Z" fill="white"/>
<path opacity="0.8" d="M21.7253 13.0343C21.7253 12.8707 21.6931 12.7087 21.6305 12.5576C21.5679 12.4065 21.4761 12.2691 21.3604 12.1535C21.2448 12.0378 21.1074 11.9461 20.9563 11.8835C20.8052 11.8209 20.6432 11.7886 20.4796 11.7886H16.6996C16.5361 11.7886 16.3741 11.8208 16.2229 11.8834C16.0718 11.946 15.9345 12.0377 15.8188 12.1534C15.5852 12.387 15.4539 12.7038 15.4539 13.0342C15.4538 13.3645 15.585 13.6814 15.8186 13.915C16.0522 14.1486 16.369 14.2799 16.6994 14.28H20.4796C20.6432 14.28 20.8052 14.2477 20.9563 14.1851C21.1074 14.1225 21.2448 14.0308 21.3604 13.9151C21.4761 13.7994 21.5679 13.6621 21.6305 13.511C21.6931 13.3599 21.7253 13.1979 21.7253 13.0343V13.0343Z" fill="white"/>
<path opacity="0.7" d="M18.203 5.13073C18.203 4.96715 18.2352 4.80516 18.2978 4.65403C18.3604 4.5029 18.4522 4.36558 18.5679 4.24991C18.6835 4.13424 18.8209 4.04248 18.972 3.97988C19.1231 3.91728 19.2851 3.88507 19.4487 3.88507H13.594C13.5549 3.90839 13.5145 3.92977 13.4754 3.95327C13.3639 4.02046 13.2546 4.09103 13.1441 4.15979C12.9125 4.30397 12.6823 4.45037 12.4554 4.60134C12.3319 4.68349 12.2098 4.7674 12.0877 4.85151C11.8739 4.99894 11.6623 5.14939 11.453 5.30288C11.3348 5.38948 11.2166 5.47586 11.0999 5.56434C10.8775 5.73287 10.659 5.90602 10.4421 6.08123C10.3472 6.15794 10.2506 6.23267 10.1568 6.31061C10.131 6.33202 10.1065 6.3549 10.0808 6.37642H19.4487C19.2851 6.37641 19.1231 6.34419 18.972 6.28159C18.8209 6.21899 18.6835 6.12723 18.5679 6.01156C18.4522 5.89588 18.3604 5.75856 18.2978 5.60743C18.2352 5.4563 18.203 5.29431 18.203 5.13073V5.13073Z" fill="white"/>
<path opacity="0.6" d="M19.5347 3.88507C19.6984 3.88486 19.8605 3.91692 20.0119 3.97943C20.1632 4.04194 20.3007 4.13366 20.4165 4.24935C20.5324 4.36504 20.6243 4.50244 20.687 4.65367C20.7497 4.80491 20.782 4.96702 20.782 5.13074C20.782 5.29446 20.7497 5.45658 20.687 5.60781C20.6243 5.75905 20.5324 5.89644 20.4165 6.01214C20.3007 6.12783 20.1632 6.21955 20.0119 6.28206C19.8605 6.34456 19.6984 6.37663 19.5347 6.37642H30.091C32.5861 5.06317 35.301 4.21875 38.1008 3.88508L19.5347 3.88507Z" fill="white"/>
<path d="M20.7803 5.13073C20.7803 4.96714 20.748 4.80516 20.6854 4.65402C20.6228 4.50289 20.5311 4.36557 20.4154 4.2499C20.2997 4.13423 20.1624 4.04247 20.0113 3.97988C19.8601 3.91728 19.6981 3.88506 19.5346 3.88507H19.4487C19.1186 3.8855 18.8021 4.01693 18.5689 4.25049C18.3356 4.48405 18.2046 4.80065 18.2046 5.13074C18.2046 5.46084 18.3356 5.77743 18.5689 6.011C18.8021 6.24456 19.1186 6.37599 19.4487 6.37641H19.5346C19.6981 6.37642 19.8601 6.3442 20.0113 6.2816C20.1624 6.21899 20.2997 6.12724 20.4154 6.01157C20.5311 5.89589 20.6228 5.75857 20.6854 5.60744C20.748 5.4563 20.7803 5.29432 20.7803 5.13073V5.13073Z" fill="white"/>
<path d="M27.3522 0.105052C23.6558 0.101718 19.9986 0.862148 16.6099 2.33866H38.0946C34.7059 0.862148 31.0486 0.101718 27.3522 0.105052V0.105052Z" fill="white"/>
<path opacity="0.5" d="M5.67132 23.5581C6.00114 23.5589 6.31715 23.6905 6.55006 23.924C6.78297 24.1576 6.91377 24.4739 6.91377 24.8037C6.91377 25.1335 6.78297 25.4499 6.55006 25.6834C6.31715 25.9169 6.00114 26.0485 5.67132 26.0494H4.75856L4.7583 26.0494H17.6275C17.6626 25.2153 17.7419 24.3837 17.8652 23.558L5.67132 23.5581Z" fill="white"/>
<path opacity="0.95" d="M0.431885 27.5098C0.446409 28.35 0.495919 29.1814 0.585683 30.0012H17.7891C17.6863 29.1744 17.6273 28.3428 17.6124 27.5098H0.431885Z" fill="white"/>
<path d="M12.49 31.4616C12.1602 31.4625 11.8442 31.5941 11.6113 31.8276C11.3784 32.0611 11.2476 32.3775 11.2476 32.7073C11.2476 33.0371 11.3784 33.3534 11.6113 33.587C11.8442 33.8205 12.1602 33.9521 12.49 33.953H18.6267C18.3776 33.1344 18.1738 32.3026 18.0162 31.4616H12.49Z" fill="white"/>
<path opacity="0.7" d="M3.08307 32.7073C3.08307 32.3769 3.21431 32.0601 3.44792 31.8265C3.68153 31.5928 3.99837 31.4616 4.32873 31.4616H0.787842C0.818791 31.6488 0.852893 31.8349 0.887683 32.0207C0.923127 32.21 0.956037 32.4002 0.995443 32.5881C1.04696 32.8341 1.10626 33.077 1.16446 33.3204C1.20723 33.4993 1.24674 33.6796 1.29304 33.8571C1.30147 33.8893 1.31173 33.9208 1.32026 33.953H4.32873C4.16515 33.953 4.00317 33.9207 3.85203 33.8581C3.7009 33.7955 3.56358 33.7038 3.44791 33.5881C3.33224 33.4724 3.24048 33.3351 3.17789 33.184C3.11529 33.0328 3.08307 32.8709 3.08307 32.7073V32.7073Z" fill="white"/>
<path d="M5.66043 32.7073C5.66043 32.3769 5.52919 32.0601 5.29558 31.8265C5.06198 31.5929 4.74514 31.4616 4.41477 31.4616H4.32887C3.99906 31.4625 3.68305 31.5941 3.45014 31.8276C3.21722 32.0611 3.08643 32.3775 3.08643 32.7073C3.08643 33.0371 3.21722 33.3534 3.45014 33.587C3.68305 33.8205 3.99906 33.9521 4.32887 33.953H4.41477C4.57836 33.953 4.74034 33.9207 4.89147 33.8581C5.0426 33.7955 5.17992 33.7038 5.29559 33.5881C5.41126 33.4724 5.50302 33.3351 5.56562 33.184C5.62822 33.0328 5.66043 32.8709 5.66043 32.7073V32.7073Z" fill="white"/>
<path opacity="0.5" d="M17.301 35.4134C17.5777 35.4128 17.8466 35.505 18.0648 35.6753C18.2829 35.8456 18.4376 36.0841 18.5042 36.3526C18.5111 36.3796 18.5189 36.4058 18.5239 36.4333C18.5576 36.6129 18.5512 36.7977 18.5052 36.9745C18.4593 37.1513 18.3749 37.3158 18.2582 37.4563C18.1414 37.5969 17.9951 37.7099 17.8296 37.7874C17.6642 37.8649 17.4837 37.905 17.301 37.9047H20.2514C19.8297 37.0969 19.4559 36.2651 19.1317 35.4134L17.301 35.4134Z" fill="white"/>
<path opacity="0.7" d="M18.5042 36.3527C18.4573 36.1666 18.3682 35.9938 18.2436 35.8479C18.119 35.7019 17.9623 35.5867 17.7859 35.5113C17.9623 35.5867 18.119 35.7019 18.2436 35.8479C18.3682 35.9938 18.4574 36.1666 18.5042 36.3527V36.3527Z" fill="white"/>
<path opacity="0.7" d="M17.7859 37.8068C18.0486 37.6983 18.2656 37.5022 18.4001 37.2518C18.5347 37.0015 18.5784 36.7122 18.5239 36.4333C18.5784 36.7122 18.5346 37.0014 18.4001 37.2518C18.2656 37.5021 18.0485 37.6982 17.7859 37.8068V37.8068Z" fill="white"/>
<path opacity="0.7" d="M16.0553 36.6591C16.0554 36.3287 16.1866 36.0118 16.4202 35.7782C16.6538 35.5446 16.9707 35.4134 17.301 35.4134H1.75513C1.80242 35.5581 1.8516 35.7018 1.90128 35.8454C1.97558 36.0601 2.0495 36.2749 2.12904 36.4871C2.20456 36.6886 2.28523 36.8875 2.3654 37.0867C2.44995 37.2967 2.53432 37.5068 2.62396 37.7141C2.65169 37.7782 2.68197 37.8409 2.71017 37.9048H17.301C16.9706 37.9047 16.6538 37.7735 16.4202 37.5399C16.1866 37.3063 16.0553 36.9894 16.0553 36.6591V36.6591Z" fill="white"/>
<path opacity="0.8" d="M3.5415 39.6229C3.56181 39.6613 3.58045 39.7007 3.60094 39.7389C3.75147 40.0198 3.91033 40.2955 4.07046 40.5704C4.14246 40.694 4.21053 40.8201 4.28441 40.9424C4.52247 41.3365 4.76985 41.7241 5.02656 42.1052C5.02865 42.1083 5.03094 42.1112 5.03299 42.1142H23.0648C22.4038 41.3247 21.7956 40.4925 21.2441 39.6229H3.5415Z" fill="white"/>
<path opacity="0.5" d="M16.6998 46.066C16.5359 46.0664 16.3736 46.0345 16.2221 45.9721C16.0706 45.9097 15.9329 45.818 15.8168 45.7023C15.7008 45.5866 15.6088 45.4491 15.546 45.2978C15.4832 45.1464 15.4509 44.9842 15.4509 44.8203C15.4509 44.6565 15.4832 44.4942 15.546 44.3429C15.6088 44.1915 15.7008 44.0541 15.8168 43.9384C15.9329 43.8226 16.0706 43.731 16.2221 43.6685C16.3736 43.6061 16.5359 43.5742 16.6998 43.5747H6.10327C6.16 43.6474 6.21702 43.72 6.27432 43.7923C6.49775 44.073 6.72681 44.3491 6.96149 44.6205C7.06285 44.7379 7.16277 44.8565 7.26608 44.9722C7.58455 45.3286 7.91058 45.6782 8.24709 46.017C8.26303 46.033 8.27789 46.05 8.29385 46.066H27.3188L27.3187 46.066L16.6998 46.066Z" fill="white"/>
<path opacity="0.5" d="M15.4539 44.8203C15.4539 44.9839 15.4861 45.1459 15.5487 45.297C15.6113 45.4482 15.703 45.5855 15.8187 45.7011C15.9344 45.8168 16.0717 45.9086 16.2228 45.9712C16.374 46.0338 16.536 46.066 16.6995 46.066H27.3185C26.2768 45.3171 25.2984 44.4838 24.3931 43.5746H16.6996C16.3692 43.5746 16.0523 43.7059 15.8187 43.9395C15.5851 44.1731 15.4539 44.4899 15.4539 44.8203V44.8203Z" fill="white"/>
<path opacity="0.9" d="M15.4539 44.8203C15.4539 44.9839 15.4861 45.1459 15.5487 45.297C15.6113 45.4482 15.703 45.5855 15.8187 45.7011C15.9344 45.8168 16.0717 45.9086 16.2228 45.9712C16.374 46.0338 16.536 46.066 16.6995 46.066H27.3185C26.2768 45.3171 25.2984 44.4838 24.3931 43.5746H16.6996C16.3692 43.5746 16.0523 43.7059 15.8187 43.9395C15.5851 44.1731 15.4539 44.4899 15.4539 44.8203V44.8203Z" fill="white"/>
<path opacity="0.5" d="M34.8916 50.0178H36.4426C36.1433 49.9598 35.847 49.8941 35.5519 49.8247C35.3545 49.9503 35.1255 50.0172 34.8916 50.0178Z" fill="white"/>
<path opacity="0.5" d="M27.2888 48.7721C27.2888 48.4417 27.42 48.1249 27.6536 47.8913C27.8872 47.6577 28.2041 47.5264 28.5344 47.5264H18.8474C19.1772 47.5273 19.4932 47.6589 19.7262 47.8924C19.9591 48.1259 20.0899 48.4423 20.0899 48.7721C20.0899 49.1019 19.9591 49.4183 19.7262 49.6518C19.4932 49.8853 19.1772 50.0169 18.8474 50.0178H28.5344C28.2041 50.0178 27.8872 49.8865 27.6536 49.6529C27.42 49.4193 27.2888 49.1025 27.2888 48.7721V48.7721Z" fill="white"/>
<path opacity="0.5" d="M17.6018 48.7721C17.6018 48.4417 17.733 48.1249 17.9666 47.8913C18.2002 47.6577 18.5171 47.5264 18.8474 47.5264H9.88257C9.94762 47.582 10.0109 47.6395 10.0765 47.6944C10.1868 47.7867 10.2983 47.8776 10.4101 47.9682C10.6143 48.1337 10.821 48.2961 11.0302 48.4555C11.1425 48.5412 11.2544 48.6273 11.368 48.7113C11.6049 48.8863 11.8457 49.0562 12.0884 49.2236C12.1744 49.2828 12.2586 49.3444 12.3453 49.4027C12.6603 49.6145 12.9801 49.8195 13.3048 50.0178H18.8474C18.6839 50.0178 18.5219 49.9856 18.3707 49.923C18.2196 49.8604 18.0823 49.7686 17.9666 49.6529C17.8509 49.5373 17.7592 49.3999 17.6966 49.2488C17.634 49.0977 17.6018 48.9357 17.6018 48.7721V48.7721Z" fill="white"/>
<path d="M20.0929 48.7721C20.0929 48.5257 20.0199 48.2849 19.883 48.0801C19.7461 47.8752 19.5516 47.7155 19.3239 47.6213C19.0963 47.527 18.8459 47.5023 18.6042 47.5504C18.3626 47.5984 18.1406 47.7171 17.9664 47.8913C17.7922 48.0655 17.6736 48.2874 17.6255 48.5291C17.5774 48.7707 17.6021 49.0212 17.6964 49.2488C17.7907 49.4764 17.9503 49.671 18.1552 49.8079C18.36 49.9447 18.6009 50.0178 18.8472 50.0178C19.1776 50.0178 19.4945 49.8865 19.7281 49.6529C19.9617 49.4193 20.0929 49.1025 20.0929 48.7721Z" fill="white"/>
<path d="M29.6108 47.5264H28.5342C28.2044 47.5273 27.8884 47.6589 27.6555 47.8924C27.4225 48.1259 27.2917 48.4423 27.2917 48.7721C27.2917 49.1019 27.4225 49.4183 27.6555 49.6518C27.8884 49.8853 28.2044 50.0169 28.5342 50.0178H34.8914C35.1254 50.0172 35.3543 49.9502 35.5517 49.8247C33.4747 49.337 31.4753 48.5635 29.6108 47.5264V47.5264Z" fill="white"/>
<path d="M16.7998 51.8219C20.1373 53.2392 23.7261 53.9696 27.3521 53.9696C30.978 53.9696 34.5668 53.2392 37.9043 51.8219H16.7998Z" fill="white"/>
<path opacity="0.9" d="M6.00413 24.8038C6.00414 24.6402 5.97192 24.4782 5.90933 24.327C5.84673 24.1759 5.75497 24.0386 5.6393 23.9229C5.52363 23.8072 5.38631 23.7155 5.23518 23.6529C5.08405 23.5903 4.92206 23.558 4.75848 23.558H0.651335C0.545502 24.3778 0.476746 25.2082 0.445068 26.0494H4.75873C5.08905 26.0493 5.40582 25.918 5.63937 25.6845C5.87293 25.4509 6.00413 25.1341 6.00413 24.8038V24.8038Z" fill="white"/>
<path opacity="0.5" d="M6.91698 24.8037C6.91699 24.6401 6.88477 24.4782 6.82217 24.327C6.75957 24.1759 6.66782 24.0386 6.55215 23.9229C6.43648 23.8072 6.29916 23.7155 6.14802 23.6529C5.99689 23.5903 5.83491 23.558 5.67132 23.558H4.7583C5.08811 23.5589 5.40414 23.6904 5.63708 23.9239C5.87001 24.1574 6.00085 24.4738 6.00088 24.8036C6.00091 25.1334 5.87015 25.4498 5.63726 25.6833C5.40437 25.9168 5.08837 26.0485 4.75856 26.0494H5.67132C5.83491 26.0494 5.99689 26.0172 6.14802 25.9546C6.29915 25.892 6.43647 25.8002 6.55214 25.6845C6.66781 25.5689 6.75956 25.4315 6.82216 25.2804C6.88476 25.1293 6.91698 24.9673 6.91698 24.8037V24.8037Z" fill="white"/>
<path opacity="0.9" d="M6.91698 24.8037C6.91699 24.6401 6.88477 24.4782 6.82217 24.327C6.75957 24.1759 6.66782 24.0386 6.55215 23.9229C6.43648 23.8072 6.29916 23.7155 6.14802 23.6529C5.99689 23.5903 5.83491 23.558 5.67132 23.558H4.7583C5.08811 23.5589 5.40414 23.6904 5.63708 23.9239C5.87001 24.1574 6.00085 24.4738 6.00088 24.8036C6.00091 25.1334 5.87015 25.4498 5.63726 25.6833C5.40437 25.9168 5.08837 26.0485 4.75856 26.0494H5.67132C5.83491 26.0494 5.99689 26.0172 6.14802 25.9546C6.29915 25.892 6.43647 25.8002 6.55214 25.6845C6.66781 25.5689 6.75956 25.4315 6.82216 25.2804C6.88476 25.1293 6.91698 24.9673 6.91698 24.8037V24.8037Z" fill="white"/>
<path d="M18.5467 36.6591C18.546 36.5833 18.5383 36.5077 18.5239 36.4333C18.5188 36.4057 18.511 36.3796 18.5042 36.3526C18.4376 36.0841 18.2828 35.8456 18.0647 35.6753C17.8466 35.505 17.5777 35.4128 17.301 35.4134V35.4134C17.1373 35.4132 16.9751 35.4452 16.8238 35.5078C16.6725 35.5703 16.535 35.662 16.4191 35.7777C16.3033 35.8934 16.2114 36.0308 16.1487 36.182C16.086 36.3332 16.0537 36.4953 16.0537 36.6591C16.0537 36.8228 16.086 36.9849 16.1487 37.1361C16.2114 37.2874 16.3033 37.4248 16.4191 37.5405C16.535 37.6562 16.6725 37.7479 16.8238 37.8104C16.9751 37.8729 17.1373 37.905 17.301 37.9047V37.9047C17.4646 37.9049 17.6267 37.8728 17.7779 37.8102C17.929 37.7477 18.0664 37.6559 18.1821 37.5402C18.2978 37.4245 18.3896 37.2871 18.4521 37.1359C18.5147 36.9847 18.5468 36.8227 18.5467 36.6591V36.6591Z" fill="white"/>
<path opacity="0.9" d="M8.56255 7.75092C8.52679 7.78572 8.48975 7.81922 8.45419 7.85423C8.09351 8.20956 7.74029 8.57261 7.39997 8.94776C7.37043 8.98033 7.34298 9.01478 7.31357 9.0475C7.00363 9.39252 6.70304 9.74578 6.41178 10.1073C6.37577 10.1517 6.3414 10.1976 6.30566 10.2423H24.7495C25.6946 9.32758 26.715 8.49417 27.8001 7.75092H8.56255Z" fill="white"/>
<path d="M54.0696 0.190995C49.3997 0.185883 44.8095 1.40121 40.7539 3.71652C40.7969 3.71628 40.8392 3.71325 40.8822 3.71325C52.2378 3.71325 61.6928 11.8743 63.7472 22.6714H53.6717C52.7362 19.8778 50.9166 17.4648 48.488 15.7973C46.0594 14.1297 43.1538 13.2982 40.2107 13.4287C37.2676 13.5591 34.447 14.6443 32.1754 16.5201C29.9038 18.396 28.3048 20.9605 27.6201 23.8259C26.9355 26.6912 27.2024 29.7016 28.3806 32.4017C29.5588 35.1019 31.5842 37.345 34.1505 38.7918C36.7167 40.2386 39.6843 40.8105 42.6044 40.421C45.5246 40.0314 48.2385 38.7017 50.3357 36.6327H44.4841V30.1665H63.3722V49.1246H56.9768V43.9622C52.6554 48.1285 46.8849 50.4537 40.8822 50.4473C40.7867 50.4473 40.6928 50.4413 40.5976 50.4401C44.1748 52.507 48.1794 53.7231 52.3018 53.9945C56.4242 54.2659 60.5537 53.5853 64.3709 52.0052C68.1882 50.4251 71.5907 47.988 74.3152 44.8825C77.0398 41.7769 79.0133 38.0862 80.0832 34.0958C81.153 30.1054 81.2904 25.9224 80.4848 21.8704C79.6793 17.8184 77.9522 14.0061 75.4374 10.7284C72.9226 7.45068 69.6874 4.7955 65.9821 2.96828C62.2769 1.14106 58.2009 0.190787 54.0696 0.190995Z" fill="white"/>
</g>
<defs>
<clipPath id="iconClip">
<rect width="80.57" height="53.9504" fill="white" transform="translate(0.431885 0.105042)"/>
</clipPath>
</defs>
</svg>
