<svg width="69" height="44" viewBox="0 0 69 44" fill="none" xmlns="http://www.w3.org/2000/svg">
<g clip-path="url(#iconclip0)">
<g opacity="0.6">
<path opacity="0.6" d="M8.7112 26.2589C8.7112 26.1272 8.73718 25.9968 8.78763 25.8751C8.83809 25.7534 8.91204 25.6429 9.00526 25.5498C9.09848 25.4567 9.20913 25.3829 9.33089 25.3327C9.45265 25.2824 9.58313 25.2566 9.71486 25.2568H3.21973C3.48632 25.2568 3.742 25.3627 3.93051 25.5513C4.11902 25.7398 4.22493 25.9954 4.22493 26.262C4.22493 26.5286 4.11902 26.7843 3.93051 26.9728C3.742 27.1613 3.48632 27.2672 3.21973 27.2672H9.71486C9.58261 27.2674 9.45162 27.2415 9.32946 27.1908C9.20729 27.1402 9.09636 27.0658 9.00306 26.9721C8.90976 26.8784 8.83594 26.7671 8.78585 26.6447C8.73576 26.5223 8.71039 26.3912 8.7112 26.2589Z" fill="white"/>
</g>
<g opacity="0.8">
<path opacity="0.8" d="M9.92212 15.7725C10.1887 15.7725 10.4444 15.8784 10.6329 16.0669C10.8214 16.2554 10.9273 16.5111 10.9273 16.7777C10.9273 17.0443 10.8214 17.2999 10.6329 17.4884C10.4444 17.677 10.1887 17.7829 9.92212 17.7829H12.681C13.3511 17.1148 14.0213 16.4447 14.6914 15.7725H9.92212Z" fill="white"/>
</g>
<g opacity="0.6">
<path opacity="0.6" d="M10.9258 16.7761C10.9254 16.5101 10.8195 16.255 10.6314 16.0669C10.4432 15.8787 10.1882 15.7729 9.92214 15.7725H9.71492C9.44832 15.7725 9.19264 15.8784 9.00413 16.0669C8.81562 16.2554 8.70972 16.5111 8.70972 16.7777C8.70972 17.0443 8.81562 17.2999 9.00413 17.4884C9.19264 17.677 9.44832 17.7829 9.71492 17.7829H9.92214C10.0542 17.7829 10.185 17.7568 10.3069 17.7062C10.4289 17.6555 10.5397 17.5813 10.6329 17.4878C10.7262 17.3943 10.8 17.2833 10.8503 17.1611C10.9005 17.039 10.9262 16.9082 10.9258 16.7761Z" fill="white"/>
</g>
<g opacity="0.8">
<path opacity="0.8" d="M10.9258 16.7761C10.9254 16.5101 10.8195 16.255 10.6314 16.0669C10.4432 15.8787 10.1882 15.7729 9.92214 15.7725H9.71492C9.44832 15.7725 9.19264 15.8784 9.00413 16.0669C8.81562 16.2554 8.70972 16.5111 8.70972 16.7777C8.70972 17.0443 8.81562 17.2999 9.00413 17.4884C9.19264 17.677 9.44832 17.7829 9.71492 17.7829H9.92214C10.0542 17.7829 10.185 17.7568 10.3069 17.7062C10.4289 17.6555 10.5397 17.5813 10.6329 17.4878C10.7262 17.3943 10.8 17.2833 10.8503 17.1611C10.9005 17.039 10.9262 16.9082 10.9258 16.7761Z" fill="white"/>
</g>
<g opacity="0.9">
<path opacity="0.9" d="M14.3141 13.5236C14.3141 13.2578 14.2085 13.0029 14.0206 12.815C13.8326 12.6271 13.5778 12.5215 13.312 12.5215H2.02283C1.71688 13.1774 1.44436 13.8484 1.2063 14.5319H13.312C13.4441 14.5319 13.5749 14.5058 13.6969 14.455C13.8189 14.4043 13.9296 14.3299 14.0228 14.2362C14.1159 14.1425 14.1896 14.0313 14.2396 13.909C14.2896 13.7867 14.3149 13.6557 14.3141 13.5236Z" fill="white"/>
</g>
<g opacity="0.7">
<path opacity="0.7" d="M24.9907 12.5215C25.1454 12.6761 25.3 12.8308 25.4469 12.9746C25.682 13.2097 25.9109 13.4478 26.1506 13.6829C26.3052 13.2901 26.4784 12.9019 26.6594 12.5215H24.9907Z" fill="white"/>
</g>
<g opacity="0.7">
<path opacity="0.7" d="M13.312 12.5215C13.5786 12.5215 13.8343 12.6274 14.0228 12.8159C14.2113 13.0044 14.3172 13.2601 14.3172 13.5267C14.3172 13.7933 14.2113 14.049 14.0228 14.2375C13.8343 14.426 13.5786 14.5319 13.312 14.5319H15.941L17.9514 12.5215H13.312Z" fill="white"/>
</g>
<g opacity="0.5">
<path opacity="0.5" d="M6.0126 10.4106C6.01219 10.6763 5.90648 10.9309 5.71864 11.1188C5.5308 11.3066 5.27615 11.4123 5.0105 11.4127H13.1031C12.8365 11.4127 12.5808 11.3068 12.3923 11.1183C12.2038 10.9298 12.0979 10.6741 12.0979 10.4075C12.0979 10.1409 12.2038 9.88527 12.3923 9.69676C12.5808 9.50825 12.8365 9.40234 13.1031 9.40234H5.0105C5.14262 9.40234 5.27344 9.42846 5.39542 9.47921C5.51741 9.52996 5.62815 9.60433 5.72129 9.69804C5.81442 9.79175 5.88811 9.90295 5.93811 10.0252C5.9881 10.1475 6.01342 10.2785 6.0126 10.4106Z" fill="white"/>
</g>
<g opacity="0.7">
<path opacity="0.7" d="M2.65366 11.2847C2.62891 11.328 2.60572 11.3713 2.58252 11.4146H3.14698C2.97408 11.4146 2.80414 11.3698 2.65366 11.2847Z" fill="white"/>
</g>
<g opacity="0.5">
<path opacity="0.5" d="M5.01061 11.4127C5.27721 11.4127 5.53288 11.3068 5.7214 11.1183C5.90991 10.9298 6.01581 10.6741 6.01581 10.4075C6.01581 10.1409 5.90991 9.88527 5.7214 9.69676C5.53288 9.50825 5.27721 9.40234 5.01061 9.40234H3.80437L3.75334 9.47503L3.59869 9.71937L3.46415 9.9235C3.41003 10.0055 3.35899 10.089 3.30951 10.1725L3.18115 10.3782C3.12857 10.4632 3.07754 10.5498 3.0265 10.6349L2.90588 10.8406C2.8533 10.9302 2.80227 11.0215 2.75124 11.1127C2.72031 11.1684 2.68783 11.2225 2.65845 11.2782C2.80893 11.3633 2.97888 11.4081 3.15177 11.4081L5.01061 11.4127Z" fill="white"/>
</g>
<g opacity="0.7">
<path opacity="0.7" d="M5.01061 11.4127C5.27721 11.4127 5.53288 11.3068 5.7214 11.1183C5.90991 10.9298 6.01581 10.6741 6.01581 10.4075C6.01581 10.1409 5.90991 9.88527 5.7214 9.69676C5.53288 9.50825 5.27721 9.40234 5.01061 9.40234H3.80437L3.75334 9.47503L3.59869 9.71937L3.46415 9.9235C3.41003 10.0055 3.35899 10.089 3.30951 10.1725L3.18115 10.3782C3.12857 10.4632 3.07754 10.5498 3.0265 10.6349L2.90588 10.8406C2.8533 10.9302 2.80227 11.0215 2.75124 11.1127C2.72031 11.1684 2.68783 11.2225 2.65845 11.2782C2.80893 11.3633 2.97888 11.4081 3.15177 11.4081L5.01061 11.4127Z" fill="white"/>
</g>
<path d="M27.2192 11.4127C27.5949 10.7207 28.0079 10.0496 28.4564 9.40234H21.8298C22.5041 10.0735 23.1825 10.7436 23.865 11.4127H27.2192Z" fill="white"/>
<path d="M12.1011 10.4106C12.1011 10.6765 12.2066 10.9315 12.3945 11.1197C12.5824 11.3079 12.8373 11.4138 13.1032 11.4142H19.0462L21.0566 9.40381H13.1047C12.9726 9.4036 12.8418 9.42953 12.7197 9.48009C12.5976 9.53065 12.4868 9.60484 12.3935 9.69841C12.3002 9.79198 12.2264 9.90307 12.1762 10.0253C12.126 10.1475 12.1005 10.2784 12.1011 10.4106Z" fill="white"/>
<g opacity="0.5">
<path opacity="0.5" d="M23.896 6.15479C24.1626 6.15479 24.4183 6.26069 24.6068 6.4492C24.7953 6.63771 24.9012 6.89339 24.9012 7.15998C24.9012 7.42658 24.7953 7.68226 24.6068 7.87077C24.4183 8.05928 24.1626 8.16518 23.896 8.16518H29.389C29.9579 7.458 30.57 6.78659 31.2216 6.15479H23.896Z" fill="white"/>
</g>
<g opacity="0.7">
<path opacity="0.7" d="M14.3141 4.04711C14.3141 3.78092 14.4198 3.52564 14.608 3.33742C14.7963 3.1492 15.0515 3.04346 15.3177 3.04346H10.5995L10.5051 3.09913L10.3505 3.19346L10.0845 3.35893L9.92986 3.45481L9.64685 3.64194L9.52468 3.72235C9.39169 3.81205 9.26024 3.90329 9.12879 3.99607L9.07621 4.03628L8.73908 4.28062L8.60918 4.3796L8.35247 4.576L8.21174 4.68734C8.12978 4.75229 8.04781 4.81724 7.9674 4.88374L7.83131 4.99509L7.76636 5.04921H15.3131C15.048 5.04799 14.7941 4.94192 14.6069 4.75416C14.4198 4.56641 14.3145 4.31222 14.3141 4.04711Z" fill="white"/>
</g>
<g opacity="0.6">
<path opacity="0.6" d="M33.8349 3.72235L33.7128 3.64194C33.62 3.57853 33.5256 3.51513 33.4298 3.45481L33.2751 3.35893L33.0076 3.19346L32.8529 3.09913L32.7586 3.04346H15.3872C15.6538 3.04346 15.9095 3.14936 16.098 3.33787C16.2865 3.52638 16.3924 3.78206 16.3924 4.04866C16.3924 4.31525 16.2865 4.57093 16.098 4.75944C15.9095 4.94795 15.6538 5.05385 15.3872 5.05385H32.4555C32.9607 4.63322 33.4859 4.23629 34.0313 3.86308L33.8349 3.72235Z" fill="white"/>
</g>
<g opacity="0.8">
<path opacity="0.8" d="M16.3909 4.04711C16.3909 3.78092 16.2852 3.52564 16.097 3.33742C15.9088 3.1492 15.6535 3.04346 15.3873 3.04346H15.3177C15.1857 3.04346 15.055 3.06946 14.933 3.11997C14.8111 3.17049 14.7003 3.24453 14.6069 3.33787C14.5136 3.43121 14.4395 3.54203 14.389 3.66398C14.3385 3.78594 14.3125 3.91665 14.3125 4.04866C14.3125 4.18066 14.3385 4.31137 14.389 4.43333C14.4395 4.55528 14.5136 4.6661 14.6069 4.75944C14.7003 4.85278 14.8111 4.92682 14.933 4.97734C15.055 5.02785 15.1857 5.05385 15.3177 5.05385H15.3873C15.5194 5.05385 15.6501 5.02779 15.7721 4.97716C15.8941 4.92653 16.0048 4.85232 16.0981 4.7588C16.1913 4.66527 16.2652 4.55426 16.3154 4.43214C16.3657 4.31001 16.3914 4.17917 16.3909 4.04711Z" fill="white"/>
</g>
<path d="M21.6829 2.14975e-05C18.703 -0.0041822 15.7545 0.608163 13.0227 1.79855H30.3353C27.6059 0.609164 24.6602 -0.00316041 21.6829 2.14975e-05Z" fill="white"/>
<g opacity="0.7">
<path opacity="0.7" d="M3.48877 18.8853C3.75536 18.8853 4.01104 18.9912 4.19955 19.1797C4.38806 19.3682 4.49397 19.6239 4.49397 19.8905C4.49397 20.157 4.38806 20.4127 4.19955 20.6012C4.01104 20.7897 3.75536 20.8957 3.48877 20.8957H9.56635L11.5768 18.8853H3.48877Z" fill="white"/>
</g>
<path d="M4.49097 19.8889C4.49097 19.623 4.38544 19.3679 4.19755 19.1798C4.00966 18.9916 3.75478 18.8857 3.48886 18.8853H3.427C3.6936 18.8853 3.94927 18.9912 4.13778 19.1797C4.3263 19.3682 4.4322 19.6239 4.4322 19.8905C4.4322 20.157 4.3263 20.4127 4.13778 20.6012C3.94927 20.7897 3.6936 20.8957 3.427 20.8957H3.49659C3.76183 20.8936 4.01544 20.7865 4.20183 20.5978C4.38823 20.4091 4.4922 20.1541 4.49097 19.8889Z" fill="white"/>
<g opacity="0.9">
<path opacity="0.9" d="M18.2621 22.0679H0C0.0108252 22.7452 0.054126 23.4133 0.125263 24.0783H18.3611C18.3271 23.4241 18.3054 22.7684 18.2668 22.1143L18.2621 22.0679Z" fill="white"/>
</g>
<g opacity="0.8">
<path opacity="0.8" d="M18.4416 25.2505H9.71492C9.44832 25.2505 9.19264 25.3564 9.00413 25.5449C8.81562 25.7334 8.70972 25.9891 8.70972 26.2557C8.70972 26.5223 8.81562 26.778 9.00413 26.9665C9.19264 27.155 9.44832 27.2609 9.71492 27.2609H18.7277C18.6426 26.8124 18.573 26.3593 18.5112 25.9046C18.4833 25.6835 18.4617 25.467 18.4416 25.2505Z" fill="white"/>
</g>
<g opacity="0.6">
<path opacity="0.6" d="M2.13871 26.2589C2.13912 25.993 2.24504 25.7381 2.43322 25.5503C2.6214 25.3624 2.87644 25.2568 3.14236 25.2568H0.287598L0.310794 25.4022C0.326259 25.4826 0.340177 25.5569 0.354095 25.645C0.368014 25.7331 0.389664 25.829 0.408221 25.9218C0.426779 26.0146 0.439151 26.0765 0.456162 26.1646L0.516474 26.4383C0.535031 26.5172 0.552042 26.593 0.570599 26.678C0.589157 26.7631 0.615447 26.8605 0.638644 26.9533C0.661841 27.0461 0.677305 27.1079 0.697409 27.1853C0.697409 27.2116 0.711327 27.2363 0.717513 27.2626H3.14236C2.87618 27.2626 2.62089 27.1569 2.43267 26.9686C2.24445 26.7804 2.13871 26.5251 2.13871 26.2589Z" fill="white"/>
</g>
<g opacity="0.9">
<path opacity="0.9" d="M4.2141 26.2589C4.2141 26.1273 4.18818 25.997 4.13782 25.8755C4.08746 25.7539 4.01365 25.6434 3.92059 25.5503C3.82754 25.4573 3.71707 25.3835 3.59549 25.3331C3.4739 25.2828 3.34359 25.2568 3.212 25.2568H3.14241C2.87581 25.2568 2.62013 25.3627 2.43162 25.5513C2.24311 25.7398 2.13721 25.9954 2.13721 26.262C2.13721 26.5286 2.24311 26.7843 2.43162 26.9728C2.62013 27.1613 2.87581 27.2672 3.14241 27.2672H3.212C3.34412 27.2672 3.47493 27.2411 3.59692 27.1904C3.71891 27.1396 3.82965 27.0653 3.92279 26.9715C4.01592 26.8778 4.08961 26.7666 4.1396 26.6443C4.1896 26.522 4.21492 26.3911 4.2141 26.2589Z" fill="white"/>
</g>
<g opacity="0.7">
<path opacity="0.7" d="M13.5888 28.4316C13.614 28.4301 13.6393 28.4301 13.6646 28.4316C13.6815 28.4301 13.6986 28.4301 13.7156 28.4316C13.8388 28.4464 13.958 28.4847 14.0666 28.5445C14.1217 28.5753 14.1736 28.6115 14.2213 28.6528C14.2499 28.6749 14.2768 28.6992 14.3017 28.7255C14.4175 28.8427 14.502 28.987 14.5477 29.1453C14.5933 29.3036 14.5986 29.4708 14.5631 29.6317C14.5332 29.7829 14.468 29.9249 14.3728 30.0461C14.3266 30.1027 14.2747 30.1545 14.2182 30.2008C14.1704 30.2415 14.1186 30.2773 14.0635 30.3075C14.0243 30.3292 13.9835 30.3478 13.9414 30.3632C13.8278 30.4067 13.7073 30.4293 13.5857 30.4297H19.5427C19.5179 30.3523 19.4963 30.275 19.4715 30.1962C19.2875 29.61 19.1189 29.0193 18.9751 28.4224L13.5888 28.4316Z" fill="white"/>
</g>
<g opacity="0.6">
<path opacity="0.6" d="M14.5616 29.6411C14.5317 29.7923 14.4665 29.9343 14.3713 30.0556C14.4665 29.9343 14.5317 29.7923 14.5616 29.6411Z" fill="white"/>
</g>
<g opacity="0.6">
<path opacity="0.6" d="M13.5888 30.4342C13.3222 30.4342 13.0666 30.3283 12.878 30.1398C12.6895 29.9513 12.5836 29.6956 12.5836 29.429C12.5836 29.1624 12.6895 28.9068 12.878 28.7182C13.0666 28.5297 13.3222 28.4238 13.5888 28.4238H1.0625C1.07333 28.4594 1.08415 28.4934 1.09652 28.529L1.18467 28.7888L1.27127 29.0347C1.3022 29.1197 1.33468 29.2063 1.36715 29.2914C1.39963 29.3764 1.42746 29.446 1.45839 29.5326L1.56046 29.7893L1.65789 30.0275L1.76459 30.2796C1.78624 30.3306 1.80944 30.3801 1.83109 30.4342H13.5842C13.7058 30.4338 13.8263 30.4113 13.9399 30.3677C13.8278 30.4107 13.7089 30.4333 13.5888 30.4342Z" fill="white"/>
</g>
<g opacity="0.7">
<path opacity="0.7" d="M20.0343 31.8262H2.49902L2.54696 31.919C2.59954 32.0164 2.65367 32.1138 2.70161 32.2112L2.81141 32.4076C2.86863 32.5097 2.92739 32.6102 2.9877 32.7169L3.09286 32.8948C3.16245 33.0092 3.23205 33.1221 3.30318 33.2335L3.38669 33.368C3.48566 33.5226 3.58773 33.6773 3.69598 33.8319V33.8397H20.8818C20.6684 33.3819 20.4663 32.918 20.2756 32.4478C20.1936 32.2329 20.1132 32.0288 20.0343 31.8262Z" fill="white"/>
</g>
<g opacity="0.6">
<path opacity="0.6" d="M12.1011 36.0017C12.1011 35.7355 12.2068 35.4802 12.395 35.292C12.5833 35.1038 12.8385 34.998 13.1047 34.998H4.56519L4.58838 35.029C4.7121 35.1877 4.83891 35.3455 4.96881 35.5022C4.99355 35.5331 5.01984 35.5625 5.04459 35.5919C5.14975 35.7187 5.258 35.844 5.36625 35.9677L5.49461 36.1115C5.59049 36.2213 5.68946 36.3295 5.78843 36.4363C5.83174 36.4811 5.87349 36.5275 5.91524 36.5723C6.0436 36.7069 6.17196 36.8399 6.30186 36.9713L6.33434 37.0053H13.1047C12.8385 37.0053 12.5833 36.8996 12.395 36.7114C12.2068 36.5232 12.1011 36.2679 12.1011 36.0017Z" fill="white"/>
</g>
<g opacity="0.6">
<path opacity="0.6" d="M21.4618 35.0039H13.1109C12.8443 35.0039 12.5886 35.1098 12.4001 35.2983C12.2116 35.4868 12.1057 35.7425 12.1057 36.0091C12.1057 36.2757 12.2116 36.5314 12.4001 36.7199C12.5886 36.9084 12.8443 37.0143 13.1109 37.0143H22.6263C22.2077 36.3596 21.8195 35.6895 21.4618 35.0039Z" fill="white"/>
</g>
<g opacity="0.8">
<path opacity="0.8" d="M21.4618 35.0039H13.1109C12.8443 35.0039 12.5886 35.1098 12.4001 35.2983C12.2116 35.4868 12.1057 35.7425 12.1057 36.0091C12.1057 36.2757 12.2116 36.5314 12.4001 36.7199C12.5886 36.9084 12.8443 37.0143 13.1109 37.0143H22.6263C22.2077 36.3596 21.8195 35.6895 21.4618 35.0039Z" fill="white"/>
</g>
<g opacity="0.6">
<path opacity="0.6" d="M32.0117 38.1865C32.1865 38.3412 32.3643 38.4958 32.5452 38.6505C32.9576 39.0031 33.3834 39.3381 33.8226 39.6557L33.8752 39.6185C33.2374 39.1741 32.6236 38.6961 32.0365 38.1865H32.0117Z" fill="white"/>
</g>
<g opacity="0.6">
<path opacity="0.6" d="M18.9505 39.1903C18.9503 39.0585 18.976 38.9281 19.0263 38.8063C19.0766 38.6845 19.1503 38.5739 19.2434 38.4807C19.3365 38.3874 19.447 38.3135 19.5687 38.263C19.6904 38.2126 19.8208 38.1866 19.9526 38.1866H7.60254L7.80203 38.3552L7.9041 38.4402C8.02627 38.5407 8.14999 38.6397 8.2737 38.7387L8.3634 38.8067C8.45928 38.8825 8.55671 38.9614 8.65413 39.031L8.79486 39.1346L9.04539 39.3171L9.20003 39.4238C9.28663 39.4841 9.37323 39.5459 9.46138 39.6047L9.59747 39.6975L9.95161 39.931L9.998 39.9619C10.1202 40.0408 10.2439 40.1166 10.3692 40.1924H14.8338C14.6352 40.1924 14.4411 40.1335 14.276 40.0231C14.1109 39.9128 13.9823 39.7559 13.9064 39.5724C13.8305 39.389 13.8107 39.1871 13.8495 38.9923C13.8884 38.7976 13.9841 38.6188 14.1246 38.4785C14.2652 38.3382 14.4441 38.2427 14.6389 38.2042C14.8337 38.1656 15.0356 38.1857 15.2189 38.2619C15.4023 38.3381 15.5589 38.467 15.669 38.6322C15.7791 38.7975 15.8377 38.9917 15.8374 39.1903C15.837 39.4562 15.7311 39.7111 15.5429 39.8989C15.3548 40.0868 15.0997 40.1924 14.8338 40.1924H19.9526C19.821 40.1924 19.6907 40.1664 19.5691 40.1161C19.4475 40.0657 19.337 39.9919 19.244 39.8989C19.1509 39.8058 19.0771 39.6953 19.0267 39.5737C18.9764 39.4522 18.9505 39.3219 18.9505 39.1903Z" fill="white"/>
</g>
<g opacity="0.6">
<path opacity="0.6" d="M15.8374 39.1903C15.8377 38.9917 15.7791 38.7975 15.669 38.6322C15.5589 38.467 15.4022 38.3381 15.2189 38.2619C15.0355 38.1857 14.8337 38.1656 14.6389 38.2042C14.4441 38.2427 14.2651 38.3382 14.1246 38.4785C13.9841 38.6188 13.8883 38.7976 13.8495 38.9923C13.8106 39.1871 13.8304 39.389 13.9063 39.5724C13.9822 39.7559 14.1109 39.9128 14.276 40.0231C14.4411 40.1335 14.6352 40.1924 14.8337 40.1924C15.0996 40.1924 15.3547 40.0868 15.5429 39.8989C15.731 39.7111 15.837 39.4562 15.8374 39.1903Z" fill="white"/>
</g>
<g opacity="0.8">
<path opacity="0.8" d="M15.8374 39.1903C15.8377 38.9917 15.7791 38.7975 15.669 38.6322C15.5589 38.467 15.4022 38.3381 15.2189 38.2619C15.0355 38.1857 14.8337 38.1656 14.6389 38.2042C14.4441 38.2427 14.2651 38.3382 14.1246 38.4785C13.9841 38.6188 13.8883 38.7976 13.8495 38.9923C13.8106 39.1871 13.8304 39.389 13.9063 39.5724C13.9822 39.7559 14.1109 39.9128 14.276 40.0231C14.4411 40.1335 14.6352 40.1924 14.8337 40.1924C15.0996 40.1924 15.3547 40.0868 15.5429 39.8989C15.731 39.7111 15.837 39.4562 15.8374 39.1903Z" fill="white"/>
</g>
<g opacity="0.6">
<path opacity="0.6" d="M23.415 38.1865H19.9525C19.6859 38.1865 19.4302 38.2924 19.2417 38.4809C19.0532 38.6695 18.9473 38.9251 18.9473 39.1917C18.9473 39.4583 19.0532 39.714 19.2417 39.9025C19.4302 40.091 19.6859 40.1969 19.9525 40.1969H25.0156C24.8609 40.0237 24.7089 39.8479 24.5594 39.6696C24.4047 39.4933 24.2624 39.3123 24.1186 39.1299C23.8758 38.8175 23.6423 38.5035 23.415 38.1865Z" fill="white"/>
</g>
<g opacity="0.8">
<path opacity="0.8" d="M23.415 38.1865H19.9525C19.6859 38.1865 19.4302 38.2924 19.2417 38.4809C19.0532 38.6695 18.9473 38.9251 18.9473 39.1917C18.9473 39.4583 19.0532 39.714 19.2417 39.9025C19.4302 40.091 19.6859 40.1969 19.9525 40.1969H25.0156C24.8609 40.0237 24.7089 39.8479 24.5594 39.6696C24.4047 39.4933 24.2624 39.3123 24.1186 39.1299C23.8758 38.8175 23.6423 38.5035 23.415 38.1865Z" fill="white"/>
</g>
<path d="M26.3424 41.646H13.1836C17.6394 43.5384 22.5988 43.8921 27.278 42.6512L27.2486 42.6249C27.1806 42.5553 27.1064 42.4873 27.0414 42.4146C26.8115 42.1538 26.5785 41.8976 26.3424 41.646Z" fill="white"/>
<path d="M4.42294 19.8889C4.42255 19.6242 4.31774 19.3703 4.13127 19.1824C3.94481 18.9945 3.69174 18.8877 3.42702 18.8853H0.179458C0.178825 18.8919 0.178825 18.8987 0.179458 18.9054C0.171726 18.9595 0.167086 19.0136 0.1609 19.06C0.145436 19.1806 0.131518 19.3013 0.119146 19.4234C0.119146 19.4884 0.106774 19.5549 0.100589 19.6214C0.0897634 19.7296 0.0804846 19.8394 0.0712058 19.9492C0.0712058 20.0219 0.0603808 20.093 0.0557414 20.1642C0.0557414 20.2693 0.0418231 20.3745 0.0356373 20.4735C0.0356373 20.5492 0.027905 20.6281 0.0248121 20.6993C0.0217192 20.7704 0.0248121 20.8199 0.0248121 20.8786H3.42702C3.68947 20.8766 3.9407 20.7719 4.12686 20.5869C4.31302 20.4019 4.41931 20.1513 4.42294 19.8889Z" fill="white"/>
<g opacity="0.8">
<path opacity="0.8" d="M4.42294 19.8889C4.42255 19.6242 4.31774 19.3703 4.13127 19.1824C3.94481 18.9945 3.69174 18.8877 3.42702 18.8853H0.179458C0.178825 18.8919 0.178825 18.8987 0.179458 18.9054C0.171726 18.9595 0.167086 19.0136 0.1609 19.06C0.145436 19.1806 0.131518 19.3013 0.119146 19.4234C0.119146 19.4884 0.106774 19.5549 0.100589 19.6214C0.0897634 19.7296 0.0804846 19.8394 0.0712058 19.9492C0.0712058 20.0219 0.0603808 20.093 0.0557414 20.1642C0.0557414 20.2693 0.0418231 20.3745 0.0356373 20.4735C0.0356373 20.5492 0.027905 20.6281 0.0248121 20.6993C0.0217192 20.7704 0.0248121 20.8199 0.0248121 20.8786H3.42702C3.68947 20.8766 3.9407 20.7719 4.12686 20.5869C4.31302 20.4019 4.41931 20.1513 4.42294 19.8889Z" fill="white"/>
</g>
<g opacity="0.7">
<path opacity="0.7" d="M13.5886 28.4318C13.6139 28.4303 13.6392 28.4303 13.6644 28.4318C13.6392 28.4303 13.6139 28.4303 13.5886 28.4318Z" fill="white"/>
</g>
<g opacity="0.8">
<path opacity="0.8" d="M13.5886 28.4318C13.6139 28.4303 13.6392 28.4303 13.6644 28.4318C13.6392 28.4303 13.6139 28.4303 13.5886 28.4318Z" fill="white"/>
</g>
<g opacity="0.6">
<path opacity="0.6" d="M12.5852 29.4355C12.5848 29.5979 12.6239 29.758 12.6992 29.9019C12.7745 30.0458 12.8837 30.1692 13.0174 30.2615C13.1511 30.3537 13.3052 30.4121 13.4665 30.4314C13.6277 30.4508 13.7913 30.4306 13.943 30.3726C13.9851 30.3573 14.0259 30.3386 14.0652 30.317C14.1202 30.2867 14.172 30.251 14.2198 30.2103C14.2764 30.164 14.3282 30.1122 14.3745 30.0556C14.4696 29.9344 14.5348 29.7924 14.5647 29.6412C14.6002 29.4803 14.595 29.3131 14.5493 29.1548C14.5036 28.9965 14.4191 28.8522 14.3033 28.7349C14.2784 28.7087 14.2515 28.6844 14.2229 28.6623C14.1752 28.621 14.1234 28.5847 14.0683 28.554C13.9596 28.4942 13.8404 28.4558 13.7172 28.4411C13.7002 28.4396 13.6832 28.4396 13.6662 28.4411C13.6409 28.4396 13.6156 28.4396 13.5904 28.4411C13.3257 28.4411 13.0716 28.5455 12.8834 28.7317C12.6952 28.9179 12.5881 29.1708 12.5852 29.4355Z" fill="white"/>
</g>
<g opacity="0.8">
<path opacity="0.8" d="M12.5852 29.4355C12.5848 29.5979 12.6239 29.758 12.6992 29.9019C12.7745 30.0458 12.8837 30.1692 13.0174 30.2615C13.1511 30.3537 13.3052 30.4121 13.4665 30.4314C13.6277 30.4508 13.7913 30.4306 13.943 30.3726C13.9851 30.3573 14.0259 30.3386 14.0652 30.317C14.1202 30.2867 14.172 30.251 14.2198 30.2103C14.2764 30.164 14.3282 30.1122 14.3745 30.0556C14.4696 29.9344 14.5348 29.7924 14.5647 29.6412C14.6002 29.4803 14.595 29.3131 14.5493 29.1548C14.5036 28.9965 14.4191 28.8522 14.3033 28.7349C14.2784 28.7087 14.2515 28.6844 14.2229 28.6623C14.1752 28.621 14.1234 28.5847 14.0683 28.554C13.9596 28.4942 13.8404 28.4558 13.7172 28.4411C13.7002 28.4396 13.6832 28.4396 13.6662 28.4411C13.6409 28.4396 13.6156 28.4396 13.5904 28.4411C13.3257 28.4411 13.0716 28.5455 12.8834 28.7317C12.6952 28.9179 12.5881 29.1708 12.5852 29.4355Z" fill="white"/>
</g>
<g opacity="0.7">
<path opacity="0.7" d="M14.5908 29.4355C14.5902 29.5047 14.5825 29.5737 14.5676 29.6412C14.5825 29.5737 14.5902 29.5047 14.5908 29.4355Z" fill="white"/>
</g>
<g opacity="0.6">
<path opacity="0.6" d="M14.5908 29.4355C14.5902 29.5047 14.5825 29.5737 14.5676 29.6412C14.5825 29.5737 14.5902 29.5047 14.5908 29.4355Z" fill="white"/>
</g>
<g opacity="0.6">
<path opacity="0.6" d="M14.5908 29.4355C14.5902 29.5047 14.5825 29.5737 14.5676 29.6412C14.5825 29.5737 14.5902 29.5047 14.5908 29.4355Z" fill="white"/>
</g>
<g opacity="0.8">
<path opacity="0.8" d="M14.5908 29.4355C14.5902 29.5047 14.5825 29.5737 14.5676 29.6412C14.5825 29.5737 14.5902 29.5047 14.5908 29.4355Z" fill="white"/>
</g>
<g opacity="0.9">
<path opacity="0.9" d="M24.8995 7.16039C24.8995 7.02859 24.8735 6.89808 24.8231 6.77631C24.7726 6.65454 24.6987 6.5439 24.6055 6.4507C24.5123 6.3575 24.4017 6.28358 24.2799 6.23314C24.1581 6.1827 24.0276 6.15674 23.8958 6.15674H6.54609L6.47032 6.23097C6.36361 6.33613 6.25845 6.44283 6.15329 6.55109L6.03267 6.67326C5.89194 6.8279 5.75121 6.97018 5.61513 7.12018L5.55636 7.18668C5.43883 7.31658 5.32284 7.44958 5.20841 7.58257L5.08469 7.73722C4.99036 7.85011 4.89602 7.96455 4.80323 8.07899L4.729 8.17023H23.8958C24.0281 8.17023 24.1592 8.14407 24.2813 8.09324C24.4035 8.04242 24.5144 7.96794 24.6077 7.87408C24.701 7.78023 24.7748 7.66886 24.8249 7.54637C24.8749 7.42389 24.9003 7.29271 24.8995 7.16039Z" fill="white"/>
</g>
<path d="M26.6594 12.5218C26.4785 12.9023 26.3099 13.2951 26.1506 13.6832C28.8013 16.3472 31.4483 19.0154 34.0917 21.6877H34.2108C37.0851 21.6877 39.96 21.6913 42.8354 21.6985H43.3751C43.2885 20.8124 43.2297 19.9711 43.1199 19.136C43.0148 18.3396 42.874 17.5571 42.6931 16.787C42.16 14.4691 41.2499 12.2545 39.9992 10.2315C38.9227 8.4894 37.6101 6.9047 36.099 5.52255C35.8825 5.3246 35.6629 5.12975 35.4371 4.93799C34.9856 4.5555 34.5216 4.19466 34.0453 3.85547L34.0298 3.86629C33.4855 4.24054 32.9602 4.63746 32.454 5.05707C32.0272 5.41121 31.6174 5.78081 31.2168 6.16433C30.5652 6.79613 29.9532 7.46754 29.3843 8.17473C29.0595 8.57887 28.7502 8.99435 28.4564 9.42117C28.0079 10.0684 27.5949 10.7395 27.2192 11.4316C27.0213 11.7764 26.8357 12.146 26.6594 12.5218Z" fill="white"/>
<g opacity="0.6">
<path opacity="0.6" d="M8.71123 16.7761C8.71123 16.5099 8.81698 16.2546 9.0052 16.0664C9.19342 15.8782 9.4487 15.7725 9.71489 15.7725H0.81192C0.71707 16.1055 0.630468 16.441 0.552114 16.7792C0.539743 16.8318 0.528917 16.8844 0.518092 16.9339C0.491802 17.0529 0.463966 17.172 0.439223 17.2911C0.425305 17.3591 0.412933 17.4272 0.400561 17.4952C0.382004 17.5896 0.363447 17.6823 0.346436 17.7751H9.71489C9.44938 17.7755 9.19456 17.6706 9.00638 17.4833C8.81821 17.2959 8.71205 17.0416 8.71123 16.7761Z" fill="white"/>
</g>
<path d="M46.3413 0.0420088C44.3879 0.039598 42.4431 0.299668 40.5591 0.815239L40.7338 0.969884C40.8019 1.03948 40.8761 1.10752 40.941 1.1802C41.9215 2.26272 42.9592 3.31432 43.8639 4.46334C45.4543 6.50015 46.7481 8.752 47.7068 11.1518C48.5746 13.246 49.1677 15.4437 49.4713 17.6902C49.626 18.9428 49.6399 20.2156 49.7157 21.479C49.7157 21.5409 49.7311 21.6012 49.7466 21.7172H59.3346C59.2125 21.8718 59.1599 21.9553 59.0918 22.0265C54.9968 26.1184 50.9023 30.2114 46.8083 34.3054C46.6104 34.5033 46.4882 34.5219 46.2794 34.3054C45.0423 33.0682 43.7742 31.8527 42.537 30.6093C39.6503 27.7113 36.7687 24.807 33.8923 21.8966H33.7732C30.8978 21.8966 28.023 21.8935 25.1486 21.8873H24.6135C24.7001 22.7719 24.7589 23.6131 24.8687 24.4482C25.4583 29.2903 27.6389 33.7996 31.0684 37.2684C31.3777 37.5777 31.7102 37.887 32.0458 38.1777C32.6318 38.6888 33.2446 39.1683 33.8815 39.6144C36.681 41.5752 39.9032 42.8487 43.2868 43.3317C46.6705 43.8148 50.1203 43.4938 53.3567 42.3947C56.5931 41.2956 59.525 39.4493 61.9147 37.0056C64.3043 34.5619 66.0846 31.5895 67.1111 28.3294C68.1376 25.0692 68.3814 21.6131 67.8229 18.2411C67.2644 14.8691 65.9191 11.6762 63.8962 8.92112C61.8734 6.16608 59.2298 3.92645 56.1798 2.38379C53.1298 0.841139 49.7592 0.0388657 46.3413 0.0420088Z" fill="white"/>
</g>
<defs>
<clipPath id="iconclip0">
<rect width="68.0952" height="43.5498" fill="white"/>
</clipPath>
</defs>
</svg>
