<svg fill="none" height="55" viewBox="0 0 82 55" width="82" xmlns="http://www.w3.org/2000/svg" xmlns:xlink="http://www.w3.org/1999/xlink"><clipPath id="clipLogoIcon"><path d="m.431885.105042h80.57v53.9504h-80.57z"/></clipPath><g clip-path="url(#clipLogoIcon)" fill="currentColor"><path d="m11.2445 32.7073c0-.3304.1312-.6472.3648-.8808s.5505-.3649.8808-.3649h-8.07531c.32982.0009.64583.1325.87874.366s.36371.5499.36371.8797-.1308.6461-.36371.8797c-.23291.2335-.54892.3651-.87874.366h8.07531c-.3303-.0001-.6472-.1313-.8808-.3649s-.3648-.5505-.3648-.8808z" opacity=".5"/><path d="m11.2445 20.9379c0-.3304.1312-.6472.3647-.8808.2336-.2336.5504-.3649.8807-.3649h-11.04747c-.03033.1073-.06229.2138-.09134.3216-.05256.195-.10295.3908-.15115.5874-.05573.2273-.10844.4556-.15811.6852-.043189.1985-.084861.3976-.123642.5978-.019255.0993-.035294.1997-.053442.2993h11.625454c-.1636 0-.3256-.0322-.4767-.0948-.1512-.0626-.2885-.1543-.4042-.27-.1156-.1157-.2074-.253-.27-.4041-.0626-.1512-.0948-.3132-.0948-.4767z" opacity=".6"/><path d="m12.49 19.6921-.0003.0001h.258c.3301.0004.6465.1318.8798.3654.2332.2335.3643.5501.3643.8802s-.1311.6467-.3643.8803c-.2333.2335-.5497.365-.8798.3654h5.3699c.1799-.8424.4065-1.6741.6787-2.4914z" opacity=".9"/><path d="m13.9934 20.9379c0-.1636-.0322-.3256-.0948-.4767-.0626-.1512-.1544-.2885-.27-.4042-.1157-.1156-.253-.2074-.4042-.27-.1511-.0626-.3131-.0948-.4767-.0948h-.2579c-.3301.0005-.6465.1319-.8798.3655-.2332.2336-.3642.5502-.3642.8803.0001.3301.1311.6467.3644.8802s.5497.3649.8798.3653h.2577c.1636 0 .3256-.0322.4767-.0948.1512-.0626.2885-.1543.4042-.27.1156-.1157.2074-.253.27-.4041.0626-.1512.0948-.3132.0948-.4767z" opacity=".6"/><path d="m13.9934 20.9379c0-.1636-.0322-.3256-.0948-.4767-.0626-.1512-.1544-.2885-.27-.4042-.1157-.1156-.253-.2074-.4042-.27-.1511-.0626-.3131-.0948-.4767-.0948h-.2579c-.3301.0005-.6465.1319-.8798.3655-.2332.2336-.3642.5502-.3642.8803.0001.3301.1311.6467.3644.8802s.5497.3649.8798.3653h.2577c.1636 0 .3256-.0322.4767-.0948.1512-.0626.2885-.1543.4042-.27.1156-.1157.2074-.253.27-.4041.0626-.1512.0948-.3132.0948-.4767z" opacity=".9"/><path d="m11.2444 16.9002c0-.1636.0322-.3256.0948-.4767.0626-.1512.1543-.2885.27-.4042.1157-.1156.253-.2074.4041-.27.1512-.0626.3132-.0948.4767-.0948h-9.54689c-.37946.8129-.71778 1.6444-1.01367 2.4913h10.56056c-.1635 0-.3255-.0322-.4767-.0948-.1511-.0626-.2884-.1543-.4041-.27-.1156-.1157-.2074-.253-.27-.4041-.0626-.1512-.0948-.3132-.0948-.4767z" opacity=".8"/><path d="m16.9573 15.6545c.1637-.0002.3259.0318.4772.0943s.2888.1543.4046.27c.1159.1157.2078.253.2705.4043.0627.1512.095.3133.095.4771 0 .1637-.0323.3258-.095.477-.0627.1513-.1546.2887-.2705.4043-.1158.1157-.2533.2075-.4046.27s-.3135.0945-.4772.0943h2.4106c.353-.8537.7565-1.6856 1.2083-2.4913z" opacity=".5"/><path d="m18.2031 16.9002c0-.1636-.0322-.3256-.0948-.4767-.0626-.1512-.1544-.2885-.2701-.4042-.1156-.1157-.253-.2074-.4041-.27s-.3131-.0948-.4767-.0948h-4.4672c-.3301.0004-.6466.1318-.8798.3654-.2333.2336-.3643.5502-.3643.8803 0 .33.131.6466.3643.8802.2332.2336.5497.365.8798.3654h4.4672c.1636 0 .3256-.0322.4767-.0948s.2884-.1543.4041-.27.2075-.253.2701-.4041c.0626-.1512.0948-.3131.0948-.4767z" opacity=".8"/><path d="m18.2031 16.9002c0-.1636-.0322-.3256-.0948-.4767-.0626-.1512-.1544-.2885-.2701-.4042-.1156-.1157-.253-.2074-.4041-.27s-.3131-.0948-.4767-.0948h-4.4672c-.3301.0004-.6466.1318-.8798.3654-.2333.2336-.3643.5502-.3643.8803 0 .33.131.6466.3643.8802.2332.2336.5497.365.8798.3654h4.4672c.1636 0 .3256-.0322.4767-.0948s.2884-.1543.4041-.27.2075-.253.2701-.4041c.0626-.1512.0948-.3131.0948-.4767z" opacity=".8"/><path d="m15.4538 13.0343c0-.1636.0322-.3256.0948-.4767s.1544-.2885.2701-.4041c.1156-.1157.253-.2075.4041-.2701s.3131-.0948.4767-.0948h-10.05131c.33037 0 .64722.1312.88085.3648.23364.2336.36491.5504.36494.8808.00003.3303-.13117.6472-.36475.8808-.23359.2336-.55041.3649-.88078.365h10.05075c-.3303-.0001-.6471-.1314-.8807-.365-.2335-.2336-.3647-.5504-.3647-.8807z" opacity=".6"/><path d="m7.89413 13.0343c0-.1636-.03222-.3256-.09482-.4767-.06261-.1511-.15436-.2885-.27003-.4041-.11568-.1157-.253-.2075-.40413-.2701-.15114-.0626-.31312-.0948-.47671-.0948h-1.49315c-.55326.8023-1.06256 1.6339-1.52565 2.4914h3.0188l.00026-.0001c.33033 0 .64712-.1313.88068-.3649.23355-.2336.36476-.5504.36475-.8807z"/><path d="m20.4794 11.7886c.3304 0 .6472.1313.8808.3649.2337.2336.3649.5504.3649.8808s-.1312.6472-.3649.8808c-.2336.2336-.5504.3649-.8808.3649h-3.7802.0003 4.7091c.5701-.8713 1.1977-1.7036 1.8785-2.4914z" opacity=".8"/><path d="m21.7253 13.0343c0-.1636-.0322-.3256-.0948-.4767s-.1544-.2885-.2701-.4041c-.1156-.1157-.253-.2074-.4041-.27s-.3131-.0949-.4767-.0949h-3.78c-.1635 0-.3255.0322-.4767.0948-.1511.0626-.2884.1543-.4041.27-.2336.2336-.3649.5504-.3649.8808-.0001.3303.1311.6472.3647.8808s.5504.3649.8808.365h3.7802c.1636 0 .3256-.0323.4767-.0949s.2885-.1543.4041-.27c.1157-.1157.2075-.253.2701-.4041s.0948-.3131.0948-.4767z" opacity=".6"/><path d="m21.7253 13.0343c0-.1636-.0322-.3256-.0948-.4767s-.1544-.2885-.2701-.4041c-.1156-.1157-.253-.2074-.4041-.27s-.3131-.0949-.4767-.0949h-3.78c-.1635 0-.3255.0322-.4767.0948-.1511.0626-.2884.1543-.4041.27-.2336.2336-.3649.5504-.3649.8808-.0001.3303.1311.6472.3647.8808s.5504.3649.8808.365h3.7802c.1636 0 .3256-.0323.4767-.0949s.2885-.1543.4041-.27c.1157-.1157.2075-.253.2701-.4041s.0948-.3131.0948-.4767z" opacity=".8"/><path d="m18.203 5.13073c0-.16358.0322-.32557.0948-.4767s.1544-.28845.2701-.40412c.1156-.11567.253-.20743.4041-.27003s.3131-.09481.4767-.09481h-5.8547c-.0391.02332-.0795.0447-.1186.0682-.1115.06719-.2208.13776-.3313.20652-.2316.14418-.4618.29058-.6887.44155-.1235.08215-.2456.16606-.3677.25017-.2138.14743-.4254.29788-.6347.45137-.1182.0866-.2364.17298-.3531.26146-.2224.16853-.4409.34168-.6578.51689-.0949.07671-.1915.15144-.2853.22938-.0258.02141-.0503.04429-.076.06581h9.3679c-.1636-.00001-.3256-.03223-.4767-.09483s-.2885-.15436-.4041-.27003c-.1157-.11568-.2075-.253-.2701-.40413s-.0948-.31312-.0948-.4767z" opacity=".7"/><path d="m19.5347 3.88507c.1637-.00021.3258.03185.4772.09436.1513.06251.2888.15423.4046.26992.1159.11569.2078.25309.2705.40432.0627.15124.095.31335.095.47707s-.0323.32584-.095.47707c-.0627.15124-.1546.28863-.2705.40433-.1158.11569-.2533.20741-.4046.26992-.1514.0625-.3135.09457-.4772.09436h10.5563c2.4951-1.31325 5.21-2.15767 8.0098-2.49134z" opacity=".6"/><path d="m20.7803 5.13073c0-.16359-.0323-.32557-.0949-.47671-.0626-.15113-.1543-.28845-.27-.40412s-.253-.20743-.4041-.27002c-.1512-.0626-.3132-.09482-.4767-.09481h-.0859c-.3301.00043-.6466.13186-.8798.36542-.2333.23356-.3643.55016-.3643.88025 0 .3301.131.64669.3643.88026.2332.23356.5497.36499.8798.36541h.0859c.1635.00001.3255-.03221.4767-.09481.1511-.06261.2884-.15436.4041-.27003.1157-.11568.2074-.253.27-.40413.0626-.15114.0949-.31312.0949-.47671z"/><path d="m27.3522.105052c-3.6964-.003334-7.3536.757096-10.7423 2.233608h21.4847c-3.3887-1.476512-7.046-2.236942-10.7424-2.233608z"/><path d="m5.67132 23.5581c.32982.0008.64583.1324.87874.3659.23291.2336.36371.5499.36371.8797s-.1308.6462-.36371.8797-.54892.3651-.87874.366h-.91276-.00026 12.8692c.0351-.8341.1144-1.6657.2377-2.4914z" opacity=".5"/><path d="m.431885 27.5098c.014524.8402.064034 1.6716.153798 2.4914h17.203417c-.1028-.8268-.1618-1.6584-.1767-2.4914z" opacity=".95"/><path d="m12.49 31.4616c-.3298.0009-.6458.1325-.8787.366s-.3637.5499-.3637.8797.1308.6461.3637.8797c.2329.2335.5489.3651.8787.366h6.1367c-.2491-.8186-.4529-1.6504-.6105-2.4914z"/><path d="m3.08307 32.7073c0-.3304.13124-.6472.36485-.8808.23361-.2337.55045-.3649.88081-.3649h-3.540888c.030949.1872.065051.3733.099841.5591.035444.1893.068354.3795.10776.5674.051517.246.110817.4889.169017.7323.04277.1789.08228.3592.12858.5367.00843.0322.01869.0637.02722.0959h3.00847c-.16358 0-.32556-.0323-.4767-.0949-.15113-.0626-.28845-.1543-.40412-.27s-.20743-.253-.27002-.4041c-.0626-.1512-.09482-.3131-.09482-.4767z" opacity=".7"/><path d="m5.66043 32.7073c0-.3304-.13124-.6472-.36485-.8808-.2336-.2336-.55044-.3649-.88081-.3649h-.0859c-.32981.0009-.64582.1325-.87873.366-.23292.2335-.36371.5499-.36371.8797s.13079.6461.36371.8797c.23291.2335.54892.3651.87873.366h.0859c.16359 0 .32557-.0323.4767-.0949s.28845-.1543.40412-.27.20743-.253.27003-.4041c.0626-.1512.09481-.3131.09481-.4767z"/><path d="m17.301 35.4134c.2767-.0006.5456.0916.7638.2619.2181.1703.3728.4088.4394.6773.0069.027.0147.0532.0197.0807.0337.1796.0273.3644-.0187.5412-.0459.1768-.1303.3413-.247.4818-.1168.1406-.2631.2536-.4286.3311-.1654.0775-.3459.1176-.5286.1173h2.9504c-.4217-.8078-.7955-1.6396-1.1197-2.4913z" opacity=".5"/><path d="m18.5042 36.3527c-.0469-.1861-.136-.3589-.2606-.5048-.1246-.146-.2813-.2612-.4577-.3366.1764.0754.3331.1906.4577.3366.1246.1459.2138.3187.2606.5048z" opacity=".7"/><path d="m17.7859 37.8068c.2627-.1085.4797-.3046.6142-.555.1346-.2503.1783-.5396.1238-.8185.0545.2789.0107.5681-.1238.8185-.1345.2503-.3516.4464-.6142.555z" opacity=".7"/><path d="m16.0553 36.6591c.0001-.3304.1313-.6473.3649-.8809s.5505-.3648.8808-.3648h-15.54587c.04729.1447.09647.2884.14615.432.0743.2147.14822.4295.22776.6417.07552.2015.15619.4004.23636.5996.08455.21.16892.4201.25856.6274.02773.0641.05801.1268.08621.1907h14.59083c-.3304-.0001-.6472-.1313-.8808-.3649s-.3649-.5505-.3649-.8808z" opacity=".7"/><path d="m3.5415 39.6229c.02031.0384.03895.0778.05944.116.15053.2809.30939.5566.46952.8315.072.1236.14007.2497.21395.372.23806.3941.48544.7817.74215 1.1628.00209.0031.00438.006.00643.009h18.03181c-.661-.7895-1.2692-1.6217-1.8207-2.4913z" opacity=".8"/><path d="m16.6998 46.066c-.1639.0004-.3262-.0315-.4777-.0939s-.2892-.1541-.4053-.2698c-.116-.1157-.208-.2532-.2708-.4045-.0628-.1514-.0951-.3136-.0951-.4775 0-.1638.0323-.3261.0951-.4774.0628-.1514.1548-.2888.2708-.4045.1161-.1158.2538-.2074.4053-.2699.1515-.0624.3138-.0943.4777-.0938h-10.59653c.05673.0727.11375.1453.17105.2176.22343.2807.45249.5568.68717.8282.10136.1174.20128.236.30459.3517.31847.3564.6445.706.98101 1.0448.01594.016.0308.033.04676.049h19.02495-.0001z" opacity=".5"/><path d="m15.4539 44.8203c0 .1636.0322.3256.0948.4767.0626.1512.1543.2885.27.4041.1157.1157.253.2075.4041.2701.1512.0626.3132.0948.4767.0948h10.619c-1.0417-.7489-2.0201-1.5822-2.9254-2.4914h-7.6935c-.3304 0-.6473.1313-.8809.3649s-.3648.5504-.3648.8808z" opacity=".5"/><path d="m15.4539 44.8203c0 .1636.0322.3256.0948.4767.0626.1512.1543.2885.27.4041.1157.1157.253.2075.4041.2701.1512.0626.3132.0948.4767.0948h10.619c-1.0417-.7489-2.0201-1.5822-2.9254-2.4914h-7.6935c-.3304 0-.6473.1313-.8809.3649s-.3648.5504-.3648.8808z" opacity=".9"/><path d="m34.8916 50.0178h1.551c-.2993-.058-.5956-.1237-.8907-.1931-.1974.1256-.4264.1925-.6603.1931z" opacity=".5"/><path d="m27.2888 48.7721c0-.3304.1312-.6472.3648-.8808s.5505-.3649.8808-.3649h-9.687c.3298.0009.6458.1325.8788.366.2329.2335.3637.5499.3637.8797s-.1308.6462-.3637.8797c-.233.2335-.549.3651-.8788.366h9.687c-.3303 0-.6472-.1313-.8808-.3649s-.3648-.5504-.3648-.8808z" opacity=".5"/><path d="m17.6018 48.7721c0-.3304.1312-.6472.3648-.8808s.5505-.3649.8808-.3649h-8.96483c.06505.0556.12833.1131.19393.168.1103.0923.2218.1832.3336.2738.2042.1655.4109.3279.6201.4873.1123.0857.2242.1718.3378.2558.2369.175.4777.3449.7204.5123.086.0592.1702.1208.2569.1791.315.2118.6348.4168.9595.6151h5.5426c-.1635 0-.3255-.0322-.4767-.0948-.1511-.0626-.2884-.1544-.4041-.2701-.1157-.1156-.2074-.253-.27-.4041s-.0948-.3131-.0948-.4767z" opacity=".5"/><path d="m20.0929 48.7721c0-.2464-.073-.4872-.2099-.692-.1369-.2049-.3314-.3646-.5591-.4588-.2276-.0943-.478-.119-.7197-.0709-.2416.048-.4636.1667-.6378.3409s-.2928.3961-.3409.6378c-.0481.2416-.0234.4921.0709.7197s.2539.4222.4588.5591c.2048.1368.4457.2099.692.2099.3304 0 .6473-.1313.8809-.3649s.3648-.5504.3648-.8808z"/><path d="m29.6108 47.5264h-1.0766c-.3298.0009-.6458.1325-.8787.366-.233.2335-.3638.5499-.3638.8797s.1308.6462.3638.8797c.2329.2335.5489.3651.8787.366h6.3572c.234-.0006.4629-.0676.6603-.1931-2.077-.4877-4.0764-1.2612-5.9409-2.2983z"/><path d="m16.7998 51.8219c3.3375 1.4173 6.9263 2.1477 10.5523 2.1477 3.6259 0 7.2147-.7304 10.5522-2.1477z"/><path d="m6.00413 24.8038c.00001-.1636-.03221-.3256-.0948-.4768-.0626-.1511-.15436-.2884-.27003-.4041s-.25299-.2074-.40412-.27-.31312-.0949-.4767-.0949h-4.107145c-.105833.8198-.174589 1.6502-.206267 2.4914h4.313662c.33032-.0001.64709-.1314.88064-.3649.23356-.2336.36476-.5504.36476-.8807z" opacity=".9"/><path d="m6.91698 24.8037c.00001-.1636-.03221-.3255-.09481-.4767-.0626-.1511-.15435-.2884-.27002-.4041s-.25299-.2074-.40413-.27c-.15113-.0626-.31311-.0949-.4767-.0949h-.91302c.32981.0009.64584.1324.87878.3659.23293.2335.36377.5499.3638.8797s-.13073.6462-.36362.8797-.54889.3652-.8787.3661h.91276c.16359 0 .32557-.0322.4767-.0948s.28845-.1544.40412-.2701c.11567-.1156.20742-.253.27002-.4041s.09482-.3131.09482-.4767z" opacity=".5"/><path d="m6.91698 24.8037c.00001-.1636-.03221-.3255-.09481-.4767-.0626-.1511-.15435-.2884-.27002-.4041s-.25299-.2074-.40413-.27c-.15113-.0626-.31311-.0949-.4767-.0949h-.91302c.32981.0009.64584.1324.87878.3659.23293.2335.36377.5499.3638.8797s-.13073.6462-.36362.8797-.54889.3652-.8787.3661h.91276c.16359 0 .32557-.0322.4767-.0948s.28845-.1544.40412-.2701c.11567-.1156.20742-.253.27002-.4041s.09482-.3131.09482-.4767z" opacity=".9"/><path d="m18.5467 36.6591c-.0007-.0758-.0084-.1514-.0228-.2258-.0051-.0276-.0129-.0537-.0197-.0807-.0666-.2685-.2214-.507-.4395-.6773s-.487-.2625-.7637-.2619c-.1637-.0002-.3259.0318-.4772.0944-.1513.0625-.2888.1542-.4047.2699-.1158.1157-.2077.2531-.2704.4043s-.095.3133-.095.4771c0 .1637.0323.3258.095.477.0627.1513.1546.2887.2704.4044.1159.1157.2534.2074.4047.2699s.3135.0946.4772.0943c.1636.0002.3257-.0319.4769-.0945.1511-.0625.2885-.1543.4042-.27s.2075-.2531.27-.4043c.0626-.1512.0947-.3132.0946-.4768z"/><path d="m8.56255 7.75092c-.03576.0348-.0728.0683-.10836.10331-.36068.35533-.7139.71838-1.05422 1.09353-.02954.03257-.05699.06702-.0864.09974-.30994.34502-.61053.69828-.90179 1.0598-.03601.0444-.07038.0903-.10612.135h18.44384c.9451-.91472 1.9655-1.74813 3.0506-2.49138z" opacity=".9"/><path d="m54.0696.190995c-4.6699-.005112-9.2601 1.210215-13.3157 3.525525.043-.00024.0853-.00327.1283-.00327 11.3556 0 20.8106 8.16105 22.865 18.95815h-10.0755c-.9355-2.7936-2.7551-5.2066-5.1837-6.8741-2.4286-1.6676-5.3342-2.4991-8.2773-2.3686-2.9431.1304-5.7637 1.2156-8.0353 3.0914-2.2716 1.8759-3.8706 4.4404-4.5553 7.3058-.6846 2.8653-.4177 5.8757.7605 8.5758 1.1782 2.7002 3.2036 4.9433 5.7699 6.3901 2.5662 1.4468 5.5338 2.0187 8.4539 1.6292 2.9202-.3896 5.6341-1.7193 7.7313-3.7883h-5.8516v-6.4662h18.8881v18.9581h-6.3954v-5.1624c-4.3214 4.1663-10.0919 6.4915-16.0946 6.4851-.0955 0-.1894-.006-.2846-.0072 3.5772 2.0669 7.5818 3.283 11.7042 3.5544s8.2519-.4092 12.0691-1.9893c3.8173-1.5801 7.2198-4.0172 9.9443-7.1227 2.7246-3.1056 4.6981-6.7963 5.768-10.7867 1.0698-3.9904 1.2072-8.1734.4016-12.2254-.8055-4.052-2.5326-7.8643-5.0474-11.142-2.5148-3.27772-5.75-5.9329-9.4553-7.76012-3.7052-1.82722-7.7812-2.777493-11.9125-2.777285z"/></g></svg>