<svg width="153" height="38" viewBox="0 0 153 38" fill="none" xmlns="http://www.w3.org/2000/svg">
<g clip-path="url(#clip0)">
<path opacity="0.5" d="M7.49358 22.595C7.49359 22.366 7.58454 22.1465 7.74644 21.9846C7.90834 21.8227 8.12792 21.7317 8.35688 21.7317H2.76025C2.98922 21.7317 3.20881 21.8226 3.37071 21.9845C3.53261 22.1464 3.62357 22.366 3.62357 22.595C3.62357 22.824 3.53261 23.0436 3.37071 23.2055C3.20881 23.3674 2.98922 23.4583 2.76025 23.4583H8.35688C8.12792 23.4583 7.90833 23.3673 7.74643 23.2054C7.58453 23.0435 7.49358 22.824 7.49358 22.595V22.595Z" fill="white"/>
<path opacity="0.6" d="M7.4935 14.4382C7.49349 14.2093 7.58442 13.9897 7.74629 13.8278C7.90816 13.6659 8.1277 13.5749 8.35664 13.5749H0.700173C0.679151 13.6492 0.657005 13.7231 0.636874 13.7978C0.600441 13.9329 0.565523 14.0686 0.53212 14.2049C0.493495 14.3624 0.456967 14.5206 0.422536 14.6797C0.392605 14.8173 0.363727 14.9553 0.336842 15.0941C0.323498 15.1629 0.312382 15.2324 0.299805 15.3015H8.35682C8.24344 15.3015 8.13118 15.2792 8.02644 15.2358C7.9217 15.1924 7.82652 15.1288 7.74636 15.0486C7.66619 14.9685 7.6026 14.8733 7.55921 14.7686C7.51583 14.6638 7.4935 14.5516 7.4935 14.4382V14.4382Z" fill="white"/>
<path opacity="0.9" d="M8.35687 13.5748L8.35669 13.5748H8.53547C8.76421 13.5752 8.98345 13.6663 9.14507 13.8282C9.30669 13.99 9.39747 14.2094 9.39747 14.4381C9.39747 14.6669 9.30669 14.8863 9.14507 15.0481C8.98345 15.21 8.76421 15.3011 8.53547 15.3015H12.2571C12.3818 14.7176 12.5388 14.1412 12.7275 13.5748H8.35687Z" fill="white"/>
<path opacity="0.6" d="M9.39887 14.4382C9.39888 14.3248 9.37655 14.2126 9.33317 14.1078C9.28978 14.0031 9.22619 13.9079 9.14602 13.8277C9.06586 13.7476 8.97069 13.684 8.86594 13.6406C8.7612 13.5972 8.64894 13.5749 8.53557 13.5749H8.35679C8.12805 13.5753 7.90881 13.6664 7.74721 13.8283C7.5856 13.9901 7.49485 14.2095 7.49487 14.4383C7.4949 14.667 7.5857 14.8864 7.74733 15.0482C7.90897 15.2101 8.12823 15.3012 8.35696 15.3015H8.53557C8.64894 15.3015 8.7612 15.2792 8.86595 15.2358C8.97069 15.1924 9.06586 15.1288 9.14603 15.0486C9.22619 14.9685 9.28978 14.8733 9.33317 14.7686C9.37655 14.6638 9.39888 14.5516 9.39887 14.4382Z" fill="white"/>
<path opacity="0.9" d="M9.39887 14.4382C9.39888 14.3248 9.37655 14.2126 9.33317 14.1078C9.28978 14.0031 9.22619 13.9079 9.14602 13.8277C9.06586 13.7476 8.97069 13.684 8.86594 13.6406C8.7612 13.5972 8.64894 13.5749 8.53557 13.5749H8.35679C8.12805 13.5753 7.90881 13.6664 7.74721 13.8283C7.5856 13.9901 7.49485 14.2095 7.49487 14.4383C7.4949 14.667 7.5857 14.8864 7.74733 15.0482C7.90897 15.2101 8.12823 15.3012 8.35696 15.3015H8.53557C8.64894 15.3015 8.7612 15.2792 8.86595 15.2358C8.97069 15.1924 9.06586 15.1288 9.14603 15.0486C9.22619 14.9685 9.28978 14.8733 9.33317 14.7686C9.37655 14.6638 9.39888 14.5516 9.39887 14.4382Z" fill="white"/>
<path opacity="0.8" d="M7.49357 11.6399C7.49356 11.5265 7.51589 11.4142 7.55927 11.3095C7.60266 11.2048 7.66625 11.1096 7.74641 11.0294C7.82658 10.9492 7.92175 10.8857 8.02649 10.8423C8.13123 10.7989 8.2435 10.7765 8.35687 10.7766H1.74036C1.47738 11.3399 1.24291 11.9162 1.03784 12.5032H8.35686C8.24349 12.5032 8.13123 12.4808 8.02649 12.4375C7.92175 12.3941 7.82658 12.3305 7.74642 12.2503C7.66625 12.1702 7.60266 12.075 7.55928 11.9702C7.51589 11.8655 7.49356 11.7532 7.49357 11.6399V11.6399Z" fill="white"/>
<path opacity="0.5" d="M11.4529 10.7766C11.5664 10.7764 11.6788 10.7986 11.7837 10.8419C11.8886 10.8852 11.9839 10.9488 12.0642 11.0289C12.1445 11.1091 12.2082 11.2044 12.2517 11.3092C12.2951 11.414 12.3175 11.5264 12.3175 11.6399C12.3175 11.7533 12.2951 11.8657 12.2517 11.9705C12.2082 12.0754 12.1445 12.1706 12.0642 12.2508C11.9839 12.331 11.8886 12.3945 11.7837 12.4378C11.6788 12.4811 11.5664 12.5033 11.4529 12.5032H13.1235C13.3682 11.9115 13.6478 11.335 13.961 10.7766H11.4529Z" fill="white"/>
<path opacity="0.8" d="M12.3162 11.6399C12.3162 11.5265 12.2939 11.4142 12.2505 11.3095C12.2071 11.2047 12.1435 11.1096 12.0634 11.0294C11.9832 10.9492 11.888 10.8856 11.7833 10.8423C11.6785 10.7989 11.5663 10.7765 11.4529 10.7766H8.35688C8.12814 10.7769 7.90889 10.868 7.74727 11.0299C7.58565 11.1917 7.49487 11.4111 7.49487 11.6399C7.49487 11.8686 7.58565 12.088 7.74727 12.2499C7.90889 12.4117 8.12814 12.5028 8.35688 12.5032H11.4529C11.5663 12.5032 11.6785 12.4809 11.7833 12.4375C11.888 12.3941 11.9832 12.3305 12.0634 12.2503C12.1435 12.1702 12.2071 12.075 12.2505 11.9703C12.2939 11.8655 12.3162 11.7532 12.3162 11.6399V11.6399Z" fill="white"/>
<path opacity="0.8" d="M12.3162 11.6399C12.3162 11.5265 12.2939 11.4142 12.2505 11.3095C12.2071 11.2047 12.1435 11.1096 12.0634 11.0294C11.9832 10.9492 11.888 10.8856 11.7833 10.8423C11.6785 10.7989 11.5663 10.7765 11.4529 10.7766H8.35688C8.12814 10.7769 7.90889 10.868 7.74727 11.0299C7.58565 11.1917 7.49487 11.4111 7.49487 11.6399C7.49487 11.8686 7.58565 12.088 7.74727 12.2499C7.90889 12.4117 8.12814 12.5028 8.35688 12.5032H11.4529C11.5663 12.5032 11.6785 12.4809 11.7833 12.4375C11.888 12.3941 11.9832 12.3305 12.0634 12.2503C12.1435 12.1702 12.2071 12.075 12.2505 11.9703C12.2939 11.8655 12.3162 11.7532 12.3162 11.6399V11.6399Z" fill="white"/>
<path opacity="0.6" d="M10.4111 8.9606C10.4111 8.84722 10.4334 8.73496 10.4768 8.63022C10.5202 8.52548 10.5838 8.43031 10.6639 8.35014C10.7441 8.26997 10.8393 8.20638 10.944 8.163C11.0488 8.11962 11.161 8.09729 11.2744 8.09729H4.30835C4.53731 8.09727 4.75691 8.1882 4.91882 8.35008C5.08074 8.51197 5.17172 8.73154 5.17174 8.96051C5.17177 9.18947 5.08083 9.40906 4.91895 9.57098C4.75707 9.7329 4.53749 9.82388 4.30853 9.8239H11.2742C11.0453 9.82386 10.8257 9.73289 10.6639 9.571C10.502 9.4091 10.4111 9.18953 10.4111 8.9606V8.9606Z" fill="white"/>
<path d="M5.17157 8.9606C5.17157 8.84722 5.14924 8.73496 5.10585 8.63022C5.06247 8.52548 4.99888 8.43031 4.91871 8.35014C4.83854 8.26997 4.74337 8.20638 4.63863 8.163C4.53388 8.11962 4.42162 8.09729 4.30825 8.09729H3.27342C2.88998 8.65328 2.53701 9.22967 2.21606 9.82391H4.30825L4.30842 9.8239C4.53736 9.82386 4.75691 9.73289 4.91878 9.57099C5.08065 9.4091 5.17158 9.18953 5.17157 8.9606Z" fill="white"/>
<path opacity="0.8" d="M13.894 8.09729C14.0074 8.09729 14.1197 8.11962 14.2244 8.16301C14.3292 8.20639 14.4243 8.26998 14.5045 8.35015C14.5847 8.43031 14.6483 8.52548 14.6916 8.63022C14.735 8.73496 14.7574 8.84722 14.7574 8.9606C14.7574 9.07397 14.735 9.18623 14.6916 9.29097C14.6483 9.39571 14.5847 9.49088 14.5045 9.57104C14.4243 9.65121 14.3292 9.7148 14.2244 9.75818C14.1197 9.80157 14.0074 9.8239 13.894 9.8239H11.2742L11.2743 9.82392H14.538C14.9331 9.2201 15.3681 8.64328 15.8399 8.09729H13.894Z" fill="white"/>
<path opacity="0.6" d="M14.7573 8.9606C14.7573 8.84722 14.735 8.73496 14.6916 8.63022C14.6482 8.52548 14.5846 8.43031 14.5044 8.35014C14.4243 8.26998 14.3291 8.20639 14.2244 8.163C14.1196 8.11962 14.0074 8.09729 13.894 8.09729H11.2743C11.1609 8.09728 11.0486 8.1196 10.9439 8.16297C10.8392 8.20635 10.744 8.26993 10.6638 8.35008C10.5836 8.43024 10.52 8.5254 10.4766 8.63014C10.4332 8.73488 10.4109 8.84714 10.4109 8.96051C10.4109 9.07388 10.4332 9.18614 10.4766 9.29088C10.5199 9.39563 10.5835 9.49081 10.6637 9.57098C10.7438 9.65116 10.839 9.71475 10.9437 9.75815C11.0485 9.80155 11.1607 9.82389 11.2741 9.8239H13.894C14.0074 9.8239 14.1196 9.80157 14.2244 9.75819C14.3291 9.71481 14.4243 9.65122 14.5044 9.57105C14.5846 9.49089 14.6482 9.39571 14.6916 9.29097C14.735 9.18623 14.7573 9.07397 14.7573 8.9606Z" fill="white"/>
<path opacity="0.8" d="M14.7573 8.9606C14.7573 8.84722 14.735 8.73496 14.6916 8.63022C14.6482 8.52548 14.5846 8.43031 14.5044 8.35014C14.4243 8.26998 14.3291 8.20639 14.2244 8.163C14.1196 8.11962 14.0074 8.09729 13.894 8.09729H11.2743C11.1609 8.09728 11.0486 8.1196 10.9439 8.16297C10.8392 8.20635 10.744 8.26993 10.6638 8.35008C10.5836 8.43024 10.52 8.5254 10.4766 8.63014C10.4332 8.73488 10.4109 8.84714 10.4109 8.96051C10.4109 9.07388 10.4332 9.18614 10.4766 9.29088C10.5199 9.39563 10.5835 9.49081 10.6637 9.57098C10.7438 9.65116 10.839 9.71475 10.9437 9.75815C11.0485 9.80155 11.1607 9.82389 11.2741 9.8239H13.894C14.0074 9.8239 14.1196 9.80157 14.2244 9.75819C14.3291 9.71481 14.4243 9.65122 14.5044 9.57105C14.5846 9.49089 14.6482 9.39571 14.6916 9.29097C14.735 9.18623 14.7573 9.07397 14.7573 8.9606Z" fill="white"/>
<path opacity="0.7" d="M12.3161 3.48306C12.3161 3.36968 12.3384 3.25742 12.3818 3.15268C12.4252 3.04794 12.4888 2.95277 12.569 2.8726C12.6491 2.79244 12.7443 2.72884 12.849 2.68546C12.9538 2.64208 13.066 2.61975 13.1794 2.61975H9.12184C9.09471 2.63591 9.0667 2.65073 9.03966 2.66702C8.96235 2.71359 8.88662 2.76249 8.81005 2.81015C8.6495 2.91007 8.48998 3.01153 8.33274 3.11616C8.24715 3.1731 8.16249 3.23125 8.0779 3.28955C7.92968 3.39172 7.78304 3.496 7.638 3.60237C7.55611 3.66239 7.47414 3.72225 7.39327 3.78357C7.23919 3.90037 7.08772 4.02038 6.93743 4.14181C6.87165 4.19497 6.8047 4.24676 6.73967 4.30078C6.72181 4.31562 6.70483 4.33148 6.68701 4.3464H13.1794C13.066 4.3464 12.9538 4.32407 12.849 4.28068C12.7443 4.23729 12.6491 4.1737 12.569 4.09353C12.4888 4.01336 12.4252 3.91818 12.3818 3.81344C12.3384 3.70869 12.3161 3.59643 12.3161 3.48306V3.48306Z" fill="white"/>
<path opacity="0.6" d="M13.239 2.61975C13.3525 2.61958 13.4649 2.64178 13.5698 2.68509C13.6747 2.7284 13.77 2.79197 13.8503 2.87215C13.9306 2.95233 13.9943 3.04756 14.0378 3.15239C14.0813 3.25722 14.1036 3.36958 14.1036 3.48307C14.1036 3.59655 14.0813 3.70892 14.0378 3.81374C13.9943 3.91857 13.9306 4.0138 13.8503 4.09398C13.77 4.17417 13.6747 4.23773 13.5698 4.28104C13.4649 4.32435 13.3525 4.34655 13.239 4.34638H20.5551C22.2843 3.43623 24.1659 2.851 26.1063 2.61975H13.239Z" fill="white"/>
<path d="M14.1025 3.48306C14.1025 3.36968 14.0802 3.25742 14.0368 3.15267C13.9934 3.04793 13.9298 2.95276 13.8496 2.87259C13.7695 2.79243 13.6743 2.72884 13.5696 2.68546C13.4648 2.64207 13.3525 2.61975 13.2392 2.61975H13.1796C12.9509 2.6201 12.7316 2.71121 12.57 2.87307C12.4084 3.03494 12.3176 3.25433 12.3176 3.48306C12.3176 3.7118 12.4084 3.93119 12.57 4.09306C12.7316 4.25492 12.9509 4.34603 13.1796 4.34638H13.2392C13.3525 4.34638 13.4648 4.32405 13.5696 4.28067C13.6743 4.23728 13.7695 4.17369 13.8496 4.09352C13.9298 4.01335 13.9934 3.91818 14.0368 3.81344C14.0802 3.70869 14.1025 3.59643 14.1025 3.48306V3.48306Z" fill="white"/>
<path d="M18.6572 7.55442e-06C16.0954 -0.00230144 13.5607 0.524717 11.2122 1.54801H26.1022C23.7536 0.524717 21.219 -0.00230144 18.6572 7.55442e-06V7.55442e-06Z" fill="white"/>
<path opacity="0.5" d="M3.63131 16.2541C3.86005 16.2544 4.0793 16.3455 4.24092 16.5074C4.40254 16.6693 4.49332 16.8887 4.49332 17.1174C4.49332 17.3461 4.40254 17.5655 4.24092 17.7274C4.0793 17.8893 3.86005 17.9804 3.63131 17.9807H2.99871L2.99854 17.9807H11.9176C11.9418 17.4027 11.9968 16.8263 12.0823 16.2541H3.63131Z" fill="white"/>
<path opacity="0.95" d="M0 18.9929C0.0100716 19.5752 0.044378 20.1514 0.106589 20.7195H12.0294C11.9582 20.1466 11.9173 19.5702 11.907 18.9929H0Z" fill="white"/>
<path d="M8.35696 21.7317C8.128 21.7317 7.90841 21.8226 7.74651 21.9845C7.58461 22.1464 7.49365 22.366 7.49365 22.595C7.49365 22.824 7.58461 23.0436 7.74651 23.2055C7.90841 23.3674 8.128 23.4583 8.35696 23.4583H12.61C12.4374 22.891 12.2961 22.3146 12.1869 21.7317H8.35696Z" fill="white"/>
<path opacity="0.7" d="M1.83754 22.595C1.83754 22.366 1.92849 22.1464 2.09039 21.9845C2.2523 21.8226 2.47188 21.7317 2.70084 21.7317H0.246826C0.268277 21.8614 0.291917 21.9904 0.316022 22.1192C0.34059 22.2504 0.363394 22.3822 0.390705 22.5124C0.426408 22.6829 0.467508 22.8512 0.507842 23.0199C0.537487 23.1439 0.56487 23.2689 0.596955 23.3919C0.602799 23.4142 0.609908 23.436 0.615822 23.4583H2.70083C2.58746 23.4583 2.4752 23.436 2.37046 23.3926C2.26572 23.3492 2.17055 23.2856 2.09038 23.2054C2.01022 23.1253 1.94663 23.0301 1.90325 22.9254C1.85986 22.8206 1.83754 22.7084 1.83754 22.595V22.595Z" fill="white"/>
<path d="M3.62356 22.595C3.62355 22.366 3.5326 22.1465 3.3707 21.9845C3.2088 21.8226 2.98922 21.7317 2.76025 21.7317H2.70071C2.47175 21.7317 2.25216 21.8226 2.09026 21.9845C1.92836 22.1464 1.8374 22.366 1.8374 22.595C1.8374 22.824 1.92836 23.0436 2.09026 23.2055C2.25216 23.3674 2.47175 23.4583 2.70071 23.4583H2.76025C2.87363 23.4583 2.98589 23.436 3.09063 23.3926C3.19537 23.3492 3.29054 23.2856 3.37071 23.2054C3.45087 23.1253 3.51446 23.0301 3.55785 22.9254C3.60123 22.8206 3.62356 22.7084 3.62356 22.595V22.595Z" fill="white"/>
<path opacity="0.5" d="M11.6912 24.4705C11.8829 24.4701 12.0693 24.534 12.2205 24.652C12.3716 24.77 12.4789 24.9353 12.525 25.1214C12.5298 25.1401 12.5352 25.1582 12.5387 25.1773C12.562 25.3018 12.5576 25.4298 12.5257 25.5524C12.4939 25.6749 12.4354 25.789 12.3545 25.8863C12.2736 25.9837 12.1722 26.062 12.0575 26.1157C11.9429 26.1695 11.8178 26.1972 11.6912 26.1971H13.736C13.4437 25.6372 13.1846 25.0607 12.9599 24.4705H11.6912Z" fill="white"/>
<path opacity="0.7" d="M12.5249 25.1214C12.4925 24.9924 12.4306 24.8727 12.3443 24.7715C12.2579 24.6704 12.1494 24.5906 12.0271 24.5383C12.1494 24.5905 12.2579 24.6704 12.3443 24.7715C12.4306 24.8727 12.4925 24.9924 12.5249 25.1214V25.1214Z" fill="white"/>
<path opacity="0.7" d="M12.0271 26.1292C12.2092 26.054 12.3596 25.9181 12.4528 25.7446C12.546 25.5711 12.5764 25.3706 12.5386 25.1773C12.5763 25.3706 12.546 25.5711 12.4528 25.7446C12.3595 25.9181 12.2091 26.054 12.0271 26.1292Z" fill="white"/>
<path opacity="0.7" d="M10.8278 25.3338C10.8278 25.1048 10.9187 24.8852 11.0806 24.7233C11.2425 24.5614 11.4621 24.4705 11.6911 24.4705H0.916992C0.949774 24.5707 0.983853 24.6703 1.0183 24.7698C1.06979 24.9186 1.12102 25.0675 1.17615 25.2146C1.22848 25.3542 1.28439 25.4921 1.33996 25.6301C1.39855 25.7757 1.45703 25.9213 1.51915 26.0649C1.53837 26.1094 1.55936 26.1528 1.5789 26.1971H11.6911C11.4621 26.1971 11.2425 26.1061 11.0806 25.9442C10.9187 25.7823 10.8278 25.5627 10.8278 25.3338V25.3338Z" fill="white"/>
<path opacity="0.8" d="M2.15503 27.3879C2.1691 27.4145 2.18202 27.4418 2.19622 27.4683C2.30055 27.6629 2.41065 27.854 2.52162 28.0445C2.57152 28.1302 2.6187 28.2176 2.6699 28.3024C2.83489 28.5755 3.00634 28.8441 3.18425 29.1082L3.1887 29.1145H15.6857C15.2276 28.5673 14.806 27.9905 14.4238 27.3879H2.15503Z" fill="white"/>
<path opacity="0.5" d="M11.2743 31.8533C11.1608 31.8534 11.0484 31.8312 10.9435 31.7879C10.8386 31.7446 10.7433 31.6811 10.663 31.6009C10.5827 31.5207 10.519 31.4255 10.4755 31.3206C10.4321 31.2158 10.4097 31.1034 10.4097 30.99C10.4097 30.8765 10.4321 30.7641 10.4755 30.6593C10.519 30.5545 10.5827 30.4592 10.663 30.379C10.7433 30.2989 10.8386 30.2353 10.9435 30.192C11.0484 30.1487 11.1608 30.1265 11.2743 30.1266H3.93042C3.96974 30.1771 4.00925 30.2274 4.04896 30.2775C4.20382 30.472 4.36257 30.6634 4.52521 30.8515C4.59546 30.9328 4.6647 31.0151 4.7363 31.0952C4.95702 31.3422 5.18298 31.5845 5.4162 31.8193C5.42724 31.8304 5.43754 31.8422 5.4486 31.8533H18.6338L18.6338 31.8533H11.2743Z" fill="white"/>
<path opacity="0.5" d="M10.4109 30.99C10.4109 31.1033 10.4332 31.2156 10.4766 31.3203C10.52 31.4251 10.5836 31.5203 10.6638 31.6004C10.7439 31.6806 10.8391 31.7442 10.9438 31.7876C11.0486 31.8309 11.1608 31.8533 11.2742 31.8533H18.6337C17.9117 31.3342 17.2336 30.7568 16.6062 30.1266H11.2742C11.0452 30.1266 10.8257 30.2176 10.6637 30.3795C10.5018 30.5414 10.4109 30.761 10.4109 30.99Z" fill="white"/>
<path opacity="0.9" d="M10.4109 30.99C10.4109 31.1033 10.4332 31.2156 10.4766 31.3203C10.52 31.4251 10.5836 31.5203 10.6638 31.6004C10.7439 31.6806 10.8391 31.7442 10.9438 31.7876C11.0486 31.8309 11.1608 31.8533 11.2742 31.8533H18.6337C17.9117 31.3342 17.2336 30.7568 16.6062 30.1266H11.2742C11.0452 30.1266 10.8257 30.2176 10.6637 30.3795C10.5018 30.5414 10.4109 30.761 10.4109 30.99Z" fill="white"/>
<path opacity="0.5" d="M23.8823 34.592H24.9572C24.7498 34.5518 24.5444 34.5063 24.3399 34.4582C24.2031 34.5452 24.0445 34.5916 23.8823 34.592V34.592Z" fill="white"/>
<path opacity="0.5" d="M18.613 33.7287C18.613 33.4998 18.7039 33.2802 18.8658 33.1183C19.0277 32.9564 19.2473 32.8654 19.4763 32.8654H12.7627C12.9914 32.8658 13.2107 32.9569 13.3723 33.1187C13.5339 33.2806 13.6247 33.5 13.6247 33.7287C13.6247 33.9575 13.5339 34.1769 13.3723 34.3387C13.2107 34.5006 12.9914 34.5917 12.7627 34.592H19.4763C19.3629 34.592 19.2507 34.5697 19.1459 34.5263C19.0412 34.4829 18.946 34.4194 18.8658 34.3392C18.7857 34.259 18.7221 34.1639 18.6787 34.0591C18.6353 33.9544 18.613 33.8421 18.613 33.7287Z" fill="white"/>
<path opacity="0.5" d="M11.8993 33.7287C11.8993 33.4998 11.9903 33.2802 12.1522 33.1183C12.3141 32.9564 12.5337 32.8654 12.7627 32.8654H6.54956C6.59465 32.9039 6.6385 32.9438 6.68396 32.9818C6.76039 33.0458 6.83765 33.1088 6.91513 33.1716C7.05666 33.2863 7.19994 33.3988 7.34495 33.5093C7.42277 33.5687 7.5003 33.6284 7.57907 33.6866C7.74325 33.8079 7.9101 33.9257 8.07835 34.0416C8.13792 34.0827 8.1963 34.1254 8.25638 34.1658C8.47469 34.3125 8.69634 34.4546 8.92132 34.592H12.7627C12.6493 34.592 12.537 34.5697 12.4323 34.5263C12.3275 34.4829 12.2324 34.4194 12.1522 34.3392C12.072 34.259 12.0085 34.1639 11.9651 34.0591C11.9217 33.9544 11.8993 33.8421 11.8993 33.7287V33.7287Z" fill="white"/>
<path d="M13.626 33.7287C13.626 33.558 13.5754 33.3911 13.4806 33.2491C13.3857 33.1071 13.2509 32.9965 13.0931 32.9311C12.9354 32.8658 12.7618 32.8487 12.5943 32.882C12.4268 32.9153 12.273 32.9975 12.1523 33.1183C12.0315 33.239 11.9493 33.3928 11.916 33.5603C11.8827 33.7278 11.8998 33.9014 11.9651 34.0591C12.0305 34.2169 12.1411 34.3517 12.2831 34.4466C12.4251 34.5414 12.592 34.592 12.7627 34.592C12.9917 34.592 13.2113 34.5011 13.3732 34.3392C13.5351 34.1773 13.626 33.9577 13.626 33.7287Z" fill="white"/>
<path d="M20.2224 32.8654H19.4763C19.2475 32.8658 19.0283 32.9569 18.8667 33.1187C18.705 33.2806 18.6143 33.5 18.6143 33.7287C18.6143 33.9575 18.705 34.1769 18.8667 34.3387C19.0283 34.5006 19.2475 34.5917 19.4763 34.592H23.8821C24.0443 34.5916 24.203 34.5452 24.3398 34.4582C22.9003 34.1202 21.5146 33.5842 20.2224 32.8654V32.8654Z" fill="white"/>
<path d="M11.3438 35.8423C13.6568 36.8246 16.144 37.3308 18.657 37.3308C21.17 37.3308 23.6572 36.8246 25.9703 35.8423H11.3438Z" fill="white"/>
<path opacity="0.9" d="M3.86175 17.1174C3.86175 17.0041 3.83942 16.8918 3.79604 16.787C3.75266 16.6823 3.68907 16.5871 3.6089 16.507C3.52873 16.4268 3.43356 16.3632 3.32882 16.3198C3.22408 16.2764 3.11182 16.2541 2.99844 16.2541H0.151986C0.0786388 16.8222 0.0309879 17.3977 0.0090332 17.9807H2.99862C3.22755 17.9807 3.44709 17.8897 3.60895 17.7278C3.77082 17.5659 3.86175 17.3464 3.86175 17.1174V17.1174Z" fill="white"/>
<path opacity="0.5" d="M4.49461 17.1174C4.49461 17.004 4.47228 16.8918 4.4289 16.787C4.38552 16.6823 4.32193 16.5871 4.24176 16.507C4.1616 16.4268 4.06643 16.3632 3.96168 16.3198C3.85694 16.2764 3.74468 16.2541 3.63131 16.2541H2.99854C3.22727 16.2544 3.44654 16.3455 3.60817 16.5073C3.76981 16.6692 3.86061 16.8886 3.86064 17.1173C3.86066 17.3461 3.7699 17.5655 3.6083 17.7273C3.4467 17.8892 3.22745 17.9803 2.99871 17.9807H3.63131C3.74468 17.9807 3.85694 17.9584 3.96168 17.915C4.06642 17.8716 4.16159 17.808 4.24176 17.7279C4.32192 17.6477 4.38551 17.5525 4.4289 17.4478C4.47228 17.343 4.49461 17.2308 4.49461 17.1174Z" fill="white"/>
<path opacity="0.9" d="M4.49461 17.1174C4.49461 17.004 4.47228 16.8918 4.4289 16.787C4.38552 16.6823 4.32193 16.5871 4.24176 16.507C4.1616 16.4268 4.06643 16.3632 3.96168 16.3198C3.85694 16.2764 3.74468 16.2541 3.63131 16.2541H2.99854C3.22727 16.2544 3.44654 16.3455 3.60817 16.5073C3.76981 16.6692 3.86061 16.8886 3.86064 17.1173C3.86066 17.3461 3.7699 17.5655 3.6083 17.7273C3.4467 17.8892 3.22745 17.9803 2.99871 17.9807H3.63131C3.74468 17.9807 3.85694 17.9584 3.96168 17.915C4.06642 17.8716 4.16159 17.808 4.24176 17.7279C4.32192 17.6477 4.38551 17.5525 4.4289 17.4478C4.47228 17.343 4.49461 17.2308 4.49461 17.1174Z" fill="white"/>
<path d="M12.5543 25.3338C12.5539 25.2812 12.5486 25.2289 12.5386 25.1773C12.5351 25.1582 12.5296 25.1401 12.5249 25.1214C12.4787 24.9353 12.3715 24.77 12.2203 24.652C12.0692 24.534 11.8828 24.4701 11.691 24.4705C11.5776 24.4703 11.4652 24.4925 11.3603 24.5358C11.2554 24.5791 11.16 24.6427 11.0797 24.7229C10.9994 24.803 10.9357 24.8983 10.8923 25.0031C10.8488 25.1079 10.8264 25.2203 10.8264 25.3338C10.8264 25.4473 10.8488 25.5596 10.8923 25.6645C10.9357 25.7693 10.9994 25.8645 11.0797 25.9447C11.16 26.0249 11.2554 26.0884 11.3603 26.1317C11.4652 26.1751 11.5776 26.1973 11.691 26.1971V26.1971C11.8044 26.1972 11.9167 26.1749 12.0215 26.1316C12.1263 26.0882 12.2215 26.0246 12.3017 25.9444C12.3819 25.8642 12.4455 25.769 12.4888 25.6643C12.5322 25.5595 12.5544 25.4472 12.5543 25.3338V25.3338Z" fill="white"/>
<path opacity="0.9" d="M5.63493 5.29896C5.61015 5.32308 5.58448 5.34629 5.55984 5.37056C5.30987 5.61682 5.06507 5.86843 4.82921 6.12843C4.80874 6.151 4.78971 6.17487 4.76933 6.19755C4.55453 6.43667 4.3462 6.68149 4.14434 6.93201C4.11939 6.96285 4.09557 6.99461 4.0708 7.02559H16.8533C17.5083 6.39166 18.2155 5.81406 18.9675 5.29895L5.63493 5.29896Z" fill="white"/>
<path d="M37.1736 0.0595814C33.9371 0.0560388 30.7559 0.898317 27.9452 2.50294C27.975 2.50278 28.0043 2.50068 28.0341 2.50068C31.7912 2.50632 35.4288 3.82131 38.3211 6.21937C41.2133 8.61743 43.1793 11.9486 43.8807 15.6396H36.8978C36.2495 13.7036 34.9885 12.0312 33.3053 10.8755C31.6222 9.7198 29.6085 9.14357 27.5687 9.23396C25.529 9.32434 23.5742 10.0764 21.9998 11.3765C20.4255 12.6766 19.3173 14.4539 18.8428 16.4397C18.3683 18.4256 18.5533 20.5119 19.3699 22.3832C20.1864 24.2546 21.5901 25.8092 23.3687 26.8119C25.1472 27.8146 27.2039 28.211 29.2277 27.941C31.2515 27.671 33.1324 26.7494 34.5859 25.3155H30.5304V20.8341H43.6208V33.9731H39.1884V30.3952C36.1935 33.2827 32.1942 34.8942 28.0341 34.8898C27.9679 34.8898 27.9028 34.8855 27.8369 34.8847C30.316 36.3172 33.0914 37.1601 35.9485 37.3481C38.8055 37.5362 41.6675 37.0645 44.313 35.9694C46.9585 34.8744 49.3166 33.1853 51.2049 31.033C53.0931 28.8807 54.4609 26.3229 55.2023 23.5573C55.9438 20.7918 56.039 17.8927 55.4807 15.0845C54.9224 12.2763 53.7255 9.63413 51.9826 7.36252C50.2397 5.0909 47.9975 3.25073 45.4296 1.98437C42.8617 0.718019 40.0368 0.0594352 37.1736 0.0595814H37.1736Z" fill="white"/>
<path d="M71.9919 19.4268C72.0021 20.3226 71.8484 21.2127 71.5384 22.0533C71.2559 22.819 70.8204 23.5191 70.2585 24.1111C69.6981 24.6921 69.0211 25.148 68.2719 25.4488C66.6227 26.0827 64.797 26.0827 63.1478 25.4488C62.4003 25.1472 61.7249 24.6914 61.1656 24.1111C60.6038 23.5191 60.1683 22.8189 59.8857 22.0533C59.2813 20.3544 59.2813 18.4991 59.8857 16.8002C60.169 16.0337 60.6044 15.3323 61.1656 14.7382C61.7244 14.1551 62.3998 13.6962 63.1478 13.3915C64.7959 12.7516 66.6238 12.7516 68.2719 13.3915C69.0216 13.6954 69.6986 14.1543 70.2585 14.7382C70.8198 15.3322 71.2552 16.0336 71.5384 16.8002C71.8484 17.6408 72.002 18.531 71.9919 19.4268V19.4268ZM70.223 19.4268C70.2334 18.7118 70.1253 17.9999 69.903 17.3202C69.7125 16.7376 69.4039 16.2005 68.9964 15.7425C68.6019 15.3106 68.1161 14.972 67.5743 14.7515C66.3759 14.2892 65.0484 14.2892 63.85 14.7515C63.3072 14.9726 62.8201 15.3111 62.4234 15.7425C62.0134 16.1994 61.7031 16.7367 61.5123 17.3202C61.0856 18.6907 61.0856 20.1584 61.5123 21.5289C61.7037 22.1108 62.014 22.6465 62.4234 23.1022C62.8194 23.5333 63.3068 23.8704 63.85 24.0888C65.0495 24.545 66.3748 24.545 67.5743 24.0888C68.1165 23.871 68.6026 23.5338 68.9964 23.1022C69.4033 22.6455 69.7119 22.1099 69.903 21.5289C70.1255 20.8508 70.2337 20.1404 70.223 19.4268H70.223Z" fill="white"/>
<path d="M73.6538 28.8398V16.7869H74.596C74.6951 16.7795 74.7935 16.809 74.8723 16.8697C74.951 16.9304 75.0045 17.0181 75.0226 17.1159L75.156 18.1824C75.5238 17.7291 75.9711 17.3466 76.476 17.0536C76.9983 16.7621 77.5888 16.6149 78.1869 16.627C78.6714 16.6203 79.1512 16.722 79.5913 16.9247C80.0159 17.1265 80.385 17.4284 80.6669 17.8046C80.9849 18.2381 81.2171 18.7284 81.3512 19.249C81.5203 19.8959 81.601 20.5627 81.5912 21.2312C81.5965 21.8589 81.5066 22.4837 81.3245 23.0845C81.1643 23.6225 80.9051 24.1259 80.5602 24.5688C80.2311 24.9843 79.8136 25.3213 79.338 25.5554C78.8299 25.8011 78.2713 25.9244 77.7069 25.9154C77.217 25.9288 76.7301 25.8347 76.2804 25.6398C75.8824 25.4534 75.527 25.1872 75.236 24.8577V28.8398H73.6538ZM77.6625 17.9069C77.1864 17.8964 76.7168 18.0196 76.3071 18.2624C75.8898 18.5265 75.5264 18.8673 75.236 19.2668V23.6222C75.4799 23.9737 75.8086 24.258 76.1916 24.4488C76.556 24.6126 76.9519 24.6945 77.3514 24.6888C78.1869 24.6888 78.8298 24.3896 79.2802 23.7911C79.7305 23.1926 79.9557 22.3393 79.9558 21.2312C79.9642 20.7231 79.9119 20.2159 79.8002 19.7202C79.7185 19.3494 79.5661 18.9978 79.3513 18.6846C79.1693 18.426 78.9205 18.2218 78.6314 18.0935C78.3249 17.9648 77.9949 17.9012 77.6625 17.9069Z" fill="white"/>
<path d="M86.5863 16.6447C87.0968 16.6395 87.6035 16.7314 88.0796 16.9158C88.5248 17.0893 88.9279 17.356 89.2617 17.698C89.6065 18.0596 89.8715 18.4896 90.0394 18.9602C90.2342 19.5092 90.329 20.0887 90.3194 20.6712C90.3343 20.8412 90.3068 21.0122 90.2394 21.169C90.204 21.214 90.1576 21.2491 90.1047 21.2709C90.0517 21.2927 89.994 21.3004 89.9372 21.2933H83.9464C83.9477 21.797 84.0256 22.2975 84.1774 22.7778C84.3005 23.1646 84.5 23.5228 84.7641 23.8311C85.0068 24.1082 85.3113 24.3244 85.6529 24.4622C86.0209 24.6059 86.4134 24.6768 86.8084 24.6709C87.1556 24.6779 87.5019 24.6315 87.835 24.5333C88.0902 24.4545 88.3384 24.3548 88.5773 24.2354C88.7557 24.1454 88.9293 24.0461 89.0972 23.9377C89.2017 23.8584 89.3266 23.8107 89.4573 23.8C89.5163 23.7975 89.575 23.81 89.6279 23.8364C89.6807 23.8629 89.726 23.9023 89.7594 23.951L90.2039 24.5287C90.0035 24.7701 89.7666 24.9785 89.5017 25.1465C89.2269 25.3225 88.9331 25.4671 88.6261 25.5776C88.3129 25.6909 87.9901 25.7757 87.6617 25.831C87.3358 25.8867 87.0058 25.9149 86.6751 25.9154C86.0869 25.9217 85.5029 25.8145 84.9552 25.5998C84.4395 25.3955 83.9751 25.0799 83.5953 24.6755C83.1959 24.2409 82.8916 23.7278 82.7019 23.1689C82.4781 22.5048 82.3699 21.8073 82.382 21.1067C82.3772 20.5079 82.4748 19.9127 82.6708 19.3468C82.8506 18.8235 83.1331 18.3415 83.5019 17.929C83.8708 17.5238 84.3224 17.2025 84.8262 16.9869C85.3828 16.7518 85.9822 16.6353 86.5863 16.6447V16.6447ZM86.6218 17.8091C85.8574 17.8091 85.256 18.0299 84.8175 18.4713C84.3497 18.976 84.0621 19.6214 83.9997 20.3067H88.8973C88.901 19.9646 88.85 19.624 88.7461 19.298C88.6533 19.0068 88.502 18.7376 88.3017 18.5068C88.1047 18.2837 87.8603 18.1075 87.5863 17.9914C87.2806 17.8652 86.9524 17.8032 86.6218 17.8091V17.8091Z" fill="white"/>
<path d="M91.8926 25.791V16.7869H92.8348C92.9339 16.7795 93.0323 16.809 93.111 16.8697C93.1898 16.9304 93.2433 17.0181 93.2614 17.1159L93.3858 18.0936C93.7615 17.6734 94.2046 17.3189 94.697 17.0447C95.2121 16.7702 95.789 16.6325 96.3725 16.6447C96.8187 16.636 97.2619 16.7192 97.6745 16.8891C98.0386 17.0432 98.3613 17.2808 98.6167 17.5825C98.8784 17.9003 99.0734 18.2676 99.1901 18.6624C99.325 19.1151 99.3909 19.5856 99.3856 20.058V25.791H97.8034V20.058C97.8034 19.3765 97.6479 18.8476 97.3368 18.4713C97.0257 18.0951 96.5502 17.907 95.9103 17.9069C95.4514 17.9045 94.9998 18.0208 94.5992 18.2447C94.1755 18.4843 93.7953 18.7938 93.4748 19.1602V25.791H91.8926Z" fill="white"/>
<path d="M107.261 24.5377C107.577 24.5391 107.893 24.5228 108.207 24.4887C108.481 24.4586 108.753 24.4097 109.021 24.3421C109.266 24.2801 109.506 24.2014 109.741 24.1065C109.966 24.0147 110.191 23.9096 110.416 23.7911V20.9823H108.443C108.394 20.9846 108.344 20.9772 108.298 20.9604C108.251 20.9437 108.208 20.9178 108.172 20.8845C108.139 20.8539 108.113 20.8168 108.095 20.7754C108.077 20.7341 108.069 20.6894 108.07 20.6445V19.6668H111.98V24.5554C111.664 24.7842 111.33 24.9864 110.981 25.1599C110.624 25.3358 110.252 25.4801 109.869 25.591C109.455 25.7107 109.031 25.7969 108.603 25.8487C108.116 25.9071 107.626 25.9353 107.136 25.9332C106.266 25.9435 105.402 25.7819 104.594 25.4576C103.846 25.1554 103.168 24.7014 102.603 24.1244C102.034 23.5338 101.591 22.8337 101.301 22.0666C100.982 21.2235 100.824 20.3282 100.834 19.4268C100.823 18.5204 100.978 17.6195 101.292 16.7692C101.575 15.9959 102.022 15.293 102.602 14.7085C103.182 14.124 103.881 13.6717 104.652 13.3826C105.514 13.0581 106.429 12.8983 107.35 12.9116C107.82 12.9089 108.29 12.9461 108.754 13.0227C109.165 13.091 109.568 13.1981 109.958 13.3426C110.317 13.4761 110.661 13.6459 110.985 13.8492C111.297 14.0466 111.592 14.2712 111.865 14.5204L111.376 15.3026C111.338 15.374 111.282 15.434 111.213 15.4762C111.145 15.5185 111.066 15.5414 110.985 15.5426C110.874 15.5379 110.767 15.5042 110.674 15.4448C110.526 15.3619 110.36 15.2612 110.176 15.1425C109.963 15.009 109.738 14.8945 109.505 14.8004C109.203 14.6791 108.891 14.5854 108.572 14.5204C108.152 14.4376 107.724 14.3989 107.296 14.4048C106.631 14.3954 105.97 14.5146 105.35 14.7559C104.787 14.9776 104.28 15.3206 103.865 15.7603C103.444 16.2162 103.123 16.7551 102.923 17.3425C102.695 18.0135 102.584 18.7184 102.594 19.4268C102.582 20.1597 102.698 20.8891 102.936 21.5823C103.143 22.1781 103.472 22.7245 103.901 23.1866C104.314 23.6242 104.818 23.9669 105.376 24.191C105.976 24.4279 106.616 24.5457 107.261 24.5377V24.5377Z" fill="white"/>
<path d="M116.051 13.9603C116.052 14.1092 116.02 14.2564 115.958 14.3915C115.896 14.5237 115.812 14.644 115.709 14.747C115.606 14.8506 115.483 14.9335 115.349 14.9915C115.212 15.0509 115.063 15.0812 114.913 15.0804C114.765 15.0815 114.618 15.0512 114.482 14.9915C114.215 14.8723 114.002 14.6586 113.882 14.3915C113.823 14.2557 113.792 14.1087 113.793 13.9603C113.793 13.8092 113.823 13.6595 113.882 13.5204C113.94 13.3843 114.023 13.2605 114.127 13.156C114.229 13.0532 114.35 12.9704 114.482 12.9116C114.618 12.8518 114.765 12.8215 114.913 12.8226C115.063 12.8218 115.212 12.8521 115.349 12.9116C115.483 12.9696 115.605 13.0525 115.709 13.156C115.814 13.2612 115.898 13.3847 115.958 13.5204C116.02 13.6588 116.052 13.8087 116.051 13.9603V13.9603ZM115.696 16.7869V25.7909H114.114V16.7869L115.696 16.7869Z" fill="white"/>
<path d="M120.771 25.9332C120.06 25.9332 119.513 25.7347 119.131 25.3377C118.749 24.9407 118.558 24.3689 118.558 23.6222V18.1113H117.473C117.386 18.1139 117.3 18.0838 117.233 18.0268C117.199 17.9931 117.172 17.9521 117.155 17.9067C117.138 17.8614 117.132 17.8129 117.136 17.7647V17.1336L118.611 16.947L118.976 14.1649C118.985 14.0802 119.026 14.0024 119.091 13.947C119.161 13.8892 119.249 13.8591 119.34 13.8626H120.14V16.9647H122.718V18.1113H120.14V23.5155C120.128 23.6675 120.145 23.8204 120.193 23.9654C120.24 24.1104 120.316 24.2445 120.416 24.3599C120.509 24.4519 120.62 24.5238 120.743 24.5712C120.865 24.6185 120.995 24.6404 121.127 24.6355C121.273 24.6386 121.419 24.616 121.558 24.5688C121.667 24.5299 121.773 24.4808 121.873 24.4222C121.962 24.3688 122.038 24.3199 122.1 24.2754C122.147 24.237 122.204 24.2138 122.264 24.2089C122.311 24.2127 122.356 24.2287 122.395 24.2551C122.434 24.2816 122.466 24.3177 122.487 24.3599L122.949 25.1154C122.663 25.3785 122.327 25.5825 121.962 25.7155C121.582 25.8597 121.178 25.9335 120.771 25.9332V25.9332Z" fill="white"/>
<path d="M136.308 19.4268C136.318 20.3226 136.165 21.2127 135.855 22.0533C135.572 22.819 135.137 23.5191 134.575 24.1111C134.014 24.6921 133.337 25.148 132.588 25.4488C130.939 26.0827 129.113 26.0827 127.464 25.4488C126.716 25.1472 126.041 24.6914 125.482 24.1111C124.92 23.5191 124.484 22.8189 124.202 22.0533C123.597 20.3544 123.597 18.4991 124.202 16.8002C124.485 16.0337 124.921 15.3323 125.482 14.7382C126.041 14.1551 126.716 13.6962 127.464 13.3915C129.112 12.7516 130.94 12.7516 132.588 13.3915C133.338 13.6954 134.015 14.1543 134.575 14.7382C135.136 15.3322 135.571 16.0336 135.855 16.8002C136.165 17.6408 136.318 18.531 136.308 19.4268ZM134.539 19.4268C134.55 18.7118 134.441 17.9999 134.219 17.3202C134.029 16.7376 133.72 16.2005 133.313 15.7425C132.918 15.3106 132.432 14.972 131.89 14.7515C130.692 14.2892 129.365 14.2892 128.166 14.7515C127.623 14.9726 127.136 15.3111 126.74 15.7425C126.33 16.1994 126.019 16.7367 125.828 17.3202C125.402 18.6907 125.402 20.1584 125.828 21.5289C126.02 22.1108 126.33 22.6465 126.74 23.1022C127.136 23.5333 127.623 23.8704 128.166 24.0888C129.366 24.545 130.691 24.545 131.89 24.0888C132.433 23.871 132.919 23.5338 133.313 23.1022C133.719 22.6455 134.028 22.1099 134.219 21.5289C134.442 20.8508 134.55 20.1404 134.539 19.4268V19.4268Z" fill="white"/>
<path d="M137.97 28.8398V16.7869H138.912C139.011 16.7795 139.109 16.809 139.188 16.8697C139.267 16.9304 139.32 17.0181 139.339 17.1159L139.472 18.1824C139.84 17.7291 140.287 17.3466 140.792 17.0536C141.314 16.7621 141.905 16.6149 142.503 16.627C142.987 16.6203 143.467 16.722 143.907 16.9247C144.332 17.1265 144.701 17.4284 144.983 17.8046C145.301 18.2381 145.533 18.7284 145.667 19.249C145.836 19.8959 145.917 20.5627 145.907 21.2312C145.912 21.8589 145.823 22.4837 145.64 23.0845C145.48 23.6225 145.221 24.1259 144.876 24.5688C144.547 24.9843 144.13 25.3213 143.654 25.5554C143.146 25.8011 142.587 25.9244 142.023 25.9154C141.533 25.9288 141.046 25.8347 140.596 25.6398C140.198 25.4534 139.843 25.1872 139.552 24.8577V28.8398H137.97ZM141.978 17.9069C141.502 17.8964 141.033 18.0196 140.623 18.2624C140.206 18.5265 139.842 18.8673 139.552 19.2668V23.6222C139.796 23.9737 140.125 24.258 140.507 24.4488C140.872 24.6126 141.268 24.6945 141.667 24.6888C142.503 24.6888 143.146 24.3896 143.596 23.7911C144.046 23.1926 144.272 22.3393 144.272 21.2312C144.28 20.7231 144.228 20.2159 144.116 19.7202C144.034 19.3494 143.882 18.9978 143.667 18.6846C143.485 18.426 143.236 18.2218 142.947 18.0935C142.641 17.9648 142.311 17.9012 141.978 17.9069V17.9069Z" fill="white"/>
<path d="M152.493 18.2714C152.463 18.3323 152.416 18.3833 152.358 18.418C152.299 18.4527 152.232 18.4697 152.164 18.4669C152.057 18.4613 151.953 18.4276 151.862 18.3692C151.75 18.304 151.612 18.2314 151.449 18.1513C151.261 18.0618 151.066 17.9875 150.867 17.9291C150.606 17.8564 150.337 17.8219 150.067 17.8269C149.823 17.8236 149.58 17.8581 149.347 17.9291C149.149 17.9891 148.964 18.0839 148.8 18.2091C148.656 18.3198 148.537 18.4609 148.453 18.6225C148.373 18.7808 148.332 18.956 148.333 19.1335C148.326 19.3442 148.398 19.5501 148.533 19.7113C148.682 19.8773 148.862 20.0131 149.062 20.1112C149.302 20.2321 149.552 20.3318 149.809 20.4091C150.087 20.4949 150.373 20.5867 150.667 20.6845C150.96 20.7823 151.246 20.8904 151.524 21.0089C151.793 21.1215 152.044 21.2711 152.271 21.4534C152.491 21.632 152.671 21.8545 152.8 22.1067C152.94 22.3957 153.009 22.7143 153 23.0355C153.004 23.4302 152.928 23.8217 152.778 24.1866C152.631 24.5377 152.406 24.8507 152.12 25.1021C151.807 25.3726 151.445 25.5794 151.053 25.7109C150.583 25.8668 150.091 25.942 149.596 25.9332C149.012 25.9414 148.433 25.8373 147.889 25.6265C147.413 25.4429 146.974 25.1766 146.591 24.8398L146.965 24.2354C147.007 24.164 147.064 24.1032 147.134 24.0577C147.212 24.0129 147.301 23.9913 147.391 23.9954C147.514 24.0012 147.632 24.0446 147.729 24.1199C147.848 24.2029 147.991 24.2948 148.16 24.3955C148.355 24.5079 148.56 24.6002 148.773 24.671C149.065 24.7616 149.37 24.8036 149.676 24.7954C149.95 24.8006 150.223 24.76 150.485 24.6755C150.697 24.6063 150.893 24.4961 151.062 24.3511C151.211 24.2223 151.328 24.0611 151.404 23.8799C151.479 23.6996 151.517 23.5062 151.516 23.3111C151.524 23.088 151.453 22.8692 151.316 22.6934C151.169 22.52 150.989 22.3779 150.787 22.2756C150.546 22.1515 150.295 22.0503 150.036 21.9734C149.754 21.8876 149.467 21.7971 149.173 21.7022C148.88 21.6075 148.593 21.4994 148.311 21.3778C148.04 21.2627 147.787 21.1085 147.56 20.9201C147.338 20.733 147.158 20.5013 147.031 20.2402C146.89 19.9325 146.821 19.5964 146.831 19.258C146.831 18.9162 146.904 18.5782 147.045 18.2668C147.189 17.9466 147.402 17.6616 147.667 17.4314C147.962 17.1782 148.303 16.9836 148.671 16.858C149.109 16.7092 149.569 16.6371 150.031 16.6447C150.576 16.6362 151.117 16.7312 151.627 16.9247C152.08 17.1 152.495 17.3611 152.849 17.6936L152.493 18.2714Z" fill="white"/>
</g>
<defs>
<clipPath id="clip0">
<rect width="153" height="37.3903" fill="white"/>
</clipPath>
</defs>
</svg>
