<svg fill="none" height="38" viewBox="0 0 153 38" width="153" xmlns="http://www.w3.org/2000/svg" xmlns:xlink="http://www.w3.org/1999/xlink"><clipPath id="clipLogo"><path d="m0 0h153v37.3903h-153z"/></clipPath><g clip-path="url(#clipLogo)" fill="#fff"><path d="m7.49358 22.595c.00001-.229.09096-.4485.25286-.6104s.38148-.2529.61044-.2529h-5.59663c.22897 0 .44856.0909.61046.2528s.25286.3815.25286.6105-.09096.4486-.25286.6105-.38149.2528-.61046.2528h5.59663c-.22896 0-.44855-.091-.61045-.2529s-.25285-.3814-.25285-.6104z" opacity=".5"/><path d="m7.4935 14.4382c-.00001-.2289.09092-.4485.25279-.6104s.38141-.2529.61035-.2529h-7.656467c-.021022.0743-.043168.1482-.063299.2229-.036433.1351-.071351.2708-.104754.4071-.038625.1575-.075153.3157-.109584.4748-.029931.1376-.058809.2756-.085694.4144-.013344.0688-.02446.1383-.037037.2074h8.057015c-.11338 0-.22564-.0223-.33038-.0657s-.19992-.107-.28008-.1872c-.08017-.0801-.14376-.1753-.18715-.28-.04338-.1048-.06571-.217-.06571-.3304z" opacity=".6"/><path d="m8.35687 13.5748h-.00018.17878c.22874.0004.44798.0915.6096.2534.16162.1618.2524.3812.2524.6099 0 .2288-.09078.4482-.2524.61-.16162.1619-.38086.253-.6096.2534h3.72163c.1247-.5839.2817-1.1603.4704-1.7267z" opacity=".9"/><path d="m9.39887 14.4382c.00001-.1134-.02232-.2256-.0657-.3304-.04339-.1047-.10698-.1999-.18715-.2801-.08016-.0801-.17533-.1437-.28008-.1871-.10474-.0434-.217-.0657-.33037-.0657h-.17878c-.22874.0004-.44798.0915-.60958.2534-.16161.1618-.25236.3812-.25234.61.00003.2287.09083.4481.25246.6099.16164.1619.3809.253.60963.2533h.17861c.11337 0 .22563-.0223.33038-.0657.10474-.0434.19991-.107.28008-.1872.08016-.0801.14375-.1753.18714-.28.04338-.1048.06571-.217.0657-.3304z" opacity=".6"/><path d="m9.39887 14.4382c.00001-.1134-.02232-.2256-.0657-.3304-.04339-.1047-.10698-.1999-.18715-.2801-.08016-.0801-.17533-.1437-.28008-.1871-.10474-.0434-.217-.0657-.33037-.0657h-.17878c-.22874.0004-.44798.0915-.60958.2534-.16161.1618-.25236.3812-.25234.61.00003.2287.09083.4481.25246.6099.16164.1619.3809.253.60963.2533h.17861c.11337 0 .22563-.0223.33038-.0657.10474-.0434.19991-.107.28008-.1872.08016-.0801.14375-.1753.18714-.28.04338-.1048.06571-.217.0657-.3304z" opacity=".9"/><path d="m7.49357 11.6399c-.00001-.1134.02232-.2257.0657-.3304.04339-.1047.10698-.1999.18714-.2801.08017-.0802.17534-.1437.28008-.1871s.21701-.0658.33038-.0657h-6.61651c-.26298.5633-.49745 1.1396-.70252 1.7266h7.31902c-.11337 0-.22563-.0224-.33037-.0657-.10474-.0434-.19991-.107-.28007-.1872-.08017-.0801-.14376-.1753-.18714-.2801-.04339-.1047-.06572-.217-.06571-.3303z" opacity=".8"/><path d="m11.4529 10.7766c.1135-.0002.2259.022.3308.0653s.2002.1069.2805.187c.0803.0802.144.1755.1875.2803.0434.1048.0658.2172.0658.3307 0 .1134-.0224.2258-.0658.3306-.0435.1049-.1072.2001-.1875.2803s-.1756.1437-.2805.187-.2173.0655-.3308.0654h1.6706c.2447-.5917.5243-1.1682.8375-1.7266z" opacity=".5"/><path d="m12.3162 11.6399c0-.1134-.0223-.2257-.0657-.3304-.0434-.1048-.107-.1999-.1871-.2801-.0802-.0802-.1754-.1438-.2801-.1871-.1048-.0434-.217-.0658-.3304-.0657h-3.09602c-.22874.0003-.44799.0914-.60961.2533-.16162.1618-.2524.3812-.2524.61 0 .2287.09078.4481.2524.61.16162.1618.38087.2529.60961.2533h3.09602c.1134 0 .2256-.0223.3304-.0657.1047-.0434.1999-.107.2801-.1872.0801-.0801.1437-.1753.1871-.28.0434-.1048.0657-.2171.0657-.3304z" opacity=".8"/><path d="m12.3162 11.6399c0-.1134-.0223-.2257-.0657-.3304-.0434-.1048-.107-.1999-.1871-.2801-.0802-.0802-.1754-.1438-.2801-.1871-.1048-.0434-.217-.0658-.3304-.0657h-3.09602c-.22874.0003-.44799.0914-.60961.2533-.16162.1618-.2524.3812-.2524.61 0 .2287.09078.4481.2524.61.16162.1618.38087.2529.60961.2533h3.09602c.1134 0 .2256-.0223.3304-.0657.1047-.0434.1999-.107.2801-.1872.0801-.0801.1437-.1753.1871-.28.0434-.1048.0657-.2171.0657-.3304z" opacity=".8"/><path d="m10.4111 8.9606c0-.11338.0223-.22564.0657-.33038s.107-.19991.1871-.28008c.0802-.08017.1754-.14376.2801-.18714.1048-.04338.217-.06571.3304-.06571h-6.96605c.22896-.00002.44856.09091.61047.25279.16192.16189.2529.38146.25292.61043.00003.22896-.09091.44855-.25279.61047s-.38146.2529-.61042.25292h6.96567c-.2289-.00004-.4485-.09101-.6103-.2529-.1619-.1619-.2528-.38147-.2528-.6104z" opacity=".6"/><path d="m5.17157 8.9606c0-.11338-.02233-.22564-.06572-.33038-.04338-.10474-.10697-.19991-.18714-.28008s-.17534-.14376-.28008-.18714c-.10475-.04338-.21701-.06571-.33038-.06571h-1.03483c-.38344.55599-.73641 1.13238-1.05736 1.72662h2.09219l.00017-.00001c.22894-.00004.44849-.09101.61036-.25291.16187-.16189.2528-.38146.25279-.61039z"/><path d="m13.894 8.09729c.1134 0 .2257.02233.3304.06572.1048.04338.1999.10697.2801.18714.0802.08016.1438.17533.1871.28007.0434.10474.0658.217.0658.33038 0 .11337-.0224.22563-.0658.33037-.0433.10474-.1069.19991-.1871.28007-.0802.08017-.1753.14376-.2801.18714-.1047.04339-.217.06572-.3304.06572h-2.6198l.0001.00002h3.2637c.3951-.60382.8301-1.18064 1.3019-1.72663z" opacity=".8"/><path d="m14.7573 8.9606c0-.11338-.0223-.22564-.0657-.33038s-.107-.19991-.1872-.28008c-.0801-.08016-.1753-.14375-.28-.18714-.1048-.04338-.217-.06571-.3304-.06571h-2.6197c-.1134-.00001-.2257.02231-.3304.06568-.1047.04338-.1999.10696-.2801.18711-.0802.08016-.1438.17532-.1872.28006s-.0657.217-.0657.33037.0223.22563.0657.33037c.0433.10475.1069.19993.1871.2801.0801.08018.1753.14377.28.18717.1048.0434.217.06574.3304.06575h2.6199c.1134 0 .2256-.02233.3304-.06571.1047-.04338.1999-.10697.28-.18714.0802-.08016.1438-.17534.1872-.28008s.0657-.217.0657-.33037z" opacity=".6"/><path d="m14.7573 8.9606c0-.11338-.0223-.22564-.0657-.33038s-.107-.19991-.1872-.28008c-.0801-.08016-.1753-.14375-.28-.18714-.1048-.04338-.217-.06571-.3304-.06571h-2.6197c-.1134-.00001-.2257.02231-.3304.06568-.1047.04338-.1999.10696-.2801.18711-.0802.08016-.1438.17532-.1872.28006s-.0657.217-.0657.33037.0223.22563.0657.33037c.0433.10475.1069.19993.1871.2801.0801.08018.1753.14377.28.18717.1048.0434.217.06574.3304.06575h2.6199c.1134 0 .2256-.02233.3304-.06571.1047-.04338.1999-.10697.28-.18714.0802-.08016.1438-.17534.1872-.28008s.0657-.217.0657-.33037z" opacity=".8"/><path d="m12.3161 3.48306c0-.11338.0223-.22564.0657-.33038s.107-.19991.1872-.28008c.0801-.08016.1753-.14376.28-.18714.1048-.04338.217-.06571.3304-.06571h-4.05756c-.02713.01616-.05514.03098-.08218.04727-.07731.04657-.15304.09547-.22961.14313-.16055.09992-.32007.20138-.47731.30601-.08559.05694-.17025.11509-.25484.17339-.14822.10217-.29486.20645-.4399.31282-.08189.06002-.16386.11988-.24473.1812-.15408.1168-.30555.23681-.45584.35824-.06578.05316-.13273.10495-.19776.15897-.01786.01484-.03484.0307-.05266.04562h6.49239c-.1134 0-.2256-.02233-.3304-.06572-.1047-.04339-.1999-.10698-.28-.18715-.0802-.08017-.1438-.17535-.1872-.28009-.0434-.10475-.0657-.21701-.0657-.33038z" opacity=".7"/><path d="m13.239 2.61975c.1135-.00017.2259.02203.3308.06534s.2002.10688.2805.18706.144.17541.1875.28024.0658.21719.0658.33068c0 .11348-.0223.22585-.0658.33067-.0435.10483-.1072.20006-.1875.28024-.0803.08019-.1756.14375-.2805.18706s-.2173.06551-.3308.06534h7.3161c1.7292-.91015 3.6108-1.49538 5.5512-1.72663z" opacity=".6"/><path d="m14.1025 3.48306c0-.11338-.0223-.22564-.0657-.33039-.0434-.10474-.107-.19991-.1872-.28008-.0801-.08016-.1753-.14375-.28-.18713-.1048-.04339-.2171-.06571-.3304-.06571h-.0596c-.2287.00035-.448.09146-.6096.25332-.1616.16187-.2524.38126-.2524.60999 0 .22874.0908.44813.2524.61.1616.16186.3809.25297.6096.25332h.0596c.1133 0 .2256-.02233.3304-.06571.1047-.04339.1999-.10698.28-.18715.0802-.08017.1438-.17534.1872-.28008.0434-.10475.0657-.21701.0657-.33038z"/><path d="m18.6572.00000755c-2.5618-.00230899-5.0965.52470945-7.445 1.54800245h14.89c-2.3486-1.023293-4.8832-1.55031144-7.445-1.54800245z"/><path d="m3.63131 16.2541c.22874.0003.44799.0914.60961.2533s.2524.3813.2524.61-.09078.4481-.2524.61-.38087.253-.60961.2533h-.6326-.00017 8.91906c.0242-.578.0792-1.1544.1647-1.7266z" opacity=".5"/><path d="m0 18.9929c.0100716.5823.044378 1.1585.106589 1.7266h11.922811c-.0712-.5729-.1121-1.1493-.1224-1.7266z" opacity=".95"/><path d="m8.35696 21.7317c-.22896 0-.44855.0909-.61045.2528s-.25286.3815-.25286.6105.09096.4486.25286.6105.38149.2528.61045.2528h4.25304c-.1726-.5673-.3139-1.1437-.4231-1.7266z"/><path d="m1.83754 22.595c0-.229.09095-.4486.25285-.6105.16191-.1619.38149-.2528.61045-.2528h-2.454014c.021451.1297.045091.2587.069196.3875.024568.1312.047372.263.074683.3932.035703.1705.076803.3388.117137.5075.029645.124.057028.249.089113.372.005844.0223.012953.0441.018867.0664h2.085008c-.11337 0-.22563-.0223-.33037-.0657s-.19991-.107-.28008-.1872c-.08016-.0801-.14375-.1753-.18713-.28-.04339-.1048-.06571-.217-.06571-.3304z" opacity=".7"/><path d="m3.62356 22.595c-.00001-.229-.09096-.4485-.25286-.6105-.1619-.1619-.38148-.2528-.61045-.2528h-.05954c-.22896 0-.44855.0909-.61045.2528s-.25286.3815-.25286.6105.09096.4486.25286.6105.38149.2528.61045.2528h.05954c.11338 0 .22564-.0223.33038-.0657s.19991-.107.28008-.1872c.08016-.0801.14375-.1753.18714-.28.04338-.1048.06571-.217.06571-.3304z"/><path d="m11.6912 24.4705c.1917-.0004.3781.0635.5293.1815.1511.118.2584.2833.3045.4694.0048.0187.0102.0368.0137.0559.0233.1245.0189.2525-.013.3751-.0318.1225-.0903.2366-.1712.3339-.0809.0974-.1823.1757-.297.2294-.1146.0538-.2397.0815-.3663.0814h2.0448c-.2923-.5599-.5514-1.1364-.7761-1.7266z" opacity=".5"/><path d="m12.5249 25.1214c-.0324-.129-.0943-.2487-.1806-.3499-.0864-.1011-.1949-.1809-.3172-.2332.1223.0522.2308.1321.3172.2332.0863.1012.1482.2209.1806.3499z" opacity=".7"/><path d="m12.0271 26.1292c.1821-.0752.3325-.2111.4257-.3846s.1236-.374.0858-.5673c.0377.1933.0074.3938-.0858.5673-.0933.1735-.2437.3094-.4257.3846z" opacity=".7"/><path d="m10.8278 25.3338c0-.229.0909-.4486.2528-.6105s.3815-.2528.6105-.2528h-10.774108c.032782.1002.066861.1998.101308.2993.05149.1488.10272.2977.15785.4448.05233.1396.10824.2775.16381.4155.05859.1456.11707.2912.17919.4348.01922.0445.04021.0879.05975.1322h10.1122c-.229 0-.4486-.091-.6105-.2529s-.2528-.3815-.2528-.6104z" opacity=".7"/><path d="m2.15503 27.3879c.01407.0266.02699.0539.04119.0804.10433.1946.21443.3857.3254.5762.0499.0857.09708.1731.14828.2579.16499.2731.33644.5417.51435.8058l.00445.0063h12.497c-.4581-.5472-.8797-1.124-1.2619-1.7266z" opacity=".8"/><path d="m11.2743 31.8533c-.1135.0001-.2259-.0221-.3308-.0654s-.2002-.1068-.2805-.187-.144-.1754-.1875-.2803c-.0434-.1048-.0658-.2172-.0658-.3306 0-.1135.0224-.2259.0658-.3307.0435-.1048.1072-.2001.1875-.2803.0803-.0801.1756-.1437.2805-.187s.2173-.0655.3308-.0654h-7.34388c.03932.0505.07883.1008.11854.1509.15486.1945.31361.3859.47625.574.07025.0813.13949.1636.21109.2437.22072.247.44668.4893.6799.7241.01104.0111.02134.0229.0324.034h13.1852z" opacity=".5"/><path d="m10.4109 30.99c0 .1133.0223.2256.0657.3303.0434.1048.107.2.1872.2801.0801.0802.1753.1438.28.1872.1048.0433.217.0657.3304.0657h7.3595c-.722-.5191-1.4001-1.0965-2.0275-1.7267h-5.332c-.229 0-.4485.091-.6105.2529-.1619.1619-.2528.3815-.2528.6105z" opacity=".5"/><path d="m10.4109 30.99c0 .1133.0223.2256.0657.3303.0434.1048.107.2.1872.2801.0801.0802.1753.1438.28.1872.1048.0433.217.0657.3304.0657h7.3595c-.722-.5191-1.4001-1.0965-2.0275-1.7267h-5.332c-.229 0-.4485.091-.6105.2529-.1619.1619-.2528.3815-.2528.6105z" opacity=".9"/><path d="m23.8823 34.592h1.0749c-.2074-.0402-.4128-.0857-.6173-.1338-.1368.087-.2954.1334-.4576.1338z" opacity=".5"/><path d="m18.613 33.7287c0-.2289.0909-.4485.2528-.6104s.3815-.2529.6105-.2529h-6.7136c.2287.0004.448.0915.6096.2533.1616.1619.2524.3813.2524.61 0 .2288-.0908.4482-.2524.61-.1616.1619-.3809.253-.6096.2533h6.7136c-.1134 0-.2256-.0223-.3304-.0657-.1047-.0434-.1999-.1069-.2801-.1871-.0801-.0802-.1437-.1753-.1871-.2801-.0434-.1047-.0657-.217-.0657-.3304z" opacity=".5"/><path d="m11.8993 33.7287c0-.2289.091-.4485.2529-.6104s.3815-.2529.6105-.2529h-6.21314c.04509.0385.08894.0784.1344.1164.07643.064.15369.127.23117.1898.14153.1147.28481.2272.42982.3377.07782.0594.15535.1191.23412.1773.16418.1213.33103.2391.49928.355.05957.0411.11795.0838.17803.1242.21831.1467.43996.2888.66494.4262h3.84138c-.1134 0-.2257-.0223-.3304-.0657-.1048-.0434-.1999-.1069-.2801-.1871s-.1437-.1753-.1871-.2801c-.0434-.1047-.0658-.217-.0658-.3304z" opacity=".5"/><path d="m13.626 33.7287c0-.1707-.0506-.3376-.1454-.4796-.0949-.142-.2297-.2526-.3875-.318-.1577-.0653-.3313-.0824-.4988-.0491s-.3213.1155-.442.2363c-.1208.1207-.203.2745-.2363.442s-.0162.3411.0491.4988c.0654.1578.176.2926.318.3875.142.0948.3089.1454.4796.1454.229 0 .4486-.0909.6105-.2528s.2528-.3815.2528-.6105z"/><path d="m20.2224 32.8654h-.7461c-.2288.0004-.448.0915-.6096.2533-.1617.1619-.2524.3813-.2524.61 0 .2288.0907.4482.2524.61.1616.1619.3808.253.6096.2533h4.4058c.1622-.0004.3209-.0468.4577-.1338-1.4395-.338-2.8252-.874-4.1174-1.5928z"/><path d="m11.3438 35.8423c2.313.9823 4.8002 1.4885 7.3132 1.4885s5.0002-.5062 7.3133-1.4885z"/><path d="m3.86175 17.1174c0-.1133-.02233-.2256-.06571-.3304-.04338-.1047-.10697-.1999-.18714-.28-.08017-.0802-.17534-.1438-.28008-.1872s-.217-.0657-.33038-.0657h-2.846454c-.0733472.5681-.1209981 1.1436-.1429528 1.7266h2.9895868c.22893 0 .44847-.091.61033-.2529.16187-.1619.2528-.3814.2528-.6104z" opacity=".9"/><path d="m4.49461 17.1174c0-.1134-.02233-.2256-.06571-.3304-.04338-.1047-.10697-.1999-.18714-.28-.08016-.0802-.17533-.1438-.28008-.1872-.10474-.0434-.217-.0657-.33037-.0657h-.63277c.22873.0003.448.0914.60963.2532.16164.1619.25244.3813.25247.61.00002.2288-.09074.4482-.25234.61-.1616.1619-.38085.253-.60959.2534h.6326c.11337 0 .22563-.0223.33037-.0657s.19991-.107.28008-.1871c.08016-.0802.14375-.1754.18714-.2801.04338-.1048.06571-.217.06571-.3304z" opacity=".5"/><path d="m4.49461 17.1174c0-.1134-.02233-.2256-.06571-.3304-.04338-.1047-.10697-.1999-.18714-.28-.08016-.0802-.17533-.1438-.28008-.1872-.10474-.0434-.217-.0657-.33037-.0657h-.63277c.22873.0003.448.0914.60963.2532.16164.1619.25244.3813.25247.61.00002.2288-.09074.4482-.25234.61-.1616.1619-.38085.253-.60959.2534h.6326c.11337 0 .22563-.0223.33037-.0657s.19991-.107.28008-.1871c.08016-.0802.14375-.1754.18714-.2801.04338-.1048.06571-.217.06571-.3304z" opacity=".9"/><path d="m12.5543 25.3338c-.0004-.0526-.0057-.1049-.0157-.1565-.0035-.0191-.009-.0372-.0137-.0559-.0462-.1861-.1534-.3514-.3046-.4694-.1511-.118-.3375-.1819-.5293-.1815-.1134-.0002-.2258.022-.3307.0653s-.2003.1069-.2806.1871c-.0803.0801-.144.1754-.1874.2802-.0435.1048-.0659.2172-.0659.3307s.0224.2258.0659.3307c.0434.1048.1071.2.1874.2802s.1757.1437.2806.187c.1049.0434.2173.0656.3307.0654.1134.0001.2257-.0222.3305-.0655.1048-.0434.2-.107.2802-.1872s.1438-.1754.1871-.2801c.0434-.1048.0656-.2171.0655-.3305z"/><path d="m5.63493 5.29896c-.02478.02412-.05045.04733-.07509.0716-.24997.24626-.49477.49787-.73063.75787-.02047.02257-.0395.04644-.05988.06912-.2148.23912-.42313.48394-.62499.73446-.02495.03084-.04877.0626-.07354.09358h12.7825c.655-.63393 1.3622-1.21153 2.1142-1.72664z" opacity=".9"/><path d="m37.1736.0595814c-3.2365-.0035426-6.4177.8387356-9.2284 2.4433586.0298-.00016.0591-.00226.0889-.00226 3.7571.00564 7.3947 1.32063 10.287 3.71869 2.8922 2.39806 4.8582 5.72923 5.5596 9.42023h-6.9829c-.6483-1.936-1.9093-3.6084-3.5925-4.7641-1.6831-1.1557-3.6968-1.73193-5.7366-1.64154-2.0397.09038-3.9945.84244-5.5689 2.14254-1.5743 1.3001-2.6825 3.0774-3.157 5.0632-.4745 1.9859-.2895 4.0722.5271 5.9435.8165 1.8714 2.2202 3.426 3.9988 4.4287 1.7785 1.0027 3.8352 1.3991 5.859 1.1291s3.9047-1.1916 5.3582-2.6255h-4.0555v-4.4814h13.0904v13.139h-4.4324v-3.5779c-2.9949 2.8875-6.9942 4.499-11.1543 4.4946-.0662 0-.1313-.0043-.1972-.0051 2.4791 1.4325 5.2545 2.2754 8.1116 2.4634 2.857.1881 5.719-.2836 8.3645-1.3787 2.6455-1.095 5.0036-2.7841 6.8919-4.9364 1.8882-2.1523 3.256-4.7101 3.9974-7.4757.7415-2.7655.8367-5.6646.2784-8.4728s-1.7552-5.45037-3.4981-7.72198c-1.7429-2.27162-3.9851-4.11179-6.553-5.37815-2.5679-1.266351-5.3928-1.9249348-8.256-1.9247886z"/><path d="m71.9919 19.4268c.0102.8958-.1435 1.7859-.4535 2.6265-.2825.7657-.718 1.4658-1.2799 2.0578-.5604.581-1.2374 1.0369-1.9866 1.3377-1.6492.6339-3.4749.6339-5.1241 0-.7475-.3016-1.4229-.7574-1.9822-1.3377-.5618-.592-.9973-1.2922-1.2799-2.0578-.6044-1.6989-.6044-3.5542 0-5.2531.2833-.7665.7187-1.4679 1.2799-2.062.5588-.5831 1.2342-1.042 1.9822-1.3467 1.6481-.6399 3.476-.6399 5.1241 0 .7497.3039 1.4267.7628 1.9866 1.3467.5613.594.9967 1.2954 1.2799 2.062.31.8406.4636 1.7308.4535 2.6266zm-1.7689 0c.0104-.715-.0977-1.4269-.32-2.1066-.1905-.5826-.4991-1.1197-.9066-1.5777-.3945-.4319-.8803-.7705-1.4221-.991-1.1984-.4623-2.5259-.4623-3.7243 0-.5428.2211-1.0299.5596-1.4266.991-.41.4569-.7203.9942-.9111 1.5777-.4267 1.3705-.4267 2.8382 0 4.2087.1914.5819.5017 1.1176.9111 1.5733.396.4311.8834.7682 1.4266.9866 1.1995.4562 2.5248.4562 3.7243 0 .5422-.2178 1.0283-.555 1.4221-.9866.4069-.4567.7155-.9923.9066-1.5733.2225-.6781.3307-1.3885.32-2.1021z"/><path d="m73.6538 28.8398v-12.0529h.9422c.0991-.0074.1975.0221.2763.0828.0787.0607.1322.1484.1503.2462l.1334 1.0665c.3678-.4533.8151-.8358 1.32-1.1288.5223-.2915 1.1128-.4387 1.7109-.4266.4845-.0067.9643.095 1.4044.2977.4246.2018.7937.5037 1.0756.8799.318.4335.5502.9238.6843 1.4444.1691.6469.2498 1.3137.24 1.9822.0053.6277-.0846 1.2525-.2667 1.8533-.1602.538-.4194 1.0414-.7643 1.4843-.3291.4155-.7466.7525-1.2222.9866-.5081.2457-1.0667.369-1.6311.36-.4899.0134-.9768-.0807-1.4265-.2756-.398-.1864-.7534-.4526-1.0444-.7821v3.9821zm4.0087-10.9329c-.4761-.0105-.9457.1127-1.3554.3555-.4173.2641-.7807.6049-1.0711 1.0044v4.3554c.2439.3515.5726.6358.9556.8266.3644.1638.7603.2457 1.1598.24.8355 0 1.4784-.2992 1.9288-.8977.4503-.5985.6755-1.4518.6756-2.5599.0084-.5081-.0439-1.0153-.1556-1.511-.0817-.3708-.2341-.7224-.4489-1.0356-.182-.2586-.4308-.4628-.7199-.5911-.3065-.1287-.6365-.1923-.9689-.1866z"/><path d="m86.5863 16.6447c.5105-.0052 1.0172.0867 1.4933.2711.4452.1735.8483.4402 1.1821.7822.3448.3616.6098.7916.7777 1.2622.1948.549.2896 1.1285.28 1.711.0149.17-.0126.341-.08.4978-.0354.045-.0818.0801-.1347.1019-.053.0218-.1107.0295-.1675.0224h-5.9908c.0013.5037.0792 1.0042.231 1.4845.1231.3868.3226.745.5867 1.0533.2427.2771.5472.4933.8888.6311.368.1437.7605.2146 1.1555.2087.3472.007.6935-.0394 1.0266-.1376.2552-.0788.5034-.1785.7423-.2979.1784-.09.352-.1893.5199-.2977.1045-.0793.2294-.127.3601-.1377.059-.0025.1177.01.1706.0364.0528.0265.0981.0659.1315.1146l.4445.5777c-.2004.2414-.4373.4498-.7022.6178-.2748.176-.5686.3206-.8756.4311-.3132.1133-.636.1981-.9644.2534-.3259.0557-.6559.0839-.9866.0844-.5882.0063-1.1722-.1009-1.7199-.3156-.5157-.2043-.9801-.5199-1.3599-.9243-.3994-.4346-.7037-.9477-.8934-1.5066-.2238-.6641-.332-1.3616-.3199-2.0622-.0048-.5988.0928-1.194.2888-1.7599.1798-.5233.4623-1.0053.8311-1.4178.3689-.4052.8205-.7265 1.3243-.9421.5566-.2351 1.156-.3516 1.7601-.3422zm.0355 1.1644c-.7644 0-1.3658.2208-1.8043.6622-.4678.5047-.7554 1.1501-.8178 1.8354h4.8976c.0037-.3421-.0473-.6827-.1512-1.0087-.0928-.2912-.2441-.5604-.4444-.7912-.197-.2231-.4414-.3993-.7154-.5154-.3057-.1262-.6339-.1882-.9645-.1823z"/><path d="m91.8926 25.791v-9.0041h.9422c.0991-.0074.1975.0221.2762.0828.0788.0607.1323.1484.1504.2462l.1244.9777c.3757-.4202.8188-.7747 1.3112-1.0489.5151-.2745 1.092-.4122 1.6755-.4.4462-.0087.8894.0745 1.302.2444.3641.1541.6868.3917.9422.6934.2617.3178.4567.6851.5734 1.0799.1349.4527.2008.9232.1955 1.3956v5.733h-1.5822v-5.733c0-.6815-.1555-1.2104-.4666-1.5867-.3111-.3762-.7866-.5643-1.4265-.5644-.4589-.0024-.9105.1139-1.3111.3378-.4237.2396-.8039.5491-1.1244.9155v6.6308z"/><path d="m107.261 24.5377c.316.0014.632-.0149.946-.049.274-.0301.546-.079.814-.1466.245-.062.485-.1407.72-.2356.225-.0918.45-.1969.675-.3154v-2.8088h-1.973c-.049.0023-.099-.0051-.145-.0219-.047-.0167-.09-.0426-.126-.0759-.033-.0306-.059-.0677-.077-.1091-.018-.0413-.026-.086-.025-.1309v-.9777h3.91v4.8886c-.316.2288-.65.431-.999.6045-.357.1759-.729.3202-1.112.4311-.414.1197-.838.2059-1.266.2577-.487.0584-.977.0866-1.467.0845-.87.0103-1.734-.1513-2.542-.4756-.748-.3022-1.426-.7562-1.991-1.3332-.569-.5906-1.012-1.2907-1.302-2.0578-.319-.8431-.477-1.7384-.467-2.6398-.011-.9064.144-1.8073.458-2.6576.283-.7733.73-1.4762 1.31-2.0607s1.279-1.0368 2.05-1.3259c.862-.3245 1.777-.4843 2.698-.471.47-.0027.94.0345 1.404.1111.411.0683.814.1754 1.204.3199.359.1335.703.3033 1.027.5066.312.1974.607.422.88.6712l-.489.7822c-.038.0714-.094.1314-.163.1736-.068.0423-.147.0652-.228.0664-.111-.0047-.218-.0384-.311-.0978-.148-.0829-.314-.1836-.498-.3023-.213-.1335-.438-.248-.671-.3421-.302-.1213-.614-.215-.933-.28-.42-.0828-.848-.1215-1.276-.1156-.665-.0094-1.326.1098-1.946.3511-.563.2217-1.07.5647-1.485 1.0044-.421.4559-.742.9948-.942 1.5822-.228.671-.339 1.3759-.329 2.0843-.012.7329.104 1.4623.342 2.1555.207.5958.536 1.1422.965 1.6043.413.4376.917.7803 1.475 1.0044.6.2369 1.24.3547 1.885.3467z"/><path d="m116.051 13.9603c.001.1489-.031.2961-.093.4312-.062.1322-.146.2525-.249.3555-.103.1036-.226.1865-.36.2445-.137.0594-.286.0897-.436.0889-.148.0011-.295-.0292-.431-.0889-.267-.1192-.48-.3329-.6-.6-.059-.1358-.09-.2828-.089-.4312 0-.1511.03-.3008.089-.4399.058-.1361.141-.2599.245-.3644.102-.1028.223-.1856.355-.2444.136-.0598.283-.0901.431-.089.15-.0008.299.0295.436.089.134.058.256.1409.36.2444.105.1052.189.2287.249.3644.062.1384.094.2883.093.4399zm-.355 2.8266v9.004h-1.582v-9.004z"/><path d="m120.771 25.9332c-.711 0-1.258-.1985-1.64-.5955s-.573-.9688-.573-1.7155v-5.5109h-1.085c-.087.0026-.173-.0275-.24-.0845-.034-.0337-.061-.0747-.078-.1201-.017-.0453-.023-.0938-.019-.142v-.6311l1.475-.1866.365-2.7821c.009-.0847.05-.1625.115-.2179.07-.0578.158-.0879.249-.0844h.8v3.1021h2.578v1.1466h-2.578v5.4042c-.012.152.005.3049.053.4499.047.145.123.2791.223.3945.093.092.204.1639.327.2113.122.0473.252.0692.384.0643.146.0031.292-.0195.431-.0667.109-.0389.215-.088.315-.1466.089-.0534.165-.1023.227-.1468.047-.0384.104-.0616.164-.0665.047.0038.092.0198.131.0462.039.0265.071.0626.092.1048l.462.7555c-.286.2631-.622.4671-.987.6001-.38.1442-.784.218-1.191.2177z"/><path d="m136.308 19.4268c.01.8958-.143 1.7859-.453 2.6265-.283.7657-.718 1.4658-1.28 2.0578-.561.581-1.238 1.0369-1.987 1.3377-1.649.6339-3.475.6339-5.124 0-.748-.3016-1.423-.7574-1.982-1.3377-.562-.592-.998-1.2922-1.28-2.0578-.605-1.6989-.605-3.5542 0-5.2531.283-.7665.719-1.4679 1.28-2.062.559-.5831 1.234-1.042 1.982-1.3467 1.648-.6399 3.476-.6399 5.124 0 .75.3039 1.427.7628 1.987 1.3467.561.594.996 1.2954 1.28 2.062.31.8406.463 1.7308.453 2.6266zm-1.769 0c.011-.715-.098-1.4269-.32-2.1066-.19-.5826-.499-1.1197-.906-1.5777-.395-.4319-.881-.7705-1.423-.991-1.198-.4623-2.525-.4623-3.724 0-.543.2211-1.03.5596-1.426.991-.41.4569-.721.9942-.912 1.5777-.426 1.3705-.426 2.8382 0 4.2087.192.5819.502 1.1176.912 1.5733.396.4311.883.7682 1.426.9866 1.2.4562 2.525.4562 3.724 0 .543-.2178 1.029-.555 1.423-.9866.406-.4567.715-.9923.906-1.5733.223-.6781.331-1.3885.32-2.1021z"/><path d="m137.97 28.8398v-12.0529h.942c.099-.0074.197.0221.276.0828s.132.1484.151.2462l.133 1.0665c.368-.4533.815-.8358 1.32-1.1288.522-.2915 1.113-.4387 1.711-.4266.484-.0067.964.095 1.404.2977.425.2018.794.5037 1.076.8799.318.4335.55.9238.684 1.4444.169.6469.25 1.3137.24 1.9822.005.6277-.084 1.2525-.267 1.8533-.16.538-.419 1.0414-.764 1.4843-.329.4155-.746.7525-1.222.9866-.508.2457-1.067.369-1.631.36-.49.0134-.977-.0807-1.427-.2756-.398-.1864-.753-.4526-1.044-.7821v3.9821zm4.008-10.9329c-.476-.0105-.945.1127-1.355.3555-.417.2641-.781.6049-1.071 1.0044v4.3554c.244.3515.573.6358.955.8266.365.1638.761.2457 1.16.24.836 0 1.479-.2992 1.929-.8977s.676-1.4518.676-2.5599c.008-.5081-.044-1.0153-.156-1.511-.082-.3708-.234-.7224-.449-1.0356-.182-.2586-.431-.4628-.72-.5911-.306-.1287-.636-.1923-.969-.1866z"/><path d="m152.493 18.2714c-.03.0609-.077.1119-.135.1466-.059.0347-.126.0517-.194.0489-.107-.0056-.211-.0393-.302-.0977-.112-.0652-.25-.1378-.413-.2179-.188-.0895-.383-.1638-.582-.2222-.261-.0727-.53-.1072-.8-.1022-.244-.0033-.487.0312-.72.1022-.198.06-.383.1548-.547.28-.144.1107-.263.2518-.347.4134-.08.1583-.121.3335-.12.511-.007.2107.065.4166.2.5778.149.166.329.3018.529.3999.24.1209.49.2206.747.2979.278.0858.564.1776.858.2754.293.0978.579.2059.857.3244.269.1126.52.2622.747.4445.22.1786.4.4011.529.6533.14.289.209.6076.2.9288.004.3947-.072.7862-.222 1.1511-.147.3511-.372.6641-.658.9155-.313.2705-.675.4773-1.067.6088-.47.1559-.962.2311-1.457.2223-.584.0082-1.163-.0959-1.707-.3067-.476-.1836-.915-.4499-1.298-.7867l.374-.6044c.042-.0714.099-.1322.169-.1777.078-.0448.167-.0664.257-.0623.123.0058.241.0492.338.1245.119.083.262.1749.431.2756.195.1124.4.2047.613.2755.292.0906.597.1326.903.1244.274.0052.547-.0354.809-.1199.212-.0692.408-.1794.577-.3244.149-.1288.266-.29.342-.4712.075-.1803.113-.3737.112-.5688.008-.2231-.063-.4419-.2-.6177-.147-.1734-.327-.3155-.529-.4178-.241-.1241-.492-.2253-.751-.3022-.282-.0858-.569-.1763-.863-.2712-.293-.0947-.58-.2028-.862-.3244-.271-.1151-.524-.2693-.751-.4577-.222-.1871-.402-.4188-.529-.6799-.141-.3077-.21-.6438-.2-.9822 0-.3418.073-.6798.214-.9912.144-.3202.357-.6052.622-.8354.295-.2532.636-.4478 1.004-.5734.438-.1488.898-.2209 1.36-.2133.545-.0085 1.086.0865 1.596.28.453.1753.868.4364 1.222.7689z"/></g></svg>