<svg width="139" height="46" viewBox="0 0 139 46" fill="none" xmlns="http://www.w3.org/2000/svg">
<g clip-path="url(#clip0)">
<g opacity="0.6">
<path opacity="0.6" d="M8.7112 27.4345C8.7112 27.3028 8.73718 27.1724 8.78763 27.0507C8.83809 26.929 8.91204 26.8185 9.00526 26.7254C9.09848 26.6323 9.20913 26.5585 9.33089 26.5083C9.45265 26.458 9.58313 26.4322 9.71486 26.4324H3.21973C3.48632 26.4324 3.742 26.5383 3.93051 26.7269C4.11902 26.9154 4.22493 27.171 4.22493 27.4376C4.22493 27.7042 4.11902 27.9599 3.93051 28.1484C3.742 28.3369 3.48632 28.4428 3.21973 28.4428H9.71486C9.58261 28.443 9.45162 28.4171 9.32946 28.3664C9.20729 28.3158 9.09636 28.2414 9.00306 28.1477C8.90976 28.054 8.83594 27.9427 8.78585 27.8203C8.73576 27.6979 8.71039 27.5668 8.7112 27.4345Z" fill="white"/>
</g>
<g opacity="0.8">
<path opacity="0.8" d="M9.92212 16.948C10.1887 16.948 10.4444 17.0539 10.6329 17.2424C10.8214 17.4309 10.9273 17.6866 10.9273 17.9532C10.9273 18.2198 10.8214 18.4755 10.6329 18.664C10.4444 18.8525 10.1887 18.9584 9.92212 18.9584H12.681C13.3511 18.2903 14.0213 17.6202 14.6914 16.948H9.92212Z" fill="white"/>
</g>
<g opacity="0.6">
<path opacity="0.6" d="M10.9258 17.9516C10.9254 17.6856 10.8195 17.4305 10.6314 17.2424C10.4432 17.0543 10.1882 16.9484 9.92214 16.948H9.71492C9.44832 16.948 9.19264 17.0539 9.00413 17.2424C8.81562 17.4309 8.70972 17.6866 8.70972 17.9532C8.70972 18.2198 8.81562 18.4755 9.00413 18.664C9.19264 18.8525 9.44832 18.9584 9.71492 18.9584H9.92214C10.0542 18.9584 10.185 18.9323 10.3069 18.8817C10.4289 18.8311 10.5397 18.7569 10.6329 18.6633C10.7262 18.5698 10.8 18.4588 10.8503 18.3367C10.9005 18.2146 10.9262 18.0837 10.9258 17.9516Z" fill="white"/>
</g>
<g opacity="0.8">
<path opacity="0.8" d="M10.9258 17.9516C10.9254 17.6856 10.8195 17.4305 10.6314 17.2424C10.4432 17.0543 10.1882 16.9484 9.92214 16.948H9.71492C9.44832 16.948 9.19264 17.0539 9.00413 17.2424C8.81562 17.4309 8.70972 17.6866 8.70972 17.9532C8.70972 18.2198 8.81562 18.4755 9.00413 18.664C9.19264 18.8525 9.44832 18.9584 9.71492 18.9584H9.92214C10.0542 18.9584 10.185 18.9323 10.3069 18.8817C10.4289 18.8311 10.5397 18.7569 10.6329 18.6633C10.7262 18.5698 10.8 18.4588 10.8503 18.3367C10.9005 18.2146 10.9262 18.0837 10.9258 17.9516Z" fill="white"/>
</g>
<g opacity="0.9">
<path opacity="0.9" d="M14.3141 14.6995C14.3141 14.4337 14.2085 14.1788 14.0206 13.9909C13.8326 13.8029 13.5778 13.6974 13.312 13.6974H2.02283C1.71688 14.3533 1.44436 15.0243 1.2063 15.7078H13.312C13.4441 15.7078 13.5749 15.6816 13.6969 15.6309C13.8189 15.5801 13.9296 15.5058 14.0228 15.4121C14.1159 15.3184 14.1896 15.2071 14.2396 15.0849C14.2896 14.9626 14.3149 14.8316 14.3141 14.6995Z" fill="white"/>
</g>
<g opacity="0.7">
<path opacity="0.7" d="M24.9907 13.6974C25.1454 13.852 25.3 14.0067 25.4469 14.1505C25.682 14.3855 25.9109 14.6237 26.1506 14.8587C26.3052 14.4659 26.4784 14.0778 26.6594 13.6974H24.9907Z" fill="white"/>
</g>
<g opacity="0.7">
<path opacity="0.7" d="M13.312 13.6974C13.5786 13.6974 13.8343 13.8033 14.0228 13.9918C14.2113 14.1803 14.3172 14.436 14.3172 14.7026C14.3172 14.9692 14.2113 15.2248 14.0228 15.4133C13.8343 15.6019 13.5786 15.7078 13.312 15.7078H15.941L17.9514 13.6974H13.312Z" fill="white"/>
</g>
<g opacity="0.5">
<path opacity="0.5" d="M6.0126 11.5864C6.01219 11.8521 5.90648 12.1067 5.71864 12.2946C5.5308 12.4824 5.27615 12.5881 5.0105 12.5885H13.1031C12.8365 12.5885 12.5808 12.4826 12.3923 12.2941C12.2038 12.1056 12.0979 11.8499 12.0979 11.5833C12.0979 11.3167 12.2038 11.0611 12.3923 10.8725C12.5808 10.684 12.8365 10.5781 13.1031 10.5781H5.0105C5.14262 10.5781 5.27344 10.6042 5.39542 10.655C5.51741 10.7057 5.62815 10.7801 5.72129 10.8738C5.81442 10.9675 5.88811 11.0787 5.93811 11.201C5.9881 11.3233 6.01342 11.4543 6.0126 11.5864Z" fill="white"/>
</g>
<g opacity="0.7">
<path opacity="0.7" d="M2.65366 12.4602C2.62891 12.5035 2.60572 12.5468 2.58252 12.5901H3.14698C2.97408 12.5901 2.80414 12.5453 2.65366 12.4602Z" fill="white"/>
</g>
<g opacity="0.5">
<path opacity="0.5" d="M5.01061 12.5885C5.27721 12.5885 5.53288 12.4826 5.7214 12.2941C5.90991 12.1056 6.01581 11.8499 6.01581 11.5833C6.01581 11.3167 5.90991 11.0611 5.7214 10.8725C5.53288 10.684 5.27721 10.5781 5.01061 10.5781H3.80437L3.75334 10.6508L3.59869 10.8951L3.46415 11.0993C3.41003 11.1812 3.35899 11.2648 3.30951 11.3483L3.18115 11.5539C3.12857 11.639 3.07754 11.7256 3.0265 11.8107L2.90588 12.0163C2.8533 12.106 2.80227 12.1973 2.75124 12.2885C2.72031 12.3442 2.68783 12.3983 2.65845 12.454C2.80893 12.5391 2.97888 12.5839 3.15177 12.5839L5.01061 12.5885Z" fill="white"/>
</g>
<g opacity="0.7">
<path opacity="0.7" d="M5.01061 12.5885C5.27721 12.5885 5.53288 12.4826 5.7214 12.2941C5.90991 12.1056 6.01581 11.8499 6.01581 11.5833C6.01581 11.3167 5.90991 11.0611 5.7214 10.8725C5.53288 10.684 5.27721 10.5781 5.01061 10.5781H3.80437L3.75334 10.6508L3.59869 10.8951L3.46415 11.0993C3.41003 11.1812 3.35899 11.2648 3.30951 11.3483L3.18115 11.5539C3.12857 11.639 3.07754 11.7256 3.0265 11.8107L2.90588 12.0163C2.8533 12.106 2.80227 12.1973 2.75124 12.2885C2.72031 12.3442 2.68783 12.3983 2.65845 12.454C2.80893 12.5391 2.97888 12.5839 3.15177 12.5839L5.01061 12.5885Z" fill="white"/>
</g>
<path d="M27.2192 12.5885C27.5949 11.8965 28.0079 11.2254 28.4564 10.5781H21.8298C22.5041 11.2493 23.1825 11.9194 23.865 12.5885H27.2192Z" fill="white"/>
<path d="M12.1011 11.5864C12.1011 11.8523 12.2066 12.1074 12.3945 12.2956C12.5824 12.4837 12.8373 12.5897 13.1032 12.5901H19.0462L21.0566 10.5797H13.1047C12.9726 10.5795 12.8418 10.6054 12.7197 10.656C12.5976 10.7065 12.4868 10.7807 12.3935 10.8743C12.3002 10.9678 12.2264 11.0789 12.1762 11.2012C12.126 11.3234 12.1005 11.4543 12.1011 11.5864Z" fill="white"/>
<g opacity="0.5">
<path opacity="0.5" d="M23.896 7.33057C24.1626 7.33057 24.4183 7.43647 24.6068 7.62498C24.7953 7.81349 24.9012 8.06917 24.9012 8.33577C24.9012 8.60236 24.7953 8.85804 24.6068 9.04655C24.4183 9.23506 24.1626 9.34096 23.896 9.34096H29.389C29.9579 8.63378 30.57 7.96237 31.2216 7.33057H23.896Z" fill="white"/>
</g>
<g opacity="0.7">
<path opacity="0.7" d="M14.3141 5.22274C14.3141 4.95655 14.4198 4.70127 14.608 4.51305C14.7963 4.32483 15.0515 4.21909 15.3177 4.21909H10.5995L10.5051 4.27476L10.3505 4.36909L10.0845 4.53456L9.92986 4.63044L9.64685 4.81756L9.52468 4.89798C9.39169 4.98768 9.26024 5.07892 9.12879 5.1717L9.07621 5.21191L8.73908 5.45625L8.60918 5.55523L8.35247 5.75162L8.21174 5.86297C8.12978 5.92792 8.04781 5.99287 7.9674 6.05937L7.83131 6.17072L7.76636 6.22484H15.3131C15.048 6.22362 14.7941 6.11755 14.6069 5.92979C14.4198 5.74204 14.3145 5.48785 14.3141 5.22274Z" fill="white"/>
</g>
<g opacity="0.6">
<path opacity="0.6" d="M33.8349 4.89798L33.7128 4.81756C33.62 4.75416 33.5256 4.69075 33.4298 4.63044L33.2751 4.53456L33.0076 4.36909L32.8529 4.27476L32.7586 4.21909H15.3872C15.6538 4.21909 15.9095 4.32499 16.098 4.5135C16.2865 4.70201 16.3924 4.95769 16.3924 5.22428C16.3924 5.49088 16.2865 5.74656 16.098 5.93507C15.9095 6.12358 15.6538 6.22948 15.3872 6.22948H32.4555C32.9607 5.80885 33.4859 5.41192 34.0313 5.03871L33.8349 4.89798Z" fill="white"/>
</g>
<g opacity="0.8">
<path opacity="0.8" d="M16.3909 5.22274C16.3909 4.95655 16.2852 4.70127 16.097 4.51305C15.9088 4.32483 15.6535 4.21909 15.3873 4.21909H15.3177C15.1857 4.21909 15.055 4.24509 14.933 4.2956C14.8111 4.34612 14.7003 4.42016 14.6069 4.5135C14.5136 4.60684 14.4395 4.71766 14.389 4.83961C14.3385 4.96157 14.3125 5.09228 14.3125 5.22428C14.3125 5.35629 14.3385 5.487 14.389 5.60896C14.4395 5.73091 14.5136 5.84173 14.6069 5.93507C14.7003 6.02841 14.8111 6.10245 14.933 6.15297C15.055 6.20348 15.1857 6.22948 15.3177 6.22948H15.3873C15.5194 6.22948 15.6501 6.20342 15.7721 6.15279C15.8941 6.10216 16.0048 6.02795 16.0981 5.93443C16.1913 5.8409 16.2652 5.72989 16.3154 5.60777C16.3657 5.48564 16.3914 5.3548 16.3909 5.22274Z" fill="white"/>
</g>
<path d="M21.6829 1.17565C18.703 1.17145 15.7545 1.78379 13.0227 2.97418H30.3353C27.6059 1.78479 24.6602 1.17247 21.6829 1.17565Z" fill="white"/>
<g opacity="0.7">
<path opacity="0.7" d="M3.48877 20.061C3.75536 20.061 4.01104 20.1669 4.19955 20.3554C4.38806 20.544 4.49397 20.7996 4.49397 21.0662C4.49397 21.3328 4.38806 21.5885 4.19955 21.777C4.01104 21.9655 3.75536 22.0714 3.48877 22.0714H9.56635L11.5768 20.061H3.48877Z" fill="white"/>
</g>
<path d="M4.49097 21.0647C4.49097 20.7988 4.38544 20.5437 4.19755 20.3555C4.00966 20.1674 3.75478 20.0614 3.48886 20.061H3.427C3.6936 20.061 3.94927 20.1669 4.13778 20.3554C4.3263 20.544 4.4322 20.7996 4.4322 21.0662C4.4322 21.3328 4.3263 21.5885 4.13778 21.777C3.94927 21.9655 3.6936 22.0714 3.427 22.0714H3.49659C3.76183 22.0694 4.01544 21.9623 4.20183 21.7736C4.38823 21.5848 4.4922 21.3299 4.49097 21.0647Z" fill="white"/>
<g opacity="0.9">
<path opacity="0.9" d="M18.2621 23.2436H0C0.0108252 23.921 0.054126 24.589 0.125263 25.254H18.3611C18.3271 24.5999 18.3054 23.9442 18.2668 23.29L18.2621 23.2436Z" fill="white"/>
</g>
<g opacity="0.8">
<path opacity="0.8" d="M18.4416 26.4262H9.71492C9.44832 26.4262 9.19264 26.5321 9.00413 26.7207C8.81562 26.9092 8.70972 27.1648 8.70972 27.4314C8.70972 27.698 8.81562 27.9537 9.00413 28.1422C9.19264 28.3307 9.44832 28.4366 9.71492 28.4366H18.7277C18.6426 27.9882 18.573 27.535 18.5112 27.0804C18.4833 26.8592 18.4617 26.6427 18.4416 26.4262Z" fill="white"/>
</g>
<g opacity="0.6">
<path opacity="0.6" d="M2.13871 27.4345C2.13912 27.1686 2.24504 26.9137 2.43322 26.7259C2.6214 26.538 2.87644 26.4324 3.14236 26.4324H0.287598L0.310794 26.5778C0.326259 26.6582 0.340177 26.7324 0.354095 26.8206C0.368014 26.9087 0.389664 27.0046 0.408221 27.0974C0.426779 27.1902 0.439151 27.2521 0.456162 27.3402L0.516474 27.6139C0.535031 27.6928 0.552042 27.7686 0.570599 27.8536C0.589157 27.9387 0.615447 28.0361 0.638644 28.1289C0.661841 28.2217 0.677305 28.2835 0.697409 28.3609C0.697409 28.3872 0.711327 28.4119 0.717513 28.4382H3.14236C2.87618 28.4382 2.62089 28.3325 2.43267 28.1442C2.24445 27.956 2.13871 27.7007 2.13871 27.4345Z" fill="white"/>
</g>
<g opacity="0.9">
<path opacity="0.9" d="M4.2141 27.4345C4.2141 27.3029 4.18818 27.1726 4.13782 27.0511C4.08746 26.9295 4.01365 26.819 3.92059 26.7259C3.82754 26.6329 3.71707 26.5591 3.59549 26.5087C3.4739 26.4584 3.34359 26.4324 3.212 26.4324H3.14241C2.87581 26.4324 2.62013 26.5383 2.43162 26.7269C2.24311 26.9154 2.13721 27.171 2.13721 27.4376C2.13721 27.7042 2.24311 27.9599 2.43162 28.1484C2.62013 28.3369 2.87581 28.4428 3.14241 28.4428H3.212C3.34412 28.4428 3.47493 28.4167 3.59692 28.366C3.71891 28.3152 3.82965 28.2409 3.92279 28.1471C4.01592 28.0534 4.08961 27.9422 4.1396 27.8199C4.1896 27.6976 4.21492 27.5667 4.2141 27.4345Z" fill="white"/>
</g>
<g opacity="0.7">
<path opacity="0.7" d="M13.5888 29.6073C13.614 29.6058 13.6393 29.6058 13.6646 29.6073C13.6815 29.6058 13.6986 29.6058 13.7156 29.6073C13.8388 29.622 13.958 29.6604 14.0666 29.7202C14.1217 29.751 14.1736 29.7872 14.2213 29.8285C14.2499 29.8506 14.2768 29.8749 14.3017 29.9012C14.4175 30.0184 14.502 30.1627 14.5477 30.321C14.5933 30.4793 14.5986 30.6465 14.5631 30.8074C14.5332 30.9586 14.468 31.1006 14.3728 31.2218C14.3266 31.2784 14.2747 31.3302 14.2182 31.3765C14.1704 31.4172 14.1186 31.4529 14.0635 31.4832C14.0243 31.5049 13.9835 31.5235 13.9414 31.5389C13.8278 31.5824 13.7073 31.605 13.5857 31.6054H19.5427C19.5179 31.528 19.4963 31.4507 19.4715 31.3718C19.2875 30.7857 19.1189 30.195 18.9751 29.5981L13.5888 29.6073Z" fill="white"/>
</g>
<g opacity="0.6">
<path opacity="0.6" d="M14.5616 30.8167C14.5317 30.9678 14.4665 31.1099 14.3713 31.2311C14.4665 31.1099 14.5317 30.9678 14.5616 30.8167Z" fill="white"/>
</g>
<g opacity="0.6">
<path opacity="0.6" d="M13.5888 31.61C13.3222 31.61 13.0666 31.5041 12.878 31.3156C12.6895 31.127 12.5836 30.8714 12.5836 30.6048C12.5836 30.3382 12.6895 30.0825 12.878 29.894C13.0666 29.7055 13.3222 29.5996 13.5888 29.5996H1.0625C1.07333 29.6351 1.08415 29.6692 1.09652 29.7047L1.18467 29.9645L1.27127 30.2104C1.3022 30.2955 1.33468 30.3821 1.36715 30.4671C1.39963 30.5522 1.42746 30.6218 1.45839 30.7084L1.56046 30.9651L1.65789 31.2033L1.76459 31.4553C1.78624 31.5064 1.80944 31.5559 1.83109 31.61H13.5842C13.7058 31.6096 13.8263 31.587 13.9399 31.5435C13.8278 31.5865 13.7089 31.609 13.5888 31.61Z" fill="white"/>
</g>
<g opacity="0.7">
<path opacity="0.7" d="M20.0343 33.0018H2.49902L2.54696 33.0946C2.59954 33.192 2.65367 33.2894 2.70161 33.3869L2.81141 33.5833C2.86863 33.6853 2.92739 33.7859 2.9877 33.8926L3.09286 34.0704C3.16245 34.1848 3.23205 34.2977 3.30318 34.4091L3.38669 34.5436C3.48566 34.6983 3.58773 34.8529 3.69598 35.0076V35.0153H20.8818C20.6684 34.5575 20.4663 34.0936 20.2756 33.6235C20.1936 33.4085 20.1132 33.2044 20.0343 33.0018Z" fill="white"/>
</g>
<g opacity="0.6">
<path opacity="0.6" d="M12.1011 37.1772C12.1011 36.911 12.2068 36.6558 12.395 36.4675C12.5833 36.2793 12.8385 36.1736 13.1047 36.1736H4.56519L4.58838 36.2045C4.7121 36.3633 4.83891 36.521 4.96881 36.6777C4.99355 36.7087 5.01984 36.738 5.04459 36.7674C5.14975 36.8942 5.258 37.0195 5.36625 37.1432L5.49461 37.287C5.59049 37.3968 5.68946 37.5051 5.78843 37.6118C5.83174 37.6566 5.87349 37.703 5.91524 37.7479C6.0436 37.8824 6.17196 38.0154 6.30186 38.1469L6.33434 38.1809H13.1047C12.8385 38.1809 12.5833 38.0751 12.395 37.8869C12.2068 37.6987 12.1011 37.4434 12.1011 37.1772Z" fill="white"/>
</g>
<g opacity="0.6">
<path opacity="0.6" d="M21.4618 36.1797H13.1109C12.8443 36.1797 12.5886 36.2857 12.4001 36.4742C12.2116 36.6627 12.1057 36.9184 12.1057 37.1849C12.1057 37.4515 12.2116 37.7072 12.4001 37.8957C12.5886 38.0842 12.8443 38.1901 13.1109 38.1901H22.6263C22.2077 37.5355 21.8195 36.8653 21.4618 36.1797Z" fill="white"/>
</g>
<g opacity="0.8">
<path opacity="0.8" d="M21.4618 36.1797H13.1109C12.8443 36.1797 12.5886 36.2857 12.4001 36.4742C12.2116 36.6627 12.1057 36.9184 12.1057 37.1849C12.1057 37.4515 12.2116 37.7072 12.4001 37.8957C12.5886 38.0842 12.8443 38.1901 13.1109 38.1901H22.6263C22.2077 37.5355 21.8195 36.8653 21.4618 36.1797Z" fill="white"/>
</g>
<g opacity="0.6">
<path opacity="0.6" d="M32.0117 39.3624C32.1865 39.517 32.3643 39.6717 32.5452 39.8263C32.9576 40.1789 33.3834 40.514 33.8226 40.8315L33.8752 40.7944C33.2374 40.35 32.6236 39.872 32.0365 39.3624H32.0117Z" fill="white"/>
</g>
<g opacity="0.6">
<path opacity="0.6" d="M18.9505 40.366C18.9503 40.2343 18.976 40.1038 19.0263 39.9821C19.0766 39.8603 19.1503 39.7497 19.2434 39.6564C19.3365 39.5632 19.447 39.4893 19.5687 39.4388C19.6904 39.3884 19.8208 39.3624 19.9526 39.3624H7.60254L7.80203 39.531L7.9041 39.616C8.02627 39.7165 8.14999 39.8155 8.2737 39.9145L8.3634 39.9825C8.45928 40.0583 8.55671 40.1372 8.65413 40.2068L8.79486 40.3104L9.04539 40.4928L9.20003 40.5996C9.28663 40.6599 9.37323 40.7217 9.46138 40.7805L9.59747 40.8733L9.95161 41.1068L9.998 41.1377C10.1202 41.2166 10.2439 41.2924 10.3692 41.3681H14.8338C14.6352 41.3681 14.4411 41.3092 14.276 41.1989C14.1109 41.0885 13.9823 40.9317 13.9064 40.7482C13.8305 40.5647 13.8107 40.3629 13.8495 40.1681C13.8884 39.9734 13.9841 39.7946 14.1246 39.6543C14.2652 39.514 14.4441 39.4185 14.6389 39.3799C14.8337 39.3414 15.0356 39.3615 15.2189 39.4377C15.4023 39.5139 15.5589 39.6428 15.669 39.808C15.7791 39.9733 15.8377 40.1675 15.8374 40.366C15.837 40.632 15.7311 40.8868 15.5429 41.0747C15.3548 41.2626 15.0997 41.3681 14.8338 41.3681H19.9526C19.821 41.3681 19.6907 41.3422 19.5691 41.2919C19.4475 41.2415 19.337 41.1677 19.244 41.0746C19.1509 40.9816 19.0771 40.8711 19.0267 40.7495C18.9764 40.6279 18.9505 40.4976 18.9505 40.366Z" fill="white"/>
</g>
<g opacity="0.6">
<path opacity="0.6" d="M15.8374 40.366C15.8377 40.1675 15.7791 39.9733 15.669 39.808C15.5589 39.6428 15.4022 39.5139 15.2189 39.4377C15.0355 39.3615 14.8337 39.3414 14.6389 39.3799C14.4441 39.4185 14.2651 39.514 14.1246 39.6543C13.9841 39.7946 13.8883 39.9734 13.8495 40.1681C13.8106 40.3629 13.8304 40.5647 13.9063 40.7482C13.9822 40.9317 14.1109 41.0885 14.276 41.1989C14.4411 41.3092 14.6352 41.3681 14.8337 41.3681C15.0996 41.3681 15.3547 41.2626 15.5429 41.0747C15.731 40.8868 15.837 40.632 15.8374 40.366Z" fill="white"/>
</g>
<g opacity="0.8">
<path opacity="0.8" d="M15.8374 40.366C15.8377 40.1675 15.7791 39.9733 15.669 39.808C15.5589 39.6428 15.4022 39.5139 15.2189 39.4377C15.0355 39.3615 14.8337 39.3414 14.6389 39.3799C14.4441 39.4185 14.2651 39.514 14.1246 39.6543C13.9841 39.7946 13.8883 39.9734 13.8495 40.1681C13.8106 40.3629 13.8304 40.5647 13.9063 40.7482C13.9822 40.9317 14.1109 41.0885 14.276 41.1989C14.4411 41.3092 14.6352 41.3681 14.8337 41.3681C15.0996 41.3681 15.3547 41.2626 15.5429 41.0747C15.731 40.8868 15.837 40.632 15.8374 40.366Z" fill="white"/>
</g>
<g opacity="0.6">
<path opacity="0.6" d="M23.415 39.3624H19.9525C19.6859 39.3624 19.4302 39.4683 19.2417 39.6568C19.0532 39.8453 18.9473 40.101 18.9473 40.3676C18.9473 40.6342 19.0532 40.8899 19.2417 41.0784C19.4302 41.2669 19.6859 41.3728 19.9525 41.3728H25.0156C24.8609 41.1996 24.7089 41.0238 24.5594 40.8455C24.4047 40.6692 24.2624 40.4882 24.1186 40.3057C23.8758 39.9934 23.6423 39.6794 23.415 39.3624Z" fill="white"/>
</g>
<g opacity="0.8">
<path opacity="0.8" d="M23.415 39.3624H19.9525C19.6859 39.3624 19.4302 39.4683 19.2417 39.6568C19.0532 39.8453 18.9473 40.101 18.9473 40.3676C18.9473 40.6342 19.0532 40.8899 19.2417 41.0784C19.4302 41.2669 19.6859 41.3728 19.9525 41.3728H25.0156C24.8609 41.1996 24.7089 41.0238 24.5594 40.8455C24.4047 40.6692 24.2624 40.4882 24.1186 40.3057C23.8758 39.9934 23.6423 39.6794 23.415 39.3624Z" fill="white"/>
</g>
<path d="M26.3424 42.8218H13.1836C17.6394 44.7143 22.5988 45.0679 27.278 43.827L27.2486 43.8007C27.1806 43.7311 27.1064 43.6631 27.0414 43.5904C26.8115 43.3296 26.5785 43.0734 26.3424 42.8218Z" fill="white"/>
<path d="M4.42294 21.0647C4.42255 20.8 4.31774 20.5461 4.13127 20.3582C3.94481 20.1702 3.69174 20.0635 3.42702 20.061H0.179458C0.178825 20.0677 0.178825 20.0745 0.179458 20.0811C0.171726 20.1353 0.167086 20.1894 0.1609 20.2358C0.145436 20.3564 0.131518 20.477 0.119146 20.5992C0.119146 20.6642 0.106774 20.7307 0.100589 20.7971C0.0897634 20.9054 0.0804846 21.0152 0.0712058 21.125C0.0712058 21.1977 0.0603808 21.2688 0.0557414 21.34C0.0557414 21.4451 0.0418231 21.5503 0.0356373 21.6492C0.0356373 21.725 0.027905 21.8039 0.0248121 21.875C0.0217192 21.9462 0.0248121 21.9957 0.0248121 22.0544H3.42702C3.68947 22.0524 3.9407 21.9477 4.12686 21.7627C4.31302 21.5777 4.41931 21.3271 4.42294 21.0647Z" fill="white"/>
<g opacity="0.8">
<path opacity="0.8" d="M4.42294 21.0647C4.42255 20.8 4.31774 20.5461 4.13127 20.3582C3.94481 20.1702 3.69174 20.0635 3.42702 20.061H0.179458C0.178825 20.0677 0.178825 20.0745 0.179458 20.0811C0.171726 20.1353 0.167086 20.1894 0.1609 20.2358C0.145436 20.3564 0.131518 20.477 0.119146 20.5992C0.119146 20.6642 0.106774 20.7307 0.100589 20.7971C0.0897634 20.9054 0.0804846 21.0152 0.0712058 21.125C0.0712058 21.1977 0.0603808 21.2688 0.0557414 21.34C0.0557414 21.4451 0.0418231 21.5503 0.0356373 21.6492C0.0356373 21.725 0.027905 21.8039 0.0248121 21.875C0.0217192 21.9462 0.0248121 21.9957 0.0248121 22.0544H3.42702C3.68947 22.0524 3.9407 21.9477 4.12686 21.7627C4.31302 21.5777 4.41931 21.3271 4.42294 21.0647Z" fill="white"/>
</g>
<g opacity="0.7">
<path opacity="0.7" d="M13.5886 29.6073C13.6139 29.6058 13.6392 29.6058 13.6644 29.6073C13.6392 29.6058 13.6139 29.6058 13.5886 29.6073Z" fill="white"/>
</g>
<g opacity="0.8">
<path opacity="0.8" d="M13.5886 29.6073C13.6139 29.6058 13.6392 29.6058 13.6644 29.6073C13.6392 29.6058 13.6139 29.6058 13.5886 29.6073Z" fill="white"/>
</g>
<g opacity="0.6">
<path opacity="0.6" d="M12.5852 30.611C12.5848 30.7734 12.6239 30.9335 12.6992 31.0774C12.7745 31.2213 12.8837 31.3447 13.0174 31.437C13.1511 31.5292 13.3052 31.5876 13.4665 31.6069C13.6277 31.6263 13.7913 31.6061 13.943 31.5481C13.9851 31.5327 14.0259 31.5141 14.0652 31.4924C14.1202 31.4622 14.172 31.4264 14.2198 31.3857C14.2764 31.3394 14.3282 31.2876 14.3745 31.2311C14.4696 31.1098 14.5348 30.9678 14.5647 30.8166C14.6002 30.6558 14.595 30.4886 14.5493 30.3303C14.5036 30.172 14.4191 30.0276 14.3033 29.9104C14.2784 29.8842 14.2515 29.8599 14.2229 29.8377C14.1752 29.7965 14.1234 29.7602 14.0683 29.7295C13.9596 29.6696 13.8404 29.6313 13.7172 29.6166C13.7002 29.615 13.6832 29.615 13.6662 29.6166C13.6409 29.615 13.6156 29.615 13.5904 29.6166C13.3257 29.6166 13.0716 29.721 12.8834 29.9072C12.6952 30.0933 12.5881 30.3462 12.5852 30.611Z" fill="white"/>
</g>
<g opacity="0.8">
<path opacity="0.8" d="M12.5852 30.611C12.5848 30.7734 12.6239 30.9335 12.6992 31.0774C12.7745 31.2213 12.8837 31.3447 13.0174 31.437C13.1511 31.5292 13.3052 31.5876 13.4665 31.6069C13.6277 31.6263 13.7913 31.6061 13.943 31.5481C13.9851 31.5327 14.0259 31.5141 14.0652 31.4924C14.1202 31.4622 14.172 31.4264 14.2198 31.3857C14.2764 31.3394 14.3282 31.2876 14.3745 31.2311C14.4696 31.1098 14.5348 30.9678 14.5647 30.8166C14.6002 30.6558 14.595 30.4886 14.5493 30.3303C14.5036 30.172 14.4191 30.0276 14.3033 29.9104C14.2784 29.8842 14.2515 29.8599 14.2229 29.8377C14.1752 29.7965 14.1234 29.7602 14.0683 29.7295C13.9596 29.6696 13.8404 29.6313 13.7172 29.6166C13.7002 29.615 13.6832 29.615 13.6662 29.6166C13.6409 29.615 13.6156 29.615 13.5904 29.6166C13.3257 29.6166 13.0716 29.721 12.8834 29.9072C12.6952 30.0933 12.5881 30.3462 12.5852 30.611Z" fill="white"/>
</g>
<g opacity="0.7">
<path opacity="0.7" d="M14.5908 30.611C14.5902 30.6801 14.5825 30.7491 14.5676 30.8166C14.5825 30.7491 14.5902 30.6801 14.5908 30.611Z" fill="white"/>
</g>
<g opacity="0.6">
<path opacity="0.6" d="M14.5908 30.611C14.5902 30.6801 14.5825 30.7491 14.5676 30.8166C14.5825 30.7491 14.5902 30.6801 14.5908 30.611Z" fill="white"/>
</g>
<g opacity="0.6">
<path opacity="0.6" d="M14.5908 30.611C14.5902 30.6801 14.5825 30.7491 14.5676 30.8166C14.5825 30.7491 14.5902 30.6801 14.5908 30.611Z" fill="white"/>
</g>
<g opacity="0.8">
<path opacity="0.8" d="M14.5908 30.611C14.5902 30.6801 14.5825 30.7491 14.5676 30.8166C14.5825 30.7491 14.5902 30.6801 14.5908 30.611Z" fill="white"/>
</g>
<g opacity="0.9">
<path opacity="0.9" d="M24.8995 8.33578C24.8995 8.20397 24.8735 8.07346 24.8231 7.9517C24.7726 7.82993 24.6987 7.71928 24.6055 7.62609C24.5123 7.53289 24.4017 7.45896 24.2799 7.40852C24.1581 7.35808 24.0276 7.33212 23.8958 7.33212H6.54609L6.47032 7.40635C6.36361 7.51151 6.25845 7.61822 6.15329 7.72647L6.03267 7.84864C5.89194 8.00329 5.75121 8.14556 5.61513 8.29557L5.55636 8.36207C5.43883 8.49197 5.32284 8.62496 5.20841 8.75796L5.08469 8.9126C4.99036 9.0255 4.89602 9.13994 4.80323 9.25437L4.729 9.34561H23.8958C24.0281 9.34562 24.1592 9.31945 24.2813 9.26863C24.4035 9.2178 24.5144 9.14332 24.6077 9.04947C24.701 8.95561 24.7748 8.84424 24.8249 8.72176C24.8749 8.59927 24.9003 8.4681 24.8995 8.33578Z" fill="white"/>
</g>
<path d="M26.6594 13.6973C26.4785 14.0778 26.3099 14.4706 26.1506 14.8587C28.8013 17.5228 31.4483 20.1909 34.0917 22.8632H34.2108C37.0851 22.8632 39.96 22.8668 42.8354 22.874H43.3751C43.2885 21.9879 43.2297 21.1466 43.1199 20.3115C43.0148 19.5151 42.874 18.7326 42.6931 17.9625C42.16 15.6446 41.2499 13.43 39.9992 11.407C38.9227 9.66491 37.6101 8.08021 36.099 6.69806C35.8825 6.50011 35.6629 6.30526 35.4371 6.1135C34.9856 5.73101 34.5216 5.37017 34.0453 5.03098L34.0298 5.0418C33.4855 5.41604 32.9602 5.81297 32.454 6.23257C32.0272 6.58671 31.6174 6.95632 31.2168 7.33984C30.5652 7.97164 29.9532 8.64305 29.3843 9.35023C29.0595 9.75438 28.7502 10.1699 28.4564 10.5967C28.0079 11.2439 27.5949 11.9151 27.2192 12.6071C27.0213 12.9519 26.8357 13.3215 26.6594 13.6973Z" fill="white"/>
<g opacity="0.6">
<path opacity="0.6" d="M8.71123 17.9516C8.71123 17.6855 8.81698 17.4302 9.0052 17.242C9.19342 17.0537 9.4487 16.948 9.71489 16.948H0.81192C0.71707 17.281 0.630468 17.6166 0.552114 17.9547C0.539743 18.0073 0.528917 18.0599 0.518092 18.1094C0.491802 18.2285 0.463966 18.3475 0.439223 18.4666C0.425305 18.5347 0.412933 18.6027 0.400561 18.6708C0.382004 18.7651 0.363447 18.8579 0.346436 18.9507H9.71489C9.44938 18.9511 9.19456 18.8461 9.00638 18.6588C8.81821 18.4715 8.71205 18.2172 8.71123 17.9516Z" fill="white"/>
</g>
<path d="M46.3413 1.21742C44.3879 1.21501 42.4431 1.47508 40.5591 1.99065L40.7338 2.1453C40.8019 2.21489 40.8761 2.28293 40.941 2.35562C41.9215 3.43814 42.9592 4.48973 43.8639 5.63875C45.4543 7.67557 46.7481 9.92742 47.7068 12.3272C48.5746 14.4214 49.1677 16.6191 49.4713 18.8656C49.626 20.1183 49.6399 21.391 49.7157 22.6544C49.7157 22.7163 49.7311 22.7766 49.7466 22.8926H59.3346C59.2125 23.0472 59.1599 23.1308 59.0918 23.2019C54.9968 27.2938 50.9023 31.3868 46.8083 35.4808C46.6104 35.6787 46.4882 35.6973 46.2794 35.4808C45.0423 34.2436 43.7742 33.0281 42.537 31.7847C39.6503 28.8867 36.7687 25.9824 33.8923 23.072H33.7732C30.8978 23.072 28.023 23.0689 25.1486 23.0627H24.6135C24.7001 23.9473 24.7589 24.7886 24.8687 25.6236C25.4583 30.4658 27.6389 34.9751 31.0684 38.4438C31.3777 38.7531 31.7102 39.0624 32.0458 39.3531C32.6318 39.8642 33.2446 40.3438 33.8815 40.7898C36.681 42.7506 39.9032 44.0241 43.2868 44.5072C46.6705 44.9902 50.1203 44.6692 53.3567 43.5701C56.5931 42.471 59.525 40.6247 61.9147 38.181C64.3043 35.7373 66.0846 32.7649 67.1111 29.5048C68.1376 26.2446 68.3814 22.7885 67.8229 19.4165C67.2644 16.0445 65.9191 12.8516 63.8962 10.0965C61.8734 7.34149 59.2298 5.10187 56.1798 3.55921C53.1298 2.01655 49.7592 1.21428 46.3413 1.21742Z" fill="white"/>
</g>
<path d="M91.5138 9.85029C90.8435 10.2 90.1441 10.4526 89.4155 10.608C88.6869 10.7634 87.9438 10.8411 87.1861 10.8411C86.3798 10.8411 85.6366 10.7149 84.9566 10.4623C84.2766 10.2097 83.6889 9.85029 83.1935 9.384C82.6981 8.908 82.3095 8.33486 82.0278 7.66457C81.7558 6.99429 81.6198 6.24629 81.6198 5.42057C81.6198 4.59486 81.7558 3.84686 82.0278 3.17657C82.3095 2.50629 82.6981 1.938 83.1935 1.47171C83.6889 0.995714 84.2766 0.631428 84.9566 0.378857C85.6366 0.126286 86.3798 0 87.1861 0C88.0118 0 88.7695 0.102 89.4592 0.306C90.1586 0.500285 90.7706 0.840285 91.2952 1.326L89.6924 3.07457C89.3815 2.754 89.0318 2.51114 88.6432 2.346C88.2546 2.18086 87.7689 2.09829 87.1861 2.09829C86.7004 2.09829 86.2584 2.18086 85.8601 2.346C85.4715 2.51114 85.1364 2.74429 84.8546 3.04543C84.5729 3.33686 84.3544 3.68657 84.1989 4.09457C84.0532 4.50257 83.9804 4.94457 83.9804 5.42057C83.9804 5.90629 84.0532 6.35314 84.1989 6.76114C84.3544 7.15943 84.5729 7.50914 84.8546 7.81029C85.1364 8.10172 85.4715 8.33 85.8601 8.49514C86.2584 8.66029 86.7004 8.74286 87.1861 8.74286C87.6815 8.74286 88.1089 8.68943 88.4684 8.58257C88.8278 8.466 89.1144 8.34943 89.3281 8.23286V6.55714H87.4775V4.45886H91.5138V9.85029Z" fill="white"/>
<path d="M93.267 3.49714H95.4527V10.5789H93.267V3.49714ZM93.0922 1.26771C93.0922 0.918 93.2136 0.621714 93.4565 0.378857C93.709 0.126286 94.0102 0 94.3599 0C94.7096 0 95.0059 0.126286 95.2487 0.378857C95.5013 0.621714 95.6276 0.918 95.6276 1.26771C95.6276 1.61743 95.5013 1.91857 95.2487 2.17114C95.0059 2.414 94.7096 2.53543 94.3599 2.53543C94.0102 2.53543 93.709 2.414 93.4565 2.17114C93.2136 1.91857 93.0922 1.61743 93.0922 1.26771Z" fill="white"/>
<path d="M101.846 5.24571H99.9228V7.60629C99.9228 7.80057 99.9325 7.98029 99.9519 8.14543C99.9713 8.30086 100.015 8.43686 100.083 8.55343C100.151 8.67 100.253 8.76229 100.389 8.83029C100.535 8.88857 100.724 8.91772 100.957 8.91772C101.074 8.91772 101.224 8.908 101.409 8.88857C101.603 8.85943 101.749 8.80114 101.846 8.71372V10.5351C101.603 10.6226 101.351 10.6809 101.088 10.71C100.826 10.7391 100.569 10.7537 100.316 10.7537C99.947 10.7537 99.607 10.7149 99.2962 10.6371C98.9853 10.5594 98.7133 10.438 98.4802 10.2729C98.247 10.098 98.0625 9.87457 97.9265 9.60257C97.8002 9.33057 97.737 9.00029 97.737 8.61172V5.24571H96.3382V3.49714H97.737V1.39886H99.9228V3.49714H101.846V5.24571Z" fill="white"/>
<path d="M102.68 5.42057C102.68 4.59486 102.816 3.84686 103.088 3.17657C103.37 2.50629 103.758 1.938 104.254 1.47171C104.749 0.995714 105.337 0.631428 106.017 0.378857C106.697 0.126286 107.44 0 108.246 0C109.053 0 109.796 0.126286 110.476 0.378857C111.156 0.631428 111.743 0.995714 112.239 1.47171C112.734 1.938 113.118 2.50629 113.39 3.17657C113.672 3.84686 113.813 4.59486 113.813 5.42057C113.813 6.24629 113.672 6.99429 113.39 7.66457C113.118 8.33486 112.734 8.908 112.239 9.384C111.743 9.85029 111.156 10.2097 110.476 10.4623C109.796 10.7149 109.053 10.8411 108.246 10.8411C107.44 10.8411 106.697 10.7149 106.017 10.4623C105.337 10.2097 104.749 9.85029 104.254 9.384C103.758 8.908 103.37 8.33486 103.088 7.66457C102.816 6.99429 102.68 6.24629 102.68 5.42057ZM105.041 5.42057C105.041 5.90629 105.113 6.35314 105.259 6.76114C105.415 7.15943 105.633 7.50914 105.915 7.81029C106.197 8.10172 106.532 8.33 106.92 8.49514C107.319 8.66029 107.761 8.74286 108.246 8.74286C108.732 8.74286 109.169 8.66029 109.558 8.49514C109.956 8.33 110.296 8.10172 110.578 7.81029C110.859 7.50914 111.073 7.15943 111.219 6.76114C111.374 6.35314 111.452 5.90629 111.452 5.42057C111.452 4.94457 111.374 4.50257 111.219 4.09457C111.073 3.68657 110.859 3.33686 110.578 3.04543C110.296 2.74429 109.956 2.51114 109.558 2.346C109.169 2.18086 108.732 2.09829 108.246 2.09829C107.761 2.09829 107.319 2.18086 106.92 2.346C106.532 2.51114 106.197 2.74429 105.915 3.04543C105.633 3.33686 105.415 3.68657 105.259 4.09457C105.113 4.50257 105.041 4.94457 105.041 5.42057Z" fill="white"/>
<path d="M115.285 3.49714H117.296V4.42971H117.325C117.412 4.30343 117.524 4.17714 117.66 4.05086C117.806 3.91486 117.971 3.79343 118.155 3.68657C118.35 3.57971 118.559 3.49229 118.782 3.42429C119.005 3.35629 119.243 3.32229 119.496 3.32229C120.021 3.32229 120.497 3.41457 120.924 3.59914C121.351 3.774 121.716 4.02657 122.017 4.35686C122.328 4.67743 122.566 5.06114 122.731 5.508C122.896 5.95486 122.979 6.44543 122.979 6.97972C122.979 7.47514 122.901 7.95114 122.745 8.40771C122.6 8.85457 122.386 9.25286 122.104 9.60257C121.832 9.95229 121.497 10.234 121.099 10.4477C120.701 10.6517 120.249 10.7537 119.744 10.7537C119.287 10.7537 118.86 10.6857 118.461 10.5497C118.073 10.404 117.752 10.1611 117.5 9.82114H117.471V13.9011H115.285V3.49714ZM117.296 7.038C117.296 7.57229 117.446 8.00457 117.747 8.33486C118.058 8.66514 118.491 8.83029 119.044 8.83029C119.598 8.83029 120.025 8.66514 120.327 8.33486C120.637 8.00457 120.793 7.57229 120.793 7.038C120.793 6.50372 120.637 6.07143 120.327 5.74114C120.025 5.41086 119.598 5.24571 119.044 5.24571C118.491 5.24571 118.058 5.41086 117.747 5.74114C117.446 6.07143 117.296 6.50372 117.296 7.038Z" fill="white"/>
<path d="M128.266 5.58086C127.946 5.18257 127.523 4.98343 126.999 4.98343C126.814 4.98343 126.634 5.02714 126.459 5.11457C126.285 5.202 126.197 5.35257 126.197 5.56629C126.197 5.74114 126.285 5.87229 126.459 5.95971C126.644 6.03743 126.872 6.11029 127.144 6.17829C127.426 6.23657 127.722 6.30457 128.033 6.38229C128.354 6.45029 128.65 6.562 128.922 6.71743C129.204 6.87286 129.432 7.08657 129.607 7.35857C129.791 7.62086 129.884 7.97543 129.884 8.42229C129.884 8.87886 129.782 9.25772 129.578 9.55886C129.383 9.85029 129.131 10.0883 128.82 10.2729C128.509 10.4477 128.159 10.5691 127.771 10.6371C127.382 10.7149 126.999 10.7537 126.62 10.7537C126.124 10.7537 125.624 10.6857 125.119 10.5497C124.614 10.404 124.186 10.1514 123.837 9.792L125.163 8.32029C125.367 8.57286 125.59 8.76714 125.833 8.90314C126.085 9.02943 126.377 9.09257 126.707 9.09257C126.96 9.09257 127.188 9.05857 127.392 8.99057C127.596 8.91286 127.698 8.77686 127.698 8.58257C127.698 8.398 127.606 8.262 127.421 8.17457C127.246 8.07743 127.018 7.99971 126.736 7.94143C126.464 7.87343 126.168 7.80543 125.847 7.73743C125.537 7.65972 125.24 7.548 124.959 7.40229C124.687 7.25657 124.458 7.05257 124.274 6.79029C124.099 6.51829 124.011 6.15886 124.011 5.712C124.011 5.29429 124.094 4.93486 124.259 4.63371C124.434 4.33257 124.657 4.08486 124.929 3.89057C125.211 3.69629 125.532 3.55543 125.891 3.468C126.251 3.37086 126.615 3.32229 126.984 3.32229C127.45 3.32229 127.921 3.39029 128.397 3.52629C128.873 3.66229 129.277 3.90514 129.607 4.25486L128.266 5.58086Z" fill="white"/>
<path d="M81.0952 16.2623H83.5724L85.2189 22.8777H85.2481L87.4046 16.2623H89.5175L91.6595 23.0526H91.6886L93.4226 16.2623H95.7249L92.7086 26.5789H90.6832L88.4101 19.4389H88.3809L86.1078 26.5789H84.1552L81.0952 16.2623Z" fill="white"/>
<path d="M95.9496 23.038C95.9496 22.4746 96.0516 21.9646 96.2556 21.508C96.4597 21.0514 96.7365 20.6629 97.0862 20.3423C97.4457 20.012 97.8634 19.7594 98.3394 19.5846C98.8251 19.4097 99.3399 19.3223 99.8839 19.3223C100.428 19.3223 100.938 19.4097 101.414 19.5846C101.9 19.7594 102.317 20.012 102.667 20.3423C103.027 20.6629 103.308 21.0514 103.512 21.508C103.716 21.9646 103.818 22.4746 103.818 23.038C103.818 23.6014 103.716 24.1114 103.512 24.568C103.308 25.0246 103.027 25.418 102.667 25.7483C102.317 26.0689 101.9 26.3166 101.414 26.4914C100.938 26.6663 100.428 26.7537 99.8839 26.7537C99.3399 26.7537 98.8251 26.6663 98.3394 26.4914C97.8634 26.3166 97.4457 26.0689 97.0862 25.7483C96.7365 25.418 96.4597 25.0246 96.2556 24.568C96.0516 24.1114 95.9496 23.6014 95.9496 23.038ZM98.1354 23.038C98.1354 23.5723 98.2859 24.0046 98.5871 24.3349C98.8979 24.6651 99.3302 24.8303 99.8839 24.8303C100.438 24.8303 100.865 24.6651 101.166 24.3349C101.477 24.0046 101.633 23.5723 101.633 23.038C101.633 22.5037 101.477 22.0714 101.166 21.7411C100.865 21.4109 100.438 21.2457 99.8839 21.2457C99.3302 21.2457 98.8979 21.4109 98.5871 21.7411C98.2859 22.0714 98.1354 22.5037 98.1354 23.038Z" fill="white"/>
<path d="M105.106 19.4971H107.291V20.6337H107.32C107.554 20.1966 107.83 19.8711 108.151 19.6574C108.472 19.434 108.875 19.3223 109.36 19.3223C109.487 19.3223 109.613 19.3271 109.739 19.3369C109.866 19.3466 109.982 19.366 110.089 19.3951V21.3914C109.934 21.3429 109.778 21.3089 109.623 21.2894C109.477 21.2603 109.322 21.2457 109.156 21.2457C108.739 21.2457 108.408 21.304 108.166 21.4206C107.923 21.5371 107.733 21.7023 107.597 21.916C107.471 22.12 107.388 22.3677 107.35 22.6591C107.311 22.9506 107.291 23.2711 107.291 23.6209V26.5789H105.106V19.4971Z" fill="white"/>
<path d="M111.04 15.5629H113.225V22.2949L115.644 19.4971H118.325L115.513 22.6883L118.398 26.5789H115.644L113.254 22.9943H113.225V26.5789H111.04V15.5629Z" fill="white"/>
<path d="M119.165 19.4971H121.351V26.5789H119.165V19.4971ZM118.991 17.2677C118.991 16.918 119.112 16.6217 119.355 16.3789C119.607 16.1263 119.909 16 120.258 16C120.608 16 120.904 16.1263 121.147 16.3789C121.4 16.6217 121.526 16.918 121.526 17.2677C121.526 17.6174 121.4 17.9186 121.147 18.1711C120.904 18.414 120.608 18.5354 120.258 18.5354C119.909 18.5354 119.607 18.414 119.355 18.1711C119.112 17.9186 118.991 17.6174 118.991 17.2677Z" fill="white"/>
<path d="M122.921 19.4971H125.02V20.4589H125.049C125.117 20.3229 125.214 20.1869 125.34 20.0509C125.467 19.9149 125.617 19.7934 125.792 19.6866C125.967 19.5797 126.166 19.4923 126.389 19.4243C126.613 19.3563 126.856 19.3223 127.118 19.3223C127.672 19.3223 128.119 19.4097 128.459 19.5846C128.799 19.7497 129.061 19.9829 129.245 20.284C129.44 20.5851 129.571 20.9397 129.639 21.3477C129.707 21.7557 129.741 22.1977 129.741 22.6737V26.5789H127.555V23.1109C127.555 22.9069 127.545 22.698 127.526 22.4843C127.516 22.2609 127.473 22.0569 127.395 21.8723C127.327 21.6877 127.215 21.5371 127.06 21.4206C126.914 21.304 126.7 21.2457 126.419 21.2457C126.137 21.2457 125.909 21.2991 125.734 21.406C125.559 21.5031 125.423 21.6391 125.326 21.814C125.238 21.9791 125.18 22.1686 125.151 22.3823C125.122 22.596 125.107 22.8194 125.107 23.0526V26.5789H122.921V19.4971Z" fill="white"/>
<path d="M138.72 25.9814C138.72 27.322 138.38 28.3371 137.7 29.0269C137.03 29.7263 136.005 30.076 134.626 30.076C133.994 30.076 133.372 30.0031 132.76 29.8574C132.148 29.7214 131.585 29.4494 131.07 29.0414L132.28 27.2346C132.62 27.5163 132.974 27.7397 133.343 27.9049C133.722 28.07 134.135 28.1526 134.582 28.1526C135.252 28.1526 135.743 27.9874 136.054 27.6571C136.374 27.3366 136.534 26.9237 136.534 26.4186V25.7337H136.505C136.253 26.0737 135.937 26.3166 135.558 26.4623C135.189 26.5983 134.839 26.6663 134.509 26.6663C133.984 26.6663 133.508 26.5789 133.081 26.404C132.654 26.2194 132.284 25.9669 131.974 25.6463C131.672 25.316 131.439 24.9274 131.274 24.4806C131.109 24.0337 131.026 23.5431 131.026 23.0089C131.026 22.5426 131.099 22.086 131.245 21.6391C131.4 21.1923 131.614 20.7989 131.886 20.4589C132.168 20.1189 132.508 19.8469 132.906 19.6429C133.304 19.4291 133.756 19.3223 134.261 19.3223C134.572 19.3223 134.854 19.3563 135.106 19.4243C135.369 19.4923 135.602 19.5797 135.806 19.6866C136.01 19.7934 136.185 19.9149 136.33 20.0509C136.476 20.1771 136.593 20.3034 136.68 20.4297H136.709V19.4971H138.72V25.9814ZM133.212 22.9943C133.212 23.2274 133.256 23.4509 133.343 23.6646C133.431 23.8686 133.552 24.0531 133.708 24.2183C133.873 24.3737 134.057 24.5 134.261 24.5971C134.475 24.6943 134.708 24.7429 134.961 24.7429C135.204 24.7429 135.432 24.6943 135.646 24.5971C135.859 24.5 136.044 24.3737 136.199 24.2183C136.364 24.0531 136.491 23.8686 136.578 23.6646C136.666 23.4509 136.709 23.2274 136.709 22.9943C136.709 22.7611 136.666 22.5426 136.578 22.3386C136.491 22.1249 136.364 21.9403 136.199 21.7849C136.044 21.6197 135.859 21.4886 135.646 21.3914C135.432 21.2943 135.204 21.2457 134.961 21.2457C134.708 21.2457 134.475 21.2943 134.261 21.3914C134.057 21.4886 133.873 21.6197 133.708 21.7849C133.552 21.9403 133.431 22.1249 133.343 22.3386C133.256 22.5426 133.212 22.7611 133.212 22.9943Z" fill="white"/>
<path d="M91.5138 41.8503C90.8435 42.2 90.1441 42.4526 89.4155 42.608C88.6869 42.7634 87.9438 42.8411 87.1861 42.8411C86.3798 42.8411 85.6366 42.7149 84.9566 42.4623C84.2766 42.2097 83.6889 41.8503 83.1935 41.384C82.6981 40.908 82.3095 40.3349 82.0278 39.6646C81.7558 38.9943 81.6198 38.2463 81.6198 37.4206C81.6198 36.5949 81.7558 35.8469 82.0278 35.1766C82.3095 34.5063 82.6981 33.938 83.1935 33.4717C83.6889 32.9957 84.2766 32.6314 84.9566 32.3789C85.6366 32.1263 86.3798 32 87.1861 32C88.0118 32 88.7695 32.102 89.4592 32.306C90.1586 32.5003 90.7706 32.8403 91.2952 33.326L89.6924 35.0746C89.3815 34.754 89.0318 34.5111 88.6432 34.346C88.2546 34.1809 87.7689 34.0983 87.1861 34.0983C86.7004 34.0983 86.2584 34.1809 85.8601 34.346C85.4715 34.5111 85.1364 34.7443 84.8546 35.0454C84.5729 35.3369 84.3544 35.6866 84.1989 36.0946C84.0532 36.5026 83.9804 36.9446 83.9804 37.4206C83.9804 37.9063 84.0532 38.3531 84.1989 38.7611C84.3544 39.1594 84.5729 39.5091 84.8546 39.8103C85.1364 40.1017 85.4715 40.33 85.8601 40.4951C86.2584 40.6603 86.7004 40.7429 87.1861 40.7429C87.6815 40.7429 88.1089 40.6894 88.4684 40.5826C88.8278 40.466 89.1144 40.3494 89.3281 40.2329V38.5571H87.4775V36.4589H91.5138V41.8503Z" fill="white"/>
<path d="M93.2379 35.4971H95.4236V36.6337H95.4527C95.6859 36.1966 95.9627 35.8711 96.2833 35.6574C96.6039 35.434 97.007 35.3223 97.4927 35.3223C97.619 35.3223 97.7453 35.3271 97.8716 35.3369C97.9979 35.3466 98.1145 35.366 98.2213 35.3951V37.3914C98.0659 37.3429 97.9105 37.3089 97.755 37.2894C97.6093 37.2603 97.4539 37.2457 97.2887 37.2457C96.871 37.2457 96.5407 37.304 96.2979 37.4206C96.055 37.5371 95.8656 37.7023 95.7296 37.916C95.6033 38.12 95.5207 38.3677 95.4819 38.6591C95.443 38.9506 95.4236 39.2711 95.4236 39.6209V42.5789H93.2379V35.4971Z" fill="white"/>
<path d="M98.6533 39.038C98.6533 38.4746 98.7553 37.9646 98.9593 37.508C99.1633 37.0514 99.4402 36.6629 99.7899 36.3423C100.149 36.012 100.567 35.7594 101.043 35.5846C101.529 35.4097 102.044 35.3223 102.588 35.3223C103.132 35.3223 103.642 35.4097 104.118 35.5846C104.603 35.7594 105.021 36.012 105.371 36.3423C105.73 36.6629 106.012 37.0514 106.216 37.508C106.42 37.9646 106.522 38.4746 106.522 39.038C106.522 39.6014 106.42 40.1114 106.216 40.568C106.012 41.0246 105.73 41.418 105.371 41.7483C105.021 42.0689 104.603 42.3166 104.118 42.4914C103.642 42.6663 103.132 42.7537 102.588 42.7537C102.044 42.7537 101.529 42.6663 101.043 42.4914C100.567 42.3166 100.149 42.0689 99.7899 41.7483C99.4402 41.418 99.1633 41.0246 98.9593 40.568C98.7553 40.1114 98.6533 39.6014 98.6533 39.038ZM100.839 39.038C100.839 39.5723 100.99 40.0046 101.291 40.3349C101.602 40.6651 102.034 40.8303 102.588 40.8303C103.141 40.8303 103.569 40.6651 103.87 40.3349C104.181 40.0046 104.336 39.5723 104.336 39.038C104.336 38.5037 104.181 38.0714 103.87 37.7411C103.569 37.4109 103.141 37.2457 102.588 37.2457C102.034 37.2457 101.602 37.4109 101.291 37.7411C100.99 38.0714 100.839 38.5037 100.839 39.038Z" fill="white"/>
<path d="M114.629 42.5789H112.53V41.6171H112.501C112.424 41.7531 112.322 41.8891 112.195 42.0251C112.079 42.1611 111.933 42.2826 111.758 42.3894C111.583 42.4963 111.384 42.5837 111.161 42.6517C110.937 42.7197 110.694 42.7537 110.432 42.7537C109.878 42.7537 109.427 42.6711 109.077 42.506C108.737 42.3311 108.47 42.0931 108.276 41.792C108.091 41.4909 107.965 41.1363 107.897 40.7283C107.838 40.3203 107.809 39.8783 107.809 39.4023V35.4971H109.995V38.9651C109.995 39.1691 110 39.3829 110.01 39.6063C110.029 39.82 110.073 40.0191 110.141 40.2037C110.218 40.3883 110.33 40.5389 110.476 40.6554C110.631 40.772 110.85 40.8303 111.132 40.8303C111.413 40.8303 111.642 40.7817 111.816 40.6846C111.991 40.5777 112.122 40.4417 112.21 40.2766C112.307 40.1017 112.37 39.9074 112.399 39.6937C112.428 39.48 112.443 39.2566 112.443 39.0234V35.4971H114.629V42.5789Z" fill="white"/>
<path d="M116.381 35.4971H118.391V36.4297H118.421C118.508 36.3034 118.62 36.1771 118.756 36.0509C118.901 35.9149 119.067 35.7934 119.251 35.6866C119.445 35.5797 119.654 35.4923 119.878 35.4243C120.101 35.3563 120.339 35.3223 120.592 35.3223C121.116 35.3223 121.592 35.4146 122.02 35.5991C122.447 35.774 122.811 36.0266 123.113 36.3569C123.423 36.6774 123.661 37.0611 123.827 37.508C123.992 37.9549 124.074 38.4454 124.074 38.9797C124.074 39.4751 123.997 39.9511 123.841 40.4077C123.695 40.8546 123.482 41.2529 123.2 41.6026C122.928 41.9523 122.593 42.234 122.195 42.4477C121.796 42.6517 121.345 42.7537 120.839 42.7537C120.383 42.7537 119.955 42.6857 119.557 42.5497C119.169 42.404 118.848 42.1611 118.595 41.8211H118.566V45.9011H116.381V35.4971ZM118.391 39.038C118.391 39.5723 118.542 40.0046 118.843 40.3349C119.154 40.6651 119.586 40.8303 120.14 40.8303C120.694 40.8303 121.121 40.6651 121.422 40.3349C121.733 40.0046 121.889 39.5723 121.889 39.038C121.889 38.5037 121.733 38.0714 121.422 37.7411C121.121 37.4109 120.694 37.2457 120.14 37.2457C119.586 37.2457 119.154 37.4109 118.843 37.7411C118.542 38.0714 118.391 38.5037 118.391 39.038Z" fill="white"/>
<defs>
<clipPath id="clip0">
<rect width="68.0952" height="43.5498" fill="white" transform="translate(0 1.17566)"/>
</clipPath>
</defs>
</svg>
