<svg width="94" height="17" viewBox="0 0 94 17" fill="none" xmlns="http://www.w3.org/2000/svg">
<path d="M12.9919 7.42682C13.0021 8.32262 12.8484 9.21274 12.5384 10.0533C12.2559 10.819 11.8204 11.5191 11.2585 12.1111C10.6981 12.6921 10.0211 13.148 9.27194 13.4488C7.62269 14.0827 5.797 14.0827 4.14775 13.4488C3.40032 13.1472 2.7249 12.6914 2.1656 12.1111C1.60377 11.5191 1.16828 10.8189 0.885654 10.0533C0.281279 8.3544 0.281279 6.49909 0.885654 4.80022C1.16902 4.03366 1.60439 3.33227 2.1656 2.73817C2.72442 2.15508 3.3998 1.69623 4.14775 1.39152C5.79587 0.751572 7.62382 0.751572 9.27194 1.39152C10.0216 1.69542 10.6986 2.15433 11.2585 2.73817C11.8198 3.3322 12.2552 4.03361 12.5384 4.80022C12.8484 5.64081 13.002 6.53097 12.9919 7.42682V7.42682ZM11.223 7.42682C11.2334 6.71176 11.1253 5.99991 10.903 5.3202C10.7125 4.73755 10.4039 4.20046 9.99643 3.74252C9.60193 3.31059 9.1161 2.97204 8.57428 2.75152C7.37587 2.28925 6.04836 2.28925 4.84995 2.75152C4.30719 2.97265 3.82005 3.31106 3.42341 3.74252C3.01339 4.1994 2.70309 4.73672 2.5123 5.3202C2.08561 6.69065 2.08561 8.15844 2.5123 9.52888C2.70373 10.1108 3.01399 10.6465 3.42341 11.1022C3.81942 11.5333 4.30683 11.8704 4.84995 12.0888C6.04948 12.545 7.37475 12.545 8.57428 12.0888C9.11646 11.871 9.60256 11.5338 9.99643 11.1022C10.4033 10.6455 10.7119 10.1099 10.903 9.52888C11.1255 8.85079 11.2337 8.14041 11.223 7.42682H11.223Z" fill="currentColor"/>
<path d="M14.6538 16.8398V4.78691H15.596C15.6951 4.77951 15.7935 4.809 15.8723 4.86972C15.951 4.93044 16.0045 5.0181 16.0226 5.11588L16.156 6.18238C16.5238 5.72908 16.9711 5.34657 17.476 5.05357C17.9983 4.76211 18.5888 4.61487 19.1869 4.62697C19.6714 4.62028 20.1512 4.72201 20.5913 4.92471C21.0159 5.12648 21.385 5.42844 21.6669 5.8046C21.9849 6.23813 22.2171 6.72839 22.3512 7.24902C22.5203 7.89589 22.601 8.56266 22.5912 9.23117C22.5965 9.85886 22.5066 10.4837 22.3245 11.0845C22.1643 11.6225 21.9051 12.1259 21.5602 12.5688C21.2311 12.9843 20.8136 13.3213 20.338 13.5554C19.8299 13.8011 19.2713 13.9244 18.7069 13.9154C18.217 13.9288 17.7301 13.8347 17.2804 13.6398C16.8824 13.4534 16.527 13.1872 16.236 12.8577V16.8398H14.6538ZM18.6625 5.90692C18.1864 5.89642 17.7168 6.01958 17.3071 6.26242C16.8898 6.52653 16.5264 6.86732 16.236 7.26676V11.6222C16.4799 11.9737 16.8086 12.258 17.1916 12.4488C17.556 12.6126 17.9519 12.6945 18.3514 12.6888C19.1869 12.6888 19.8298 12.3896 20.2802 11.7911C20.7305 11.1926 20.9557 10.3393 20.9558 9.23117C20.9642 8.72311 20.9119 8.21587 20.8002 7.72018C20.7185 7.34936 20.5661 6.99776 20.3513 6.68461C20.1693 6.42605 19.9205 6.22176 19.6314 6.09353C19.3249 5.96475 18.9949 5.9012 18.6625 5.90692Z" fill="currentColor"/>
<path d="M27.5863 4.6447C28.0968 4.63946 28.6035 4.73145 29.0796 4.91576C29.5248 5.08933 29.9279 5.35603 30.2617 5.698C30.6065 6.05962 30.8715 6.48964 31.0394 6.96021C31.2342 7.50922 31.329 8.08869 31.3194 8.67116C31.3343 8.84117 31.3068 9.01223 31.2394 9.16901C31.204 9.21401 31.1576 9.24911 31.1047 9.2709C31.0517 9.29268 30.994 9.3004 30.9372 9.29332H24.9464C24.9477 9.79699 25.0256 10.2975 25.1774 10.7778C25.3005 11.1646 25.5 11.5228 25.7641 11.8311C26.0068 12.1082 26.3113 12.3244 26.6529 12.4622C27.0209 12.6059 27.4134 12.6768 27.8084 12.6709C28.1556 12.6779 28.5019 12.6315 28.835 12.5333C29.0902 12.4545 29.3384 12.3548 29.5773 12.2354C29.7557 12.1454 29.9293 12.0461 30.0972 11.9377C30.2017 11.8584 30.3266 11.8107 30.4573 11.8C30.5163 11.7975 30.575 11.81 30.6279 11.8364C30.6807 11.8629 30.726 11.9023 30.7594 11.951L31.2039 12.5287C31.0035 12.7701 30.7666 12.9785 30.5017 13.1465C30.2269 13.3225 29.9331 13.4671 29.6261 13.5776C29.3129 13.6909 28.9901 13.7757 28.6617 13.831C28.3358 13.8867 28.0058 13.9149 27.6751 13.9154C27.0869 13.9217 26.5029 13.8145 25.9552 13.5998C25.4395 13.3955 24.9751 13.0799 24.5953 12.6755C24.1959 12.2409 23.8916 11.7278 23.7019 11.1689C23.4781 10.5048 23.3699 9.80734 23.382 9.1067C23.3772 8.50789 23.4748 7.91265 23.6708 7.34679C23.8506 6.82353 24.1331 6.3415 24.5019 5.92905C24.8708 5.52381 25.3224 5.2025 25.8262 4.98686C26.3828 4.75179 26.9822 4.63525 27.5863 4.6447V4.6447ZM27.6218 5.80912C26.8574 5.80912 26.256 6.02985 25.8175 6.47131C25.3497 6.97601 25.0621 7.62139 24.9997 8.30671H29.8973C29.901 7.96456 29.85 7.62401 29.7461 7.29798C29.6533 7.00679 29.502 6.73759 29.3017 6.5068C29.1047 6.28366 28.8603 6.10752 28.5863 5.99135C28.2806 5.86521 27.9524 5.80318 27.6218 5.80912V5.80912Z" fill="currentColor"/>
<path d="M32.8926 13.791V4.78693H33.8348C33.9339 4.77953 34.0323 4.80902 34.111 4.86973C34.1898 4.93045 34.2433 5.01811 34.2614 5.11589L34.3858 6.09355C34.7615 5.67338 35.2046 5.31887 35.697 5.04465C36.2121 4.77017 36.789 4.63248 37.3725 4.64473C37.8187 4.63599 38.2619 4.71917 38.6745 4.88911C39.0386 5.04323 39.3613 5.28075 39.6167 5.58252C39.8784 5.90031 40.0734 6.26756 40.1901 6.66237C40.325 7.11511 40.3909 7.58558 40.3856 8.05797V13.791H38.8034V8.05796C38.8034 7.37648 38.6479 6.8476 38.3368 6.47134C38.0257 6.09511 37.5502 5.90698 36.9103 5.90693C36.4514 5.90449 35.9998 6.02085 35.5992 6.24469C35.1755 6.48425 34.7953 6.79379 34.4748 7.1602V13.791H32.8926Z" fill="currentColor"/>
<path d="M48.2608 12.5377C48.577 12.5391 48.893 12.5228 49.2073 12.4887C49.4815 12.4586 49.7533 12.4097 50.0207 12.3421C50.2657 12.2801 50.5063 12.2014 50.7406 12.1065C50.9657 12.0147 51.1909 11.9096 51.4161 11.7911V8.98226H49.4429C49.3935 8.98463 49.3441 8.97721 49.2976 8.96043C49.251 8.94365 49.2083 8.91784 49.1717 8.88448C49.1387 8.85393 49.1126 8.81677 49.095 8.77541C49.0774 8.73405 49.0687 8.68944 49.0695 8.6445V7.66683H52.9805V12.5554C52.6645 12.7842 52.33 12.9864 51.9805 13.1599C51.6235 13.3358 51.2517 13.4801 50.8695 13.591C50.4548 13.7107 50.0313 13.7969 49.6029 13.8487C49.1162 13.9071 48.6264 13.9353 48.1363 13.9332C47.2659 13.9435 46.402 13.7819 45.5941 13.4576C44.8456 13.1554 44.1677 12.7014 43.6032 12.1244C43.0341 11.5338 42.5911 10.8337 42.301 10.0666C41.9821 9.22352 41.8238 8.32818 41.8343 7.42684C41.8228 6.5204 41.978 5.61955 42.292 4.76917C42.575 3.99594 43.0217 3.29301 43.6016 2.70849C44.1816 2.12398 44.8809 1.67169 45.6519 1.38261C46.5137 1.05812 47.4288 0.898348 48.3496 0.911588C48.82 0.908921 49.2898 0.946093 49.754 1.02271C50.1647 1.09102 50.5679 1.19813 50.9583 1.34259C51.3168 1.47613 51.6608 1.64589 51.9849 1.84923C52.2974 2.04663 52.5919 2.27121 52.865 2.52036L52.376 3.3026C52.3384 3.37403 52.2822 3.434 52.2134 3.47623C52.1446 3.51845 52.0657 3.54137 51.9849 3.54258C51.8744 3.53791 51.7671 3.50419 51.6738 3.4448C51.5257 3.36192 51.3598 3.26116 51.1762 3.14252C50.9629 3.00903 50.7383 2.89453 50.505 2.80036C50.203 2.67915 49.8907 2.58543 49.5718 2.52036C49.1518 2.43759 48.7243 2.39887 48.2962 2.40483C47.6308 2.39537 46.9699 2.51459 46.3497 2.75593C45.7871 2.97765 45.2803 3.32055 44.8653 3.76028C44.4442 4.21616 44.1233 4.75512 43.9231 5.3425C43.6955 6.01346 43.5843 6.71839 43.5943 7.42683C43.5823 8.15972 43.6981 8.88909 43.9364 9.58226C44.1432 10.1781 44.4717 10.7245 44.9009 11.1866C45.3142 11.6242 45.8177 11.9669 46.3764 12.191C46.976 12.4279 47.6161 12.5457 48.2608 12.5377V12.5377Z" fill="currentColor"/>
<path d="M57.0512 1.96035C57.0523 2.1092 57.0205 2.25644 56.9579 2.39149C56.8963 2.52366 56.8121 2.64399 56.7089 2.74699C56.6055 2.85056 56.4834 2.93354 56.349 2.99152C56.2116 3.05094 56.0633 3.08119 55.9135 3.08035C55.7651 3.08153 55.6182 3.05125 55.4823 2.99152C55.2152 2.87234 55.0015 2.65864 54.8823 2.39149C54.8226 2.25567 54.7923 2.10872 54.7935 1.96035C54.7929 1.80919 54.8232 1.65951 54.8823 1.52041C54.9395 1.38425 55.0225 1.26048 55.1268 1.15596C55.2292 1.05325 55.3498 0.970387 55.4823 0.911583C55.6182 0.851804 55.7651 0.821477 55.9135 0.822601C56.0633 0.821811 56.2116 0.852111 56.349 0.911583C56.4833 0.96961 56.6055 1.05253 56.7089 1.15596C56.8135 1.26116 56.8979 1.38469 56.9579 1.52041C57.0199 1.65876 57.0517 1.80873 57.0512 1.96035V1.96035ZM56.6956 4.7869V13.7909H55.1135V4.7869L56.6956 4.7869Z" fill="currentColor"/>
<path d="M61.771 13.9332C61.06 13.9332 60.5134 13.7347 60.1312 13.3377C59.7489 12.9407 59.5577 12.3689 59.5578 11.6222V6.11128H58.4734C58.3857 6.11393 58.3002 6.08383 58.2335 6.02684C58.1988 5.99308 58.1721 5.95207 58.1552 5.90674C58.1383 5.86142 58.1316 5.81292 58.1357 5.76472V5.13362L59.6112 4.947L59.9756 2.16486C59.9851 2.08023 60.0264 2.00237 60.0912 1.94702C60.1608 1.88916 60.2494 1.85909 60.3399 1.86258H61.1399V4.96473H63.7176V6.11128H61.1399V11.5155C61.1275 11.6675 61.1455 11.8204 61.1928 11.9654C61.2401 12.1104 61.3158 12.2445 61.4155 12.3599C61.509 12.4519 61.6203 12.5238 61.7425 12.5712C61.8648 12.6185 61.9955 12.6404 62.1265 12.6355C62.273 12.6386 62.4189 12.616 62.5577 12.5688C62.6672 12.5299 62.7728 12.4808 62.8731 12.4222C62.9621 12.3688 63.0377 12.3199 63.0999 12.2754C63.1466 12.237 63.204 12.2138 63.2643 12.2089C63.3112 12.2127 63.3563 12.2287 63.3953 12.2551C63.4342 12.2816 63.4656 12.3177 63.4865 12.3599L63.9487 13.1154C63.6626 13.3785 63.3273 13.5825 62.9621 13.7155C62.5816 13.8597 62.178 13.9335 61.771 13.9332V13.9332Z" fill="currentColor"/>
<path d="M77.308 7.42682C77.3182 8.32262 77.1646 9.21274 76.8546 10.0533C76.5721 10.819 76.1366 11.5191 75.5747 12.1111C75.0143 12.6921 74.3373 13.148 73.5881 13.4488C71.9389 14.0827 70.1132 14.0827 68.4639 13.4488C67.7165 13.1472 67.0411 12.6914 66.4818 12.1111C65.9199 11.5191 65.4844 10.8189 65.2018 10.0533C64.5974 8.3544 64.5974 6.49909 65.2018 4.80022C65.4852 4.03366 65.9206 3.33227 66.4818 2.73817C67.0406 2.15508 67.716 1.69623 68.4639 1.39152C70.112 0.751572 71.94 0.751572 73.5881 1.39152C74.3378 1.69542 75.0148 2.15433 75.5747 2.73817C76.136 3.3322 76.5713 4.03361 76.8546 4.80022C77.1645 5.64081 77.3182 6.53097 77.308 7.42682ZM75.5392 7.42682C75.5496 6.71176 75.4415 5.99991 75.2192 5.3202C75.0287 4.73755 74.7201 4.20046 74.3126 3.74252C73.9181 3.31059 73.4323 2.97204 72.8904 2.75152C71.692 2.28925 70.3645 2.28925 69.1661 2.75152C68.6234 2.97265 68.1362 3.31106 67.7396 3.74252C67.3296 4.1994 67.0193 4.73672 66.8285 5.3202C66.4018 6.69065 66.4018 8.15844 66.8285 9.52888C67.0199 10.1108 67.3302 10.6465 67.7396 11.1022C68.1356 11.5333 68.623 11.8704 69.1661 12.0888C70.3657 12.545 71.6909 12.545 72.8904 12.0888C73.4326 11.871 73.9187 11.5338 74.3126 11.1022C74.7195 10.6455 75.0281 10.1099 75.2192 9.52888C75.4417 8.85079 75.5498 8.14041 75.5392 7.42682V7.42682Z" fill="currentColor"/>
<path d="M78.9697 16.8398V4.78691H79.9119C80.0111 4.77951 80.1095 4.809 80.1882 4.86972C80.2669 4.93044 80.3205 5.0181 80.3385 5.11588L80.4719 6.18238C80.8397 5.72908 81.287 5.34657 81.7919 5.05357C82.3143 4.76211 82.9048 4.61487 83.5028 4.62697C83.9873 4.62028 84.4672 4.72201 84.9072 4.92471C85.3318 5.12648 85.7009 5.42844 85.9828 5.8046C86.3008 6.23813 86.533 6.72838 86.6671 7.24902C86.8362 7.89589 86.9169 8.56266 86.9071 9.23117C86.9124 9.85886 86.8225 10.4837 86.6405 11.0845C86.4803 11.6225 86.221 12.1259 85.8761 12.5688C85.547 12.9843 85.1295 13.3213 84.6539 13.5554C84.1458 13.8011 83.5872 13.9244 83.0229 13.9154C82.5329 13.9288 82.046 13.8347 81.5963 13.6398C81.1983 13.4534 80.8429 13.1872 80.552 12.8577V16.8398H78.9697ZM82.9785 5.90692C82.5023 5.89642 82.0327 6.01958 81.623 6.26242C81.2057 6.52653 80.8423 6.86732 80.552 7.26676V11.6222C80.7959 11.9737 81.1245 12.258 81.5075 12.4488C81.8719 12.6126 82.2679 12.6945 82.6674 12.6888C83.5028 12.6888 84.1458 12.3896 84.5962 11.7911C85.0465 11.1926 85.2716 10.3393 85.2717 9.23117C85.2801 8.72311 85.2279 8.21587 85.1161 7.72018C85.0344 7.34936 84.882 6.99776 84.6673 6.68461C84.4852 6.42605 84.2364 6.22176 83.9473 6.09353C83.6408 5.96475 83.3109 5.9012 82.9785 5.90692V5.90692Z" fill="currentColor"/>
<path d="M93.4933 6.27138C93.4633 6.33233 93.4163 6.38325 93.3579 6.41797C93.2995 6.45268 93.2323 6.46969 93.1644 6.46694C93.0569 6.46126 92.9527 6.42755 92.8622 6.36916C92.7496 6.30402 92.6118 6.2314 92.4488 6.15132C92.261 6.06182 92.0664 5.9875 91.8667 5.92907C91.6064 5.85636 91.3369 5.82194 91.0667 5.82689C90.8229 5.82365 90.58 5.85811 90.3468 5.92907C90.1493 5.9891 89.9642 6.08393 89.8001 6.20908C89.6556 6.31978 89.5372 6.46092 89.4534 6.62248C89.3732 6.7808 89.332 6.95604 89.3335 7.13352C89.3263 7.34421 89.3976 7.55007 89.5334 7.71127C89.6824 7.87734 89.862 8.01312 90.0624 8.11119C90.302 8.23213 90.5519 8.33181 90.809 8.40907C91.0874 8.49493 91.3733 8.58675 91.6667 8.68453C91.9601 8.78231 92.246 8.89045 92.5245 9.00895C92.7929 9.12152 93.0442 9.27114 93.2711 9.45343C93.4909 9.63196 93.671 9.85447 93.7999 10.1067C93.9402 10.3957 94.0089 10.7143 94 11.0355C94.0038 11.4302 93.9283 11.8217 93.7777 12.1866C93.6307 12.5377 93.4057 12.8507 93.12 13.1021C92.8075 13.3726 92.4451 13.5794 92.0533 13.7109C91.5835 13.8668 91.0906 13.942 90.5957 13.9332C90.0124 13.9414 89.4329 13.8373 88.889 13.6265C88.4134 13.4429 87.9741 13.1766 87.5913 12.8398L87.9647 12.2354C88.0066 12.164 88.0644 12.1032 88.1336 12.0577C88.2118 12.0129 88.3012 11.9913 88.3913 11.9954C88.514 12.0012 88.632 12.0446 88.7291 12.1199C88.8476 12.2029 88.9913 12.2948 89.1602 12.3955C89.3547 12.5079 89.5602 12.6002 89.7734 12.671C90.0653 12.7616 90.3701 12.8036 90.6756 12.7954C90.95 12.8006 91.2234 12.76 91.4845 12.6755C91.6965 12.6063 91.8928 12.4961 92.0622 12.3511C92.2108 12.2223 92.3279 12.0611 92.4044 11.8799C92.479 11.6996 92.5168 11.5062 92.5155 11.3111C92.524 11.088 92.4532 10.8692 92.3156 10.6934C92.1691 10.52 91.9892 10.3779 91.7866 10.2756C91.5463 10.1515 91.2949 10.0503 91.0356 9.97341C90.7541 9.88755 90.4667 9.79715 90.1735 9.7022C89.8801 9.60755 89.5927 9.4994 89.3112 9.37778C89.0399 9.26266 88.7869 9.10847 88.5602 8.9201C88.3382 8.73298 88.158 8.50134 88.0313 8.24017C87.8899 7.93252 87.8215 7.5964 87.8313 7.25797C87.8309 6.91616 87.9036 6.57821 88.0446 6.26682C88.1892 5.94664 88.4015 5.6616 88.6669 5.43136C88.9622 5.17819 89.3031 4.9836 89.6712 4.85801C90.1089 4.70923 90.569 4.63707 91.0312 4.64471C91.576 4.63619 92.1174 4.73121 92.6267 4.92472C93.0797 5.10005 93.4947 5.36112 93.8488 5.69362L93.4933 6.27138Z" fill="currentColor"/>
</svg>
