<svg width="16" height="16" viewBox="0 0 16 16" fill="none" xmlns="http://www.w3.org/2000/svg">
<path fill-rule="evenodd" clip-rule="evenodd" d="M8 1C10.7614 1 13 3.14903 13 5.8C13 7.5526 12.1594 9.2728 10.7875 10.8364C9.775 11.9884 8.50063 13 8 13C7.49937 13 6.22438 11.989 5.2125 10.8364C3.84125 9.2728 3 7.5526 3 5.8C3 3.14903 5.23858 1 8 1ZM8 4C9.03553 4 9.875 4.86622 9.875 5.93476C9.875 7.0033 9.03553 7.86952 8 7.86952C6.96447 7.86952 6.125 7.0033 6.125 5.93476C6.125 4.86622 6.96447 4 8 4ZM7.375 5.93476C7.375 6.29094 7.65482 6.57968 8 6.57968C8.34518 6.57968 8.625 6.29094 8.625 5.93476C8.625 5.57858 8.34518 5.28984 8 5.28984C7.65482 5.28984 7.375 5.57858 7.375 5.93476Z" fill="currentColor"/>
</svg>
