<svg width="32" height="24" viewBox="0 0 32 24" fill="none" xmlns="http://www.w3.org/2000/svg">
<path fill-rule="evenodd" clip-rule="evenodd" d="M13.3333 0C5.18933 1.608 0 8.77867 0 15.6333C0 20.9267 3.71467 24 7.73467 24C11.2213 24 14.6667 21.604 14.6667 17.3613C14.6667 13.892 12.1267 11.0187 8.80533 10.496C9.09467 7.824 11.692 3.948 14.6453 2.83467L13.3333 0ZM30.6667 0C22.5227 1.608 17.3333 8.77867 17.3333 15.6333C17.3333 20.9267 21.048 24 25.068 24C28.5547 24 32 21.604 32 17.3613C32 13.892 29.46 11.0187 26.1387 10.496C26.428 7.824 29.0253 3.948 31.9787 2.83467L30.6667 0Z" fill="currentColor"/>
</svg>
