<svg width="32" height="32" viewBox="0 0 32 32" fill="none" xmlns="http://www.w3.org/2000/svg">
<g clip-path="url(#clip0)">
<path fill-rule="evenodd" clip-rule="evenodd" d="M32 16C32 24.8366 24.8366 32 16 32C7.16344 32 0 24.8366 0 16C0 7.16344 7.16344 0 16 0C24.8366 0 32 7.16344 32 16ZM26.2506 14.7446C26.5093 15.1136 26.6557 15.5496 26.6721 16C26.679 16.4409 26.5609 16.8747 26.3315 17.2512C26.1022 17.6278 25.771 17.9318 25.3761 18.128C25.3941 18.3623 25.3941 18.5977 25.3761 18.832C25.3761 22.416 21.2001 25.328 16.0481 25.328C10.8961 25.328 6.72013 22.416 6.72013 18.832C6.70212 18.5977 6.70212 18.3623 6.72013 18.128C6.41239 17.9866 6.13907 17.78 5.91911 17.5225C5.69916 17.265 5.53782 16.9627 5.4463 16.6366C5.35477 16.3106 5.33524 15.9685 5.38906 15.6341C5.44287 15.2998 5.56875 14.9811 5.75796 14.7002C5.94718 14.4193 6.1952 14.1829 6.48486 14.0074C6.77451 13.8319 7.09885 13.7215 7.43542 13.6838C7.77199 13.6461 8.11273 13.6821 8.43402 13.7892C8.75531 13.8963 9.04948 14.0719 9.29613 14.304C11.1398 13.0537 13.3087 12.3696 15.5361 12.336L16.7201 6.78401C16.7334 6.71974 16.7594 6.65874 16.7964 6.60456C16.8334 6.55037 16.8809 6.50408 16.9359 6.46836C16.991 6.43265 17.0526 6.40821 17.1172 6.39648C17.1818 6.38475 17.248 6.38595 17.3121 6.40001L21.2321 7.18401C21.4236 6.85511 21.726 6.60521 22.085 6.47917C22.4441 6.35314 22.8364 6.35921 23.1914 6.49631C23.5464 6.63341 23.8409 6.89255 24.022 7.22722C24.2032 7.56189 24.2591 7.95017 24.1798 8.32237C24.1005 8.69456 23.8911 9.0263 23.5892 9.25803C23.2874 9.48977 22.9128 9.60631 22.5327 9.58676C22.1527 9.56721 21.7921 9.41283 21.5156 9.15134C21.2391 8.88986 21.0648 8.53838 21.0241 8.16001L17.6001 7.44001L16.5601 12.432C18.7605 12.4792 20.9 13.1628 22.7201 14.4C23.0453 14.0879 23.4538 13.8766 23.8963 13.7914C24.3389 13.7063 24.7966 13.751 25.2143 13.9201C25.6321 14.0892 25.992 14.3756 26.2506 14.7446ZM10.9418 16.7111C10.766 16.9742 10.6721 17.2836 10.6721 17.6C10.6721 17.8101 10.7135 18.0182 10.7939 18.2123C10.8743 18.4064 10.9922 18.5828 11.1408 18.7314C11.2893 18.88 11.4657 18.9978 11.6598 19.0782C11.854 19.1586 12.062 19.2 12.2721 19.2C12.5886 19.2 12.8979 19.1062 13.161 18.9304C13.4242 18.7546 13.6292 18.5047 13.7503 18.2123C13.8714 17.9199 13.9031 17.5982 13.8414 17.2879C13.7797 16.9775 13.6273 16.6924 13.4035 16.4686C13.1797 16.2449 12.8946 16.0925 12.5843 16.0308C12.2739 15.969 11.9522 16.0007 11.6598 16.1218C11.3675 16.2429 11.1176 16.448 10.9418 16.7111ZM16.0161 23.232C17.4363 23.2909 18.833 22.8555 19.9681 22V22.064C20.0102 22.023 20.0437 21.9742 20.0668 21.9203C20.09 21.8663 20.1023 21.8084 20.103 21.7497C20.1038 21.691 20.0929 21.6327 20.0712 21.5782C20.0494 21.5237 20.0171 21.474 19.9761 21.432C19.9352 21.39 19.8863 21.3564 19.8324 21.3333C19.7784 21.3102 19.7205 21.2979 19.6618 21.2971C19.5433 21.2956 19.429 21.3413 19.3441 21.424C18.3731 22.1206 17.1934 22.4649 16.0001 22.4C14.8083 22.4533 13.6341 22.0976 12.6721 21.392C12.5892 21.324 12.484 21.2892 12.3769 21.2945C12.2698 21.2997 12.1684 21.3446 12.0926 21.4205C12.0168 21.4963 11.9718 21.5976 11.9666 21.7048C11.9613 21.8119 11.9961 21.9171 12.0641 22C13.1993 22.8555 14.596 23.2909 16.0161 23.232ZM18.7912 18.9944C19.0543 19.1702 19.3637 19.264 19.6801 19.264L19.6641 19.328C19.8811 19.3304 20.0963 19.2885 20.2965 19.2051C20.4968 19.1217 20.6781 18.9984 20.8292 18.8428C20.9804 18.6872 21.0983 18.5024 21.1758 18.2997C21.2533 18.0971 21.2888 17.8808 21.2801 17.664C21.2801 17.3476 21.1863 17.0382 21.0105 16.7751C20.8347 16.512 20.5848 16.3069 20.2924 16.1858C20.0001 16.0647 19.6784 16.033 19.368 16.0948C19.0576 16.1565 18.7725 16.3089 18.5488 16.5326C18.325 16.7564 18.1726 17.0415 18.1109 17.3519C18.0491 17.6622 18.0808 17.9839 18.2019 18.2763C18.323 18.5687 18.5281 18.8186 18.7912 18.9944Z" fill="currentColor"/>
</g>
<defs>
<clipPath id="clip0">
<rect width="32" height="32" fill="currentColor"/>
</clipPath>
</defs>
</svg>
