<svg width="32" height="32" viewBox="0 0 32 32" fill="none" xmlns="http://www.w3.org/2000/svg">
<path fill-rule="evenodd" clip-rule="evenodd" d="M32 16C32 24.8366 24.8366 32 16 32C7.16344 32 0 24.8366 0 16C0 7.16344 7.16344 0 16 0C24.8366 0 32 7.16344 32 16ZM11.2634 8.09894C11.2634 9.2597 12.2016 10.1979 13.3623 10.1979H15.4612V8.09894C15.4612 6.93818 14.5231 6.00003 13.3623 6.00003C12.2016 6.00003 11.2634 6.93818 11.2634 8.09894ZM10.2137 18.6252C10.2137 19.786 9.27554 20.7242 8.11478 20.7242C6.95402 20.7242 6.01587 19.786 6.01587 18.6252C6.01587 17.4645 6.95402 16.5263 8.11478 16.5263H10.2137V18.6252ZM11.2634 18.6253C11.2634 17.4646 12.2016 16.5264 13.3623 16.5264C14.5231 16.5264 15.4612 17.4646 15.4612 18.6253V23.8726C15.4612 25.0334 14.5231 25.9715 13.3623 25.9715C12.2016 25.9715 11.2634 25.0334 11.2634 23.8726V18.6253ZM13.3621 11.2632C14.5228 11.2632 15.461 12.2013 15.461 13.3621C15.461 14.5229 14.5228 15.461 13.3621 15.461H8.09891C6.93815 15.461 6 14.5229 6 13.3621C6 12.2013 6.93815 11.2632 8.09891 11.2632H13.3621ZM23.8728 11.2632C22.7121 11.2632 21.7739 12.2013 21.7739 13.3621V15.461H23.8728C25.0336 15.461 25.9717 14.5229 25.9717 13.3621C25.9717 12.2013 25.0336 11.2632 23.8728 11.2632ZM20.7242 13.3621C20.7242 14.5229 19.786 15.461 18.6253 15.461C17.4645 15.461 16.5264 14.5229 16.5264 13.3621V8.09894C16.5264 6.93818 17.4645 6.00003 18.6253 6.00003C19.786 6.00003 20.7242 6.93818 20.7242 8.09894V13.3621ZM20.7242 23.8726C20.7242 22.7118 19.786 21.7737 18.6253 21.7737H16.5264V23.8726C16.5264 25.0334 17.4645 25.9715 18.6253 25.9715C19.786 25.9715 20.7242 25.0334 20.7242 23.8726ZM18.6253 20.7242C17.4645 20.7242 16.5264 19.786 16.5264 18.6252C16.5264 17.4645 17.4645 16.5263 18.6253 16.5263H23.8885C25.0492 16.5263 25.9874 17.4645 25.9874 18.6252C25.9874 19.786 25.0492 20.7242 23.8885 20.7242H18.6253Z" fill="currentColor"/>
</svg>
