<svg width="32" height="32" viewBox="0 0 32 32" fill="none" xmlns="http://www.w3.org/2000/svg">
<path fill-rule="evenodd" clip-rule="evenodd" d="M32 16C32 24.8366 24.8366 32 16 32C7.16344 32 0 24.8366 0 16C0 7.16344 7.16344 0 16 0C24.8366 0 32 7.16344 32 16ZM23.5182 11.4135C24.3191 11.299 25.0057 11.1846 25.6922 10.8413C25.2345 11.6423 24.548 12.3288 23.747 12.7865C23.9759 18.1644 20.0855 24 13.1057 24C11.0461 24 9.10087 23.3135 7.38452 22.2837C9.32971 22.5125 11.3893 21.9404 12.7624 20.9106C11.0461 20.9106 9.67298 19.7663 9.21529 18.2788C9.78741 18.3933 10.3595 18.2788 10.9316 18.1644C9.21529 17.7067 7.95664 16.1048 7.95664 14.3885C8.52875 14.6173 9.10087 14.8462 9.67298 14.8462C8.07106 13.7019 7.49894 11.5279 8.52875 9.81154C10.4739 12.1 13.2201 13.5875 16.3095 13.7019C15.7374 11.4135 17.5682 9.125 19.9711 9.125C21.0009 9.125 22.0307 9.58269 22.7172 10.2692C23.6326 10.0404 24.4336 9.81154 25.1201 9.35385C24.8913 10.2692 24.3191 10.9558 23.5182 11.4135Z" fill="currentColor"/>
</svg>
