<svg xmlns="http://www.w3.org/2000/svg"
 width="1000.000000pt" height="1000.000000pt" viewBox="0 0 1000.000000 1000.000000"
 preserveAspectRatio="xMidYMid meet">

<g transform="translate(0.000000,1000.000000) scale(0.100000,-0.100000)"
fill="currentColor" stroke="none">
<path d="M4685 9979 c-1070 -67 -2066 -468 -2905 -1168 -148 -123 -468 -443
-591 -591 -636 -763 -1018 -1637 -1139 -2605 -71 -563 -40 -1176 86 -1730 174
-765 532 -1481 1053 -2105 123 -148 443 -468 591 -591 763 -636 1637 -1018
2605 -1139 563 -71 1176 -40 1730 86 765 174 1481 532 2105 1053 148 123 468
443 591 591 462 553 794 1174 983 1836 341 1198 232 2458 -309 3569 -248 509
-550 931 -960 1340 -265 266 -479 441 -780 640 -901 596 -1976 882 -3060 814z
m-144 -3121 c429 -574 784 -1043 789 -1043 5 0 417 441 916 980 498 539 933
1008 966 1043 l60 62 264 0 c145 0 264 -4 264 -8 0 -4 -501 -549 -1114 -1211
l-1114 -1203 761 -1017 c418 -559 984 -1316 1259 -1682 274 -367 498 -669 498
-673 0 -3 -413 -6 -918 -6 l-918 0 -849 1135 c-467 624 -852 1135 -855 1135
-3 0 -477 -511 -1055 -1135 l-1049 -1135 -269 0 c-148 0 -267 4 -265 8 2 5
541 591 1200 1301 l1196 1293 -532 711 c-293 392 -828 1107 -1189 1590 -361
483 -657 882 -657 887 0 6 343 10 915 10 l916 0 780 -1042z"/>
<path d="M2739 7473 c6 -10 842 -1129 1859 -2488 l1848 -2470 422 -3 422 -2
-448 598 c-246 329 -1084 1450 -1862 2490 l-1414 1892 -419 0 c-395 0 -417 -1
-408 -17z"/>
</g>
</svg>